G04 #@! TF.FileFunction,Soldermask,Bot*
%FSLAX46Y46*%
G04 Gerber Fmt 4.6, Leading zero omitted, Abs format (unit mm)*
G04 Created by KiCad (PCBNEW 4.0.7) date 06/30/19 18:27:44*
%MOMM*%
%LPD*%
G01*
G04 APERTURE LIST*
%ADD10C,0.100000*%
%ADD11C,1.840000*%
%ADD12C,2.000000*%
%ADD13O,2.000000X2.000000*%
%ADD14C,2.800000*%
%ADD15O,2.800000X2.800000*%
%ADD16R,2.000000X2.000000*%
%ADD17R,2.400000X2.400000*%
%ADD18C,2.400000*%
%ADD19R,2.600000X2.600000*%
%ADD20O,2.600000X2.600000*%
%ADD21R,3.400000X3.400000*%
%ADD22C,3.400000*%
%ADD23R,2.100000X2.100000*%
%ADD24O,2.100000X2.100000*%
%ADD25C,1.400000*%
%ADD26R,1.400000X1.400000*%
%ADD27C,2.200000*%
%ADD28C,5.400000*%
%ADD29R,2.200000X2.200000*%
%ADD30O,2.200000X2.200000*%
%ADD31C,1.900000*%
%ADD32C,2.500000*%
%ADD33C,4.464000*%
G04 APERTURE END LIST*
D10*
D11*
X52374800Y-95300800D03*
X52374800Y-92760800D03*
X52374800Y-90220800D03*
D12*
X50038000Y-118719600D03*
D13*
X50038000Y-106019600D03*
D12*
X114782600Y-94284800D03*
D13*
X107162600Y-94284800D03*
D12*
X81813400Y-60350400D03*
X86813400Y-60350400D03*
D14*
X70916800Y-96443800D03*
D15*
X58216800Y-96443800D03*
D16*
X106616500Y-82257900D03*
D12*
X104116500Y-82257900D03*
X119126000Y-85598000D03*
X116626000Y-85598000D03*
X106540300Y-87261700D03*
X104040300Y-87261700D03*
X49784000Y-124968000D03*
X49784000Y-122468000D03*
X53835300Y-55473600D03*
X51335300Y-55473600D03*
X123215400Y-124447300D03*
X123215400Y-126947300D03*
D16*
X103860600Y-69077840D03*
D12*
X101360600Y-69077840D03*
X56134000Y-67614800D03*
X53634000Y-67614800D03*
D16*
X103748840Y-76123800D03*
D12*
X98748840Y-76123800D03*
D17*
X117348000Y-47650400D03*
D18*
X122348000Y-47650400D03*
D12*
X48133000Y-93624400D03*
X48133000Y-91124400D03*
D16*
X106794300Y-108623100D03*
D12*
X109294300Y-108623100D03*
D16*
X117576600Y-96443800D03*
D13*
X117576600Y-88823800D03*
D16*
X120129300Y-96431100D03*
D13*
X120129300Y-88811100D03*
D19*
X91404440Y-87172800D03*
D20*
X91404440Y-79552800D03*
D19*
X95783400Y-97053400D03*
D20*
X95783400Y-89433400D03*
D19*
X103901240Y-112547400D03*
D20*
X96281240Y-112547400D03*
D21*
X64643000Y-119443500D03*
D22*
X69723000Y-119443500D03*
D21*
X80411320Y-134223760D03*
D22*
X75331320Y-134223760D03*
D21*
X94678500Y-48006000D03*
D22*
X99758500Y-48006000D03*
D23*
X74777600Y-108966000D03*
D24*
X74777600Y-106426000D03*
X74777600Y-103886000D03*
D12*
X81076800Y-110972600D03*
D13*
X81076800Y-100812600D03*
D25*
X102946200Y-93497400D03*
X101676200Y-92227400D03*
D26*
X104216200Y-92227400D03*
D12*
X114909600Y-90855800D03*
D13*
X107289600Y-90855800D03*
D14*
X58140600Y-100939600D03*
D15*
X70840600Y-100939600D03*
D14*
X70789800Y-105359200D03*
D15*
X58089800Y-105359200D03*
D12*
X49784000Y-138176000D03*
D13*
X49784000Y-128016000D03*
D12*
X129971800Y-120243600D03*
D13*
X129971800Y-130403600D03*
D12*
X111760000Y-109982000D03*
D13*
X119380000Y-109982000D03*
D14*
X109042200Y-116550440D03*
D15*
X96342200Y-116550440D03*
D14*
X95214440Y-125262640D03*
D15*
X95214440Y-137962640D03*
D12*
X120142000Y-104902000D03*
D13*
X112522000Y-104902000D03*
D12*
X103713280Y-108351320D03*
D13*
X96093280Y-108351320D03*
D27*
X84396600Y-97780000D03*
X74236600Y-97780000D03*
X79316600Y-97780000D03*
X79316600Y-90180000D03*
X84396600Y-90180000D03*
X74236600Y-90180000D03*
X92016600Y-97780000D03*
X92016600Y-90180000D03*
D11*
X53289200Y-63246000D03*
X55829200Y-63246000D03*
X58369200Y-63246000D03*
X127355600Y-94894400D03*
X127355600Y-97434400D03*
X127355600Y-99974400D03*
D28*
X45000000Y-135000000D03*
X135000000Y-135000000D03*
X135000000Y-45000000D03*
X45000000Y-45000000D03*
D12*
X61315600Y-109474000D03*
X66315600Y-109474000D03*
X98907600Y-120446800D03*
X103907600Y-120446800D03*
X98643440Y-97805240D03*
X103643440Y-97805240D03*
X114452400Y-97459800D03*
X111952400Y-97459800D03*
D18*
X113233200Y-68503800D03*
D12*
X109982000Y-72390000D03*
D13*
X109982000Y-80010000D03*
D12*
X52832000Y-128016000D03*
D13*
X52832000Y-138176000D03*
D12*
X126847600Y-130378200D03*
D13*
X126847600Y-120218200D03*
D12*
X58102500Y-112966500D03*
D13*
X58102500Y-123126500D03*
D12*
X107797600Y-120446800D03*
D13*
X117957600Y-120446800D03*
D29*
X120650000Y-101092000D03*
D27*
X118110000Y-101092000D03*
D29*
X45000000Y-128000000D03*
D30*
X45000000Y-125460000D03*
X45000000Y-122920000D03*
D29*
X135000000Y-122000000D03*
D30*
X135000000Y-124540000D03*
X135000000Y-127080000D03*
D23*
X100685600Y-87045800D03*
D24*
X100685600Y-84505800D03*
D29*
X96316800Y-104510840D03*
D27*
X98856800Y-104510840D03*
D12*
X131521200Y-94869000D03*
X131521200Y-92369000D03*
D18*
X108280200Y-68389500D03*
D29*
X45000000Y-114000000D03*
D30*
X45000000Y-111460000D03*
X45000000Y-108920000D03*
D29*
X135000000Y-108000000D03*
D30*
X135000000Y-110540000D03*
X135000000Y-113080000D03*
D29*
X45000000Y-86000000D03*
D30*
X45000000Y-83460000D03*
X45000000Y-80920000D03*
D29*
X135000000Y-80000000D03*
D30*
X135000000Y-82540000D03*
X135000000Y-85080000D03*
D29*
X135000000Y-52000000D03*
D30*
X135000000Y-54540000D03*
X135000000Y-57080000D03*
D31*
X84277200Y-53543240D03*
X81737200Y-53543240D03*
D32*
X79197200Y-48463240D03*
X89357200Y-48463240D03*
D31*
X63207900Y-125770600D03*
X65747900Y-125770600D03*
D32*
X68287900Y-130850600D03*
X58127900Y-130850600D03*
D12*
X114554000Y-55626000D03*
X119554000Y-55626000D03*
X98983800Y-60238640D03*
X98983800Y-65238640D03*
X102260400Y-60198000D03*
X102260400Y-65198000D03*
X114554000Y-58928000D03*
X119554000Y-58928000D03*
X81813400Y-57327800D03*
X86813400Y-57327800D03*
X81686400Y-63525400D03*
X86686400Y-63525400D03*
X81635600Y-66395600D03*
X86635600Y-66395600D03*
D14*
X90769440Y-125262640D03*
D15*
X90769440Y-137962640D03*
D14*
X86410800Y-125171200D03*
D15*
X86410800Y-137871200D03*
D22*
X92710000Y-116865400D03*
X92710000Y-101625400D03*
X86360000Y-116865400D03*
X86360000Y-101625400D03*
X111506000Y-63373000D03*
X111506000Y-48133000D03*
X105156000Y-63373000D03*
X105156000Y-48133000D03*
D12*
X129476500Y-116459000D03*
D13*
X129476500Y-103759000D03*
D12*
X52832000Y-124968000D03*
X52832000Y-122468000D03*
X120142000Y-124460000D03*
X120142000Y-126960000D03*
D33*
X64429640Y-91023440D03*
X69916040Y-91099640D03*
X57520840Y-78587600D03*
X58943240Y-91023440D03*
D12*
X53848000Y-118872000D03*
D13*
X53848000Y-106172000D03*
D12*
X125920500Y-116509800D03*
D13*
X125920500Y-103809800D03*
D12*
X131419600Y-100965000D03*
X131419600Y-98465000D03*
X50139600Y-102971600D03*
X50139600Y-100471600D03*
X126238000Y-90678000D03*
X128738000Y-90678000D03*
X53898800Y-85852000D03*
X53898800Y-83352000D03*
X131318000Y-82804000D03*
X131318000Y-85304000D03*
X44577000Y-91059000D03*
X44577000Y-93559000D03*
X129057400Y-78689200D03*
X126557400Y-78689200D03*
X49479200Y-74777600D03*
X46979200Y-74777600D03*
X123215400Y-78409800D03*
X120715400Y-78409800D03*
X52527200Y-71170800D03*
X52527200Y-73670800D03*
X132044440Y-61579760D03*
X132044440Y-64079760D03*
X44196000Y-64516000D03*
X44196000Y-67016000D03*
X126365000Y-57785000D03*
X123865000Y-57785000D03*
X118745000Y-66167000D03*
X118745000Y-68667000D03*
D11*
X123103640Y-68564760D03*
X123103640Y-71104760D03*
X123103640Y-73644760D03*
X48310800Y-70459600D03*
X48310800Y-67919600D03*
X48310800Y-65379600D03*
X127574040Y-62920880D03*
X125034040Y-62920880D03*
X122494040Y-62920880D03*
D12*
X134467600Y-94767400D03*
D13*
X134467600Y-102387400D03*
D12*
X46736000Y-96266000D03*
D13*
X46736000Y-103886000D03*
D12*
X127071120Y-75438000D03*
D13*
X134691120Y-75438000D03*
D12*
X49123600Y-77622400D03*
D13*
X49123600Y-85242400D03*
D12*
X129794000Y-58089800D03*
D13*
X129794000Y-50469800D03*
D29*
X45000000Y-58000000D03*
D30*
X45000000Y-55460000D03*
X45000000Y-52920000D03*
D12*
X56286400Y-58801000D03*
D13*
X48666400Y-58801000D03*
D12*
X119359680Y-117043200D03*
D13*
X111739680Y-117043200D03*
D23*
X110236000Y-85090000D03*
D24*
X112776000Y-85090000D03*
D16*
X113106200Y-72199500D03*
D13*
X113106200Y-79819500D03*
D23*
X102616000Y-101346000D03*
D24*
X102616000Y-103886000D03*
D14*
X108193840Y-125349000D03*
D15*
X108193840Y-138049000D03*
D14*
X103926640Y-125349000D03*
D15*
X103926640Y-138049000D03*
D14*
X99390200Y-125349000D03*
D15*
X99390200Y-138049000D03*
D12*
X113411000Y-101473000D03*
D13*
X105791000Y-101473000D03*
D22*
X95148400Y-54000400D03*
X60858400Y-54635400D03*
X95275400Y-85623400D03*
X60858400Y-85115400D03*
D25*
X117411500Y-135699500D03*
X118681500Y-134429500D03*
D26*
X118681500Y-136969500D03*
D12*
X112458500Y-130619500D03*
D13*
X112458500Y-138239500D03*
M02*
