G04 #@! TF.FileFunction,Copper,L2,Bot,Signal*
%FSLAX46Y46*%
G04 Gerber Fmt 4.6, Leading zero omitted, Abs format (unit mm)*
G04 Created by KiCad (PCBNEW 4.0.7) date 06/28/19 09:36:13*
%MOMM*%
%LPD*%
G01*
G04 APERTURE LIST*
%ADD10C,0.100000*%
%ADD11C,1.600000*%
%ADD12O,1.600000X1.600000*%
%ADD13C,2.400000*%
%ADD14O,2.400000X2.400000*%
%ADD15R,1.600000X1.600000*%
%ADD16R,2.000000X2.000000*%
%ADD17C,2.000000*%
%ADD18R,2.200000X2.200000*%
%ADD19O,2.200000X2.200000*%
%ADD20R,3.000000X3.000000*%
%ADD21C,3.000000*%
%ADD22R,1.700000X1.700000*%
%ADD23O,1.700000X1.700000*%
%ADD24C,1.000000*%
%ADD25R,1.000000X1.000000*%
%ADD26C,1.800000*%
%ADD27C,1.440000*%
%ADD28C,5.000000*%
%ADD29R,1.800000X1.800000*%
%ADD30O,1.800000X1.800000*%
%ADD31C,1.500000*%
%ADD32C,0.600000*%
%ADD33C,1.500000*%
%ADD34C,0.500000*%
G04 APERTURE END LIST*
D10*
D11*
X54371240Y-99075240D03*
D12*
X54371240Y-86375240D03*
D11*
X114782600Y-94284800D03*
D12*
X107162600Y-94284800D03*
D11*
X121986040Y-116677440D03*
D12*
X111826040Y-116677440D03*
D11*
X81813400Y-60350400D03*
X86813400Y-60350400D03*
D13*
X70916800Y-96443800D03*
D14*
X58216800Y-96443800D03*
D11*
X127038100Y-103390700D03*
X127038100Y-98390700D03*
D15*
X107099100Y-82029300D03*
D11*
X104599100Y-82029300D03*
X113550700Y-86283800D03*
X111050700Y-86283800D03*
X106819700Y-87287100D03*
X104319700Y-87287100D03*
X50038000Y-122377200D03*
X52538000Y-122377200D03*
X61468000Y-75996800D03*
X61468000Y-73496800D03*
X123215400Y-124447300D03*
X123215400Y-126947300D03*
X49900840Y-106451400D03*
X49900840Y-101451400D03*
X130149600Y-103479600D03*
X130149600Y-98479600D03*
D15*
X103860600Y-69077840D03*
D11*
X101360600Y-69077840D03*
X54295040Y-70713600D03*
X51795040Y-70713600D03*
D15*
X103748840Y-76123800D03*
D11*
X98748840Y-76123800D03*
D16*
X117348000Y-47650400D03*
D17*
X122348000Y-47650400D03*
D11*
X120218200Y-63754000D03*
X120218200Y-66254000D03*
D15*
X107121960Y-107457240D03*
D11*
X109621960Y-107457240D03*
D15*
X117576600Y-96443800D03*
D12*
X117576600Y-88823800D03*
D15*
X120751600Y-96443800D03*
D12*
X120751600Y-88823800D03*
D18*
X95173800Y-76774040D03*
D19*
X95173800Y-69154040D03*
D18*
X95783400Y-97053400D03*
D19*
X95783400Y-89433400D03*
D18*
X103901240Y-112547400D03*
D19*
X96281240Y-112547400D03*
D20*
X64084200Y-119456200D03*
D21*
X69164200Y-119456200D03*
D20*
X74828400Y-125399800D03*
D21*
X79908400Y-125399800D03*
D20*
X94792800Y-48717200D03*
D21*
X99872800Y-48717200D03*
D22*
X74777600Y-108966000D03*
D23*
X74777600Y-106426000D03*
X74777600Y-103886000D03*
D22*
X59474100Y-67551300D03*
D23*
X59474100Y-65011300D03*
D22*
X125577600Y-58978800D03*
D23*
X128117600Y-58978800D03*
D22*
X102590600Y-102666800D03*
D23*
X105130600Y-102666800D03*
X107670600Y-102666800D03*
D11*
X81076800Y-110972600D03*
D12*
X81076800Y-100812600D03*
D11*
X49834800Y-57950100D03*
D12*
X49834800Y-68110100D03*
D11*
X129286000Y-72669400D03*
D12*
X129286000Y-62509400D03*
D24*
X102946200Y-93497400D03*
X101676200Y-92227400D03*
D25*
X104216200Y-92227400D03*
D24*
X112623600Y-102412800D03*
X111353600Y-101142800D03*
D25*
X113893600Y-101142800D03*
D11*
X114909600Y-90855800D03*
D12*
X107289600Y-90855800D03*
D13*
X58140600Y-100939600D03*
D14*
X70840600Y-100939600D03*
D13*
X70789800Y-105359200D03*
D14*
X58089800Y-105359200D03*
D11*
X49504600Y-135674100D03*
D12*
X49504600Y-125514100D03*
D11*
X129921000Y-118912640D03*
D12*
X129921000Y-129072640D03*
D11*
X113131600Y-112953800D03*
D12*
X113131600Y-105333800D03*
D13*
X109042200Y-116550440D03*
D14*
X96342200Y-116550440D03*
D13*
X116014500Y-124396500D03*
D14*
X116014500Y-137096500D03*
D11*
X116560600Y-112953800D03*
D12*
X116560600Y-105333800D03*
D11*
X103713280Y-108351320D03*
D12*
X96093280Y-108351320D03*
D26*
X84396600Y-97780000D03*
X74236600Y-97780000D03*
X79316600Y-97780000D03*
X79316600Y-90180000D03*
X84396600Y-90180000D03*
X74236600Y-90180000D03*
X92016600Y-97780000D03*
X92016600Y-90180000D03*
D27*
X51739800Y-74904600D03*
X54279800Y-74904600D03*
X56819800Y-74904600D03*
X120535700Y-70688200D03*
X120535700Y-73228200D03*
X120535700Y-75768200D03*
D28*
X45000000Y-135000000D03*
X135000000Y-135000000D03*
X135000000Y-45000000D03*
X45000000Y-45000000D03*
D11*
X61315600Y-109474000D03*
X66315600Y-109474000D03*
X98907600Y-120446800D03*
X103907600Y-120446800D03*
X100177600Y-97840800D03*
X105177600Y-97840800D03*
X113157000Y-97510600D03*
X110657000Y-97510600D03*
D17*
X112509300Y-78447900D03*
X118376700Y-85750400D03*
D11*
X117386100Y-82486500D03*
D12*
X109766100Y-82486500D03*
D11*
X52832000Y-125450600D03*
D12*
X52832000Y-135610600D03*
D11*
X126568200Y-129138680D03*
D12*
X126568200Y-118978680D03*
D11*
X57658000Y-113004600D03*
D12*
X57658000Y-123164600D03*
D11*
X107797600Y-120446800D03*
D12*
X117957600Y-120446800D03*
D29*
X119354600Y-101777800D03*
D26*
X116814600Y-101777800D03*
D29*
X45000000Y-128000000D03*
D30*
X45000000Y-125460000D03*
X45000000Y-122920000D03*
D29*
X135000000Y-122000000D03*
D30*
X135000000Y-124540000D03*
X135000000Y-127080000D03*
D29*
X126000000Y-134000000D03*
D30*
X123460000Y-134000000D03*
X120920000Y-134000000D03*
D22*
X108686600Y-75326240D03*
D23*
X108686600Y-72786240D03*
D22*
X100685600Y-87045800D03*
D23*
X100685600Y-84505800D03*
D29*
X96316800Y-104510840D03*
D26*
X98856800Y-104510840D03*
D11*
X53030120Y-106451400D03*
X53030120Y-101451400D03*
X126085600Y-76504800D03*
X128585600Y-76504800D03*
D17*
X112821720Y-73202800D03*
D29*
X45000000Y-114000000D03*
D30*
X45000000Y-111460000D03*
X45000000Y-108920000D03*
D29*
X135000000Y-108000000D03*
D30*
X135000000Y-110540000D03*
X135000000Y-113080000D03*
D29*
X45000000Y-100000000D03*
D30*
X45000000Y-97460000D03*
X45000000Y-94920000D03*
D29*
X135000000Y-94000000D03*
D30*
X135000000Y-96540000D03*
X135000000Y-99080000D03*
D29*
X45000000Y-86000000D03*
D30*
X45000000Y-83460000D03*
X45000000Y-80920000D03*
D29*
X135000000Y-80000000D03*
D30*
X135000000Y-82540000D03*
X135000000Y-85080000D03*
D29*
X45000000Y-72000000D03*
D30*
X45000000Y-69460000D03*
X45000000Y-66920000D03*
D29*
X135000000Y-66000000D03*
D30*
X135000000Y-68540000D03*
X135000000Y-71080000D03*
D29*
X135000000Y-52000000D03*
D30*
X135000000Y-54540000D03*
X135000000Y-57080000D03*
D29*
X45000000Y-58000000D03*
D30*
X45000000Y-55460000D03*
X45000000Y-52920000D03*
D11*
X54978300Y-57873900D03*
D12*
X54978300Y-68033900D03*
D11*
X125399800Y-72593200D03*
D12*
X125399800Y-62433200D03*
D31*
X84277200Y-53543240D03*
X81737200Y-53543240D03*
X63207900Y-125770600D03*
X65747900Y-125770600D03*
D11*
X115671600Y-55829200D03*
X120671600Y-55829200D03*
X98983800Y-60238640D03*
X98983800Y-65238640D03*
X102260400Y-60198000D03*
X102260400Y-65198000D03*
X115570000Y-59309000D03*
X120570000Y-59309000D03*
X81813400Y-57327800D03*
X86813400Y-57327800D03*
X81686400Y-63525400D03*
X86686400Y-63525400D03*
X81635600Y-66395600D03*
X86635600Y-66395600D03*
D29*
X111000000Y-134000000D03*
D30*
X108460000Y-134000000D03*
X105920000Y-134000000D03*
D29*
X96000000Y-134000000D03*
D30*
X93460000Y-134000000D03*
X90920000Y-134000000D03*
D29*
X81000000Y-134000000D03*
D30*
X78460000Y-134000000D03*
X75920000Y-134000000D03*
D13*
X100914200Y-125730000D03*
D14*
X100914200Y-138430000D03*
D13*
X86334600Y-125730000D03*
D14*
X86334600Y-138430000D03*
D21*
X92710000Y-116865400D03*
X92710000Y-101625400D03*
X86360000Y-116865400D03*
X86360000Y-101625400D03*
X111506000Y-63373000D03*
X111506000Y-48133000D03*
X105156000Y-63373000D03*
X105156000Y-48133000D03*
X93599000Y-60198000D03*
X65024000Y-60198000D03*
X93599000Y-85598000D03*
X64389000Y-85598000D03*
D11*
X126682500Y-96100900D03*
D12*
X126682500Y-83400900D03*
D11*
X50292000Y-99019360D03*
D12*
X50292000Y-86319360D03*
D11*
X130149600Y-96100900D03*
D12*
X130149600Y-83400900D03*
D11*
X130302000Y-105664000D03*
D12*
X130302000Y-115824000D03*
D11*
X50180240Y-108798360D03*
D12*
X50180240Y-118958360D03*
D32*
X109463840Y-123560840D03*
X107101640Y-127254000D03*
X113385600Y-123494800D03*
X106949240Y-130342640D03*
X98983800Y-130342640D03*
X87670640Y-130378200D03*
X83896200Y-130495040D03*
X118719600Y-130225800D03*
X113157000Y-130190240D03*
D33*
X64084200Y-119456200D02*
X63703200Y-122148600D01*
X63703200Y-122148600D02*
X63207900Y-125770600D01*
D34*
X89230200Y-100253800D02*
X89636600Y-100253800D01*
X98653600Y-99364800D02*
X100177600Y-97840800D01*
X90525600Y-99364800D02*
X98653600Y-99364800D01*
X89636600Y-100253800D02*
X90525600Y-99364800D01*
D33*
X64084200Y-119456200D02*
X64770000Y-117703600D01*
X87772400Y-97780000D02*
X84396600Y-97780000D01*
X89230200Y-99237800D02*
X87772400Y-97780000D01*
X89230200Y-119075200D02*
X89230200Y-100253800D01*
X89230200Y-100253800D02*
X89230200Y-99237800D01*
X87833200Y-119761000D02*
X89230200Y-119075200D01*
X84531200Y-119761000D02*
X87833200Y-119761000D01*
X80365600Y-115849400D02*
X84531200Y-119761000D01*
X67030600Y-115874800D02*
X80365600Y-115849400D01*
X64770000Y-117703600D02*
X67030600Y-115874800D01*
X64084200Y-119456200D02*
X64096900Y-119456200D01*
D34*
X105177600Y-97840800D02*
X107162600Y-97840800D01*
X107162600Y-97840800D02*
X107162600Y-94284800D01*
X111050700Y-86283800D02*
X111050700Y-86590500D01*
X111050700Y-86590500D02*
X112166400Y-87706200D01*
X119176800Y-87249000D02*
X120751600Y-88823800D01*
X115544600Y-87249000D02*
X119176800Y-87249000D01*
X115087400Y-87706200D02*
X115544600Y-87249000D01*
X112166400Y-87706200D02*
X115087400Y-87706200D01*
X111050700Y-86283800D02*
X108064300Y-86309200D01*
X108064300Y-86309200D02*
X106819700Y-87287100D01*
X107099100Y-82029300D02*
X108724700Y-82029300D01*
X108724700Y-82029300D02*
X109766100Y-82486500D01*
X106819700Y-87287100D02*
X107149900Y-82080100D01*
X107149900Y-82080100D02*
X107099100Y-82029300D01*
X102946200Y-93497400D02*
X102946200Y-91046300D01*
X102946200Y-91046300D02*
X106438700Y-87287100D01*
X106438700Y-87287100D02*
X106819700Y-87287100D01*
X108686600Y-72786240D02*
X107619800Y-72783700D01*
X106908600Y-79719800D02*
X104599100Y-82029300D01*
X106908600Y-73494900D02*
X106908600Y-79719800D01*
X107619800Y-72783700D02*
X106908600Y-73494900D01*
X104599100Y-82029300D02*
X104268900Y-87236300D01*
X104268900Y-87236300D02*
X104319700Y-87287100D01*
X101676200Y-92227400D02*
X101676200Y-90197300D01*
X101676200Y-90197300D02*
X104319700Y-87287100D01*
X95783400Y-97053400D02*
X95783400Y-96012000D01*
X95783400Y-96012000D02*
X99568000Y-92227400D01*
X99568000Y-92227400D02*
X101676200Y-92227400D01*
X92016600Y-97780000D02*
X92491400Y-97780000D01*
X92491400Y-97780000D02*
X93218000Y-97053400D01*
X93218000Y-97053400D02*
X95783400Y-97053400D01*
D33*
X57658000Y-113004600D02*
X58674000Y-110947200D01*
X58674000Y-110947200D02*
X61315600Y-109474000D01*
X66315600Y-109474000D02*
X69926200Y-109474000D01*
X82880200Y-113385600D02*
X86360000Y-116865400D01*
X77851000Y-113385600D02*
X82880200Y-113385600D01*
X77012800Y-112547400D02*
X77851000Y-113385600D01*
X72999600Y-112547400D02*
X77012800Y-112547400D01*
X69926200Y-109474000D02*
X72999600Y-112547400D01*
X92710000Y-116865400D02*
X92710000Y-119811800D01*
X93345000Y-120446800D02*
X98907600Y-120446800D01*
X92710000Y-119811800D02*
X93345000Y-120446800D01*
X92710000Y-116865400D02*
X93294200Y-116865400D01*
X103907600Y-120446800D02*
X107543600Y-120700800D01*
X107543600Y-120700800D02*
X107797600Y-120446800D01*
D34*
X56819800Y-74904600D02*
X56819800Y-74955400D01*
X56819800Y-74955400D02*
X57861200Y-75996800D01*
X57861200Y-75996800D02*
X61468000Y-75996800D01*
X55778400Y-114122200D02*
X55778400Y-95600520D01*
X62255400Y-127000000D02*
X61645800Y-126390400D01*
X61645800Y-126390400D02*
X61645800Y-120777000D01*
X61645800Y-120777000D02*
X55778400Y-114122200D01*
X65049400Y-127000000D02*
X62255400Y-127000000D01*
X61468000Y-89910920D02*
X61468000Y-75996800D01*
X55778400Y-95600520D02*
X61468000Y-89910920D01*
X93078300Y-123228100D02*
X107810300Y-123228100D01*
X109829600Y-121208800D02*
X109829600Y-117337840D01*
X107810300Y-123228100D02*
X109829600Y-121208800D01*
X109829600Y-117337840D02*
X109042200Y-116550440D01*
X103713280Y-108351320D02*
X106227880Y-108351320D01*
X106227880Y-108351320D02*
X107121960Y-107457240D01*
X111826040Y-116677440D02*
X109169200Y-116677440D01*
X109169200Y-116677440D02*
X109042200Y-116550440D01*
X107802680Y-112374680D02*
X104073960Y-112374680D01*
X104073960Y-112374680D02*
X103901240Y-112547400D01*
X109042200Y-116550440D02*
X109042200Y-113614200D01*
X109042200Y-113614200D02*
X107802680Y-112374680D01*
X93167200Y-123317000D02*
X93078300Y-123228100D01*
X93078300Y-123228100D02*
X91135200Y-121285000D01*
X91135200Y-121285000D02*
X83997800Y-121285000D01*
X83997800Y-121285000D02*
X83337400Y-120624600D01*
X83337400Y-120624600D02*
X71836280Y-120589040D01*
X71836280Y-120589040D02*
X67792600Y-127000000D01*
X67792600Y-127000000D02*
X65049400Y-127000000D01*
X103713280Y-108351320D02*
X103713280Y-111648240D01*
X103713280Y-111648240D02*
X104104440Y-112039400D01*
X65049400Y-127000000D02*
X64973200Y-127076200D01*
X49900840Y-106451400D02*
X50124360Y-108742480D01*
X50124360Y-108742480D02*
X50180240Y-108798360D01*
X49900840Y-106451400D02*
X53030120Y-106451400D01*
X130149600Y-103479600D02*
X130149600Y-105511600D01*
X130149600Y-105511600D02*
X130302000Y-105664000D01*
X127038100Y-103390700D02*
X130060700Y-103390700D01*
X130060700Y-103390700D02*
X130149600Y-103479600D01*
X135000000Y-127080000D02*
X136394200Y-127080000D01*
X136394200Y-127080000D02*
X137464800Y-126009400D01*
X137464800Y-126009400D02*
X137464800Y-120365520D01*
X137464800Y-120365520D02*
X134447280Y-117348000D01*
X134447280Y-117348000D02*
X127629920Y-117348000D01*
X127629920Y-117348000D02*
X124696220Y-114414300D01*
X124696220Y-114414300D02*
X124696220Y-103713280D01*
X124696220Y-103713280D02*
X126955138Y-100328079D01*
X126955138Y-100328079D02*
X127038100Y-98390700D01*
X126682500Y-96100900D02*
X130149600Y-96100900D01*
X130149600Y-98479600D02*
X127127000Y-98479600D01*
X127127000Y-98479600D02*
X127038100Y-98390700D01*
X130149600Y-96100900D02*
X130149600Y-98479600D01*
X127038100Y-98390700D02*
X127038100Y-96456500D01*
X127038100Y-96456500D02*
X126682500Y-96100900D01*
D33*
X123964700Y-87198200D02*
X123063000Y-83705700D01*
X123063000Y-83705700D02*
X119750840Y-80279240D01*
X102260400Y-60198000D02*
X102260400Y-60477400D01*
X102260400Y-60477400D02*
X105156000Y-63373000D01*
X98983800Y-60238640D02*
X102219760Y-60238640D01*
X102219760Y-60238640D02*
X102260400Y-60198000D01*
X107200700Y-66230500D02*
X106707940Y-66230500D01*
X106707940Y-66230500D02*
X103860600Y-69077840D01*
X103860600Y-69077840D02*
X103860600Y-76012040D01*
X103860600Y-76012040D02*
X103748840Y-76123800D01*
X122567700Y-102146100D02*
X122852180Y-102146100D01*
X115661440Y-118379240D02*
X116621560Y-115895120D01*
X116621560Y-115895120D02*
X118633240Y-115895120D01*
X118633240Y-115895120D02*
X120030240Y-114498120D01*
X120030240Y-114498120D02*
X120030240Y-105389680D01*
X120030240Y-105389680D02*
X122567700Y-102146100D01*
X115661440Y-123687840D02*
X115661440Y-118379240D01*
X122852180Y-102146100D02*
X123863100Y-100736400D01*
X123863100Y-100736400D02*
X123964700Y-87198200D01*
X104470200Y-62687200D02*
X105156000Y-63373000D01*
X105156000Y-63373000D02*
X105156000Y-64185800D01*
X105156000Y-64185800D02*
X107200700Y-66230500D01*
X107200700Y-66230500D02*
X107289600Y-66319400D01*
X107289600Y-66319400D02*
X116078000Y-66319400D01*
X116078000Y-59817000D02*
X116078000Y-66319400D01*
X116078000Y-66319400D02*
X116078000Y-67767200D01*
X116078000Y-67767200D02*
X116078000Y-71932800D01*
X119750840Y-80279240D02*
X117795040Y-80279240D01*
X117795040Y-80279240D02*
X116078000Y-78562200D01*
X116078000Y-78562200D02*
X116078000Y-71932800D01*
X116078000Y-59817000D02*
X115570000Y-59309000D01*
X117348000Y-47650400D02*
X111988600Y-47650400D01*
X111988600Y-47650400D02*
X111506000Y-48133000D01*
X117348000Y-47650400D02*
X117348000Y-54152800D01*
X117348000Y-54152800D02*
X115671600Y-55829200D01*
X111506000Y-48133000D02*
X112699800Y-48133000D01*
X115570000Y-59309000D02*
X115570000Y-55930800D01*
X115570000Y-55930800D02*
X115671600Y-55829200D01*
X100914200Y-125730000D02*
X114681000Y-125730000D01*
X114681000Y-125730000D02*
X116014500Y-124396500D01*
X86334600Y-125730000D02*
X100914200Y-125730000D01*
X64363600Y-128346200D02*
X69021960Y-128346200D01*
X55626000Y-120065800D02*
X57581800Y-120065800D01*
X57581800Y-120065800D02*
X60020200Y-122504200D01*
X60020200Y-122504200D02*
X60401200Y-128219200D01*
X60401200Y-128219200D02*
X64363600Y-128346200D01*
X53314600Y-122377200D02*
X55626000Y-120065800D01*
X83210400Y-122605800D02*
X86334600Y-125730000D01*
X72527160Y-122605800D02*
X83210400Y-122605800D01*
X71694040Y-123438920D02*
X72527160Y-122605800D01*
X71694040Y-125674120D02*
X71694040Y-123438920D01*
X69021960Y-128346200D02*
X71694040Y-125674120D01*
X126000000Y-134000000D02*
X126000000Y-129706880D01*
X126000000Y-129706880D02*
X126568200Y-129138680D01*
X116014500Y-124396500D02*
X116116100Y-124142500D01*
X116116100Y-124142500D02*
X115661440Y-123687840D01*
X116014500Y-124396500D02*
X116192300Y-124142500D01*
X123215400Y-126947300D02*
X124376820Y-126947300D01*
X124376820Y-126947300D02*
X126568200Y-129138680D01*
X116014500Y-124396500D02*
X116014500Y-125069600D01*
X116014500Y-125069600D02*
X117892200Y-126947300D01*
X117892200Y-126947300D02*
X123215400Y-126947300D01*
X52538000Y-122377200D02*
X53314600Y-122377200D01*
X52538000Y-122377200D02*
X52538000Y-125156600D01*
X52538000Y-125156600D02*
X52832000Y-125450600D01*
X111000000Y-134000000D02*
X112598440Y-134000000D01*
X112598440Y-134000000D02*
X116014500Y-130583940D01*
X116014500Y-130583940D02*
X116014500Y-124396500D01*
X96000000Y-134000000D02*
X97846120Y-134000000D01*
X97846120Y-134000000D02*
X101086920Y-130759200D01*
X101086920Y-130759200D02*
X100914200Y-125730000D01*
X81000000Y-134000000D02*
X83596720Y-134000000D01*
X85887560Y-131709160D02*
X86217760Y-126634240D01*
X86217760Y-126634240D02*
X86334600Y-125730000D01*
X83596720Y-134000000D02*
X85887560Y-131709160D01*
X126568200Y-129138680D02*
X126568200Y-127853440D01*
X129881640Y-124540000D02*
X135000000Y-124540000D01*
X126568200Y-127853440D02*
X129881640Y-124540000D01*
X52832000Y-125450600D02*
X52832000Y-126403100D01*
X46453300Y-125460000D02*
X45000000Y-125460000D01*
X48768000Y-127774700D02*
X46453300Y-125460000D01*
X51460400Y-127774700D02*
X48768000Y-127774700D01*
X52832000Y-126403100D02*
X51460400Y-127774700D01*
D34*
X108686600Y-75326240D02*
X108737400Y-78752700D01*
X113309400Y-83324700D02*
X113309400Y-86042500D01*
X108737400Y-78752700D02*
X113309400Y-83324700D01*
X113309400Y-86042500D02*
X113550700Y-86283800D01*
X117576600Y-96443800D02*
X117576600Y-97002600D01*
X117576600Y-97002600D02*
X118986300Y-98412300D01*
X121640600Y-85750400D02*
X118376700Y-85750400D01*
X122453400Y-87096600D02*
X121640600Y-85750400D01*
X122453400Y-97040700D02*
X122453400Y-87096600D01*
X121767600Y-98412300D02*
X122453400Y-97040700D01*
X118986300Y-98412300D02*
X121767600Y-98412300D01*
X113550700Y-86283800D02*
X113550700Y-86220300D01*
X113550700Y-86220300D02*
X114020600Y-85750400D01*
X114020600Y-85750400D02*
X118376700Y-85750400D01*
X104216200Y-92227400D02*
X107873800Y-92227400D01*
X107873800Y-92227400D02*
X113157000Y-97510600D01*
X113157000Y-97510600D02*
X113372900Y-97510600D01*
X113372900Y-97510600D02*
X114439700Y-96443800D01*
X114439700Y-96443800D02*
X117576600Y-96443800D01*
X114909600Y-90855800D02*
X115671600Y-90855800D01*
X115671600Y-90855800D02*
X117576600Y-92760800D01*
X117576600Y-92760800D02*
X117576600Y-96443800D01*
X113893600Y-101142800D02*
X113893600Y-100126800D01*
X113893600Y-100126800D02*
X117576600Y-96443800D01*
X113893600Y-101142800D02*
X113893600Y-101396800D01*
X113893600Y-101396800D02*
X114909600Y-102412800D01*
X110822740Y-120850660D02*
X110822740Y-122201940D01*
X113131600Y-118541800D02*
X110822740Y-120850660D01*
X113131600Y-115239800D02*
X113131600Y-118541800D01*
X111607600Y-113715800D02*
X113131600Y-115239800D01*
X111607600Y-111175800D02*
X111607600Y-113715800D01*
X114909600Y-107873800D02*
X111607600Y-111175800D01*
X114909600Y-102412800D02*
X114909600Y-107873800D01*
X102590600Y-102666800D02*
X102590600Y-102031800D01*
X102590600Y-102031800D02*
X104241600Y-100380800D01*
X104241600Y-100380800D02*
X108686600Y-100380800D01*
X108686600Y-100380800D02*
X109448600Y-99618800D01*
X109448600Y-99618800D02*
X111226600Y-99618800D01*
X111226600Y-99618800D02*
X112369600Y-99618800D01*
X112369600Y-99618800D02*
X113893600Y-101142800D01*
X105920000Y-134000000D02*
X105920000Y-128435640D01*
X109463840Y-123560840D02*
X110822740Y-122201940D01*
X110822740Y-122201940D02*
X110911640Y-122113040D01*
X105920000Y-128435640D02*
X107101640Y-127254000D01*
D33*
X74828400Y-125399800D02*
X74828400Y-132908400D01*
X74828400Y-132908400D02*
X75920000Y-134000000D01*
X105920000Y-134000000D02*
X105920000Y-137883360D01*
X105920000Y-137883360D02*
X107066080Y-139029440D01*
X90920000Y-134000000D02*
X90920000Y-138037000D01*
X90920000Y-138037000D02*
X91912440Y-139029440D01*
X75920000Y-134000000D02*
X75920000Y-137667400D01*
X83947000Y-138917680D02*
X86334600Y-138430000D01*
X77170280Y-138917680D02*
X83947000Y-138917680D01*
X75920000Y-137667400D02*
X77170280Y-138917680D01*
X100914200Y-138430000D02*
X100914200Y-139141200D01*
X100914200Y-139141200D02*
X99745800Y-139029440D01*
X86334600Y-138430000D02*
X86334600Y-139252960D01*
X86334600Y-139252960D02*
X87116920Y-139029440D01*
X87116920Y-139029440D02*
X91912440Y-139029440D01*
X91912440Y-139029440D02*
X99745800Y-139029440D01*
X99745800Y-139029440D02*
X107066080Y-139029440D01*
X107066080Y-139029440D02*
X114081560Y-139029440D01*
X114081560Y-139029440D02*
X116014500Y-137096500D01*
X120920000Y-134000000D02*
X119111000Y-134000000D01*
X119111000Y-134000000D02*
X116014500Y-137096500D01*
X120365520Y-133445520D02*
X120920000Y-134000000D01*
X84277200Y-53543240D02*
X91490760Y-53543240D01*
X94792800Y-50241200D02*
X94792800Y-48717200D01*
X91490760Y-53543240D02*
X94792800Y-50241200D01*
X84277200Y-53543240D02*
X84277200Y-90060600D01*
X84277200Y-90060600D02*
X84396600Y-90180000D01*
X64389000Y-85598000D02*
X68676520Y-87396320D01*
X68676520Y-87396320D02*
X74236600Y-90180000D01*
X70789800Y-105359200D02*
X71074280Y-105359200D01*
X71074280Y-105359200D02*
X73538080Y-108966000D01*
X73538080Y-108966000D02*
X74777600Y-108966000D01*
X58140600Y-100939600D02*
X59309000Y-100914200D01*
X63779400Y-105384600D02*
X70789800Y-105359200D01*
X59309000Y-100914200D02*
X63779400Y-105384600D01*
X74777600Y-106426000D02*
X80568800Y-106426000D01*
X81076800Y-106934000D02*
X81076800Y-110972600D01*
X80568800Y-106426000D02*
X81076800Y-106934000D01*
X74777600Y-103886000D02*
X74777600Y-98321000D01*
X74777600Y-98321000D02*
X74236600Y-97780000D01*
X70916800Y-96443800D02*
X72900400Y-96443800D01*
X72900400Y-96443800D02*
X74236600Y-97780000D01*
X70840600Y-100939600D02*
X70967600Y-96494600D01*
X70967600Y-96494600D02*
X70916800Y-96443800D01*
X81076800Y-100812600D02*
X85547200Y-100812600D01*
X85547200Y-100812600D02*
X86360000Y-101625400D01*
D34*
X49834800Y-57950100D02*
X54902100Y-57950100D01*
X54902100Y-57950100D02*
X54978300Y-57873900D01*
D33*
X125399800Y-72593200D02*
X129209800Y-72593200D01*
X129209800Y-72593200D02*
X129286000Y-72669400D01*
D34*
X112623600Y-102412800D02*
X112623600Y-103809800D01*
X112623600Y-103809800D02*
X113131600Y-105333800D01*
D33*
X79316600Y-97780000D02*
X79316600Y-90180000D01*
X105156000Y-48133000D02*
X104419400Y-48133000D01*
X104419400Y-48133000D02*
X100457000Y-42799000D01*
X100457000Y-42799000D02*
X92075000Y-42926000D01*
X92075000Y-42926000D02*
X78155800Y-52705000D01*
X78155800Y-52705000D02*
X78155800Y-60350400D01*
X65024000Y-60198000D02*
X65024000Y-58839100D01*
X65024000Y-58839100D02*
X64429640Y-55895240D01*
X43931840Y-55895240D02*
X43931840Y-55460000D01*
X64429640Y-55895240D02*
X43931840Y-55895240D01*
X81813400Y-60350400D02*
X81813400Y-57327800D01*
X81813400Y-60350400D02*
X78155800Y-60350400D01*
X78155800Y-60350400D02*
X65138300Y-60083700D01*
X81813400Y-60350400D02*
X81813400Y-63398400D01*
X81686400Y-63525400D02*
X81686400Y-66344800D01*
X81686400Y-66344800D02*
X81635600Y-66395600D01*
X81813400Y-63398400D02*
X81686400Y-63525400D01*
X65138300Y-60083700D02*
X65024000Y-60198000D01*
X45084500Y-83375500D02*
X45000000Y-83460000D01*
X45000000Y-97460000D02*
X41732000Y-97460000D01*
X41732000Y-97460000D02*
X41236900Y-97955100D01*
X45000000Y-83460000D02*
X42612900Y-83460000D01*
X42612900Y-83460000D02*
X41236900Y-84836000D01*
X45000000Y-69460000D02*
X43582700Y-69460000D01*
X43582700Y-69460000D02*
X41236900Y-71805800D01*
X45000000Y-111460000D02*
X41448000Y-111460000D01*
X42723700Y-55460000D02*
X43931840Y-55460000D01*
X43931840Y-55460000D02*
X45000000Y-55460000D01*
X41236900Y-56946800D02*
X42723700Y-55460000D01*
X41236900Y-111248900D02*
X41236900Y-97955100D01*
X41236900Y-97955100D02*
X41236900Y-84836000D01*
X41236900Y-84836000D02*
X41236900Y-71805800D01*
X41236900Y-71805800D02*
X41236900Y-56946800D01*
X41448000Y-111460000D02*
X41236900Y-111248900D01*
D34*
X112509300Y-78447900D02*
X112763300Y-78447900D01*
X112763300Y-78447900D02*
X117386100Y-82486500D01*
X116814600Y-101777800D02*
X116814600Y-105079800D01*
X116814600Y-105079800D02*
X116560600Y-105333800D01*
X111353600Y-101142800D02*
X110718600Y-101142800D01*
X109194600Y-102666800D02*
X107670600Y-102666800D01*
X110718600Y-101142800D02*
X109194600Y-102666800D01*
X96316800Y-104510840D02*
X95326200Y-104510840D01*
X93878400Y-114086640D02*
X96342200Y-116550440D01*
X93878400Y-105958640D02*
X93878400Y-114086640D01*
X95326200Y-104510840D02*
X93878400Y-105958640D01*
X50292000Y-99019360D02*
X50292000Y-101060240D01*
X50292000Y-101060240D02*
X49900840Y-101451400D01*
X54371240Y-99075240D02*
X50347880Y-99075240D01*
X50347880Y-99075240D02*
X50292000Y-99019360D01*
X53030120Y-101451400D02*
X53030120Y-100416360D01*
X53030120Y-100416360D02*
X54371240Y-99075240D01*
X49900840Y-101451400D02*
X53030120Y-101451400D01*
X45000000Y-122920000D02*
X45000000Y-122919400D01*
X45000000Y-122919400D02*
X47386240Y-120533160D01*
X54706520Y-103127800D02*
X53030120Y-101451400D01*
X54706520Y-117292120D02*
X54706520Y-103127800D01*
X51465480Y-120533160D02*
X54706520Y-117292120D01*
X47386240Y-120533160D02*
X51465480Y-120533160D01*
X54978300Y-68033900D02*
X54978300Y-70030340D01*
X54978300Y-70030340D02*
X54295040Y-70713600D01*
X59474100Y-67551300D02*
X55460900Y-67551300D01*
X55460900Y-67551300D02*
X54978300Y-68033900D01*
X54295040Y-70713600D02*
X54295040Y-74889360D01*
X54295040Y-74889360D02*
X54279800Y-74904600D01*
D33*
X124853700Y-63855600D02*
X123774200Y-70129400D01*
X123774200Y-70129400D02*
X120535700Y-73228200D01*
X120218200Y-63754000D02*
X124853700Y-63855600D01*
X124853700Y-63855600D02*
X125399800Y-62433200D01*
X125577600Y-58978800D02*
X125577600Y-61633100D01*
X125577600Y-61633100D02*
X125399800Y-62433200D01*
X135000000Y-82540000D02*
X137581800Y-82540000D01*
X137581800Y-82540000D02*
X138785600Y-83743800D01*
X138785600Y-55930800D02*
X138785600Y-51104800D01*
X122275600Y-42976800D02*
X122275600Y-42926000D01*
X126339600Y-42976800D02*
X122275600Y-42976800D01*
X132689600Y-49326800D02*
X126339600Y-42976800D01*
X137007600Y-49326800D02*
X132689600Y-49326800D01*
X138785600Y-51104800D02*
X137007600Y-49326800D01*
X135000000Y-96540000D02*
X137230800Y-96540000D01*
X137230800Y-96540000D02*
X138785600Y-98094800D01*
X135000000Y-68540000D02*
X136662800Y-68540000D01*
X136662800Y-68540000D02*
X138785600Y-70662800D01*
X135000000Y-110540000D02*
X136754400Y-110540000D01*
X138785600Y-108508800D02*
X138785600Y-98094800D01*
X138785600Y-98094800D02*
X138785600Y-83743800D01*
X138785600Y-83743800D02*
X138785600Y-84124800D01*
X138785600Y-84124800D02*
X138785600Y-70662800D01*
X136754400Y-110540000D02*
X138785600Y-108508800D01*
X137394800Y-54540000D02*
X135000000Y-54540000D01*
X138785600Y-70662800D02*
X138785600Y-55930800D01*
X138785600Y-55930800D02*
X137394800Y-54540000D01*
X106616500Y-58102500D02*
X106616500Y-57975500D01*
X106616500Y-57975500D02*
X107950000Y-56642000D01*
X107950000Y-56642000D02*
X107950000Y-45339000D01*
X107950000Y-45339000D02*
X110363000Y-42926000D01*
X110363000Y-42926000D02*
X122275600Y-42926000D01*
X122275600Y-42926000D02*
X123164600Y-42926000D01*
X111506000Y-63373000D02*
X111506000Y-62992000D01*
X111506000Y-62992000D02*
X106616500Y-58102500D01*
X106616500Y-58102500D02*
X106553000Y-58039000D01*
X106553000Y-58039000D02*
X96164400Y-58105040D01*
X96164400Y-58105040D02*
X93599000Y-60198000D01*
X86686400Y-63525400D02*
X86686400Y-67110600D01*
X86686400Y-67110600D02*
X86635600Y-67059800D01*
X86635600Y-67059800D02*
X86635600Y-66395600D01*
X93599000Y-60198000D02*
X86337140Y-60464700D01*
X86813400Y-57327800D02*
X86813400Y-60350400D01*
X86813400Y-60350400D02*
X86813400Y-63398400D01*
X86337140Y-60464700D02*
X86451440Y-60350400D01*
X86451440Y-60350400D02*
X86813400Y-60350400D01*
X86813400Y-63398400D02*
X86686400Y-63525400D01*
D34*
X117576600Y-88823800D02*
X117576600Y-91236800D01*
X120751600Y-94411800D02*
X120751600Y-96443800D01*
X117576600Y-91236800D02*
X120751600Y-94411800D01*
X107289600Y-90855800D02*
X110210600Y-90855800D01*
X110210600Y-90855800D02*
X113258600Y-93903800D01*
X114782600Y-94284800D02*
X113639600Y-94284800D01*
X114274600Y-88823800D02*
X117576600Y-88823800D01*
X113258600Y-89839800D02*
X114274600Y-88823800D01*
X113258600Y-93903800D02*
X113258600Y-89839800D01*
X113639600Y-94284800D02*
X113258600Y-93903800D01*
X95173800Y-76774040D02*
X95173800Y-77612240D01*
X95173800Y-77612240D02*
X98186240Y-80624680D01*
X98186240Y-80624680D02*
X98186240Y-86146640D01*
X98186240Y-86146640D02*
X99085400Y-87045800D01*
X99085400Y-87045800D02*
X100685600Y-87045800D01*
X95783400Y-89433400D02*
X98298000Y-89433400D01*
X98298000Y-89433400D02*
X100685600Y-87045800D01*
X92016600Y-90180000D02*
X95036800Y-90180000D01*
X95036800Y-90180000D02*
X95783400Y-89433400D01*
D33*
X57658000Y-123164600D02*
X56807100Y-123926600D01*
X52832000Y-132613400D02*
X52832000Y-135610600D01*
X55562500Y-129882900D02*
X52832000Y-132613400D01*
X55562500Y-125171200D02*
X55562500Y-129882900D01*
X56807100Y-123926600D02*
X55562500Y-125171200D01*
X52832000Y-135610600D02*
X49568100Y-135610600D01*
X49568100Y-135610600D02*
X49504600Y-135674100D01*
X45000000Y-128000000D02*
X45043600Y-128000000D01*
X45043600Y-128000000D02*
X49504600Y-132461000D01*
X49504600Y-132461000D02*
X49504600Y-135674100D01*
X117957600Y-120446800D02*
X125100080Y-120446800D01*
X125100080Y-120446800D02*
X126568200Y-118978680D01*
X126446280Y-118978680D02*
X126568200Y-118978680D01*
X129921000Y-118912640D02*
X129921000Y-119806720D01*
X132114280Y-122000000D02*
X135000000Y-122000000D01*
X129921000Y-119806720D02*
X132114280Y-122000000D01*
X126568200Y-118978680D02*
X129854960Y-118978680D01*
X129854960Y-118978680D02*
X129921000Y-118912640D01*
D34*
X105130600Y-102666800D02*
X105130600Y-103174800D01*
X105130600Y-103174800D02*
X103794560Y-104510840D01*
X103794560Y-104510840D02*
X98856800Y-104510840D01*
X113131600Y-112953800D02*
X113258600Y-112953800D01*
X113258600Y-112953800D02*
X114654959Y-114350159D01*
X116433600Y-112826800D02*
X116687600Y-112572800D01*
X114147600Y-114793798D02*
X114654959Y-114350159D01*
X114654959Y-114350159D02*
X116687600Y-112572800D01*
X114147600Y-118603798D02*
X114147600Y-114793798D01*
X113639600Y-119430800D02*
X114147600Y-118603798D01*
X113639600Y-123240800D02*
X113639600Y-119430800D01*
X113385600Y-123494800D02*
X113639600Y-123240800D01*
X93460000Y-134000000D02*
X93460000Y-130761040D01*
X93460000Y-130761040D02*
X93842840Y-130378200D01*
X107975400Y-130368040D02*
X106974640Y-130368040D01*
X106974640Y-130368040D02*
X106949240Y-130342640D01*
X98983800Y-130342640D02*
X98948240Y-130378200D01*
X98948240Y-130378200D02*
X93842840Y-130378200D01*
X78460000Y-132238080D02*
X78460000Y-134000000D01*
X93842840Y-130378200D02*
X87670640Y-130378200D01*
X83896200Y-130495040D02*
X83820000Y-130418840D01*
X83820000Y-130418840D02*
X80279240Y-130418840D01*
X80279240Y-130418840D02*
X78460000Y-132238080D01*
X107792520Y-130368040D02*
X107975400Y-130368040D01*
X107975400Y-130368040D02*
X112979200Y-130368040D01*
X123460000Y-131267960D02*
X123460000Y-134000000D01*
X122798840Y-130606800D02*
X123460000Y-131267960D01*
X119100600Y-130606800D02*
X122798840Y-130606800D01*
X118719600Y-130225800D02*
X119100600Y-130606800D01*
X112979200Y-130368040D02*
X113157000Y-130190240D01*
X108460000Y-131035520D02*
X108460000Y-134000000D01*
X107792520Y-130368040D02*
X108460000Y-131035520D01*
X122880120Y-104775000D02*
X122915680Y-104775000D01*
X125272800Y-77317600D02*
X126085600Y-76504800D01*
X125272800Y-101533960D02*
X125272800Y-77317600D01*
X122915680Y-104775000D02*
X125272800Y-101533960D01*
X121650760Y-110027720D02*
X121650760Y-116342160D01*
X121650760Y-110027720D02*
X121650760Y-107066080D01*
X121650760Y-107066080D02*
X122880120Y-104775000D01*
X122880120Y-104775000D02*
X122981720Y-104673400D01*
X122981720Y-104673400D02*
X123007120Y-104648000D01*
X121650760Y-116342160D02*
X121986040Y-116677440D01*
X126085600Y-77104240D02*
X126085600Y-76504800D01*
D33*
X120535700Y-75768200D02*
X125323600Y-75742800D01*
X125323600Y-75742800D02*
X126085600Y-76504800D01*
D34*
X45000000Y-114000000D02*
X45000000Y-114169280D01*
X45000000Y-114169280D02*
X50180240Y-118958360D01*
D33*
X45000000Y-114000000D02*
X45825600Y-114000000D01*
X45825600Y-114000000D02*
X46994400Y-112831200D01*
X46994400Y-99085400D02*
X46994400Y-112831200D01*
X46994400Y-86000000D02*
X46994400Y-99085400D01*
X46994400Y-99085400D02*
X46994400Y-99293000D01*
X46994400Y-99293000D02*
X46287400Y-100000000D01*
X46994400Y-86000000D02*
X47802800Y-85191600D01*
X47802800Y-85191600D02*
X47802800Y-71983600D01*
X49834800Y-68110100D02*
X47091600Y-63017400D01*
X47091600Y-63017400D02*
X45000000Y-58000000D01*
X47802800Y-71983600D02*
X45016400Y-71983600D01*
X45016400Y-71983600D02*
X45000000Y-72000000D01*
X46287400Y-100000000D02*
X45000000Y-100000000D01*
X45000000Y-86000000D02*
X46994400Y-86000000D01*
X47802800Y-71983600D02*
X49834800Y-68110100D01*
X45147600Y-114147600D02*
X45000000Y-114000000D01*
X45005760Y-85994240D02*
X45000000Y-86000000D01*
D34*
X130302000Y-115824000D02*
X130302000Y-112698000D01*
X130302000Y-112698000D02*
X135000000Y-108000000D01*
D33*
X135000000Y-80000000D02*
X133664800Y-80000000D01*
X133664800Y-80000000D02*
X132689600Y-80975200D01*
X132435600Y-67868800D02*
X132435600Y-63994400D01*
X132435600Y-63994400D02*
X132715000Y-63715000D01*
X135000000Y-52000000D02*
X133953400Y-52000000D01*
X133953400Y-52000000D02*
X132715000Y-53238400D01*
X132715000Y-53238400D02*
X132715000Y-63715000D01*
X129286000Y-62509400D02*
X131509400Y-62509400D01*
X131509400Y-62509400D02*
X132715000Y-63715000D01*
X132715000Y-63715000D02*
X135000000Y-66000000D01*
X132689600Y-91490800D02*
X132689600Y-105689600D01*
X132689600Y-105689600D02*
X135000000Y-108000000D01*
X132689600Y-79298800D02*
X132689600Y-80975200D01*
X132689600Y-80975200D02*
X132689600Y-91490800D01*
X132689600Y-91490800D02*
X132689600Y-91744800D01*
X132689600Y-91744800D02*
X134944800Y-94000000D01*
X134944800Y-94000000D02*
X135000000Y-94000000D01*
X135000000Y-66000000D02*
X134304400Y-66000000D01*
X134304400Y-66000000D02*
X132435600Y-67868800D01*
X132435600Y-79044800D02*
X132689600Y-79298800D01*
X132435600Y-67868800D02*
X132435600Y-79044800D01*
M02*
