G04 #@! TF.FileFunction,Soldermask,Bot*
%FSLAX46Y46*%
G04 Gerber Fmt 4.6, Leading zero omitted, Abs format (unit mm)*
G04 Created by KiCad (PCBNEW 4.0.7) date 07/19/19 21:34:53*
%MOMM*%
%LPD*%
G01*
G04 APERTURE LIST*
%ADD10C,0.100000*%
%ADD11R,3.400000X3.400000*%
%ADD12C,3.400000*%
%ADD13C,1.840000*%
%ADD14C,2.000000*%
%ADD15O,2.000000X2.000000*%
%ADD16C,2.800000*%
%ADD17O,2.800000X2.800000*%
%ADD18R,2.000000X2.000000*%
%ADD19R,2.400000X2.400000*%
%ADD20C,2.400000*%
%ADD21R,2.600000X2.600000*%
%ADD22O,2.600000X2.600000*%
%ADD23R,2.100000X2.100000*%
%ADD24O,2.100000X2.100000*%
%ADD25C,1.400000*%
%ADD26R,1.400000X1.400000*%
%ADD27C,2.200000*%
%ADD28C,5.400000*%
%ADD29R,2.200000X2.200000*%
%ADD30O,2.200000X2.200000*%
%ADD31C,1.900000*%
%ADD32C,2.500000*%
%ADD33C,4.464000*%
G04 APERTURE END LIST*
D10*
D11*
X74371200Y-120091200D03*
D12*
X79451200Y-120091200D03*
D13*
X53812440Y-102539800D03*
X53812440Y-99999800D03*
X53812440Y-97459800D03*
D14*
X56896000Y-109474000D03*
D15*
X69596000Y-109474000D03*
D14*
X114782600Y-94284800D03*
D15*
X107162600Y-94284800D03*
D14*
X81813400Y-60350400D03*
X86813400Y-60350400D03*
D16*
X70916800Y-96443800D03*
D17*
X58216800Y-96443800D03*
D18*
X106616500Y-82257900D03*
D14*
X104116500Y-82257900D03*
X119126000Y-85598000D03*
X116626000Y-85598000D03*
X106540300Y-87261700D03*
X104040300Y-87261700D03*
X49784000Y-124968000D03*
X49784000Y-122468000D03*
X53835300Y-55473600D03*
X51335300Y-55473600D03*
X130175000Y-132715000D03*
X130175000Y-130215000D03*
D18*
X103860600Y-69077840D03*
D14*
X101360600Y-69077840D03*
X59121040Y-67503040D03*
X59121040Y-70003040D03*
D18*
X103748840Y-76123800D03*
D14*
X98748840Y-76123800D03*
D19*
X117348000Y-47650400D03*
D20*
X122348000Y-47650400D03*
D14*
X49397920Y-93207840D03*
X51897920Y-93207840D03*
D18*
X106934000Y-108458000D03*
D14*
X109434000Y-108458000D03*
D18*
X117576600Y-96443800D03*
D15*
X117576600Y-88823800D03*
D18*
X120129300Y-96431100D03*
D15*
X120129300Y-88811100D03*
D21*
X91404440Y-87172800D03*
D22*
X91404440Y-79552800D03*
D21*
X95783400Y-97053400D03*
D22*
X95783400Y-89433400D03*
D11*
X80924400Y-134416800D03*
D12*
X75844400Y-134416800D03*
D11*
X94678500Y-48006000D03*
D12*
X99758500Y-48006000D03*
D23*
X74777600Y-108966000D03*
D24*
X74777600Y-106426000D03*
X74777600Y-103886000D03*
D14*
X81076800Y-110972600D03*
D15*
X81076800Y-100812600D03*
D25*
X102946200Y-93497400D03*
X101676200Y-92227400D03*
D26*
X104216200Y-92227400D03*
D14*
X114909600Y-90855800D03*
D15*
X107289600Y-90855800D03*
D16*
X58801000Y-101041200D03*
D17*
X71501000Y-101041200D03*
D16*
X71247000Y-105359200D03*
D17*
X58547000Y-105359200D03*
D14*
X49784000Y-138176000D03*
D15*
X49784000Y-128016000D03*
D14*
X126873000Y-127000000D03*
D15*
X126873000Y-137160000D03*
D14*
X112166400Y-108559600D03*
D15*
X119786400Y-108559600D03*
D16*
X95214440Y-125262640D03*
D17*
X95214440Y-137962640D03*
D14*
X120142000Y-104902000D03*
D15*
X112522000Y-104902000D03*
D14*
X103713280Y-108351320D03*
D15*
X96093280Y-108351320D03*
D27*
X84396600Y-97780000D03*
X74236600Y-97780000D03*
X79316600Y-97780000D03*
X79316600Y-90180000D03*
X84396600Y-90180000D03*
X74236600Y-90180000D03*
X92016600Y-97780000D03*
X92016600Y-90180000D03*
D13*
X53289200Y-63246000D03*
X55829200Y-63246000D03*
X58369200Y-63246000D03*
X126238000Y-90220800D03*
X126238000Y-92760800D03*
X126238000Y-95300800D03*
D28*
X45000000Y-135000000D03*
X135000000Y-135000000D03*
X135000000Y-45000000D03*
X45000000Y-45000000D03*
D14*
X69291200Y-117962680D03*
X69291200Y-112962680D03*
X98907600Y-120446800D03*
X103907600Y-120446800D03*
X98643440Y-97805240D03*
X103643440Y-97805240D03*
X114452400Y-97459800D03*
X111952400Y-97459800D03*
D20*
X113233200Y-68503800D03*
D14*
X109982000Y-72390000D03*
D15*
X109982000Y-80010000D03*
D14*
X52832000Y-128016000D03*
D15*
X52832000Y-138176000D03*
D14*
X123698000Y-137287000D03*
D15*
X123698000Y-127127000D03*
D14*
X69291200Y-121259600D03*
D15*
X59131200Y-121259600D03*
D14*
X107797600Y-120446800D03*
D15*
X117957600Y-120446800D03*
D29*
X118872000Y-100965000D03*
D27*
X116332000Y-100965000D03*
D29*
X45000000Y-128000000D03*
D30*
X45000000Y-125460000D03*
X45000000Y-122920000D03*
D29*
X135000000Y-122000000D03*
D30*
X135000000Y-124540000D03*
X135000000Y-127080000D03*
D23*
X100685600Y-87045800D03*
D24*
X100685600Y-84505800D03*
D29*
X96316800Y-104510840D03*
D27*
X98856800Y-104510840D03*
D14*
X125882400Y-101701600D03*
X125882400Y-99201600D03*
D20*
X108280200Y-68389500D03*
D29*
X45000000Y-114000000D03*
D30*
X45000000Y-111460000D03*
X45000000Y-108920000D03*
D29*
X135000000Y-108000000D03*
D30*
X135000000Y-110540000D03*
X135000000Y-113080000D03*
D29*
X45000000Y-86000000D03*
D30*
X45000000Y-83460000D03*
X45000000Y-80920000D03*
D29*
X135000000Y-80000000D03*
D30*
X135000000Y-82540000D03*
X135000000Y-85080000D03*
D29*
X135000000Y-52000000D03*
D30*
X135000000Y-54540000D03*
X135000000Y-57080000D03*
D31*
X84277200Y-53543240D03*
X81737200Y-53543240D03*
D32*
X79197200Y-48463240D03*
X89357200Y-48463240D03*
D31*
X64973200Y-126202400D03*
X67513200Y-126202400D03*
D32*
X70053200Y-131282400D03*
X59893200Y-131282400D03*
D14*
X114554000Y-55626000D03*
X119554000Y-55626000D03*
X98983800Y-60238640D03*
X98983800Y-65238640D03*
X102260400Y-60198000D03*
X102260400Y-65198000D03*
X114554000Y-58928000D03*
X119554000Y-58928000D03*
X81813400Y-57327800D03*
X86813400Y-57327800D03*
X81686400Y-63525400D03*
X86686400Y-63525400D03*
X81635600Y-66395600D03*
X86635600Y-66395600D03*
D16*
X90769440Y-125262640D03*
D17*
X90769440Y-137962640D03*
D16*
X86410800Y-125171200D03*
D17*
X86410800Y-137871200D03*
D12*
X92710000Y-116865400D03*
X92710000Y-101625400D03*
X86360000Y-116865400D03*
X86360000Y-101625400D03*
X111506000Y-63373000D03*
X111506000Y-48133000D03*
X105156000Y-63373000D03*
X105156000Y-48133000D03*
D14*
X127457200Y-121869200D03*
D15*
X127457200Y-109169200D03*
D14*
X52832000Y-124968000D03*
X52832000Y-122468000D03*
X130302000Y-124460000D03*
X130302000Y-126960000D03*
D33*
X64429640Y-91023440D03*
X69916040Y-91099640D03*
X57520840Y-78587600D03*
X58943240Y-91023440D03*
D14*
X53380640Y-115407440D03*
D15*
X66080640Y-115407440D03*
D14*
X123698000Y-124561600D03*
D15*
X123698000Y-111861600D03*
D14*
X131165600Y-116840000D03*
X131165600Y-119340000D03*
X52501800Y-108661200D03*
X52501800Y-111161200D03*
X124688600Y-106273600D03*
X127188600Y-106273600D03*
X55046880Y-93248480D03*
X55046880Y-90748480D03*
X130530600Y-95173800D03*
X130530600Y-97673800D03*
X44348400Y-103174800D03*
X46848400Y-103174800D03*
X126733300Y-79235300D03*
X126733300Y-81735300D03*
X50292000Y-69977000D03*
X50292000Y-67477000D03*
X126174500Y-67056000D03*
X128674500Y-67056000D03*
X55768240Y-67558920D03*
X55768240Y-70058920D03*
X132270500Y-64211200D03*
X134770500Y-64211200D03*
X45212000Y-74930000D03*
X47712000Y-74930000D03*
X127685800Y-61518800D03*
X127685800Y-64018800D03*
X122377200Y-66553080D03*
X122377200Y-69053080D03*
D13*
X127076200Y-71412100D03*
X129616200Y-71412100D03*
X132156200Y-71412100D03*
X52070000Y-80772000D03*
X52070000Y-78232000D03*
X52070000Y-75692000D03*
X122885200Y-55829200D03*
X122885200Y-58369200D03*
X122885200Y-60909200D03*
D14*
X128371600Y-101193600D03*
D15*
X135991600Y-101193600D03*
D14*
X49593500Y-96113600D03*
D15*
X49593500Y-103733600D03*
D14*
X127863600Y-75717400D03*
D15*
X135483600Y-75717400D03*
D14*
X55880000Y-85344000D03*
D15*
X48260000Y-85344000D03*
D14*
X127685800Y-58674000D03*
D15*
X127685800Y-51054000D03*
D29*
X45000000Y-58000000D03*
D30*
X45000000Y-55460000D03*
X45000000Y-52920000D03*
D14*
X56286400Y-58801000D03*
D15*
X48666400Y-58801000D03*
D14*
X119359680Y-117043200D03*
D15*
X111739680Y-117043200D03*
D23*
X110236000Y-85090000D03*
D24*
X112776000Y-85090000D03*
D18*
X113106200Y-72199500D03*
D15*
X113106200Y-79819500D03*
D23*
X102616000Y-101346000D03*
D24*
X102616000Y-103886000D03*
D16*
X108193840Y-125349000D03*
D17*
X108193840Y-138049000D03*
D16*
X103926640Y-125349000D03*
D17*
X103926640Y-138049000D03*
D16*
X99390200Y-125349000D03*
D17*
X99390200Y-138049000D03*
D14*
X113411000Y-101473000D03*
D15*
X105791000Y-101473000D03*
D12*
X95148400Y-54000400D03*
X60858400Y-54635400D03*
X95275400Y-85623400D03*
X60858400Y-85115400D03*
D25*
X117411500Y-135699500D03*
X118681500Y-134429500D03*
D26*
X118681500Y-136969500D03*
D14*
X112458500Y-130619500D03*
D15*
X112458500Y-138239500D03*
D29*
X100228400Y-116941600D03*
D30*
X102768400Y-116941600D03*
X105308400Y-116941600D03*
D14*
X131064000Y-113842800D03*
D15*
X131064000Y-103682800D03*
D14*
X49509680Y-106451400D03*
D15*
X49509680Y-116611400D03*
D14*
X130708400Y-92303600D03*
D15*
X130708400Y-82143600D03*
D14*
X45681900Y-100507800D03*
D15*
X45681900Y-90347800D03*
D14*
X130987800Y-61074300D03*
D15*
X130987800Y-50914300D03*
D14*
X45466000Y-71882000D03*
D15*
X45466000Y-61722000D03*
M02*
