G04 #@! TF.FileFunction,Copper,L2,Bot,Signal*
%FSLAX46Y46*%
G04 Gerber Fmt 4.6, Leading zero omitted, Abs format (unit mm)*
G04 Created by KiCad (PCBNEW 4.0.7) date 07/19/19 21:34:53*
%MOMM*%
%LPD*%
G01*
G04 APERTURE LIST*
%ADD10C,0.100000*%
%ADD11R,3.000000X3.000000*%
%ADD12C,3.000000*%
%ADD13C,1.440000*%
%ADD14C,1.600000*%
%ADD15O,1.600000X1.600000*%
%ADD16C,2.400000*%
%ADD17O,2.400000X2.400000*%
%ADD18R,1.600000X1.600000*%
%ADD19R,2.000000X2.000000*%
%ADD20C,2.000000*%
%ADD21R,2.200000X2.200000*%
%ADD22O,2.200000X2.200000*%
%ADD23R,1.700000X1.700000*%
%ADD24O,1.700000X1.700000*%
%ADD25C,1.000000*%
%ADD26R,1.000000X1.000000*%
%ADD27C,1.800000*%
%ADD28C,5.000000*%
%ADD29R,1.800000X1.800000*%
%ADD30O,1.800000X1.800000*%
%ADD31C,1.500000*%
%ADD32C,4.064000*%
%ADD33C,0.600000*%
%ADD34C,1.500000*%
%ADD35C,0.500000*%
%ADD36C,1.000000*%
G04 APERTURE END LIST*
D10*
D11*
X74371200Y-120091200D03*
D12*
X79451200Y-120091200D03*
D13*
X53812440Y-102539800D03*
X53812440Y-99999800D03*
X53812440Y-97459800D03*
D14*
X56896000Y-109474000D03*
D15*
X69596000Y-109474000D03*
D14*
X114782600Y-94284800D03*
D15*
X107162600Y-94284800D03*
D14*
X81813400Y-60350400D03*
X86813400Y-60350400D03*
D16*
X70916800Y-96443800D03*
D17*
X58216800Y-96443800D03*
D18*
X106616500Y-82257900D03*
D14*
X104116500Y-82257900D03*
X119126000Y-85598000D03*
X116626000Y-85598000D03*
X106540300Y-87261700D03*
X104040300Y-87261700D03*
X49784000Y-124968000D03*
X49784000Y-122468000D03*
X53835300Y-55473600D03*
X51335300Y-55473600D03*
X130175000Y-132715000D03*
X130175000Y-130215000D03*
D18*
X103860600Y-69077840D03*
D14*
X101360600Y-69077840D03*
X59121040Y-67503040D03*
X59121040Y-70003040D03*
D18*
X103748840Y-76123800D03*
D14*
X98748840Y-76123800D03*
D19*
X117348000Y-47650400D03*
D20*
X122348000Y-47650400D03*
D14*
X49397920Y-93207840D03*
X51897920Y-93207840D03*
D18*
X106934000Y-108458000D03*
D14*
X109434000Y-108458000D03*
D18*
X117576600Y-96443800D03*
D15*
X117576600Y-88823800D03*
D18*
X120129300Y-96431100D03*
D15*
X120129300Y-88811100D03*
D21*
X91404440Y-87172800D03*
D22*
X91404440Y-79552800D03*
D21*
X95783400Y-97053400D03*
D22*
X95783400Y-89433400D03*
D11*
X80924400Y-134416800D03*
D12*
X75844400Y-134416800D03*
D11*
X94678500Y-48006000D03*
D12*
X99758500Y-48006000D03*
D23*
X74777600Y-108966000D03*
D24*
X74777600Y-106426000D03*
X74777600Y-103886000D03*
D14*
X81076800Y-110972600D03*
D15*
X81076800Y-100812600D03*
D25*
X102946200Y-93497400D03*
X101676200Y-92227400D03*
D26*
X104216200Y-92227400D03*
D14*
X114909600Y-90855800D03*
D15*
X107289600Y-90855800D03*
D16*
X58801000Y-101041200D03*
D17*
X71501000Y-101041200D03*
D16*
X71247000Y-105359200D03*
D17*
X58547000Y-105359200D03*
D14*
X49784000Y-138176000D03*
D15*
X49784000Y-128016000D03*
D14*
X126873000Y-127000000D03*
D15*
X126873000Y-137160000D03*
D14*
X112166400Y-108559600D03*
D15*
X119786400Y-108559600D03*
D16*
X95214440Y-125262640D03*
D17*
X95214440Y-137962640D03*
D14*
X120142000Y-104902000D03*
D15*
X112522000Y-104902000D03*
D14*
X103713280Y-108351320D03*
D15*
X96093280Y-108351320D03*
D27*
X84396600Y-97780000D03*
X74236600Y-97780000D03*
X79316600Y-97780000D03*
X79316600Y-90180000D03*
X84396600Y-90180000D03*
X74236600Y-90180000D03*
X92016600Y-97780000D03*
X92016600Y-90180000D03*
D13*
X53289200Y-63246000D03*
X55829200Y-63246000D03*
X58369200Y-63246000D03*
X126238000Y-90220800D03*
X126238000Y-92760800D03*
X126238000Y-95300800D03*
D28*
X45000000Y-135000000D03*
X135000000Y-135000000D03*
X135000000Y-45000000D03*
X45000000Y-45000000D03*
D14*
X69291200Y-117962680D03*
X69291200Y-112962680D03*
X98907600Y-120446800D03*
X103907600Y-120446800D03*
X98643440Y-97805240D03*
X103643440Y-97805240D03*
X114452400Y-97459800D03*
X111952400Y-97459800D03*
D20*
X113233200Y-68503800D03*
D14*
X109982000Y-72390000D03*
D15*
X109982000Y-80010000D03*
D14*
X52832000Y-128016000D03*
D15*
X52832000Y-138176000D03*
D14*
X123698000Y-137287000D03*
D15*
X123698000Y-127127000D03*
D14*
X69291200Y-121259600D03*
D15*
X59131200Y-121259600D03*
D14*
X107797600Y-120446800D03*
D15*
X117957600Y-120446800D03*
D29*
X118872000Y-100965000D03*
D27*
X116332000Y-100965000D03*
D29*
X45000000Y-128000000D03*
D30*
X45000000Y-125460000D03*
X45000000Y-122920000D03*
D29*
X135000000Y-122000000D03*
D30*
X135000000Y-124540000D03*
X135000000Y-127080000D03*
D23*
X100685600Y-87045800D03*
D24*
X100685600Y-84505800D03*
D29*
X96316800Y-104510840D03*
D27*
X98856800Y-104510840D03*
D14*
X125882400Y-101701600D03*
X125882400Y-99201600D03*
D20*
X108280200Y-68389500D03*
D29*
X45000000Y-114000000D03*
D30*
X45000000Y-111460000D03*
X45000000Y-108920000D03*
D29*
X135000000Y-108000000D03*
D30*
X135000000Y-110540000D03*
X135000000Y-113080000D03*
D29*
X45000000Y-86000000D03*
D30*
X45000000Y-83460000D03*
X45000000Y-80920000D03*
D29*
X135000000Y-80000000D03*
D30*
X135000000Y-82540000D03*
X135000000Y-85080000D03*
D29*
X135000000Y-52000000D03*
D30*
X135000000Y-54540000D03*
X135000000Y-57080000D03*
D31*
X84277200Y-53543240D03*
X81737200Y-53543240D03*
X64973200Y-126202400D03*
X67513200Y-126202400D03*
D14*
X114554000Y-55626000D03*
X119554000Y-55626000D03*
X98983800Y-60238640D03*
X98983800Y-65238640D03*
X102260400Y-60198000D03*
X102260400Y-65198000D03*
X114554000Y-58928000D03*
X119554000Y-58928000D03*
X81813400Y-57327800D03*
X86813400Y-57327800D03*
X81686400Y-63525400D03*
X86686400Y-63525400D03*
X81635600Y-66395600D03*
X86635600Y-66395600D03*
D16*
X90769440Y-125262640D03*
D17*
X90769440Y-137962640D03*
D16*
X86410800Y-125171200D03*
D17*
X86410800Y-137871200D03*
D12*
X92710000Y-116865400D03*
X92710000Y-101625400D03*
X86360000Y-116865400D03*
X86360000Y-101625400D03*
X111506000Y-63373000D03*
X111506000Y-48133000D03*
X105156000Y-63373000D03*
X105156000Y-48133000D03*
D14*
X127457200Y-121869200D03*
D15*
X127457200Y-109169200D03*
D14*
X52832000Y-124968000D03*
X52832000Y-122468000D03*
X130302000Y-124460000D03*
X130302000Y-126960000D03*
D32*
X64429640Y-91023440D03*
X69916040Y-91099640D03*
X57520840Y-78587600D03*
X58943240Y-91023440D03*
D14*
X53380640Y-115407440D03*
D15*
X66080640Y-115407440D03*
D14*
X123698000Y-124561600D03*
D15*
X123698000Y-111861600D03*
D14*
X131165600Y-116840000D03*
X131165600Y-119340000D03*
X52501800Y-108661200D03*
X52501800Y-111161200D03*
X124688600Y-106273600D03*
X127188600Y-106273600D03*
X55046880Y-93248480D03*
X55046880Y-90748480D03*
X130530600Y-95173800D03*
X130530600Y-97673800D03*
X44348400Y-103174800D03*
X46848400Y-103174800D03*
X126733300Y-79235300D03*
X126733300Y-81735300D03*
X50292000Y-69977000D03*
X50292000Y-67477000D03*
X126174500Y-67056000D03*
X128674500Y-67056000D03*
X55768240Y-67558920D03*
X55768240Y-70058920D03*
X132270500Y-64211200D03*
X134770500Y-64211200D03*
X45212000Y-74930000D03*
X47712000Y-74930000D03*
X127685800Y-61518800D03*
X127685800Y-64018800D03*
X122377200Y-66553080D03*
X122377200Y-69053080D03*
D13*
X127076200Y-71412100D03*
X129616200Y-71412100D03*
X132156200Y-71412100D03*
X52070000Y-80772000D03*
X52070000Y-78232000D03*
X52070000Y-75692000D03*
X122885200Y-55829200D03*
X122885200Y-58369200D03*
X122885200Y-60909200D03*
D14*
X128371600Y-101193600D03*
D15*
X135991600Y-101193600D03*
D14*
X49593500Y-96113600D03*
D15*
X49593500Y-103733600D03*
D14*
X127863600Y-75717400D03*
D15*
X135483600Y-75717400D03*
D14*
X55880000Y-85344000D03*
D15*
X48260000Y-85344000D03*
D14*
X127685800Y-58674000D03*
D15*
X127685800Y-51054000D03*
D29*
X45000000Y-58000000D03*
D30*
X45000000Y-55460000D03*
X45000000Y-52920000D03*
D14*
X56286400Y-58801000D03*
D15*
X48666400Y-58801000D03*
D14*
X119359680Y-117043200D03*
D15*
X111739680Y-117043200D03*
D23*
X110236000Y-85090000D03*
D24*
X112776000Y-85090000D03*
D18*
X113106200Y-72199500D03*
D15*
X113106200Y-79819500D03*
D23*
X102616000Y-101346000D03*
D24*
X102616000Y-103886000D03*
D16*
X108193840Y-125349000D03*
D17*
X108193840Y-138049000D03*
D16*
X103926640Y-125349000D03*
D17*
X103926640Y-138049000D03*
D16*
X99390200Y-125349000D03*
D17*
X99390200Y-138049000D03*
D14*
X113411000Y-101473000D03*
D15*
X105791000Y-101473000D03*
D12*
X95148400Y-54000400D03*
X60858400Y-54635400D03*
X95275400Y-85623400D03*
X60858400Y-85115400D03*
D25*
X117411500Y-135699500D03*
X118681500Y-134429500D03*
D26*
X118681500Y-136969500D03*
D14*
X112458500Y-130619500D03*
D15*
X112458500Y-138239500D03*
D29*
X100228400Y-116941600D03*
D30*
X102768400Y-116941600D03*
X105308400Y-116941600D03*
D14*
X131064000Y-113842800D03*
D15*
X131064000Y-103682800D03*
D14*
X49509680Y-106451400D03*
D15*
X49509680Y-116611400D03*
D14*
X130708400Y-92303600D03*
D15*
X130708400Y-82143600D03*
D14*
X45681900Y-100507800D03*
D15*
X45681900Y-90347800D03*
D14*
X130987800Y-61074300D03*
D15*
X130987800Y-50914300D03*
D14*
X45466000Y-71882000D03*
D15*
X45466000Y-61722000D03*
D33*
X49022000Y-56388000D03*
X48006000Y-56261000D03*
X47625000Y-55499000D03*
X100965000Y-55245000D03*
X98488500Y-56451500D03*
X96647000Y-57404000D03*
X92710000Y-59182000D03*
X91694000Y-60579000D03*
X90678000Y-65405000D03*
X89916000Y-67183000D03*
X89090500Y-73279000D03*
X88519000Y-74422000D03*
X88138000Y-78613000D03*
X87503000Y-79756000D03*
X87503000Y-83312000D03*
X76073000Y-59182000D03*
X76517500Y-63881000D03*
X76962000Y-65024000D03*
X77279500Y-70485000D03*
X77597000Y-71755000D03*
X77787500Y-78232000D03*
X78232000Y-79883000D03*
X78232000Y-85280500D03*
X82677000Y-94234000D03*
X82423000Y-92964000D03*
X81915000Y-90170000D03*
X80010000Y-87122000D03*
X78105000Y-86741000D03*
X84455000Y-94234000D03*
X85852000Y-92710000D03*
X86868000Y-90805000D03*
X86995000Y-88900000D03*
X87884000Y-87122000D03*
X88773000Y-85090000D03*
X90805000Y-83947000D03*
X93345000Y-84328000D03*
X83058000Y-95504000D03*
X80518000Y-99060000D03*
X81661000Y-98044000D03*
X73025000Y-94361000D03*
X70104000Y-94488000D03*
X67691000Y-94869000D03*
X64135000Y-95377000D03*
X76835000Y-94107000D03*
X76835000Y-92075000D03*
X76835000Y-89789000D03*
X76073000Y-86741000D03*
X73914000Y-86233000D03*
X72009000Y-86106000D03*
X68834000Y-85979000D03*
X87122000Y-113665000D03*
X86995000Y-112141000D03*
X86614000Y-109347000D03*
X85979000Y-107315000D03*
X84328000Y-105410000D03*
X81915000Y-104267000D03*
X79121000Y-103505000D03*
X77597000Y-101473000D03*
X76708000Y-98044000D03*
X76581000Y-96393000D03*
X112395000Y-45720000D03*
X114617500Y-45212000D03*
X115443000Y-45085000D03*
X118872000Y-44704000D03*
X119761000Y-44577000D03*
X122047000Y-44704000D03*
X123317000Y-45339000D03*
X124841000Y-46736000D03*
X126746000Y-48006000D03*
X128524000Y-48768000D03*
X131216400Y-45212000D03*
X130683000Y-44323000D03*
X127825500Y-42989500D03*
X126746000Y-42291000D03*
X123126500Y-41211500D03*
X121666000Y-41148000D03*
X119380000Y-40894000D03*
X118364000Y-40957500D03*
X114046000Y-41021000D03*
X112014000Y-41402000D03*
X109855000Y-42418000D03*
X108394500Y-42735500D03*
X104394000Y-45339000D03*
X108798360Y-57612280D03*
X109077760Y-58729880D03*
X108910120Y-59847480D03*
X109133640Y-61468000D03*
X108966000Y-62697360D03*
X108630720Y-64709040D03*
X113157000Y-60462160D03*
X113045240Y-58729880D03*
X113045240Y-56941720D03*
X113045240Y-54874160D03*
X113045240Y-52918360D03*
X136794240Y-77784960D03*
X137058400Y-76708000D03*
X137261600Y-73075800D03*
X137058400Y-71831200D03*
X136458960Y-70352920D03*
X136588500Y-69278500D03*
X136588500Y-65659000D03*
X136626600Y-64653160D03*
X136595658Y-61911703D03*
X136682480Y-60741560D03*
X136458960Y-59121040D03*
X136956800Y-105232200D03*
X137287000Y-104444800D03*
X137439400Y-101168200D03*
X137312400Y-99949000D03*
X137414000Y-96850200D03*
X137287000Y-95694500D03*
X137287000Y-91694000D03*
X137287000Y-90601800D03*
X136956800Y-87630000D03*
X46786800Y-121767600D03*
X48056800Y-120700800D03*
X49530000Y-120599200D03*
X50850800Y-120700800D03*
X52527200Y-120700800D03*
X76250800Y-56743600D03*
X77978000Y-56794400D03*
X52222400Y-54203600D03*
X54660800Y-54051200D03*
X55880000Y-54914800D03*
X58115200Y-56692800D03*
X59334400Y-57404000D03*
X62674500Y-57404000D03*
X63804800Y-57150000D03*
X67500500Y-57213500D03*
X68580000Y-56794400D03*
X71170800Y-56794400D03*
X72491600Y-56794400D03*
X74117200Y-56794400D03*
X77012800Y-51409600D03*
X74930000Y-52019200D03*
X68961000Y-51943000D03*
X67564000Y-51562000D03*
X62801500Y-51117500D03*
X61518800Y-50749200D03*
X58267600Y-50444400D03*
X56438800Y-50241200D03*
X54610000Y-50342800D03*
X53340000Y-50292000D03*
X49326800Y-50596800D03*
X48006000Y-50673000D03*
X42722800Y-93929200D03*
X42722800Y-92049600D03*
X42875200Y-90424000D03*
X42976800Y-89357200D03*
X42773600Y-95084900D03*
X42583100Y-97624900D03*
X42837100Y-98882200D03*
X42720260Y-101925120D03*
X42692320Y-103124000D03*
X42832020Y-105026460D03*
X42887900Y-106032300D03*
X43307000Y-107569000D03*
X43078400Y-87884000D03*
X43434000Y-60350400D03*
X42976800Y-61976000D03*
X42773600Y-63601600D03*
X42621200Y-65582800D03*
X42621200Y-67411600D03*
X42621200Y-69392800D03*
X42672000Y-70612000D03*
X42621200Y-72898000D03*
X42926000Y-73787000D03*
X42976800Y-75996800D03*
X42926000Y-77089000D03*
X43180000Y-79146400D03*
X112268000Y-126746000D03*
X112268000Y-123952000D03*
X113792000Y-123952000D03*
X113792000Y-127000000D03*
D34*
X74371200Y-120091200D02*
X74371200Y-118770400D01*
X74371200Y-118770400D02*
X75514200Y-116662200D01*
X82524600Y-116662200D02*
X85064600Y-119761000D01*
X75514200Y-116662200D02*
X82524600Y-116662200D01*
X84531200Y-119761000D02*
X85064600Y-119761000D01*
X85064600Y-119761000D02*
X87833200Y-119761000D01*
X64973200Y-126202400D02*
X66715640Y-123875800D01*
X70830440Y-123799600D02*
X74371200Y-120091200D01*
X66715640Y-123875800D02*
X70830440Y-123799600D01*
D35*
X89230200Y-100253800D02*
X89636600Y-100253800D01*
X96890840Y-99212400D02*
X98643440Y-97805240D01*
X90525600Y-99364800D02*
X96890840Y-99212400D01*
X89636600Y-100253800D02*
X90525600Y-99364800D01*
D34*
X87772400Y-97780000D02*
X84396600Y-97780000D01*
X89230200Y-99237800D02*
X87772400Y-97780000D01*
X89230200Y-119075200D02*
X89230200Y-100253800D01*
X89230200Y-100253800D02*
X89230200Y-99237800D01*
X87833200Y-119761000D02*
X89230200Y-119075200D01*
D35*
X103643440Y-97805240D02*
X103643440Y-97803960D01*
X103643440Y-97803960D02*
X107162600Y-94284800D01*
X105791000Y-101473000D02*
X102743000Y-101473000D01*
X102743000Y-101473000D02*
X102616000Y-101346000D01*
X110236000Y-85090000D02*
X110236000Y-84328000D01*
X110236000Y-84328000D02*
X111252000Y-83312000D01*
X114340000Y-83312000D02*
X116626000Y-85598000D01*
X111252000Y-83312000D02*
X114340000Y-83312000D01*
X110236000Y-85090000D02*
X109448600Y-85090000D01*
X109448600Y-85090000D02*
X106616500Y-82257900D01*
X106616500Y-82257900D02*
X107734100Y-82257900D01*
X107734100Y-82257900D02*
X109982000Y-80010000D01*
X102616000Y-101346000D02*
X102616000Y-100330000D01*
X101346000Y-94589600D02*
X102946200Y-93497400D01*
X101346000Y-99568000D02*
X101346000Y-94589600D01*
X102616000Y-100330000D02*
X101346000Y-99568000D01*
X102946200Y-93497400D02*
X102946200Y-90357960D01*
X102946200Y-90357960D02*
X106042460Y-87261700D01*
X106042460Y-87261700D02*
X106540300Y-87261700D01*
X106540300Y-87261700D02*
X106540300Y-87528400D01*
X116626000Y-85598000D02*
X116626000Y-85904700D01*
X106540300Y-87261700D02*
X106601895Y-84859495D01*
X106601895Y-84859495D02*
X106667300Y-82308700D01*
X106667300Y-82308700D02*
X106616500Y-82257900D01*
X106159300Y-87261700D02*
X106540300Y-87261700D01*
X101676200Y-92227400D02*
X101676200Y-89625800D01*
X101676200Y-89625800D02*
X104040300Y-87261700D01*
X98795840Y-95107760D02*
X99385120Y-95107760D01*
X100192840Y-102920800D02*
X98856800Y-104510840D01*
X100192840Y-96169480D02*
X100192840Y-102920800D01*
X99385120Y-95107760D02*
X100192840Y-96169480D01*
X95783400Y-97053400D02*
X96850200Y-97053400D01*
X96850200Y-97053400D02*
X98795840Y-95107760D01*
X98795840Y-95107760D02*
X101676200Y-92227400D01*
X104116500Y-82257900D02*
X103989500Y-87210900D01*
X103989500Y-87210900D02*
X104040300Y-87261700D01*
X92016600Y-97780000D02*
X92491400Y-97780000D01*
X92491400Y-97780000D02*
X93218000Y-97053400D01*
X93218000Y-97053400D02*
X95783400Y-97053400D01*
X49936400Y-55473600D02*
X51335300Y-55473600D01*
X49022000Y-56388000D02*
X49936400Y-55473600D01*
X48006000Y-55880000D02*
X48006000Y-56261000D01*
X47625000Y-55499000D02*
X48006000Y-55880000D01*
X100076000Y-55245000D02*
X100965000Y-55245000D01*
X98488500Y-56451500D02*
X100076000Y-55245000D01*
X94234000Y-57404000D02*
X96647000Y-57404000D01*
X92710000Y-59182000D02*
X94234000Y-57404000D01*
X91694000Y-62357000D02*
X91694000Y-60579000D01*
X90678000Y-65405000D02*
X91694000Y-62357000D01*
X89916000Y-70612000D02*
X89916000Y-67183000D01*
X89090500Y-73279000D02*
X89916000Y-70612000D01*
X88519000Y-76454000D02*
X88519000Y-74422000D01*
X88138000Y-78613000D02*
X88519000Y-76454000D01*
X87503000Y-83312000D02*
X87503000Y-79756000D01*
X76073000Y-61341000D02*
X76073000Y-59182000D01*
X76517500Y-63881000D02*
X76073000Y-61341000D01*
X76962000Y-68199000D02*
X76962000Y-65024000D01*
X77279500Y-70485000D02*
X76962000Y-68199000D01*
X77597000Y-75819000D02*
X77597000Y-71755000D01*
X77787500Y-78232000D02*
X77597000Y-75819000D01*
X78359000Y-85153500D02*
X78232000Y-79883000D01*
X78232000Y-85280500D02*
X78359000Y-85153500D01*
X76073000Y-86741000D02*
X78105000Y-86741000D01*
X82677000Y-93218000D02*
X82677000Y-94234000D01*
X82423000Y-92964000D02*
X82677000Y-93218000D01*
X81915000Y-89027000D02*
X81915000Y-90170000D01*
X80010000Y-87122000D02*
X81915000Y-89027000D01*
X84455000Y-94107000D02*
X84455000Y-94234000D01*
X85852000Y-92710000D02*
X84455000Y-94107000D01*
X86868000Y-89027000D02*
X86868000Y-90805000D01*
X86995000Y-88900000D02*
X86868000Y-89027000D01*
X87884000Y-85979000D02*
X87884000Y-87122000D01*
X88773000Y-85090000D02*
X87884000Y-85979000D01*
X92964000Y-83947000D02*
X90805000Y-83947000D01*
X93345000Y-84328000D02*
X92964000Y-83947000D01*
X78105000Y-101473000D02*
X77597000Y-101473000D01*
X80518000Y-99060000D02*
X78105000Y-101473000D01*
X81915000Y-97790000D02*
X81661000Y-98044000D01*
X81915000Y-96647000D02*
X81915000Y-97790000D01*
X83058000Y-95504000D02*
X81915000Y-96647000D01*
X64429640Y-91023440D02*
X64429640Y-95082360D01*
X73279000Y-94107000D02*
X76835000Y-94107000D01*
X73025000Y-94361000D02*
X73279000Y-94107000D01*
X68072000Y-94488000D02*
X70104000Y-94488000D01*
X67691000Y-94869000D02*
X68072000Y-94488000D01*
X64429640Y-95082360D02*
X64135000Y-95377000D01*
X76835000Y-89789000D02*
X76835000Y-92075000D01*
X74422000Y-86741000D02*
X76073000Y-86741000D01*
X73914000Y-86233000D02*
X74422000Y-86741000D01*
X68961000Y-86106000D02*
X72009000Y-86106000D01*
X68834000Y-85979000D02*
X68961000Y-86106000D01*
X76835000Y-94107000D02*
X76581000Y-94361000D01*
X86995000Y-109728000D02*
X86995000Y-112141000D01*
X86614000Y-109347000D02*
X86995000Y-109728000D01*
X85979000Y-107061000D02*
X85979000Y-107315000D01*
X84328000Y-105410000D02*
X85979000Y-107061000D01*
X79883000Y-104267000D02*
X81915000Y-104267000D01*
X79121000Y-103505000D02*
X79883000Y-104267000D01*
X77089000Y-100965000D02*
X77597000Y-101473000D01*
X77089000Y-98425000D02*
X77089000Y-100965000D01*
X76708000Y-98044000D02*
X77089000Y-98425000D01*
X76581000Y-94361000D02*
X76581000Y-96393000D01*
X112776000Y-45720000D02*
X112395000Y-45720000D01*
X114617500Y-45212000D02*
X112776000Y-45720000D01*
X117094000Y-45085000D02*
X115443000Y-45085000D01*
X118872000Y-44704000D02*
X117094000Y-45085000D01*
X121920000Y-44577000D02*
X119761000Y-44577000D01*
X122047000Y-44704000D02*
X121920000Y-44577000D01*
X123444000Y-45339000D02*
X123317000Y-45339000D01*
X124841000Y-46736000D02*
X123444000Y-45339000D01*
X127762000Y-48006000D02*
X126746000Y-48006000D01*
X128524000Y-48768000D02*
X127762000Y-48006000D01*
X131216400Y-45212000D02*
X133011000Y-45000000D01*
X129159000Y-43815000D02*
X130683000Y-44323000D01*
X127825500Y-42989500D02*
X129159000Y-43815000D01*
X125095000Y-42291000D02*
X126746000Y-42291000D01*
X123126500Y-41211500D02*
X125095000Y-42291000D01*
X119634000Y-41148000D02*
X121666000Y-41148000D01*
X119380000Y-40894000D02*
X119634000Y-41148000D01*
X114300000Y-40767000D02*
X118364000Y-40957500D01*
X114046000Y-41021000D02*
X114300000Y-40767000D01*
X110871000Y-41402000D02*
X112014000Y-41402000D01*
X109855000Y-42418000D02*
X110871000Y-41402000D01*
X106553000Y-43307000D02*
X108394500Y-42735500D01*
X104394000Y-45339000D02*
X106553000Y-43307000D01*
X133011000Y-45000000D02*
X135000000Y-45000000D01*
X108798360Y-57612280D02*
X109077760Y-57891680D01*
X109077760Y-57891680D02*
X109077760Y-58729880D01*
X108910120Y-59847480D02*
X109133640Y-60071000D01*
X109133640Y-60071000D02*
X109133640Y-61468000D01*
X108966000Y-62697360D02*
X108630720Y-63032640D01*
X108630720Y-63032640D02*
X108630720Y-64709040D01*
X113101120Y-60518040D02*
X113101120Y-61244480D01*
X113157000Y-60462160D02*
X113101120Y-60518040D01*
X113045240Y-56941720D02*
X113045240Y-58729880D01*
X113045240Y-52918360D02*
X113045240Y-54874160D01*
X137261600Y-73075800D02*
X137058400Y-76708000D01*
X136682480Y-70576440D02*
X137058400Y-71831200D01*
X136458960Y-70352920D02*
X136682480Y-70576440D01*
X136644380Y-65714880D02*
X136588500Y-69278500D01*
X136588500Y-65659000D02*
X136644380Y-65714880D01*
X136595658Y-61911703D02*
X136626600Y-64653160D01*
X136682480Y-59344560D02*
X136682480Y-60741560D01*
X136458960Y-59121040D02*
X136682480Y-59344560D01*
X137312400Y-101295200D02*
X137287000Y-104444800D01*
X137439400Y-101168200D02*
X137312400Y-101295200D01*
X137185400Y-97078800D02*
X137312400Y-99949000D01*
X137414000Y-96850200D02*
X137185400Y-97078800D01*
X137236200Y-91744800D02*
X137287000Y-95694500D01*
X137287000Y-91694000D02*
X137236200Y-91744800D01*
X137287000Y-87960200D02*
X137287000Y-90601800D01*
X136956800Y-87630000D02*
X137287000Y-87960200D01*
X46786800Y-121767600D02*
X47853600Y-120700800D01*
X47853600Y-120700800D02*
X48056800Y-120700800D01*
X49530000Y-120599200D02*
X49631600Y-120700800D01*
X49631600Y-120700800D02*
X50850800Y-120700800D01*
X77927200Y-56743600D02*
X76250800Y-56743600D01*
X77978000Y-56794400D02*
X77927200Y-56743600D01*
X54508400Y-54203600D02*
X52222400Y-54203600D01*
X54660800Y-54051200D02*
X54508400Y-54203600D01*
X56337200Y-54914800D02*
X55880000Y-54914800D01*
X58115200Y-56692800D02*
X56337200Y-54914800D01*
X62674500Y-57404000D02*
X59334400Y-57404000D01*
X67449700Y-57264300D02*
X63804800Y-57150000D01*
X67500500Y-57213500D02*
X67449700Y-57264300D01*
X71170800Y-56794400D02*
X68580000Y-56794400D01*
X74117200Y-56794400D02*
X72491600Y-56794400D01*
X45000000Y-52920000D02*
X45000000Y-52688400D01*
X45000000Y-52688400D02*
X48006000Y-50673000D01*
X69062600Y-52044600D02*
X74930000Y-52019200D01*
X68961000Y-51943000D02*
X69062600Y-52044600D01*
X64820800Y-51562000D02*
X67564000Y-51562000D01*
X62801500Y-51117500D02*
X64820800Y-51562000D01*
X58572400Y-50749200D02*
X61518800Y-50749200D01*
X58267600Y-50444400D02*
X58572400Y-50749200D01*
X54711600Y-50241200D02*
X56438800Y-50241200D01*
X54610000Y-50342800D02*
X54711600Y-50241200D01*
X49631600Y-50292000D02*
X53340000Y-50292000D01*
X49326800Y-50596800D02*
X49631600Y-50292000D01*
X42722800Y-93929200D02*
X42722800Y-92049600D01*
X42875200Y-90424000D02*
X42976800Y-90322400D01*
X42976800Y-90322400D02*
X42976800Y-89357200D01*
X42710100Y-97497900D02*
X42773600Y-95084900D01*
X42583100Y-97624900D02*
X42710100Y-97497900D01*
X42593260Y-101798120D02*
X42837100Y-98882200D01*
X42720260Y-101925120D02*
X42593260Y-101798120D01*
X42705020Y-104899460D02*
X42692320Y-103124000D01*
X42832020Y-105026460D02*
X42705020Y-104899460D01*
X43180000Y-107442000D02*
X42887900Y-106032300D01*
X43307000Y-107569000D02*
X43180000Y-107442000D01*
X43129200Y-87934800D02*
X43180000Y-87934800D01*
X43078400Y-87884000D02*
X43129200Y-87934800D01*
X43434000Y-61518800D02*
X43434000Y-60350400D01*
X42976800Y-61976000D02*
X43434000Y-61518800D01*
X42773600Y-65430400D02*
X42773600Y-63601600D01*
X42621200Y-65582800D02*
X42773600Y-65430400D01*
X42621200Y-69392800D02*
X42621200Y-67411600D01*
X42672000Y-72847200D02*
X42672000Y-70612000D01*
X42621200Y-72898000D02*
X42672000Y-72847200D01*
X42875200Y-75895200D02*
X42926000Y-73787000D01*
X42976800Y-75996800D02*
X42875200Y-75895200D01*
X43027600Y-78994000D02*
X42926000Y-77089000D01*
X43180000Y-79146400D02*
X43027600Y-78994000D01*
D34*
X69291200Y-117962680D02*
X69291200Y-121259600D01*
X69291200Y-112962680D02*
X70338960Y-112962680D01*
X82768440Y-113273840D02*
X86360000Y-116865400D01*
X70650120Y-113273840D02*
X82768440Y-113273840D01*
X70338960Y-112962680D02*
X70650120Y-113273840D01*
X92710000Y-116865400D02*
X92710000Y-119811800D01*
X93345000Y-120446800D02*
X98907600Y-120446800D01*
X92710000Y-119811800D02*
X93345000Y-120446800D01*
X92710000Y-116865400D02*
X93294200Y-116865400D01*
X103907600Y-120446800D02*
X107543600Y-120700800D01*
X107543600Y-120700800D02*
X107797600Y-120446800D01*
D35*
X58369200Y-63246000D02*
X58369200Y-66751200D01*
X58369200Y-66751200D02*
X59121040Y-67503040D01*
X57658000Y-67558920D02*
X57658000Y-73152000D01*
X55118000Y-75692000D02*
X52070000Y-75692000D01*
X57658000Y-73152000D02*
X55118000Y-75692000D01*
X55768240Y-67558920D02*
X57658000Y-67558920D01*
X57658000Y-67558920D02*
X59065160Y-67558920D01*
X59065160Y-67558920D02*
X59121040Y-67503040D01*
X55046880Y-93248480D02*
X54640480Y-93248480D01*
X54640480Y-93248480D02*
X53213000Y-91821000D01*
X53213000Y-91821000D02*
X53213000Y-88773000D01*
X53213000Y-88773000D02*
X54483000Y-87503000D01*
X54483000Y-87503000D02*
X56134000Y-87503000D01*
X56134000Y-87503000D02*
X57785000Y-85852000D01*
X57785000Y-85852000D02*
X57785000Y-84201000D01*
X57785000Y-84201000D02*
X54610000Y-81026000D01*
X54610000Y-81026000D02*
X54610000Y-78232000D01*
X54610000Y-78232000D02*
X52070000Y-75692000D01*
X55046880Y-93248480D02*
X55046880Y-96873060D01*
X55046880Y-96873060D02*
X55633620Y-97459800D01*
X63982600Y-127831998D02*
X63821458Y-127831998D01*
X55633620Y-97459800D02*
X53812440Y-97459800D01*
X56243220Y-98069400D02*
X55633620Y-97459800D01*
X56243220Y-106702860D02*
X56243220Y-98069400D01*
X63169800Y-113629440D02*
X56243220Y-106702860D01*
X63169800Y-127180340D02*
X63169800Y-113629440D01*
X63821458Y-127831998D02*
X63169800Y-127180340D01*
X80010000Y-127000000D02*
X83781900Y-123228100D01*
X83781900Y-123228100D02*
X93078300Y-123228100D01*
X79178002Y-127831998D02*
X80010000Y-127000000D01*
X63696998Y-127831998D02*
X63982600Y-127831998D01*
X63982600Y-127831998D02*
X79178002Y-127831998D01*
X106934000Y-108458000D02*
X106794300Y-114302540D01*
X106794300Y-114302540D02*
X109042200Y-116550440D01*
X105308400Y-116941600D02*
X105816400Y-116941600D01*
X105816400Y-116941600D02*
X105496360Y-116550440D01*
X105496360Y-116550440D02*
X109042200Y-116550440D01*
X109042200Y-116550440D02*
X109524800Y-116550440D01*
X109524800Y-116550440D02*
X111246920Y-116550440D01*
X111246920Y-116550440D02*
X111739680Y-117043200D01*
X93078300Y-123228100D02*
X107810300Y-123228100D01*
X109829600Y-121208800D02*
X109829600Y-117337840D01*
X107810300Y-123228100D02*
X109829600Y-121208800D01*
X109829600Y-117337840D02*
X109042200Y-116550440D01*
X103713280Y-108351320D02*
X106367580Y-108186220D01*
X106367580Y-108186220D02*
X106934000Y-108458000D01*
X109169200Y-116677440D02*
X109042200Y-116550440D01*
X93167200Y-123317000D02*
X93078300Y-123228100D01*
D36*
X131165600Y-116840000D02*
X131165600Y-113944400D01*
X131165600Y-113944400D02*
X131064000Y-113842800D01*
D34*
X130302000Y-126960000D02*
X130850000Y-126960000D01*
X130850000Y-126960000D02*
X133270000Y-124540000D01*
X133270000Y-124540000D02*
X135000000Y-124540000D01*
X130175000Y-130215000D02*
X130175000Y-127087000D01*
X130175000Y-127087000D02*
X130302000Y-126960000D01*
X122555000Y-132588000D02*
X122936000Y-132588000D01*
X125309000Y-130215000D02*
X130175000Y-130215000D01*
X122936000Y-132588000D02*
X125309000Y-130215000D01*
D35*
X117411500Y-135699500D02*
X122110500Y-135699500D01*
X122110500Y-135699500D02*
X123698000Y-137287000D01*
D34*
X115661440Y-124749560D02*
X115661440Y-125694440D01*
X123698000Y-133731000D02*
X123698000Y-137287000D01*
X115661440Y-125694440D02*
X122555000Y-132588000D01*
X122555000Y-132588000D02*
X123698000Y-133731000D01*
X115661440Y-118379240D02*
X115661440Y-124749560D01*
X117937280Y-115051840D02*
X121691400Y-109270800D01*
X116621560Y-115895120D02*
X117937280Y-115051840D01*
X115661440Y-118379240D02*
X116621560Y-115895120D01*
X116078000Y-66319400D02*
X116078000Y-67767200D01*
X122364500Y-101092000D02*
X123380500Y-96710500D01*
X122024140Y-105923080D02*
X122080020Y-101092000D01*
X121691400Y-109270800D02*
X122024140Y-105923080D01*
X122080020Y-101092000D02*
X122364500Y-101092000D01*
X123456700Y-87261700D02*
X123063000Y-83705700D01*
X116078000Y-67767200D02*
X116078000Y-71932800D01*
X123380500Y-96710500D02*
X123456700Y-87261700D01*
X116078000Y-78562200D02*
X116078000Y-71932800D01*
X117795040Y-80279240D02*
X116078000Y-78562200D01*
X119750840Y-80279240D02*
X117795040Y-80279240D01*
X123063000Y-83705700D02*
X119750840Y-80279240D01*
X113512600Y-66319400D02*
X116078000Y-66319400D01*
X115062000Y-125349000D02*
X108193840Y-125349000D01*
X115661440Y-124749560D02*
X115062000Y-125349000D01*
X86410800Y-125171200D02*
X85521800Y-125171200D01*
X85521800Y-125171200D02*
X82270600Y-129032000D01*
X82270600Y-129032000D02*
X68945760Y-129032000D01*
X103926640Y-125349000D02*
X108193840Y-125349000D01*
X99390200Y-125349000D02*
X103926640Y-125349000D01*
X95214440Y-125262640D02*
X99303840Y-125262640D01*
X99303840Y-125262640D02*
X99390200Y-125349000D01*
X90769440Y-125262640D02*
X95214440Y-125262640D01*
X114554000Y-58928000D02*
X114554000Y-65278000D01*
X114554000Y-65278000D02*
X113512600Y-66319400D01*
X114554000Y-55626000D02*
X114554000Y-58928000D01*
X114554000Y-55626000D02*
X114554000Y-51181000D01*
X114554000Y-51181000D02*
X111506000Y-48133000D01*
D35*
X45000000Y-125460000D02*
X45069000Y-125460000D01*
X45069000Y-125460000D02*
X45974000Y-126365000D01*
X45974000Y-126365000D02*
X51181000Y-126365000D01*
X51181000Y-122468000D02*
X51181000Y-126365000D01*
X51181000Y-126365000D02*
X52832000Y-128016000D01*
D34*
X45000000Y-125460000D02*
X45482000Y-125460000D01*
X45482000Y-125460000D02*
X48474000Y-122468000D01*
X48474000Y-122468000D02*
X49784000Y-122468000D01*
X49784000Y-122468000D02*
X51181000Y-122468000D01*
X51181000Y-122468000D02*
X52832000Y-122468000D01*
D35*
X45000000Y-125460000D02*
X45000000Y-125434000D01*
D34*
X102260400Y-60198000D02*
X102260400Y-60477400D01*
X102260400Y-60477400D02*
X105156000Y-63373000D01*
X98983800Y-60238640D02*
X102219760Y-60238640D01*
X102219760Y-60238640D02*
X102260400Y-60198000D01*
X107200700Y-66230500D02*
X106707940Y-66230500D01*
X106707940Y-66230500D02*
X103860600Y-69077840D01*
X103860600Y-69077840D02*
X103860600Y-76012040D01*
X103860600Y-76012040D02*
X103748840Y-76123800D01*
X104470200Y-62687200D02*
X105156000Y-63373000D01*
X105156000Y-63373000D02*
X105156000Y-64185800D01*
X105156000Y-64185800D02*
X107200700Y-66230500D01*
X107200700Y-66230500D02*
X107289600Y-66319400D01*
X107289600Y-66319400D02*
X113512600Y-66319400D01*
X117348000Y-47650400D02*
X111988600Y-47650400D01*
X111988600Y-47650400D02*
X111506000Y-48133000D01*
X111506000Y-48133000D02*
X112699800Y-48133000D01*
X86410800Y-125171200D02*
X90769440Y-125262640D01*
X64135000Y-129133600D02*
X68945760Y-129032000D01*
X56692800Y-120751600D02*
X57724040Y-118745000D01*
X57724040Y-118745000D02*
X61356240Y-118577360D01*
X61356240Y-118577360D02*
X61341000Y-129108200D01*
X61341000Y-129108200D02*
X64135000Y-129133600D01*
X53314600Y-122377200D02*
X56692800Y-120751600D01*
X52538000Y-122377200D02*
X53314600Y-122377200D01*
X84277200Y-53543240D02*
X87731560Y-53543240D01*
X91414600Y-51473100D02*
X94678500Y-48209200D01*
X89801700Y-51473100D02*
X91414600Y-51473100D01*
X87731560Y-53543240D02*
X89801700Y-51473100D01*
X94678500Y-48209200D02*
X94678500Y-48006000D01*
X84277200Y-53543240D02*
X84277200Y-90060600D01*
X84277200Y-90060600D02*
X84396600Y-90180000D01*
X58943240Y-91023440D02*
X58943240Y-87030560D01*
X58943240Y-87030560D02*
X60858400Y-85115400D01*
X71247000Y-105359200D02*
X71531480Y-105359200D01*
X71531480Y-105359200D02*
X73538080Y-108966000D01*
X73538080Y-108966000D02*
X74777600Y-108966000D01*
X58801000Y-101041200D02*
X59969400Y-101015800D01*
X63779400Y-105384600D02*
X71247000Y-105359200D01*
X59969400Y-101015800D02*
X63779400Y-105384600D01*
X74777600Y-106426000D02*
X80568800Y-106426000D01*
X81076800Y-106934000D02*
X81076800Y-110972600D01*
X80568800Y-106426000D02*
X81076800Y-106934000D01*
X74777600Y-103886000D02*
X74777600Y-98321000D01*
X74777600Y-98321000D02*
X74236600Y-97780000D01*
X70916800Y-96443800D02*
X72900400Y-96443800D01*
X72900400Y-96443800D02*
X74236600Y-97780000D01*
X71501000Y-101041200D02*
X70967600Y-96494600D01*
X70967600Y-96494600D02*
X70916800Y-96443800D01*
X81076800Y-100812600D02*
X85547200Y-100812600D01*
X85547200Y-100812600D02*
X86360000Y-101625400D01*
X79316600Y-97780000D02*
X79316600Y-90180000D01*
X60858400Y-54635400D02*
X78168500Y-54546500D01*
X78168500Y-54546500D02*
X79514700Y-53200300D01*
X79514700Y-56819800D02*
X79514700Y-53200300D01*
X79514700Y-53200300D02*
X79514700Y-51627296D01*
X57708800Y-52641500D02*
X60858400Y-54635400D01*
X91719400Y-41948100D02*
X79514700Y-51627296D01*
X81813400Y-57327800D02*
X80022700Y-57327800D01*
X80022700Y-57327800D02*
X79514700Y-56819800D01*
X45000000Y-55460000D02*
X45568500Y-55460000D01*
X45568500Y-55460000D02*
X48387000Y-52641500D01*
X48387000Y-52641500D02*
X57708800Y-52641500D01*
X44122340Y-55450740D02*
X44122340Y-55015500D01*
X44122340Y-55015500D02*
X45000000Y-55460000D01*
X42723700Y-55460000D02*
X44122340Y-55015500D01*
X41236900Y-56946800D02*
X42723700Y-55460000D01*
X105156000Y-48133000D02*
X104419400Y-48133000D01*
X104419400Y-48133000D02*
X100101400Y-41821100D01*
X100101400Y-41821100D02*
X91719400Y-41948100D01*
X81813400Y-60350400D02*
X81813400Y-57327800D01*
X81813400Y-60350400D02*
X81813400Y-63398400D01*
X81686400Y-63525400D02*
X81686400Y-66344800D01*
X81686400Y-66344800D02*
X81635600Y-66395600D01*
X81813400Y-63398400D02*
X81686400Y-63525400D01*
X45084500Y-83375500D02*
X45000000Y-83460000D01*
X45000000Y-83460000D02*
X42612900Y-83460000D01*
X42612900Y-83460000D02*
X41236900Y-84836000D01*
X45000000Y-111460000D02*
X41448000Y-111460000D01*
X41236900Y-111248900D02*
X41236900Y-97955100D01*
X41236900Y-97955100D02*
X41236900Y-84836000D01*
X41236900Y-84836000D02*
X41236900Y-71805800D01*
X41236900Y-71805800D02*
X41236900Y-56946800D01*
X41448000Y-111460000D02*
X41236900Y-111248900D01*
D35*
X112522000Y-104902000D02*
X114935000Y-104711500D01*
X116141500Y-103378000D02*
X116332000Y-100965000D01*
X114935000Y-104711500D02*
X116141500Y-103378000D01*
X116078000Y-100711000D02*
X116332000Y-100965000D01*
X96316800Y-104510840D02*
X95285560Y-104510840D01*
X93980000Y-111506000D02*
X100228400Y-116941600D01*
X93980000Y-105816400D02*
X93980000Y-111506000D01*
X95285560Y-104510840D02*
X93980000Y-105816400D01*
D36*
X130530600Y-97673800D02*
X131827900Y-97673800D01*
X134770500Y-72772900D02*
X134770500Y-64211200D01*
X129133600Y-78409800D02*
X134770500Y-72772900D01*
X129133600Y-86220300D02*
X129133600Y-78409800D01*
X132994400Y-90081100D02*
X129133600Y-86220300D01*
X132994400Y-96507300D02*
X132994400Y-90081100D01*
X131827900Y-97673800D02*
X132994400Y-96507300D01*
X130530600Y-97673800D02*
X130530600Y-101600000D01*
X129311400Y-102819200D02*
X129311400Y-119507000D01*
X130530600Y-101600000D02*
X129311400Y-102819200D01*
X123698000Y-124561600D02*
X124764800Y-124561600D01*
X124764800Y-124561600D02*
X127457200Y-121869200D01*
X127457200Y-121869200D02*
X127457200Y-121361200D01*
X127457200Y-121361200D02*
X129311400Y-119507000D01*
X129311400Y-119507000D02*
X129478400Y-119340000D01*
X129478400Y-119340000D02*
X131165600Y-119340000D01*
X131165600Y-119340000D02*
X131662800Y-119340000D01*
X131662800Y-119340000D02*
X132994400Y-118008400D01*
X132994400Y-118008400D02*
X138379200Y-118008400D01*
X138379200Y-118008400D02*
X138938000Y-118567200D01*
X138938000Y-118567200D02*
X138938000Y-125476000D01*
X138938000Y-125476000D02*
X137210800Y-127203200D01*
X137210800Y-127203200D02*
X135123200Y-127203200D01*
X135123200Y-127203200D02*
X135000000Y-127080000D01*
X135102880Y-127182880D02*
X135000000Y-127080000D01*
D35*
X49397920Y-93207840D02*
X49705260Y-96001840D01*
X49705260Y-96001840D02*
X49593500Y-96113600D01*
X49593500Y-96113600D02*
X50068480Y-97594420D01*
X51970940Y-99999800D02*
X53812440Y-99999800D01*
X50068480Y-97594420D02*
X51970940Y-99999800D01*
D34*
X107950000Y-53086000D02*
X107950000Y-53355240D01*
X107950000Y-53355240D02*
X111506000Y-56911240D01*
X90703400Y-57327800D02*
X95148400Y-54216300D01*
X95148400Y-54216300D02*
X95148400Y-54000400D01*
X107950000Y-53086000D02*
X95973900Y-53174900D01*
X95973900Y-53174900D02*
X95148400Y-54000400D01*
X120393460Y-42463720D02*
X120393460Y-42412920D01*
X122742960Y-42590720D02*
X120393460Y-42463720D01*
X132689600Y-49326800D02*
X122742960Y-42590720D01*
X137007600Y-49326800D02*
X132689600Y-49326800D01*
X107950000Y-53086000D02*
X107950000Y-45339000D01*
X107950000Y-45339000D02*
X115570000Y-42545000D01*
X115570000Y-42545000D02*
X120393460Y-42412920D01*
X111506000Y-56911240D02*
X111506000Y-63373000D01*
X86813400Y-57327800D02*
X90703400Y-57327800D01*
X135000000Y-82540000D02*
X137581800Y-82540000D01*
X137581800Y-82540000D02*
X138785600Y-83743800D01*
X138785600Y-55930800D02*
X138785600Y-51104800D01*
X138785600Y-51104800D02*
X137007600Y-49326800D01*
X135000000Y-110540000D02*
X136754400Y-110540000D01*
X138785600Y-108508800D02*
X138785600Y-98094800D01*
X138785600Y-98094800D02*
X138785600Y-83743800D01*
X138785600Y-83743800D02*
X138785600Y-84124800D01*
X138785600Y-84124800D02*
X138785600Y-70662800D01*
X136754400Y-110540000D02*
X138785600Y-108508800D01*
X137394800Y-54540000D02*
X135000000Y-54540000D01*
X138785600Y-70662800D02*
X138785600Y-55930800D01*
X138785600Y-55930800D02*
X137394800Y-54540000D01*
X111506000Y-63373000D02*
X111506000Y-62992000D01*
X86686400Y-63525400D02*
X86686400Y-67110600D01*
X86686400Y-67110600D02*
X86635600Y-67059800D01*
X86635600Y-67059800D02*
X86635600Y-66395600D01*
X86813400Y-57327800D02*
X86813400Y-60350400D01*
X86813400Y-60350400D02*
X86813400Y-63398400D01*
X86337140Y-60464700D02*
X86451440Y-60350400D01*
X86451440Y-60350400D02*
X86813400Y-60350400D01*
X86813400Y-63398400D02*
X86686400Y-63525400D01*
D35*
X117576600Y-88823800D02*
X117576600Y-91236800D01*
X119583200Y-94145100D02*
X120129300Y-96431100D01*
X117576600Y-91236800D02*
X119583200Y-94145100D01*
X107289600Y-90855800D02*
X110210600Y-90855800D01*
X110210600Y-90855800D02*
X113258600Y-93903800D01*
X114782600Y-94284800D02*
X113639600Y-94284800D01*
X114274600Y-88823800D02*
X117576600Y-88823800D01*
X113258600Y-89839800D02*
X114274600Y-88823800D01*
X113258600Y-93903800D02*
X113258600Y-89839800D01*
X113639600Y-94284800D02*
X113258600Y-93903800D01*
X91404440Y-87172800D02*
X91404440Y-89567840D01*
X91404440Y-89567840D02*
X92016600Y-90180000D01*
X95783400Y-89433400D02*
X98298000Y-89433400D01*
X98298000Y-89433400D02*
X100685600Y-87045800D01*
X92016600Y-90180000D02*
X95036800Y-90180000D01*
X95036800Y-90180000D02*
X95783400Y-89433400D01*
D34*
X59131200Y-121259600D02*
X59131200Y-122509280D01*
X56062880Y-134945120D02*
X52832000Y-138176000D01*
X56062880Y-125577600D02*
X56062880Y-134945120D01*
X59131200Y-122509280D02*
X56062880Y-125577600D01*
X52832000Y-138176000D02*
X49847500Y-138112500D01*
X49847500Y-138112500D02*
X49784000Y-138176000D01*
X45000000Y-128000000D02*
X45043600Y-128000000D01*
X45043600Y-128000000D02*
X49504600Y-132461000D01*
X49504600Y-132461000D02*
X49784000Y-138176000D01*
D36*
X126873000Y-127000000D02*
X126873000Y-124942600D01*
X129815600Y-122000000D02*
X135000000Y-122000000D01*
X126873000Y-124942600D02*
X129815600Y-122000000D01*
X123698000Y-127127000D02*
X126746000Y-127127000D01*
X126746000Y-127127000D02*
X126873000Y-127000000D01*
X117957600Y-120446800D02*
X117957600Y-122478800D01*
X122605800Y-127127000D02*
X123698000Y-127127000D01*
X117957600Y-122478800D02*
X122605800Y-127127000D01*
D35*
X126746000Y-127127000D02*
X126873000Y-127000000D01*
X125882400Y-101701600D02*
X127863600Y-101701600D01*
X127863600Y-101701600D02*
X128371600Y-101193600D01*
X126238000Y-92760800D02*
X126238000Y-92938600D01*
X126238000Y-92938600D02*
X128371600Y-95072200D01*
X128371600Y-95072200D02*
X128371600Y-101193600D01*
D34*
X69916040Y-91099640D02*
X73891000Y-90525600D01*
X73891000Y-90525600D02*
X74236600Y-90180000D01*
D35*
X53835300Y-55473600D02*
X53835300Y-56349900D01*
X53835300Y-56349900D02*
X56286400Y-58801000D01*
X55829200Y-63246000D02*
X56159400Y-58928000D01*
X56159400Y-58928000D02*
X56286400Y-58801000D01*
X55651400Y-63423800D02*
X55829200Y-63246000D01*
D36*
X52501800Y-108661200D02*
X51521360Y-108463080D01*
X51521360Y-108463080D02*
X49509680Y-106451400D01*
X48768000Y-101727000D02*
X48768000Y-100838000D01*
X47712000Y-80986000D02*
X47712000Y-74930000D01*
X50292000Y-83566000D02*
X47712000Y-80986000D01*
X50292000Y-86360000D02*
X50292000Y-83566000D01*
X47498000Y-89154000D02*
X50292000Y-86360000D01*
X47498000Y-99568000D02*
X47498000Y-89154000D01*
X48768000Y-100838000D02*
X47498000Y-99568000D01*
X46848400Y-103174800D02*
X46848400Y-103037000D01*
X46848400Y-103037000D02*
X48158400Y-101727000D01*
X48158400Y-101727000D02*
X48768000Y-101727000D01*
X48768000Y-101727000D02*
X50520600Y-101727000D01*
X50520600Y-101727000D02*
X52501800Y-103708200D01*
X52501800Y-103708200D02*
X52501800Y-105498900D01*
X52501800Y-105498900D02*
X54580160Y-107577260D01*
X54580160Y-107577260D02*
X54580160Y-110027720D01*
X56896000Y-109474000D02*
X54580160Y-110027720D01*
X54580160Y-110027720D02*
X52501800Y-111161200D01*
X53380640Y-115407440D02*
X52237640Y-111425360D01*
X52237640Y-111425360D02*
X52501800Y-111161200D01*
D34*
X45000000Y-122920000D02*
X45000000Y-119825680D01*
X53380640Y-117617240D02*
X53380640Y-115407440D01*
X52237640Y-118760240D02*
X53380640Y-117617240D01*
X46065440Y-118760240D02*
X52237640Y-118760240D01*
X45000000Y-119825680D02*
X46065440Y-118760240D01*
D35*
X45000000Y-122920000D02*
X45000000Y-122919400D01*
D36*
X130530600Y-95173800D02*
X130530600Y-92481400D01*
X130530600Y-92481400D02*
X130708400Y-92303600D01*
X44348400Y-103174800D02*
X44348400Y-101841300D01*
X44348400Y-101841300D02*
X45681900Y-100507800D01*
D35*
X127863600Y-75717400D02*
X127863600Y-73164700D01*
X127863600Y-73164700D02*
X129616200Y-71412100D01*
X126733300Y-79235300D02*
X126733300Y-76847700D01*
X126733300Y-76847700D02*
X127863600Y-75717400D01*
X50292000Y-69977000D02*
X50292000Y-77978000D01*
X50546000Y-78232000D02*
X52070000Y-78232000D01*
X50292000Y-77978000D02*
X50546000Y-78232000D01*
X52070000Y-78232000D02*
X52197000Y-78232000D01*
X52197000Y-78232000D02*
X53594000Y-79629000D01*
X53594000Y-79629000D02*
X53594000Y-83058000D01*
X53594000Y-83058000D02*
X55880000Y-85344000D01*
D36*
X130987800Y-61074300D02*
X131597400Y-61074300D01*
X131597400Y-61074300D02*
X132270500Y-61747400D01*
X132270500Y-61747400D02*
X132270500Y-64211200D01*
X45212000Y-74930000D02*
X45212000Y-72136000D01*
X45212000Y-72136000D02*
X45466000Y-71882000D01*
D35*
X127685800Y-58674000D02*
X127685800Y-61518800D01*
X122885200Y-58369200D02*
X127381000Y-58369200D01*
X127381000Y-58369200D02*
X127685800Y-58674000D01*
X126238000Y-95300800D02*
X126047500Y-95300800D01*
X126047500Y-95300800D02*
X124853700Y-94107000D01*
X124612400Y-68618100D02*
X126174500Y-67056000D01*
X124612400Y-81940400D02*
X124612400Y-68618100D01*
X124853700Y-82181700D02*
X124612400Y-81940400D01*
X124853700Y-94107000D02*
X124853700Y-82181700D01*
X122377200Y-66553080D02*
X125671580Y-66553080D01*
X125671580Y-66553080D02*
X126174500Y-67056000D01*
X126174500Y-67056000D02*
X126177040Y-67056000D01*
X126177040Y-67056000D02*
X128579880Y-69458840D01*
X128579880Y-69458840D02*
X130202940Y-69458840D01*
X130202940Y-69458840D02*
X132156200Y-71412100D01*
X122885200Y-60909200D02*
X122885200Y-61239400D01*
X122885200Y-61239400D02*
X122377200Y-61747400D01*
X122377200Y-61747400D02*
X122377200Y-66553080D01*
X124688600Y-106273600D02*
X124688600Y-105867200D01*
X124688600Y-105867200D02*
X124485400Y-105664000D01*
X124485400Y-105664000D02*
X124485400Y-97688400D01*
X124485400Y-97688400D02*
X126238000Y-95935800D01*
X126238000Y-95935800D02*
X126238000Y-95300800D01*
X124688600Y-106273600D02*
X124688600Y-108737400D01*
X122453400Y-117043200D02*
X119359680Y-117043200D01*
X125425200Y-114071400D02*
X122453400Y-117043200D01*
X125425200Y-109474000D02*
X125425200Y-114071400D01*
X124688600Y-108737400D02*
X125425200Y-109474000D01*
X119359680Y-117043200D02*
X119684800Y-117043200D01*
X119359680Y-117043200D02*
X119811800Y-117043200D01*
X112776000Y-85090000D02*
X112776000Y-85344000D01*
X112776000Y-85344000D02*
X114808000Y-87376000D01*
X114808000Y-87376000D02*
X118694200Y-87376000D01*
X118694200Y-87376000D02*
X120129300Y-88811100D01*
X120129300Y-88811100D02*
X119938800Y-88811100D01*
X113284000Y-111658400D02*
X114858800Y-110083600D01*
X111861600Y-106680000D02*
X111861600Y-106527600D01*
X112014000Y-106680000D02*
X111861600Y-106680000D01*
X112674400Y-106680000D02*
X112014000Y-106680000D01*
X114858800Y-108864400D02*
X112674400Y-106680000D01*
X114858800Y-110083600D02*
X114858800Y-108864400D01*
X112268000Y-126746000D02*
X112268000Y-130429000D01*
X112268000Y-130429000D02*
X112458500Y-130619500D01*
X112458500Y-130619500D02*
X111506000Y-130619500D01*
X108193840Y-133931660D02*
X108193840Y-138049000D01*
X111506000Y-130619500D02*
X108193840Y-133931660D01*
X103886000Y-99314000D02*
X106172000Y-99314000D01*
X112268000Y-123952000D02*
X113284000Y-122936000D01*
X113284000Y-122936000D02*
X113284000Y-111658400D01*
X111861600Y-106527600D02*
X109474000Y-104140000D01*
X103886000Y-99314000D02*
X102870000Y-99314000D01*
X102870000Y-99314000D02*
X102108000Y-98552000D01*
X102108000Y-98552000D02*
X102108000Y-96774000D01*
X102108000Y-96774000D02*
X104216200Y-94665800D01*
X104216200Y-92227400D02*
X104216200Y-94665800D01*
X109474000Y-102616000D02*
X109474000Y-104140000D01*
X106172000Y-99314000D02*
X109474000Y-102616000D01*
X113411000Y-101473000D02*
X113411000Y-98501200D01*
X113411000Y-98501200D02*
X114452400Y-97459800D01*
D34*
X99390200Y-138049000D02*
X95300800Y-138049000D01*
X95300800Y-138049000D02*
X95214440Y-137962640D01*
X103926640Y-138049000D02*
X99390200Y-138049000D01*
X108193840Y-138049000D02*
X103926640Y-138049000D01*
X90769440Y-137962640D02*
X95158560Y-138018520D01*
X95158560Y-138018520D02*
X95214440Y-137962640D01*
X86410800Y-137871200D02*
X90769440Y-137962640D01*
X80924400Y-134416800D02*
X83149440Y-134223760D01*
X87467440Y-138541760D02*
X86410800Y-137871200D01*
X83149440Y-134223760D02*
X87467440Y-138541760D01*
D35*
X114452400Y-97459800D02*
X114452400Y-97185480D01*
X114452400Y-97185480D02*
X109915960Y-92649040D01*
X109915960Y-92649040D02*
X104637840Y-92649040D01*
X104637840Y-92649040D02*
X104216200Y-92227400D01*
X104040300Y-92051500D02*
X104216200Y-92227400D01*
X119126000Y-85598000D02*
X120396000Y-86106000D01*
X116738400Y-98145600D02*
X116103400Y-97510600D01*
X121234200Y-98145600D02*
X116738400Y-98145600D01*
X121843800Y-97536000D02*
X121234200Y-98145600D01*
X121843800Y-87553800D02*
X121843800Y-97536000D01*
X120396000Y-86106000D02*
X121843800Y-87553800D01*
X114452400Y-97459800D02*
X116103400Y-97510600D01*
X116103400Y-97510600D02*
X116509800Y-97510600D01*
X116509800Y-97510600D02*
X117576600Y-96443800D01*
X117576600Y-96443800D02*
X117576600Y-97002600D01*
X114909600Y-90855800D02*
X115671600Y-90855800D01*
X115671600Y-90855800D02*
X117576600Y-92760800D01*
X117576600Y-92760800D02*
X117576600Y-96443800D01*
X118884700Y-85356700D02*
X119126000Y-85598000D01*
X119126000Y-85598000D02*
X119126000Y-85534500D01*
X119126000Y-85534500D02*
X119595900Y-85064600D01*
X114452400Y-97459800D02*
X114668300Y-97459800D01*
D34*
X90769440Y-137962640D02*
X90769440Y-138673840D01*
X86410800Y-137871200D02*
X86410800Y-138694160D01*
D35*
X113106200Y-72199500D02*
X113106200Y-68630800D01*
X113106200Y-68630800D02*
X113233200Y-68503800D01*
X109982000Y-72390000D02*
X109982000Y-74676000D01*
X113106200Y-77800200D02*
X113106200Y-79819500D01*
X109982000Y-74676000D02*
X113106200Y-77800200D01*
X112166400Y-108559600D02*
X111760000Y-108458000D01*
X103886000Y-105156000D02*
X102616000Y-103886000D01*
X108458000Y-105156000D02*
X103886000Y-105156000D01*
X111760000Y-108458000D02*
X108458000Y-105156000D01*
X119786400Y-108559600D02*
X119786400Y-105257600D01*
X119786400Y-105257600D02*
X120142000Y-104902000D01*
X114300000Y-115316000D02*
X115011200Y-115316000D01*
X118110000Y-110921800D02*
X119786400Y-108559600D01*
X115011200Y-115316000D02*
X118110000Y-110921800D01*
X118681500Y-134429500D02*
X118681500Y-133858000D01*
X113792000Y-128968500D02*
X113792000Y-127000000D01*
X118681500Y-133858000D02*
X113792000Y-128968500D01*
X114300000Y-123444000D02*
X114300000Y-115316000D01*
X113792000Y-123952000D02*
X114300000Y-123444000D01*
X113792000Y-127508000D02*
X113792000Y-127000000D01*
X112458500Y-138239500D02*
X117411500Y-138239500D01*
X117411500Y-138239500D02*
X118681500Y-136969500D01*
X49593500Y-103733600D02*
X49545240Y-103733600D01*
X49545240Y-103733600D02*
X47663100Y-105196640D01*
X47663100Y-113235180D02*
X46898280Y-114000000D01*
X47663100Y-105196640D02*
X47663100Y-113235180D01*
D36*
X49593500Y-103733600D02*
X49126140Y-103733600D01*
X45760920Y-114000000D02*
X45000000Y-114000000D01*
X45000000Y-114000000D02*
X46898280Y-114000000D01*
X46898280Y-114000000D02*
X49509680Y-116611400D01*
D35*
X45000000Y-114000000D02*
X45000000Y-114169280D01*
D34*
X45147600Y-114147600D02*
X45000000Y-114000000D01*
D35*
X135991600Y-101193600D02*
X135432800Y-101193600D01*
X135432800Y-101193600D02*
X132943600Y-103682800D01*
D36*
X134518400Y-104648000D02*
X134518400Y-107518400D01*
X134518400Y-107518400D02*
X135000000Y-108000000D01*
X131064000Y-103682800D02*
X132943600Y-103682800D01*
X132943600Y-103682800D02*
X133553200Y-103682800D01*
X133553200Y-103682800D02*
X134518400Y-104648000D01*
X135369300Y-107630700D02*
X135000000Y-108000000D01*
D35*
X45000000Y-86000000D02*
X47604000Y-86000000D01*
X47604000Y-86000000D02*
X48260000Y-85344000D01*
D36*
X45681900Y-90347800D02*
X45681900Y-86681900D01*
X45681900Y-86681900D02*
X45000000Y-86000000D01*
D34*
X45005760Y-85994240D02*
X45000000Y-86000000D01*
D35*
X135000000Y-80000000D02*
X135000000Y-76201000D01*
X135000000Y-76201000D02*
X135483600Y-75717400D01*
D36*
X130708400Y-82143600D02*
X130784600Y-82143600D01*
X130784600Y-82143600D02*
X132928200Y-80000000D01*
X132928200Y-80000000D02*
X135000000Y-80000000D01*
D35*
X127685800Y-51054000D02*
X130848100Y-51054000D01*
X130848100Y-51054000D02*
X130987800Y-50914300D01*
D36*
X135000000Y-52000000D02*
X132073500Y-52000000D01*
X132073500Y-52000000D02*
X130987800Y-50914300D01*
X135000000Y-52000000D02*
X134486800Y-52000000D01*
X45466000Y-61722000D02*
X45466000Y-58466000D01*
X45466000Y-58466000D02*
X45000000Y-58000000D01*
D35*
X45000000Y-58000000D02*
X47865400Y-58000000D01*
X47865400Y-58000000D02*
X48666400Y-58801000D01*
M02*
