M48
;DRILL file {KiCad 4.0.7} date 04/28/20 21:31:34
;FORMAT={-:-/ absolute / metric / decimal}
FMAT,2
METRIC,TZ
T1C0.400
T2C0.600
T3C0.800
T4C0.900
T5C1.000
T6C1.100
T7C1.200
T8C1.500
T9C1.520
T10C3.048
%
G90
G05
M71
T1
X42.583Y-97.625
X42.621Y-65.583
X42.621Y-67.412
X42.621Y-69.393
X42.621Y-72.898
X42.672Y-70.612
X42.692Y-103.124
X42.72Y-101.925
X42.723Y-92.05
X42.723Y-93.929
X42.774Y-63.602
X42.774Y-95.085
X42.832Y-105.026
X42.837Y-98.882
X42.875Y-90.424
X42.888Y-106.032
X42.926Y-73.787
X42.926Y-77.089
X42.977Y-61.976
X42.977Y-75.997
X42.977Y-89.357
X43.078Y-87.884
X43.18Y-79.146
X43.307Y-107.569
X43.434Y-60.35
X47.625Y-55.499
X48.006Y-50.673
X48.006Y-56.261
X49.022Y-56.388
X49.327Y-50.597
X52.222Y-54.204
X53.34Y-50.292
X54.61Y-50.343
X54.661Y-54.051
X55.88Y-54.915
X56.439Y-50.241
X58.115Y-56.693
X58.268Y-50.444
X59.334Y-57.404
X61.519Y-50.749
X62.674Y-57.404
X62.801Y-51.117
X63.805Y-57.15
X64.135Y-95.377
X67.501Y-57.213
X67.564Y-51.562
X67.691Y-94.869
X68.58Y-56.794
X68.834Y-85.979
X68.961Y-51.943
X70.104Y-94.488
X71.171Y-56.794
X72.009Y-86.106
X72.492Y-56.794
X73.025Y-94.361
X73.914Y-86.233
X74.117Y-56.794
X74.93Y-52.019
X76.073Y-59.182
X76.073Y-86.741
X76.251Y-56.744
X76.517Y-63.881
X76.581Y-96.393
X76.708Y-98.044
X76.835Y-89.789
X76.835Y-92.075
X76.835Y-94.107
X76.962Y-65.024
X77.013Y-51.41
X77.279Y-70.485
X77.597Y-71.755
X77.597Y-101.473
X77.787Y-78.232
X77.978Y-56.794
X78.105Y-86.741
X78.232Y-79.883
X78.232Y-85.28
X79.121Y-103.505
X80.01Y-87.122
X80.518Y-99.06
X81.661Y-98.044
X81.915Y-90.17
X81.915Y-104.267
X82.423Y-92.964
X82.677Y-94.234
X83.058Y-95.504
X84.328Y-105.41
X84.455Y-94.234
X85.852Y-92.71
X85.979Y-107.315
X86.614Y-109.347
X86.868Y-90.805
X86.995Y-88.9
X86.995Y-112.141
X87.122Y-113.665
X87.503Y-79.756
X87.503Y-83.312
X87.884Y-87.122
X88.138Y-78.613
X88.519Y-74.422
X88.773Y-85.09
X89.09Y-73.279
X89.916Y-67.183
X90.678Y-65.405
X90.805Y-83.947
X91.694Y-60.579
X92.71Y-59.182
X93.345Y-84.328
X96.647Y-57.404
X98.489Y-56.451
X100.965Y-55.245
X104.394Y-45.339
X108.394Y-42.735
X108.631Y-64.709
X108.798Y-57.612
X108.91Y-59.847
X108.966Y-62.697
X109.078Y-58.73
X109.134Y-61.468
X109.855Y-42.418
X112.014Y-41.402
X112.395Y-45.72
X112.71Y-123.97
X112.88Y-127.24
X113.045Y-52.918
X113.045Y-54.874
X113.045Y-56.942
X113.045Y-58.73
X113.157Y-60.462
X114.046Y-41.021
X114.16Y-123.89
X114.22Y-127.06
X114.617Y-45.212
X115.443Y-45.085
X118.364Y-40.957
X118.872Y-44.704
X119.38Y-40.894
X119.761Y-44.577
X121.666Y-41.148
X122.047Y-44.704
X123.126Y-41.212
X123.317Y-45.339
X124.841Y-46.736
X126.746Y-42.291
X126.746Y-48.006
X127.825Y-42.989
X128.524Y-48.768
X130.683Y-44.323
X131.216Y-45.212
X136.459Y-59.121
X136.459Y-70.353
X136.588Y-65.659
X136.588Y-69.278
X136.596Y-61.912
X136.627Y-64.653
X136.682Y-60.742
X136.794Y-77.785
X136.957Y-87.63
X136.957Y-105.232
X137.058Y-71.831
X137.058Y-76.708
X137.262Y-73.076
X137.287Y-90.602
X137.287Y-91.694
X137.287Y-95.694
X137.287Y-104.445
X137.312Y-99.949
X137.414Y-96.85
X137.439Y-101.168
T2
X101.676Y-92.227
X102.946Y-93.497
X104.216Y-92.227
X115.63Y-135.68
X116.9Y-134.41
X116.9Y-136.95
T3
X44.348Y-103.175
X45.212Y-74.93
X45.466Y-61.722
X45.466Y-71.882
X45.682Y-90.348
X45.682Y-100.508
X46.848Y-103.175
X47.712Y-74.93
X48.26Y-85.344
X48.666Y-58.801
X49.398Y-93.208
X49.51Y-106.451
X49.51Y-116.611
X49.56Y-121.19
X49.56Y-123.69
X49.57Y-126.38
X49.57Y-136.54
X49.593Y-96.114
X49.593Y-103.734
X50.292Y-67.477
X50.292Y-69.977
X51.335Y-55.474
X51.898Y-93.208
X52.07Y-75.692
X52.07Y-78.232
X52.07Y-80.772
X52.3Y-126.26
X52.3Y-136.42
X52.502Y-108.661
X52.502Y-111.161
X52.81Y-121.19
X52.81Y-123.69
X53.289Y-63.246
X53.381Y-115.407
X53.812Y-97.46
X53.812Y-100.
X53.812Y-102.54
X53.835Y-55.474
X55.047Y-90.748
X55.047Y-93.248
X55.27Y-126.27
X55.27Y-136.43
X55.768Y-67.559
X55.768Y-70.059
X55.829Y-63.246
X55.88Y-85.344
X56.286Y-58.801
X56.896Y-109.474
X58.369Y-63.246
X59.121Y-67.503
X59.121Y-70.003
X59.5Y-122.
X64.5Y-122.
X66.081Y-115.407
X69.596Y-109.474
X81.077Y-100.813
X81.077Y-110.973
X81.636Y-66.396
X81.686Y-63.525
X81.813Y-57.328
X81.813Y-60.35
X86.636Y-66.396
X86.686Y-63.525
X86.813Y-57.328
X86.813Y-60.35
X96.093Y-108.351
X98.643Y-97.805
X98.749Y-76.124
X98.984Y-60.239
X98.984Y-65.239
X101.361Y-69.078
X102.26Y-60.198
X102.26Y-65.198
X103.643Y-97.805
X103.713Y-108.351
X103.749Y-76.124
X103.861Y-69.078
X104.04Y-87.262
X104.117Y-82.258
X105.791Y-101.473
X106.2Y-108.45
X106.54Y-87.262
X106.617Y-82.258
X106.909Y-73.152
X106.985Y-76.251
X107.163Y-94.285
X107.29Y-90.856
X108.7Y-108.45
X111.45Y-108.5
X111.53Y-105.2
X111.74Y-117.043
X111.952Y-97.46
X112.459Y-130.619
X112.459Y-138.239
X112.5Y-121.
X113.411Y-101.473
X114.452Y-97.46
X114.529Y-73.152
X114.554Y-55.626
X114.554Y-58.928
X114.605Y-76.251
X114.783Y-94.285
X114.91Y-90.856
X116.626Y-85.598
X117.5Y-121.
X117.577Y-88.824
X117.577Y-96.444
X119.07Y-108.5
X119.126Y-85.598
X119.15Y-105.2
X119.36Y-117.043
X119.554Y-55.626
X119.554Y-58.928
X120.129Y-88.811
X120.129Y-96.431
X120.6Y-128.34
X120.6Y-138.5
X121.1Y-124.55
X122.377Y-66.553
X122.377Y-69.053
X122.885Y-55.829
X122.885Y-58.369
X122.885Y-60.909
X123.75Y-109.2
X123.75Y-121.9
X123.85Y-128.3
X123.85Y-138.46
X124.689Y-106.274
X125.882Y-99.202
X125.882Y-101.702
X126.174Y-67.056
X126.238Y-90.221
X126.238Y-92.761
X126.238Y-95.301
X126.733Y-79.235
X126.733Y-81.735
X127.076Y-71.412
X127.189Y-106.274
X127.457Y-109.169
X127.457Y-121.869
X127.686Y-51.054
X127.686Y-58.674
X127.686Y-61.519
X127.686Y-64.019
X127.864Y-75.717
X128.Y-129.25
X128.1Y-132.2
X128.372Y-101.194
X128.674Y-67.056
X129.616Y-71.412
X130.5Y-129.25
X130.531Y-95.174
X130.531Y-97.674
X130.6Y-132.2
X130.708Y-82.144
X130.708Y-92.304
X130.988Y-50.914
X130.988Y-61.074
X131.064Y-103.683
X131.064Y-113.843
X131.166Y-116.84
X131.166Y-119.34
X131.26Y-124.55
X132.156Y-71.412
X132.27Y-64.211
X134.77Y-64.211
X135.484Y-75.717
X135.992Y-101.194
T4
X64.973Y-126.202
X67.513Y-126.202
X81.737Y-53.543
X84.277Y-53.543
X97.35Y-102.69
X97.35Y-105.23
X115.61Y-101.38
X118.15Y-101.38
T5
X45.Y-52.92
X45.Y-55.46
X45.Y-58.
X45.Y-80.92
X45.Y-83.46
X45.Y-86.
X45.Y-108.92
X45.Y-111.46
X45.Y-114.
X45.Y-122.92
X45.Y-125.46
X45.Y-128.
X74.778Y-103.886
X74.778Y-106.426
X74.778Y-108.966
X100.228Y-116.942
X100.686Y-84.506
X100.686Y-87.046
X102.616Y-101.346
X102.616Y-103.886
X102.768Y-116.942
X105.308Y-116.942
X108.28Y-68.389
X110.236Y-85.09
X112.776Y-85.09
X113.233Y-68.504
X117.348Y-47.65
X122.348Y-47.65
X135.Y-52.
X135.Y-54.54
X135.Y-57.08
X135.Y-80.
X135.Y-82.54
X135.Y-85.08
X135.Y-108.
X135.Y-110.54
X135.Y-113.08
X135.Y-122.
X135.Y-124.54
X135.Y-127.08
T6
X74.237Y-90.18
X74.237Y-97.78
X79.317Y-90.18
X79.317Y-97.78
X84.397Y-90.18
X84.397Y-97.78
X91.404Y-79.553
X91.404Y-87.173
X92.017Y-90.18
X92.017Y-97.78
X95.783Y-89.433
X95.783Y-97.053
T7
X58.217Y-96.444
X58.547Y-105.359
X58.801Y-101.041
X70.917Y-96.444
X71.247Y-105.359
X71.501Y-101.041
X86.411Y-125.171
X86.411Y-137.871
X90.769Y-125.263
X90.769Y-137.963
X95.214Y-125.263
X95.214Y-137.963
X99.39Y-125.349
X99.39Y-138.049
X103.927Y-125.349
X103.927Y-138.049
X108.194Y-125.349
X108.194Y-138.049
T8
X57.521Y-78.588
X58.943Y-91.023
X60.858Y-54.635
X60.858Y-85.115
X64.43Y-91.023
X69.916Y-91.1
X86.36Y-101.625
X86.36Y-116.865
X92.71Y-101.625
X92.71Y-116.865
X95.148Y-54.
X95.275Y-85.623
X105.156Y-48.133
X105.156Y-63.373
X111.506Y-48.133
X111.506Y-63.373
T9
X74.371Y-120.091
X75.844Y-134.417
X79.451Y-120.091
X80.924Y-134.417
X94.678Y-48.006
X99.758Y-48.006
T10
X45.Y-45.
X45.Y-135.
X135.Y-45.
X135.Y-135.
T0
M30
