M48
;DRILL file {KiCad 4.0.7} date 06/28/19 09:36:14
;FORMAT={-:-/ absolute / metric / decimal}
FMAT,2
METRIC,TZ
T1C0.400
T2C0.600
T3C0.800
T4C0.900
T5C1.000
T6C1.100
T7C1.200
T8C1.500
T9C1.520
T10C3.048
%
G90
G05
M71
T1
X83.896Y-130.495
X87.671Y-130.378
X98.984Y-130.343
X106.949Y-130.343
X107.102Y-127.254
X109.464Y-123.561
X113.157Y-130.19
X113.386Y-123.495
X118.72Y-130.226
T2
X101.676Y-92.227
X102.946Y-93.497
X104.216Y-92.227
X111.354Y-101.143
X112.624Y-102.413
X113.894Y-101.143
T3
X49.505Y-125.514
X49.505Y-135.674
X49.835Y-57.95
X49.835Y-68.11
X49.901Y-101.451
X49.901Y-106.451
X50.038Y-122.377
X50.18Y-108.798
X50.18Y-118.958
X50.292Y-86.319
X50.292Y-99.019
X51.74Y-74.905
X51.795Y-70.714
X52.538Y-122.377
X52.832Y-125.451
X52.832Y-135.611
X53.03Y-101.451
X53.03Y-106.451
X54.28Y-74.905
X54.295Y-70.714
X54.371Y-86.375
X54.371Y-99.075
X54.978Y-57.874
X54.978Y-68.034
X56.82Y-74.905
X57.658Y-113.005
X57.658Y-123.165
X61.316Y-109.474
X61.468Y-73.497
X61.468Y-75.997
X66.316Y-109.474
X81.077Y-100.813
X81.077Y-110.973
X81.636Y-66.396
X81.686Y-63.525
X81.813Y-57.328
X81.813Y-60.35
X86.636Y-66.396
X86.686Y-63.525
X86.813Y-57.328
X86.813Y-60.35
X96.093Y-108.351
X98.749Y-76.124
X98.908Y-120.447
X98.984Y-60.239
X98.984Y-65.239
X100.178Y-97.841
X101.361Y-69.078
X102.26Y-60.198
X102.26Y-65.198
X103.713Y-108.351
X103.749Y-76.124
X103.861Y-69.078
X103.908Y-120.447
X104.32Y-87.287
X104.599Y-82.029
X105.178Y-97.841
X106.82Y-87.287
X107.099Y-82.029
X107.122Y-107.457
X107.163Y-94.285
X107.29Y-90.856
X107.798Y-120.447
X109.622Y-107.457
X109.766Y-82.486
X110.657Y-97.511
X111.051Y-86.284
X111.826Y-116.677
X113.132Y-105.334
X113.132Y-112.954
X113.157Y-97.511
X113.551Y-86.284
X114.783Y-94.285
X114.91Y-90.856
X115.57Y-59.309
X115.672Y-55.829
X116.561Y-105.334
X116.561Y-112.954
X117.386Y-82.486
X117.577Y-88.824
X117.577Y-96.444
X117.958Y-120.447
X120.218Y-63.754
X120.218Y-66.254
X120.536Y-70.688
X120.536Y-73.228
X120.536Y-75.768
X120.57Y-59.309
X120.672Y-55.829
X120.752Y-88.824
X120.752Y-96.444
X121.986Y-116.677
X123.215Y-124.447
X123.215Y-126.947
X125.4Y-62.433
X125.4Y-72.593
X126.086Y-76.505
X126.568Y-118.979
X126.568Y-129.139
X126.682Y-83.401
X126.682Y-96.101
X127.038Y-98.391
X127.038Y-103.391
X128.586Y-76.505
X129.286Y-62.509
X129.286Y-72.669
X129.921Y-118.913
X129.921Y-129.073
X130.15Y-83.401
X130.15Y-96.101
X130.15Y-98.48
X130.15Y-103.48
X130.302Y-105.664
X130.302Y-115.824
T4
X63.208Y-125.771
X65.748Y-125.771
X81.737Y-53.543
X84.277Y-53.543
X96.317Y-104.511
X98.857Y-104.511
X116.815Y-101.778
X119.355Y-101.778
T5
X45.Y-52.92
X45.Y-55.46
X45.Y-58.
X45.Y-66.92
X45.Y-69.46
X45.Y-72.
X45.Y-80.92
X45.Y-83.46
X45.Y-86.
X45.Y-94.92
X45.Y-97.46
X45.Y-100.
X45.Y-108.92
X45.Y-111.46
X45.Y-114.
X45.Y-122.92
X45.Y-125.46
X45.Y-128.
X59.474Y-65.011
X59.474Y-67.551
X74.778Y-103.886
X74.778Y-106.426
X74.778Y-108.966
X75.92Y-134.
X78.46Y-134.
X81.Y-134.
X90.92Y-134.
X93.46Y-134.
X96.Y-134.
X100.686Y-84.506
X100.686Y-87.046
X102.591Y-102.667
X105.131Y-102.667
X105.92Y-134.
X107.671Y-102.667
X108.46Y-134.
X108.687Y-72.786
X108.687Y-75.326
X111.Y-134.
X112.509Y-78.448
X112.822Y-73.203
X117.348Y-47.65
X118.377Y-85.75
X120.92Y-134.
X122.348Y-47.65
X123.46Y-134.
X125.578Y-58.979
X126.Y-134.
X128.118Y-58.979
X135.Y-52.
X135.Y-54.54
X135.Y-57.08
X135.Y-66.
X135.Y-68.54
X135.Y-71.08
X135.Y-80.
X135.Y-82.54
X135.Y-85.08
X135.Y-94.
X135.Y-96.54
X135.Y-99.08
X135.Y-108.
X135.Y-110.54
X135.Y-113.08
X135.Y-122.
X135.Y-124.54
X135.Y-127.08
T6
X74.237Y-90.18
X74.237Y-97.78
X79.317Y-90.18
X79.317Y-97.78
X84.397Y-90.18
X84.397Y-97.78
X92.017Y-90.18
X92.017Y-97.78
X95.174Y-69.154
X95.174Y-76.774
X95.783Y-89.433
X95.783Y-97.053
X96.281Y-112.547
X103.901Y-112.547
T7
X58.09Y-105.359
X58.141Y-100.94
X58.217Y-96.444
X70.79Y-105.359
X70.841Y-100.94
X70.917Y-96.444
X86.335Y-125.73
X86.335Y-138.43
X96.342Y-116.55
X100.914Y-125.73
X100.914Y-138.43
X109.042Y-116.55
X116.014Y-124.396
X116.014Y-137.096
T8
X64.389Y-85.598
X65.024Y-60.198
X86.36Y-101.625
X86.36Y-116.865
X92.71Y-101.625
X92.71Y-116.865
X93.599Y-60.198
X93.599Y-85.598
X105.156Y-48.133
X105.156Y-63.373
X111.506Y-48.133
X111.506Y-63.373
T9
X64.084Y-119.456
X69.164Y-119.456
X74.828Y-125.4
X79.908Y-125.4
X94.793Y-48.717
X99.873Y-48.717
T10
X45.Y-45.
X45.Y-135.
X135.Y-45.
X135.Y-135.
T0
M30
