M48
;DRILL file {KiCad 4.0.7} date 06/30/19 18:27:45
;FORMAT={-:-/ absolute / metric / decimal}
FMAT,2
METRIC,TZ
T1C0.400
T2C0.600
T3C0.800
T4C0.900
T5C1.000
T6C1.100
T7C1.200
T8C1.500
T9C1.520
T10C3.048
%
G90
G05
M71
T1
X42.52Y-120.244
X42.621Y-65.583
X42.621Y-67.412
X42.621Y-69.393
X42.621Y-72.898
X42.672Y-70.612
X42.723Y-92.05
X42.723Y-93.929
X42.774Y-63.602
X42.875Y-90.424
X42.926Y-73.787
X42.926Y-77.089
X42.977Y-61.976
X42.977Y-75.997
X42.977Y-89.357
X43.053Y-97.79
X43.053Y-103.378
X43.078Y-87.884
X43.18Y-79.146
X43.18Y-95.25
X43.18Y-105.156
X43.18Y-106.172
X43.307Y-98.933
X43.307Y-107.569
X43.434Y-60.35
X43.434Y-102.108
X44.45Y-118.923
X45.669Y-69.698
X45.72Y-71.679
X45.923Y-73.914
X46.38Y-117.805
X46.482Y-64.465
X46.482Y-65.532
X46.736Y-81.661
X46.787Y-121.768
X47.625Y-55.499
X47.65Y-116.84
X47.752Y-61.722
X47.752Y-82.55
X48.006Y-50.673
X48.006Y-56.261
X48.057Y-120.701
X48.616Y-61.265
X49.022Y-56.388
X49.022Y-115.672
X49.149Y-83.312
X49.327Y-50.597
X49.53Y-120.599
X49.632Y-90.373
X49.784Y-110.185
X49.784Y-113.995
X49.886Y-112.217
X49.911Y-107.569
X49.911Y-108.839
X50.597Y-60.249
X50.698Y-89.256
X50.851Y-120.701
X50.952Y-77.978
X51.257Y-79.908
X51.41Y-58.522
X51.918Y-76.759
X51.918Y-88.036
X52.121Y-80.924
X52.222Y-54.204
X52.222Y-83.414
X52.375Y-86.004
X52.527Y-120.701
X52.68Y-75.286
X53.34Y-50.292
X53.492Y-97.18
X53.746Y-103.581
X53.848Y-98.908
X53.848Y-106.172
X53.95Y-100.736
X53.975Y-111.125
X54.Y-107.95
X54.051Y-109.83
X54.305Y-113.792
X54.483Y-114.808
X54.61Y-50.343
X54.661Y-54.051
X55.88Y-54.915
X56.032Y-116.992
X56.439Y-50.241
X58.115Y-56.693
X58.268Y-50.444
X59.334Y-57.404
X61.519Y-50.749
X62.674Y-57.404
X62.801Y-51.117
X63.805Y-57.15
X64.135Y-95.377
X67.501Y-57.213
X67.564Y-51.562
X67.691Y-94.869
X68.58Y-56.794
X68.834Y-85.979
X68.961Y-51.943
X70.104Y-94.488
X71.171Y-56.794
X72.009Y-86.106
X72.492Y-56.794
X72.898Y-121.031
X73.025Y-94.361
X73.914Y-86.233
X74.117Y-56.794
X74.93Y-52.019
X75.311Y-121.666
X76.073Y-59.182
X76.073Y-86.741
X76.251Y-56.744
X76.517Y-63.881
X76.581Y-96.393
X76.708Y-98.044
X76.835Y-89.789
X76.835Y-92.075
X76.835Y-94.107
X76.962Y-65.024
X77.013Y-51.41
X77.279Y-70.485
X77.597Y-71.755
X77.597Y-101.473
X77.787Y-78.232
X77.851Y-121.92
X77.978Y-56.794
X78.105Y-86.741
X78.232Y-79.883
X78.232Y-85.28
X79.121Y-103.505
X80.01Y-87.122
X80.518Y-99.06
X80.772Y-121.92
X81.661Y-98.044
X81.915Y-90.17
X81.915Y-104.267
X82.423Y-92.964
X82.677Y-94.234
X83.058Y-95.504
X83.693Y-121.92
X84.328Y-105.41
X84.455Y-94.234
X85.852Y-92.71
X85.979Y-107.315
X86.614Y-109.347
X86.868Y-90.805
X86.995Y-88.9
X86.995Y-112.141
X87.122Y-113.665
X87.503Y-79.756
X87.503Y-83.312
X87.884Y-87.122
X87.884Y-121.92
X88.138Y-78.613
X88.519Y-74.422
X88.773Y-85.09
X89.09Y-73.279
X89.916Y-67.183
X90.678Y-65.405
X90.805Y-83.947
X91.44Y-121.92
X91.694Y-60.579
X92.71Y-59.182
X93.345Y-84.328
X95.25Y-121.92
X96.647Y-57.404
X98.489Y-56.451
X98.552Y-122.301
X100.965Y-55.245
X101.473Y-122.301
X104.394Y-45.339
X104.648Y-122.174
X107.188Y-122.174
X108.394Y-42.735
X108.631Y-64.709
X108.798Y-57.612
X108.91Y-59.847
X108.966Y-62.697
X109.078Y-58.73
X109.134Y-61.468
X109.855Y-42.418
X110.363Y-122.047
X111.887Y-121.92
X112.014Y-41.402
X112.268Y-123.952
X112.268Y-126.746
X112.395Y-45.72
X113.045Y-52.918
X113.045Y-54.874
X113.045Y-56.942
X113.045Y-58.73
X113.157Y-60.462
X113.792Y-123.952
X113.792Y-127.
X114.046Y-41.021
X114.617Y-45.212
X115.443Y-45.085
X118.364Y-40.957
X118.872Y-44.704
X118.872Y-122.047
X119.38Y-40.894
X119.405Y-118.694
X119.761Y-44.577
X120.523Y-118.745
X120.904Y-122.174
X121.666Y-41.148
X122.047Y-44.704
X122.428Y-122.301
X123.126Y-41.212
X123.317Y-45.339
X124.206Y-118.364
X124.841Y-46.736
X124.841Y-122.301
X125.451Y-118.186
X125.476Y-108.902
X125.476Y-109.855
X125.603Y-106.299
X125.603Y-112.776
X125.603Y-113.792
X126.746Y-42.291
X126.746Y-48.006
X127.254Y-122.174
X127.825Y-42.989
X128.397Y-118.237
X128.524Y-48.768
X129.54Y-118.186
X129.54Y-122.428
X130.683Y-44.323
X131.318Y-105.029
X131.318Y-108.585
X131.381Y-107.442
X131.445Y-110.236
X131.572Y-111.633
X131.572Y-113.411
X132.207Y-114.3
X132.461Y-44.45
X132.905Y-118.173
X133.35Y-114.681
X133.985Y-118.237
X135.179Y-118.364
X136.459Y-59.121
X136.459Y-70.353
X136.588Y-65.659
X136.588Y-69.278
X136.596Y-61.912
X136.627Y-64.653
X136.682Y-60.742
X136.682Y-72.085
X136.779Y-76.835
X136.794Y-77.785
X136.906Y-73.088
X136.906Y-104.394
X136.957Y-87.63
X136.957Y-105.232
X137.135Y-101.194
X137.16Y-100.266
X137.287Y-90.602
X137.287Y-91.694
X137.287Y-95.694
X137.414Y-96.85
T2
X101.676Y-92.227
X102.946Y-93.497
X104.216Y-92.227
X117.411Y-135.7
X118.681Y-134.429
X118.681Y-136.969
T3
X44.196Y-64.516
X44.196Y-67.016
X44.577Y-91.059
X44.577Y-93.559
X46.736Y-96.266
X46.736Y-103.886
X46.979Y-74.778
X48.133Y-91.124
X48.133Y-93.624
X48.311Y-65.38
X48.311Y-67.92
X48.311Y-70.46
X48.666Y-58.801
X49.124Y-77.622
X49.124Y-85.242
X49.479Y-74.778
X49.784Y-122.468
X49.784Y-124.968
X49.784Y-128.016
X49.784Y-138.176
X50.038Y-106.02
X50.038Y-118.72
X50.14Y-100.472
X50.14Y-102.972
X51.335Y-55.474
X52.375Y-90.221
X52.375Y-92.761
X52.375Y-95.301
X52.527Y-71.171
X52.527Y-73.671
X52.832Y-122.468
X52.832Y-124.968
X52.832Y-128.016
X52.832Y-138.176
X53.289Y-63.246
X53.634Y-67.615
X53.835Y-55.474
X53.848Y-106.172
X53.848Y-118.872
X53.899Y-83.352
X53.899Y-85.852
X55.829Y-63.246
X56.134Y-67.615
X56.286Y-58.801
X58.102Y-112.966
X58.102Y-123.126
X58.369Y-63.246
X61.316Y-109.474
X66.316Y-109.474
X81.077Y-100.813
X81.077Y-110.973
X81.636Y-66.396
X81.686Y-63.525
X81.813Y-57.328
X81.813Y-60.35
X86.636Y-66.396
X86.686Y-63.525
X86.813Y-57.328
X86.813Y-60.35
X96.093Y-108.351
X98.643Y-97.805
X98.749Y-76.124
X98.908Y-120.447
X98.984Y-60.239
X98.984Y-65.239
X101.361Y-69.078
X102.26Y-60.198
X102.26Y-65.198
X103.643Y-97.805
X103.713Y-108.351
X103.749Y-76.124
X103.861Y-69.078
X103.908Y-120.447
X104.04Y-87.262
X104.117Y-82.258
X105.791Y-101.473
X106.54Y-87.262
X106.617Y-82.258
X106.794Y-108.623
X107.163Y-94.285
X107.29Y-90.856
X107.798Y-120.447
X109.294Y-108.623
X109.982Y-72.39
X109.982Y-80.01
X111.74Y-117.043
X111.76Y-109.982
X111.952Y-97.46
X112.459Y-130.619
X112.459Y-138.239
X112.522Y-104.902
X113.106Y-72.2
X113.106Y-79.819
X113.411Y-101.473
X114.452Y-97.46
X114.554Y-55.626
X114.554Y-58.928
X114.783Y-94.285
X114.91Y-90.856
X116.626Y-85.598
X117.577Y-88.824
X117.577Y-96.444
X117.958Y-120.447
X118.745Y-66.167
X118.745Y-68.667
X119.126Y-85.598
X119.36Y-117.043
X119.38Y-109.982
X119.554Y-55.626
X119.554Y-58.928
X120.129Y-88.811
X120.129Y-96.431
X120.142Y-104.902
X120.142Y-124.46
X120.142Y-126.96
X120.715Y-78.41
X122.494Y-62.921
X123.104Y-68.565
X123.104Y-71.105
X123.104Y-73.645
X123.215Y-78.41
X123.215Y-124.447
X123.215Y-126.947
X123.865Y-57.785
X125.034Y-62.921
X125.92Y-103.81
X125.92Y-116.51
X126.238Y-90.678
X126.365Y-57.785
X126.557Y-78.689
X126.848Y-120.218
X126.848Y-130.378
X127.071Y-75.438
X127.356Y-94.894
X127.356Y-97.434
X127.356Y-99.974
X127.574Y-62.921
X128.738Y-90.678
X129.057Y-78.689
X129.476Y-103.759
X129.476Y-116.459
X129.794Y-50.47
X129.794Y-58.09
X129.972Y-120.244
X129.972Y-130.404
X131.318Y-82.804
X131.318Y-85.304
X131.42Y-98.465
X131.42Y-100.965
X131.521Y-92.369
X131.521Y-94.869
X132.044Y-61.58
X132.044Y-64.08
X134.468Y-94.767
X134.468Y-102.387
X134.691Y-75.438
T4
X63.208Y-125.771
X65.748Y-125.771
X81.737Y-53.543
X84.277Y-53.543
X96.317Y-104.511
X98.857Y-104.511
X118.11Y-101.092
X120.65Y-101.092
T5
X45.Y-52.92
X45.Y-55.46
X45.Y-58.
X45.Y-80.92
X45.Y-83.46
X45.Y-86.
X45.Y-108.92
X45.Y-111.46
X45.Y-114.
X45.Y-122.92
X45.Y-125.46
X45.Y-128.
X74.778Y-103.886
X74.778Y-106.426
X74.778Y-108.966
X100.686Y-84.506
X100.686Y-87.046
X102.616Y-101.346
X102.616Y-103.886
X108.28Y-68.389
X110.236Y-85.09
X112.776Y-85.09
X113.233Y-68.504
X117.348Y-47.65
X122.348Y-47.65
X135.Y-52.
X135.Y-54.54
X135.Y-57.08
X135.Y-80.
X135.Y-82.54
X135.Y-85.08
X135.Y-108.
X135.Y-110.54
X135.Y-113.08
X135.Y-122.
X135.Y-124.54
X135.Y-127.08
T6
X74.237Y-90.18
X74.237Y-97.78
X79.317Y-90.18
X79.317Y-97.78
X84.397Y-90.18
X84.397Y-97.78
X91.404Y-79.553
X91.404Y-87.173
X92.017Y-90.18
X92.017Y-97.78
X95.783Y-89.433
X95.783Y-97.053
X96.281Y-112.547
X103.901Y-112.547
T7
X58.09Y-105.359
X58.141Y-100.94
X58.217Y-96.444
X70.79Y-105.359
X70.841Y-100.94
X70.917Y-96.444
X86.411Y-125.171
X86.411Y-137.871
X90.769Y-125.263
X90.769Y-137.963
X95.214Y-125.263
X95.214Y-137.963
X96.342Y-116.55
X99.39Y-125.349
X99.39Y-138.049
X103.927Y-125.349
X103.927Y-138.049
X108.194Y-125.349
X108.194Y-138.049
X109.042Y-116.55
T8
X57.521Y-78.588
X58.943Y-91.023
X60.858Y-54.635
X60.858Y-85.115
X64.43Y-91.023
X69.916Y-91.1
X86.36Y-101.625
X86.36Y-116.865
X92.71Y-101.625
X92.71Y-116.865
X95.148Y-54.
X95.275Y-85.623
X105.156Y-48.133
X105.156Y-63.373
X111.506Y-48.133
X111.506Y-63.373
T9
X64.643Y-119.444
X69.723Y-119.444
X75.331Y-134.224
X80.411Y-134.224
X94.678Y-48.006
X99.758Y-48.006
T10
X45.Y-45.
X45.Y-135.
X135.Y-45.
X135.Y-135.
T0
M30
