M48
;DRILL file {KiCad 4.0.7} date 06/02/19 08:17:21
;FORMAT={-:-/ absolute / metric / decimal}
FMAT,2
METRIC,TZ
T1C0.400
T2C0.600
T3C0.800
T4C0.900
T5C1.000
T6C1.100
T7C1.200
T8C1.300
T9C1.500
T10C1.520
T11C3.048
%
G90
G05
M71
T1
X55.717Y-62.667
X55.728Y-59.995
X55.728Y-63.551
X55.819Y-67.198
X56.388Y-67.95
X59.436Y-54.62
X59.436Y-60.919
X59.538Y-53.645
X59.538Y-62.027
X59.792Y-51.867
X60.249Y-68.397
X60.3Y-50.089
X60.3Y-64.059
X60.554Y-43.739
X60.554Y-46.025
X60.554Y-48.819
X60.808Y-41.453
X61.036Y-64.74
X61.244Y-68.438
X61.57Y-40.945
X62.84Y-76.568
X63.602Y-76.949
X63.856Y-68.631
X65.38Y-65.075
X65.38Y-68.631
X65.697Y-79.489
X66.078Y-80.569
X66.431Y-64.968
X67.856Y-83.236
X68.745Y-84.061
X68.936Y-68.631
X69.698Y-65.075
X70.206Y-68.631
X70.82Y-64.999
X73.457Y-59.538
X73.762Y-89.903
X73.965Y-58.725
X74.016Y-65.075
X74.079Y-68.377
X74.206Y-91.3
X74.27Y-95.491
X74.397Y-97.206
X74.778Y-56.947
X74.968Y-69.012
X75.209Y-65.166
X75.235Y-56.185
X76.048Y-54.813
X76.556Y-53.899
X77.191Y-71.107
X77.572Y-51.867
X77.572Y-65.837
X77.826Y-71.425
X78.08Y-51.105
X79.35Y-49.835
X79.35Y-66.091
X79.54Y-103.238
X80.01Y-49.632
X80.683Y-103.937
X80.874Y-68.123
X81.128Y-66.599
X81.559Y-65.735
X81.636Y-54.915
X81.636Y-59.741
X81.636Y-61.265
X81.636Y-62.027
X81.89Y-56.439
X81.89Y-58.217
X82.144Y-53.645
X82.207Y-71.933
X82.652Y-49.073
X82.906Y-68.377
X83.16Y-53.137
X83.16Y-71.996
X83.414Y-49.073
X83.795Y-104.381
X83.922Y-68.377
X85.176Y-49.073
X85.192Y-53.137
X85.192Y-104.953
X85.319Y-72.06
X86.208Y-72.187
X86.716Y-68.377
X86.906Y-82.537
X86.906Y-83.871
X86.906Y-87.173
X87.033Y-79.235
X87.033Y-88.316
X87.211Y-63.368
X87.224Y-61.265
X87.224Y-108.509
X87.478Y-64.313
X87.668Y-91.173
X87.668Y-109.525
X88.24Y-65.583
X88.24Y-68.377
X88.557Y-91.491
X88.748Y-49.073
X88.748Y-52.883
X88.748Y-66.853
X89.065Y-72.187
X90.018Y-72.758
X90.119Y-49.479
X90.462Y-93.332
X90.462Y-94.412
X90.526Y-76.441
X90.589Y-77.711
X90.653Y-80.95
X90.653Y-84.696
X90.653Y-86.22
X90.716Y-82.283
X90.843Y-96.888
X91.034Y-98.285
X91.161Y-68.758
X91.288Y-110.668
X91.478Y-89.014
X91.542Y-49.581
X91.732Y-102.095
X91.796Y-69.266
X91.897Y-52.781
X92.621Y-103.111
X92.812Y-52.807
X92.875Y-110.795
X93.066Y-70.79
X93.32Y-90.348
X93.383Y-78.791
X93.447Y-74.854
X93.447Y-77.267
X93.447Y-83.236
X93.51Y-71.361
X93.51Y-82.156
X93.574Y-49.835
X93.574Y-73.838
X93.574Y-85.077
X93.701Y-85.966
X93.891Y-94.348
X93.955Y-93.269
X93.955Y-97.206
X94.018Y-98.158
X94.336Y-49.835
X95.352Y-104.699
X95.415Y-87.49
X95.415Y-100.444
X95.961Y-53.086
X96.177Y-88.252
X96.368Y-49.835
X96.622Y-100.635
X96.685Y-88.951
X96.876Y-53.137
X96.876Y-90.157
X96.876Y-104.445
X97.13Y-112.446
X97.193Y-93.84
X97.257Y-91.872
X97.384Y-49.581
X97.638Y-96.571
X97.765Y-99.428
X98.146Y-41.707
X98.146Y-44.755
X98.273Y-113.398
X98.4Y-45.517
X98.654Y-47.295
X98.654Y-48.311
X98.654Y-53.899
X99.67Y-54.153
X99.924Y-102.286
X99.987Y-100.635
X100.749Y-101.778
X100.749Y-115.24
X101.031Y-44.277
X101.148Y-49.073
X101.194Y-53.899
X101.257Y-100.762
X101.448Y-49.835
X101.511Y-115.494
X101.727Y-53.264
X103.988Y-100.889
X104.242Y-73.139
X104.623Y-101.587
X104.813Y-103.873
X105.639Y-69.583
X105.702Y-104.889
X106.464Y-90.856
X106.782Y-91.935
X107.163Y-88.189
X107.226Y-87.046
X107.29Y-84.315
X107.544Y-69.266
X107.734Y-81.966
X108.433Y-93.269
X108.496Y-74.282
X108.877Y-79.997
X109.068Y-73.33
X109.068Y-97.65
X109.131Y-96.698
X109.195Y-94.031
X109.893Y-77.775
X111.671Y-69.139
X112.56Y-72.949
X113.132Y-69.075
X113.894Y-73.012
X117.132Y-69.012
X117.704Y-73.266
X119.101Y-73.33
X119.164Y-68.948
X122.53Y-73.457
X122.593Y-68.694
X123.038Y-67.234
X123.609Y-64.186
X123.736Y-62.598
X123.99Y-59.677
X124.244Y-73.711
X124.308Y-58.598
X127.737Y-51.803
X128.372Y-50.851
X128.88Y-75.044
X129.896Y-75.743
X130.594Y-48.882
X131.61Y-48.184
X133.388Y-76.441
X135.674Y-76.505
T2
X118.491Y-82.55
X119.761Y-83.82
X121.031Y-82.55
X123.8Y-112.319
X125.07Y-113.589
X126.34Y-112.319
T3
X63.094Y-60.503
X63.094Y-63.003
X63.602Y-71.171
X66.182Y-57.455
X67.158Y-42.723
X67.158Y-52.883
X67.158Y-61.773
X68.682Y-57.455
X69.698Y-61.773
X70.46Y-42.723
X70.46Y-52.883
X71.73Y-57.709
X72.238Y-61.773
X73.762Y-71.171
X74.016Y-42.723
X74.016Y-52.883
X76.73Y-57.709
X80.67Y-48.031
X84.546Y-51.018
X89.546Y-51.018
X89.571Y-54.68
X89.571Y-59.68
X90.83Y-48.031
X92.187Y-54.695
X92.187Y-59.695
X93.599Y-42.804
X93.599Y-47.804
X96.324Y-42.8
X96.324Y-47.8
X99.86Y-42.215
X99.86Y-52.375
X100.114Y-78.283
X103.226Y-75.108
X103.416Y-42.151
X103.416Y-52.311
X105.575Y-96.825
X105.893Y-47.93
X106.06Y-51.186
X106.655Y-101.397
X107.457Y-57.277
X107.488Y-59.99
X107.734Y-78.283
X109.155Y-101.397
X109.957Y-57.277
X109.988Y-59.99
X110.575Y-96.825
X110.846Y-75.108
X114.91Y-119.431
X116.053Y-47.93
X116.22Y-51.186
X116.84Y-91.186
X116.84Y-93.686
X118.364Y-86.868
X118.551Y-47.945
X119.253Y-89.662
X119.482Y-104.953
X119.482Y-108.509
X119.91Y-119.431
X119.979Y-92.431
X119.979Y-100.051
X120.117Y-57.963
X120.117Y-60.503
X120.117Y-63.043
X121.133Y-51.359
X121.133Y-53.859
X121.848Y-44.425
X123.027Y-92.507
X123.027Y-100.127
X123.551Y-47.945
X124.206Y-77.978
X124.206Y-82.55
X124.739Y-117.693
X124.739Y-120.193
X125.984Y-86.868
X126.075Y-92.431
X126.075Y-100.051
X126.706Y-77.978
X126.706Y-82.55
X126.848Y-44.425
X126.873Y-89.662
X127.102Y-104.953
X127.102Y-108.509
X129.134Y-117.653
X129.413Y-43.586
X129.413Y-46.086
X135.016Y-90.221
X136.754Y-117.653
X137.516Y-90.221
T4
X52.766Y-58.105
X52.766Y-60.645
X114.402Y-104.953
X116.942Y-104.953
X126.723Y-54.597
X126.723Y-57.137
X133.693Y-128.803
X136.233Y-128.803
T5
X50.8Y-102.489
X50.965Y-120.091
X51.085Y-128.13
X51.13Y-111.481
X51.473Y-84.506
X51.496Y-92.68
X51.968Y-76.454
X58.3Y-102.489
X58.465Y-120.091
X58.585Y-128.13
X58.63Y-111.481
X58.973Y-84.506
X58.996Y-92.68
X59.468Y-76.454
X62.395Y-128.13
X64.11Y-51.359
X64.11Y-53.899
X64.915Y-99.022
X69.895Y-128.13
X72.415Y-99.022
X73.571Y-128.245
X76.164Y-72.615
X76.264Y-62.815
X76.302Y-77.267
X77.521Y-109.436
X78.842Y-77.267
X79.464Y-72.615
X79.564Y-62.815
X80.797Y-44.374
X81.071Y-128.245
X81.382Y-77.267
X82.861Y-135.509
X82.906Y-93.713
X83.337Y-44.374
X85.021Y-109.436
X85.446Y-93.713
X85.877Y-44.374
X87.986Y-93.713
X89.446Y-100.825
X89.446Y-103.365
X89.446Y-105.905
X90.361Y-135.509
X92.431Y-120.231
X92.431Y-127.731
X94.748Y-56.875
X94.748Y-60.175
X98.164Y-126.822
X104.548Y-56.975
X104.548Y-60.275
X105.664Y-126.822
X110.134Y-126.898
X110.223Y-44.196
X112.763Y-44.196
X113.855Y-97.46
X114.91Y-82.398
X114.91Y-113.081
X115.062Y-86.741
X115.291Y-54.153
X115.303Y-44.196
X116.395Y-97.46
X117.45Y-113.081
X117.634Y-126.898
X117.831Y-54.153
X119.228Y-75.844
X119.228Y-78.384
X119.99Y-113.081
X125.806Y-129.794
X125.806Y-134.794
X135.738Y-106.477
X135.738Y-109.017
X135.738Y-111.557
T6
X95.606Y-81.521
X95.616Y-85.301
X95.616Y-92.921
X95.616Y-98.001
X95.616Y-103.081
X103.216Y-85.301
X103.216Y-92.921
X103.216Y-98.001
X103.216Y-103.081
X103.226Y-81.521
X129.134Y-120.955
X130.912Y-90.221
X130.912Y-97.841
X135.23Y-93.269
X135.23Y-100.889
X136.754Y-120.955
T7
X70.968Y-74.727
X70.968Y-87.427
X76.048Y-81.331
X76.048Y-85.649
X88.748Y-81.331
X88.748Y-85.649
X123.774Y-124.46
X129.896Y-100.889
X129.896Y-113.589
X136.474Y-124.46
T8
X42.457Y-122.542
X42.57Y-107.48
X42.697Y-90.576
X42.85Y-76.098
X48.057Y-122.542
X48.17Y-107.48
X48.297Y-90.576
X48.45Y-76.098
X57.861Y-132.817
X57.861Y-138.417
X68.543Y-109.995
X72.085Y-132.817
X72.085Y-138.417
X74.143Y-109.995
X82.867Y-115.05
X82.867Y-120.65
X85.7Y-58.725
X85.7Y-77.521
X98.857Y-131.979
X98.857Y-137.579
X112.801Y-131.839
X112.801Y-137.439
X114.148Y-77.521
X114.656Y-58.725
T9
X62.217Y-116.51
X62.446Y-103.289
X62.865Y-81.915
X63.144Y-92.291
X63.475Y-122.542
X64.16Y-110.261
X66.777Y-87.681
X68.644Y-118.593
X70.65Y-93.269
X73.012Y-122.428
X78.588Y-98.603
X84.176Y-98.603
X85.496Y-126.124
X93.37Y-115.443
X99.606Y-121.26
X100.051Y-109.144
X105.359Y-116.548
X105.512Y-109.144
X109.753Y-121.234
T10
X52.68Y-46.279
X57.76Y-46.279
X133.223Y-81.026
X133.223Y-86.106
X133.325Y-68.631
X133.325Y-73.711
T11
X45.Y-45.
X45.Y-135.
X135.Y-45.
X135.Y-135.
T0
M30
