M48
;DRILL file {KiCad 4.0.7} date 07/06/19 09:25:34
;FORMAT={-:-/ absolute / metric / decimal}
FMAT,2
METRIC,TZ
T1C0.800
T2C0.900
T3C1.000
T4C1.100
T5C1.200
T6C1.300
T7C1.520
T8C3.048
%
G90
G05
M71
T1
X49.789Y-117.013
X51.105Y-109.271
X51.156Y-106.578
X51.156Y-112.014
X51.206Y-103.988
X51.257Y-98.298
X51.257Y-101.092
X52.289Y-117.013
X52.578Y-122.479
X53.482Y-130.607
X53.605Y-109.271
X53.656Y-106.578
X53.656Y-112.014
X53.685Y-61.341
X53.706Y-103.988
X53.757Y-98.298
X53.757Y-101.092
X55.078Y-122.479
X55.982Y-130.607
X56.185Y-61.341
X59.474Y-107.302
X59.474Y-109.842
X59.474Y-112.382
X59.474Y-114.922
X59.474Y-117.462
X59.474Y-120.002
X59.474Y-122.542
X59.474Y-125.082
X59.474Y-127.622
X59.512Y-47.051
X59.83Y-61.697
X59.883Y-65.38
X59.967Y-72.085
X60.015Y-68.732
X61.317Y-130.759
X62.012Y-47.051
X63.817Y-130.759
X64.556Y-79.629
X67.056Y-79.629
X67.094Y-107.302
X67.094Y-109.842
X67.094Y-112.382
X67.094Y-114.922
X67.094Y-117.462
X67.094Y-120.002
X67.094Y-122.542
X67.094Y-125.082
X67.094Y-127.622
X67.45Y-61.697
X67.503Y-65.38
X67.587Y-72.085
X67.635Y-68.732
X69.952Y-125.059
X69.952Y-127.559
X70.079Y-119.24
X70.079Y-121.74
X73.Y-90.475
X73.254Y-62.281
X73.254Y-104.699
X73.317Y-76.695
X75.5Y-90.475
X75.754Y-62.281
X75.754Y-104.699
X75.817Y-76.695
T2
X72.047Y-47.318
X73.19Y-132.324
X74.587Y-47.318
X75.73Y-132.324
T3
X45.039Y-99.913
X45.039Y-102.453
X45.039Y-104.993
X45.039Y-107.533
X45.039Y-110.073
X45.039Y-112.613
X45.039Y-115.153
X45.039Y-117.693
X52.045Y-136.068
X54.585Y-136.068
X57.125Y-136.068
X61.76Y-134.722
X61.76Y-137.262
X96.812Y-95.682
X96.812Y-103.182
X96.876Y-126.162
X96.876Y-133.662
X97.066Y-80.759
X97.066Y-88.259
X97.066Y-111.493
X97.066Y-118.993
X97.193Y-64.376
X97.193Y-71.876
X97.32Y-49.327
X97.32Y-56.827
X115.672Y-64.433
X115.672Y-71.933
X115.672Y-80.879
X115.672Y-88.379
X115.672Y-95.865
X115.672Y-103.365
X115.735Y-111.55
X115.735Y-119.05
X115.951Y-126.231
X115.951Y-133.731
X115.989Y-48.748
X115.989Y-56.248
X133.477Y-111.328
X133.477Y-118.828
X133.502Y-95.682
X133.502Y-103.182
X133.617Y-122.593
X133.617Y-130.093
X133.807Y-80.188
X133.807Y-87.688
X134.163Y-64.897
X134.163Y-72.397
X134.531Y-51.041
X134.531Y-58.541
T4
X59.715Y-75.829
X67.335Y-75.829
X73.096Y-51.14
X73.096Y-58.74
X73.16Y-66.355
X73.16Y-73.955
X73.16Y-79.563
X73.16Y-87.163
X73.16Y-93.787
X73.16Y-101.387
X73.17Y-108.295
X73.17Y-115.895
X73.226Y-120.812
X73.226Y-128.412
X80.716Y-51.14
X80.716Y-58.74
X80.78Y-66.355
X80.78Y-73.955
X80.78Y-79.563
X80.78Y-87.163
X80.78Y-93.787
X80.78Y-101.387
X80.79Y-108.295
X80.79Y-115.895
X80.846Y-120.812
X80.846Y-128.412
X85.796Y-51.14
X85.796Y-58.74
X85.86Y-66.355
X85.86Y-73.955
X85.86Y-79.563
X85.86Y-87.163
X85.86Y-93.787
X85.86Y-101.387
X85.87Y-108.295
X85.87Y-115.895
X85.926Y-120.812
X85.926Y-128.412
X90.876Y-51.14
X90.876Y-58.74
X90.94Y-66.355
X90.94Y-73.955
X90.94Y-79.563
X90.94Y-87.163
X90.94Y-93.787
X90.94Y-101.387
X90.95Y-108.295
X90.95Y-115.895
X91.006Y-120.812
X91.006Y-128.412
T5
X53.48Y-51.829
X53.645Y-56.82
X68.72Y-51.829
X68.885Y-56.82
T6
X103.67Y-115.367
X103.734Y-84.315
X103.861Y-68.567
X103.861Y-100.127
X103.937Y-130.861
X103.988Y-52.565
X109.27Y-115.367
X109.334Y-84.315
X109.461Y-68.567
X109.461Y-100.127
X109.537Y-130.861
X109.588Y-52.565
X121.895Y-52.692
X122.149Y-68.123
X122.25Y-84.734
X122.377Y-99.924
X122.428Y-129.921
X122.453Y-115.062
X127.495Y-52.692
X127.749Y-68.123
X127.85Y-84.734
X127.977Y-99.924
X128.028Y-129.921
X128.053Y-115.062
T7
X46.52Y-123.177
X46.52Y-128.257
X46.604Y-67.229
X46.604Y-72.309
X83.922Y-134.036
X85.827Y-45.644
X89.002Y-134.036
X90.907Y-45.644
T8
X45.Y-45.
X45.Y-135.
X135.Y-45.
X135.Y-135.
T0
M30
