G04 #@! TF.FileFunction,Soldermask,Bot*
%FSLAX46Y46*%
G04 Gerber Fmt 4.6, Leading zero omitted, Abs format (unit mm)*
G04 Created by KiCad (PCBNEW 4.0.7) date 07/06/19 09:25:32*
%MOMM*%
%LPD*%
G01*
G04 APERTURE LIST*
%ADD10C,0.100000*%
%ADD11R,2.000000X2.000000*%
%ADD12C,2.000000*%
%ADD13C,3.000000*%
%ADD14C,1.900000*%
%ADD15C,2.500000*%
%ADD16R,3.400000X3.400000*%
%ADD17C,3.400000*%
%ADD18C,5.400000*%
%ADD19C,2.400000*%
%ADD20C,2.200000*%
%ADD21R,2.100000X2.100000*%
%ADD22O,2.100000X2.100000*%
%ADD23R,2.200000X2.200000*%
%ADD24O,2.200000X2.200000*%
%ADD25O,2.000000X2.000000*%
%ADD26C,2.800000*%
%ADD27O,2.800000X2.800000*%
%ADD28R,2.600000X2.600000*%
%ADD29O,2.600000X2.600000*%
G04 APERTURE END LIST*
D10*
D11*
X49789080Y-117012720D03*
D12*
X52289080Y-117012720D03*
D13*
X122148600Y-68122800D03*
X127748600Y-68122800D03*
X103670100Y-115366800D03*
X109270100Y-115366800D03*
D14*
X74587100Y-47317700D03*
X72047100Y-47317700D03*
D15*
X69507100Y-42237700D03*
X79667100Y-42237700D03*
D16*
X90906600Y-45643800D03*
D17*
X85826600Y-45643800D03*
D14*
X73190100Y-132323800D03*
X75730100Y-132323800D03*
D15*
X78270100Y-137403800D03*
X68110100Y-137403800D03*
D16*
X83921600Y-134035800D03*
D17*
X89001600Y-134035800D03*
D18*
X45000000Y-135000000D03*
X135000000Y-135000000D03*
X135000000Y-45000000D03*
X45000000Y-45000000D03*
D13*
X103860600Y-100126800D03*
X109460600Y-100126800D03*
X103936800Y-130860800D03*
X109536800Y-130860800D03*
X121894600Y-52692300D03*
X127494600Y-52692300D03*
X122250200Y-84734400D03*
X127850200Y-84734400D03*
X122377200Y-99923600D03*
X127977200Y-99923600D03*
X122453400Y-115062000D03*
X128053400Y-115062000D03*
X122428000Y-129921000D03*
X128028000Y-129921000D03*
D19*
X97320100Y-49326800D03*
X97320100Y-56826800D03*
X97193100Y-64376300D03*
X97193100Y-71876300D03*
X97066100Y-80759300D03*
X97066100Y-88259300D03*
X96812100Y-95681800D03*
X96812100Y-103181800D03*
X97066100Y-111493300D03*
X97066100Y-118993300D03*
X96875600Y-126161800D03*
X96875600Y-133661800D03*
X115989100Y-56248300D03*
X115989100Y-48748300D03*
X115671600Y-71932800D03*
X115671600Y-64432800D03*
X115671600Y-88379300D03*
X115671600Y-80879300D03*
X115671600Y-103365300D03*
X115671600Y-95865300D03*
X115735100Y-119049800D03*
X115735100Y-111549800D03*
X115951000Y-133731000D03*
X115951000Y-126231000D03*
X134531100Y-51041300D03*
X134531100Y-58541300D03*
X134162800Y-64897000D03*
X134162800Y-72397000D03*
X133807200Y-80187800D03*
X133807200Y-87687800D03*
X133502400Y-95681800D03*
X133502400Y-103181800D03*
X133477000Y-111328200D03*
X133477000Y-118828200D03*
X133616700Y-122593100D03*
X133616700Y-130093100D03*
D13*
X103987600Y-52565300D03*
X109587600Y-52565300D03*
X103860600Y-68567300D03*
X109460600Y-68567300D03*
X103733600Y-84315300D03*
X109333600Y-84315300D03*
D20*
X80716100Y-51140200D03*
X90876100Y-51140200D03*
X85796100Y-51140200D03*
X85796100Y-58740200D03*
X80716100Y-58740200D03*
X90876100Y-58740200D03*
X73096100Y-51140200D03*
X73096100Y-58740200D03*
X80779600Y-66354800D03*
X90939600Y-66354800D03*
X85859600Y-66354800D03*
X85859600Y-73954800D03*
X80779600Y-73954800D03*
X90939600Y-73954800D03*
X73159600Y-66354800D03*
X73159600Y-73954800D03*
X80779600Y-79562800D03*
X90939600Y-79562800D03*
X85859600Y-79562800D03*
X85859600Y-87162800D03*
X80779600Y-87162800D03*
X90939600Y-87162800D03*
X73159600Y-79562800D03*
X73159600Y-87162800D03*
X80779600Y-93786800D03*
X90939600Y-93786800D03*
X85859600Y-93786800D03*
X85859600Y-101386800D03*
X80779600Y-101386800D03*
X90939600Y-101386800D03*
X73159600Y-93786800D03*
X73159600Y-101386800D03*
X80789760Y-108295280D03*
X90949760Y-108295280D03*
X85869760Y-108295280D03*
X85869760Y-115895280D03*
X80789760Y-115895280D03*
X90949760Y-115895280D03*
X73169760Y-108295280D03*
X73169760Y-115895280D03*
X80845640Y-120812400D03*
X91005640Y-120812400D03*
X85925640Y-120812400D03*
X85925640Y-128412400D03*
X80845640Y-128412400D03*
X91005640Y-128412400D03*
X73225640Y-120812400D03*
X73225640Y-128412400D03*
D11*
X55981600Y-130606800D03*
D12*
X53481600Y-130606800D03*
D16*
X46520100Y-123177300D03*
D17*
X46520100Y-128257300D03*
D21*
X61760100Y-134721600D03*
D22*
X61760100Y-137261600D03*
D23*
X57124600Y-136067800D03*
D24*
X54584600Y-136067800D03*
X52044600Y-136067800D03*
D11*
X59474100Y-107302300D03*
D25*
X67094100Y-127622300D03*
X59474100Y-109842300D03*
X67094100Y-125082300D03*
X59474100Y-112382300D03*
X67094100Y-122542300D03*
X59474100Y-114922300D03*
X67094100Y-120002300D03*
X59474100Y-117462300D03*
X67094100Y-117462300D03*
X59474100Y-120002300D03*
X67094100Y-114922300D03*
X59474100Y-122542300D03*
X67094100Y-112382300D03*
X59474100Y-125082300D03*
X67094100Y-109842300D03*
X59474100Y-127622300D03*
X67094100Y-107302300D03*
D12*
X63817500Y-130759200D03*
X61317500Y-130759200D03*
X73253600Y-62280800D03*
X75753600Y-62280800D03*
X73317100Y-76695300D03*
X75817100Y-76695300D03*
X70078600Y-119240300D03*
X70078600Y-121740300D03*
X69951600Y-127558800D03*
X69951600Y-125058800D03*
X72999600Y-90474800D03*
X75499600Y-90474800D03*
X73253600Y-104698800D03*
X75753600Y-104698800D03*
X59512200Y-47050960D03*
X62012200Y-47050960D03*
X56184800Y-61341000D03*
X53684800Y-61341000D03*
X67056000Y-79629000D03*
X64556000Y-79629000D03*
D11*
X67586860Y-72085200D03*
D25*
X59966860Y-72085200D03*
D11*
X60015120Y-68732400D03*
D25*
X67635120Y-68732400D03*
D16*
X46603920Y-72308720D03*
D17*
X46603920Y-67228720D03*
D21*
X45039280Y-99913440D03*
D22*
X45039280Y-102453440D03*
X45039280Y-104993440D03*
X45039280Y-107533440D03*
X45039280Y-110073440D03*
X45039280Y-112613440D03*
X45039280Y-115153440D03*
X45039280Y-117693440D03*
D26*
X68719700Y-51828700D03*
D27*
X53479700Y-51828700D03*
D26*
X53644800Y-56819800D03*
D27*
X68884800Y-56819800D03*
D28*
X67335400Y-75829160D03*
D29*
X59715400Y-75829160D03*
D12*
X67503040Y-65379600D03*
D25*
X59883040Y-65379600D03*
D12*
X59829700Y-61696600D03*
D25*
X67449700Y-61696600D03*
D12*
X51257200Y-98298000D03*
X53757200Y-98298000D03*
X51257200Y-101092000D03*
X53757200Y-101092000D03*
X51206400Y-103987600D03*
X53706400Y-103987600D03*
X51155600Y-106578400D03*
X53655600Y-106578400D03*
X51104800Y-109270800D03*
X53604800Y-109270800D03*
X51155600Y-112014000D03*
X53655600Y-112014000D03*
X52578000Y-122478800D03*
X55078000Y-122478800D03*
M02*
