M48
;DRILL file {KiCad 4.0.7} date 11/12/19 23:32:47
;FORMAT={-:-/ absolute / metric / decimal}
FMAT,2
METRIC,TZ
T1C0.400
T2C0.800
T3C0.900
T4C1.000
T5C1.100
T6C1.200
T7C1.300
T8C1.500
T9C1.520
T10C3.048
%
G90
G05
M71
T1
X49.784Y-70.612
X50.038Y-68.072
X50.292Y-59.944
X50.292Y-72.136
X50.546Y-66.548
X50.8Y-62.992
X51.054Y-64.262
X51.816Y-53.594
X51.816Y-58.166
X52.07Y-52.07
X52.578Y-48.768
X52.578Y-50.038
X53.848Y-72.898
X54.356Y-48.768
X55.88Y-74.93
X56.134Y-76.962
X56.896Y-77.978
X57.658Y-48.768
X59.182Y-78.994
X59.944Y-48.514
X60.96Y-48.514
X61.468Y-78.994
X62.484Y-129.286
X62.738Y-78.486
X62.992Y-128.524
X63.246Y-48.514
X63.754Y-77.724
X64.516Y-126.238
X64.77Y-110.49
X64.77Y-111.76
X64.77Y-119.38
X64.77Y-121.158
X64.77Y-124.714
X65.024Y-105.41
X65.024Y-106.934
X65.024Y-114.808
X65.024Y-115.824
X65.278Y-49.53
X66.548Y-77.216
X67.056Y-103.378
X67.564Y-76.962
X67.818Y-50.546
X67.818Y-102.616
X68.072Y-86.106
X68.072Y-87.376
X68.072Y-90.17
X68.072Y-91.44
X68.072Y-93.98
X68.072Y-95.25
X68.072Y-98.044
X68.072Y-99.314
X68.326Y-75.946
X68.834Y-80.264
X68.834Y-82.804
X68.834Y-83.82
X69.088Y-79.248
X69.85Y-60.452
X69.85Y-63.754
X70.104Y-64.516
X70.104Y-67.564
X70.104Y-68.834
X70.104Y-72.39
X70.104Y-73.66
X70.104Y-76.2
X70.104Y-77.216
X70.612Y-59.182
X70.866Y-52.578
X70.866Y-55.372
X70.866Y-56.642
T2
X41.95Y-64.262
X42.164Y-56.896
X42.418Y-50.8
X42.418Y-53.848
X42.672Y-68.58
X42.672Y-76.2
X42.675Y-60.55
X44.45Y-64.262
X45.212Y-68.58
X45.212Y-76.2
X46.014Y-80.518
X48.514Y-63.754
X48.514Y-76.454
X48.514Y-80.518
X49.276Y-91.948
X49.784Y-56.896
X49.789Y-117.013
X50.038Y-50.8
X50.038Y-53.848
X51.054Y-88.138
X51.105Y-109.271
X51.156Y-106.578
X51.156Y-112.014
X51.206Y-103.988
X51.257Y-98.298
X51.257Y-101.092
X52.07Y-76.2
X52.289Y-117.013
X52.578Y-122.479
X53.482Y-130.607
X53.605Y-109.271
X53.656Y-106.578
X53.656Y-112.014
X53.706Y-103.988
X53.757Y-98.298
X53.757Y-101.092
X54.57Y-76.2
X55.078Y-122.479
X55.375Y-60.55
X55.982Y-130.607
X56.896Y-91.948
X58.674Y-88.138
X59.474Y-107.302
X59.474Y-109.842
X59.474Y-112.382
X59.474Y-114.922
X59.474Y-117.462
X59.474Y-120.002
X59.474Y-122.542
X59.474Y-125.082
X59.474Y-127.622
X60.182Y-90.851
X60.182Y-98.471
X61.317Y-130.759
X62.382Y-101.551
X63.232Y-90.781
X63.232Y-98.401
X63.432Y-87.801
X63.817Y-130.759
X64.882Y-101.551
X65.932Y-87.801
X66.232Y-90.981
X66.232Y-98.601
X67.094Y-107.302
X67.094Y-109.842
X67.094Y-112.382
X67.094Y-114.922
X67.094Y-117.462
X67.094Y-120.002
X67.094Y-122.542
X67.094Y-125.082
X67.094Y-127.622
X69.952Y-125.059
X69.952Y-127.559
X70.079Y-119.24
X70.079Y-121.74
X73.Y-90.475
X73.254Y-62.281
X73.254Y-104.699
X73.317Y-76.695
X75.5Y-90.475
X75.754Y-62.281
X75.754Y-104.699
X75.817Y-76.695
T3
X65.786Y-48.194
X68.326Y-48.194
X73.19Y-132.324
X75.73Y-132.324
T4
X44.958Y-99.314
X44.958Y-101.854
X44.958Y-104.394
X44.958Y-106.934
X44.958Y-109.474
X44.958Y-112.014
X44.958Y-114.554
X44.958Y-117.094
X52.045Y-136.068
X54.585Y-136.068
X57.125Y-136.068
X61.76Y-134.722
X61.76Y-137.262
X96.812Y-95.682
X96.812Y-103.182
X96.876Y-126.162
X96.876Y-133.662
X97.066Y-80.759
X97.066Y-88.259
X97.066Y-111.493
X97.066Y-118.993
X97.193Y-64.376
X97.193Y-71.876
X97.32Y-49.327
X97.32Y-56.827
X115.672Y-64.433
X115.672Y-71.933
X115.672Y-80.879
X115.672Y-88.379
X115.672Y-95.865
X115.672Y-103.365
X115.735Y-111.55
X115.735Y-119.05
X115.951Y-126.231
X115.951Y-133.731
X115.989Y-48.748
X115.989Y-56.248
X133.477Y-111.328
X133.477Y-118.828
X133.502Y-95.682
X133.502Y-103.182
X133.617Y-122.593
X133.617Y-130.093
X133.807Y-80.188
X133.807Y-87.688
X134.163Y-64.897
X134.163Y-72.397
X134.531Y-51.041
X134.531Y-58.541
T5
X49.53Y-95.25
X57.15Y-95.25
X73.096Y-51.14
X73.096Y-58.74
X73.16Y-66.355
X73.16Y-73.955
X73.16Y-79.563
X73.16Y-87.163
X73.16Y-93.787
X73.16Y-101.387
X73.17Y-108.295
X73.17Y-115.895
X73.226Y-120.812
X73.226Y-128.412
X80.716Y-51.14
X80.716Y-58.74
X80.78Y-66.355
X80.78Y-73.955
X80.78Y-79.563
X80.78Y-87.163
X80.78Y-93.787
X80.78Y-101.387
X80.79Y-108.295
X80.79Y-115.895
X80.846Y-120.812
X80.846Y-128.412
X85.796Y-51.14
X85.796Y-58.74
X85.86Y-66.355
X85.86Y-73.955
X85.86Y-79.563
X85.86Y-87.163
X85.86Y-93.787
X85.86Y-101.387
X85.87Y-108.295
X85.87Y-115.895
X85.926Y-120.812
X85.926Y-128.412
X90.876Y-51.14
X90.876Y-58.74
X90.94Y-66.355
X90.94Y-73.955
X90.94Y-79.563
X90.94Y-87.163
X90.94Y-93.787
X90.94Y-101.387
X90.95Y-108.295
X90.95Y-115.895
X91.006Y-120.812
X91.006Y-128.412
T6
X44.45Y-85.852
X44.45Y-88.392
X44.45Y-90.932
X44.45Y-93.472
X51.562Y-80.01
X51.562Y-84.328
X66.802Y-80.01
X66.802Y-84.328
T7
X103.67Y-115.367
X103.734Y-84.315
X103.861Y-68.567
X103.861Y-100.127
X103.937Y-130.861
X103.988Y-52.565
X109.27Y-115.367
X109.334Y-84.315
X109.461Y-68.567
X109.461Y-100.127
X109.537Y-130.861
X109.588Y-52.565
X121.895Y-52.692
X122.149Y-68.123
X122.25Y-84.734
X122.377Y-99.924
X122.428Y-129.921
X122.453Y-115.062
X127.495Y-52.692
X127.749Y-68.123
X127.85Y-84.734
X127.977Y-99.924
X128.028Y-129.921
X128.053Y-115.062
T8
X53.086Y-70.612
X53.848Y-56.134
X59.69Y-67.056
X60.198Y-75.946
X60.96Y-52.07
X60.96Y-60.706
X66.548Y-71.12
X67.564Y-56.134
T9
X46.52Y-123.177
X46.52Y-128.257
X51.816Y-45.466
X56.896Y-45.466
X83.922Y-134.036
X89.002Y-134.036
T10
X45.Y-45.
X45.Y-135.
X135.Y-45.
X135.Y-135.
T0
M30
