G04 #@! TF.FileFunction,Legend,Top*
%FSLAX46Y46*%
G04 Gerber Fmt 4.6, Leading zero omitted, Abs format (unit mm)*
G04 Created by KiCad (PCBNEW 4.0.7) date 11/12/19 23:32:46*
%MOMM*%
%LPD*%
G01*
G04 APERTURE LIST*
%ADD10C,0.100000*%
%ADD11C,0.150000*%
%ADD12C,0.120000*%
%ADD13C,0.300000*%
%ADD14C,0.200000*%
G04 APERTURE END LIST*
D10*
D11*
X40974971Y-122431276D02*
X40974971Y-123193181D01*
X40594019Y-122812229D02*
X41355924Y-122812229D01*
X41594019Y-123526514D02*
X40594019Y-123859847D01*
X41594019Y-124193181D01*
X41597200Y-127660496D02*
X41644819Y-127565258D01*
X41644819Y-127422401D01*
X41597200Y-127279543D01*
X41501962Y-127184305D01*
X41406724Y-127136686D01*
X41216248Y-127089067D01*
X41073390Y-127089067D01*
X40882914Y-127136686D01*
X40787676Y-127184305D01*
X40692438Y-127279543D01*
X40644819Y-127422401D01*
X40644819Y-127517639D01*
X40692438Y-127660496D01*
X40740057Y-127708115D01*
X41073390Y-127708115D01*
X41073390Y-127517639D01*
X40644819Y-128136686D02*
X41644819Y-128136686D01*
X40644819Y-128708115D01*
X41644819Y-128708115D01*
X40644819Y-129184305D02*
X41644819Y-129184305D01*
X41644819Y-129422400D01*
X41597200Y-129565258D01*
X41501962Y-129660496D01*
X41406724Y-129708115D01*
X41216248Y-129755734D01*
X41073390Y-129755734D01*
X40882914Y-129708115D01*
X40787676Y-129660496D01*
X40692438Y-129565258D01*
X40644819Y-129422400D01*
X40644819Y-129184305D01*
X52323904Y-41140000D02*
X52419142Y-41187619D01*
X52561999Y-41187619D01*
X52704857Y-41140000D01*
X52800095Y-41044762D01*
X52847714Y-40949524D01*
X52895333Y-40759048D01*
X52895333Y-40616190D01*
X52847714Y-40425714D01*
X52800095Y-40330476D01*
X52704857Y-40235238D01*
X52561999Y-40187619D01*
X52466761Y-40187619D01*
X52323904Y-40235238D01*
X52276285Y-40282857D01*
X52276285Y-40616190D01*
X52466761Y-40616190D01*
X51847714Y-40187619D02*
X51847714Y-41187619D01*
X51276285Y-40187619D01*
X51276285Y-41187619D01*
X50800095Y-40187619D02*
X50800095Y-41187619D01*
X50562000Y-41187619D01*
X50419142Y-41140000D01*
X50323904Y-41044762D01*
X50276285Y-40949524D01*
X50228666Y-40759048D01*
X50228666Y-40616190D01*
X50276285Y-40425714D01*
X50323904Y-40330476D01*
X50419142Y-40235238D01*
X50562000Y-40187619D01*
X50800095Y-40187619D01*
X58348381Y-40187619D02*
X58348381Y-41187619D01*
X57872191Y-40187619D02*
X57872191Y-41187619D01*
X57300762Y-40187619D01*
X57300762Y-41187619D01*
X56253143Y-40187619D02*
X56586477Y-40663810D01*
X56824572Y-40187619D02*
X56824572Y-41187619D01*
X56443619Y-41187619D01*
X56348381Y-41140000D01*
X56300762Y-41092381D01*
X56253143Y-40997143D01*
X56253143Y-40854286D01*
X56300762Y-40759048D01*
X56348381Y-40711429D01*
X56443619Y-40663810D01*
X56824572Y-40663810D01*
X55491238Y-40711429D02*
X55824572Y-40711429D01*
X55824572Y-40187619D02*
X55824572Y-41187619D01*
X55348381Y-41187619D01*
X88493696Y-138488800D02*
X88398458Y-138441181D01*
X88255601Y-138441181D01*
X88112743Y-138488800D01*
X88017505Y-138584038D01*
X87969886Y-138679276D01*
X87922267Y-138869752D01*
X87922267Y-139012610D01*
X87969886Y-139203086D01*
X88017505Y-139298324D01*
X88112743Y-139393562D01*
X88255601Y-139441181D01*
X88350839Y-139441181D01*
X88493696Y-139393562D01*
X88541315Y-139345943D01*
X88541315Y-139012610D01*
X88350839Y-139012610D01*
X88969886Y-139441181D02*
X88969886Y-138441181D01*
X89541315Y-139441181D01*
X89541315Y-138441181D01*
X90017505Y-139441181D02*
X90017505Y-138441181D01*
X90255600Y-138441181D01*
X90398458Y-138488800D01*
X90493696Y-138584038D01*
X90541315Y-138679276D01*
X90588934Y-138869752D01*
X90588934Y-139012610D01*
X90541315Y-139203086D01*
X90493696Y-139298324D01*
X90398458Y-139393562D01*
X90255600Y-139441181D01*
X90017505Y-139441181D01*
X81993028Y-138441181D02*
X82183505Y-138441181D01*
X82278743Y-138488800D01*
X82373981Y-138584038D01*
X82421600Y-138774514D01*
X82421600Y-139107848D01*
X82373981Y-139298324D01*
X82278743Y-139393562D01*
X82183505Y-139441181D01*
X81993028Y-139441181D01*
X81897790Y-139393562D01*
X81802552Y-139298324D01*
X81754933Y-139107848D01*
X81754933Y-138774514D01*
X81802552Y-138584038D01*
X81897790Y-138488800D01*
X81993028Y-138441181D01*
X82850171Y-138441181D02*
X82850171Y-139250705D01*
X82897790Y-139345943D01*
X82945409Y-139393562D01*
X83040647Y-139441181D01*
X83231124Y-139441181D01*
X83326362Y-139393562D01*
X83373981Y-139345943D01*
X83421600Y-139250705D01*
X83421600Y-138441181D01*
X83754933Y-138441181D02*
X84326362Y-138441181D01*
X84040647Y-139441181D02*
X84040647Y-138441181D01*
X85231124Y-139441181D02*
X84897790Y-138964990D01*
X84659695Y-139441181D02*
X84659695Y-138441181D01*
X85040648Y-138441181D01*
X85135886Y-138488800D01*
X85183505Y-138536419D01*
X85231124Y-138631657D01*
X85231124Y-138774514D01*
X85183505Y-138869752D01*
X85135886Y-138917371D01*
X85040648Y-138964990D01*
X84659695Y-138964990D01*
X85993029Y-138917371D02*
X85659695Y-138917371D01*
X85659695Y-139441181D02*
X85659695Y-138441181D01*
X86135886Y-138441181D01*
X92131600Y-46622229D02*
X92464934Y-46622229D01*
X92464934Y-46098419D02*
X92464934Y-47098419D01*
X91988743Y-47098419D01*
X91607791Y-46098419D02*
X91607791Y-47098419D01*
X90655410Y-46098419D02*
X91131601Y-46098419D01*
X91131601Y-47098419D01*
X90464934Y-47098419D02*
X89893505Y-47098419D01*
X90179220Y-46098419D02*
X90179220Y-47098419D01*
X89560172Y-46622229D02*
X89226838Y-46622229D01*
X89083981Y-46098419D02*
X89560172Y-46098419D01*
X89560172Y-47098419D01*
X89083981Y-47098419D01*
X88083981Y-46098419D02*
X88417315Y-46574610D01*
X88655410Y-46098419D02*
X88655410Y-47098419D01*
X88274457Y-47098419D01*
X88179219Y-47050800D01*
X88131600Y-47003181D01*
X88083981Y-46907943D01*
X88083981Y-46765086D01*
X88131600Y-46669848D01*
X88179219Y-46622229D01*
X88274457Y-46574610D01*
X88655410Y-46574610D01*
X86941124Y-46384133D02*
X86464933Y-46384133D01*
X87036362Y-46098419D02*
X86703029Y-47098419D01*
X86369695Y-46098419D01*
X86036362Y-46098419D02*
X86036362Y-47098419D01*
X85464933Y-46098419D01*
X85464933Y-47098419D01*
X84988743Y-46098419D02*
X84988743Y-47098419D01*
X84750648Y-47098419D01*
X84607790Y-47050800D01*
X84512552Y-46955562D01*
X84464933Y-46860324D01*
X84417314Y-46669848D01*
X84417314Y-46526990D01*
X84464933Y-46336514D01*
X84512552Y-46241276D01*
X84607790Y-46146038D01*
X84750648Y-46098419D01*
X84988743Y-46098419D01*
X82893504Y-46622229D02*
X82750647Y-46574610D01*
X82703028Y-46526990D01*
X82655409Y-46431752D01*
X82655409Y-46288895D01*
X82703028Y-46193657D01*
X82750647Y-46146038D01*
X82845885Y-46098419D01*
X83226838Y-46098419D01*
X83226838Y-47098419D01*
X82893504Y-47098419D01*
X82798266Y-47050800D01*
X82750647Y-47003181D01*
X82703028Y-46907943D01*
X82703028Y-46812705D01*
X82750647Y-46717467D01*
X82798266Y-46669848D01*
X82893504Y-46622229D01*
X83226838Y-46622229D01*
X82274457Y-46384133D02*
X81798266Y-46384133D01*
X82369695Y-46098419D02*
X82036362Y-47098419D01*
X81703028Y-46098419D01*
X81369695Y-46098419D02*
X81369695Y-47098419D01*
X80798266Y-46098419D01*
X80798266Y-47098419D01*
X80322076Y-46098419D02*
X80322076Y-47098419D01*
X80083981Y-47098419D01*
X79941123Y-47050800D01*
X79845885Y-46955562D01*
X79798266Y-46860324D01*
X79750647Y-46669848D01*
X79750647Y-46526990D01*
X79798266Y-46336514D01*
X79845885Y-46241276D01*
X79941123Y-46146038D01*
X80083981Y-46098419D01*
X80322076Y-46098419D01*
X91512553Y-44496038D02*
X91369696Y-44448419D01*
X91131600Y-44448419D01*
X91036362Y-44496038D01*
X90988743Y-44543657D01*
X90941124Y-44638895D01*
X90941124Y-44734133D01*
X90988743Y-44829371D01*
X91036362Y-44876990D01*
X91131600Y-44924610D01*
X91322077Y-44972229D01*
X91417315Y-45019848D01*
X91464934Y-45067467D01*
X91512553Y-45162705D01*
X91512553Y-45257943D01*
X91464934Y-45353181D01*
X91417315Y-45400800D01*
X91322077Y-45448419D01*
X91083981Y-45448419D01*
X90941124Y-45400800D01*
X90512553Y-44972229D02*
X90179219Y-44972229D01*
X90036362Y-44448419D02*
X90512553Y-44448419D01*
X90512553Y-45448419D01*
X90036362Y-45448419D01*
X89131600Y-44448419D02*
X89607791Y-44448419D01*
X89607791Y-45448419D01*
X88798267Y-44972229D02*
X88464933Y-44972229D01*
X88322076Y-44448419D02*
X88798267Y-44448419D01*
X88798267Y-45448419D01*
X88322076Y-45448419D01*
X87322076Y-44543657D02*
X87369695Y-44496038D01*
X87512552Y-44448419D01*
X87607790Y-44448419D01*
X87750648Y-44496038D01*
X87845886Y-44591276D01*
X87893505Y-44686514D01*
X87941124Y-44876990D01*
X87941124Y-45019848D01*
X87893505Y-45210324D01*
X87845886Y-45305562D01*
X87750648Y-45400800D01*
X87607790Y-45448419D01*
X87512552Y-45448419D01*
X87369695Y-45400800D01*
X87322076Y-45353181D01*
X87036362Y-45448419D02*
X86464933Y-45448419D01*
X86750648Y-44448419D02*
X86750648Y-45448419D01*
X85941124Y-45448419D02*
X85750647Y-45448419D01*
X85655409Y-45400800D01*
X85560171Y-45305562D01*
X85512552Y-45115086D01*
X85512552Y-44781752D01*
X85560171Y-44591276D01*
X85655409Y-44496038D01*
X85750647Y-44448419D01*
X85941124Y-44448419D01*
X86036362Y-44496038D01*
X86131600Y-44591276D01*
X86179219Y-44781752D01*
X86179219Y-45115086D01*
X86131600Y-45305562D01*
X86036362Y-45400800D01*
X85941124Y-45448419D01*
X84512552Y-44448419D02*
X84845886Y-44924610D01*
X85083981Y-44448419D02*
X85083981Y-45448419D01*
X84703028Y-45448419D01*
X84607790Y-45400800D01*
X84560171Y-45353181D01*
X84512552Y-45257943D01*
X84512552Y-45115086D01*
X84560171Y-45019848D01*
X84607790Y-44972229D01*
X84703028Y-44924610D01*
X85083981Y-44924610D01*
X83322076Y-44448419D02*
X83322076Y-45448419D01*
X82941123Y-45448419D01*
X82845885Y-45400800D01*
X82798266Y-45353181D01*
X82750647Y-45257943D01*
X82750647Y-45115086D01*
X82798266Y-45019848D01*
X82845885Y-44972229D01*
X82941123Y-44924610D01*
X83322076Y-44924610D01*
X81750647Y-44543657D02*
X81798266Y-44496038D01*
X81941123Y-44448419D01*
X82036361Y-44448419D01*
X82179219Y-44496038D01*
X82274457Y-44591276D01*
X82322076Y-44686514D01*
X82369695Y-44876990D01*
X82369695Y-45019848D01*
X82322076Y-45210324D01*
X82274457Y-45305562D01*
X82179219Y-45400800D01*
X82036361Y-45448419D01*
X81941123Y-45448419D01*
X81798266Y-45400800D01*
X81750647Y-45353181D01*
X80988742Y-44972229D02*
X80845885Y-44924610D01*
X80798266Y-44876990D01*
X80750647Y-44781752D01*
X80750647Y-44638895D01*
X80798266Y-44543657D01*
X80845885Y-44496038D01*
X80941123Y-44448419D01*
X81322076Y-44448419D01*
X81322076Y-45448419D01*
X80988742Y-45448419D01*
X80893504Y-45400800D01*
X80845885Y-45353181D01*
X80798266Y-45257943D01*
X80798266Y-45162705D01*
X80845885Y-45067467D01*
X80893504Y-45019848D01*
X80988742Y-44972229D01*
X81322076Y-44972229D01*
X94083981Y-42798419D02*
X94083981Y-43798419D01*
X93512552Y-42798419D02*
X93941124Y-43369848D01*
X93512552Y-43798419D02*
X94083981Y-43226990D01*
X93179219Y-43798419D02*
X92941124Y-42798419D01*
X92750647Y-43512705D01*
X92560171Y-42798419D01*
X92322076Y-43798419D01*
X91512552Y-43465086D02*
X91512552Y-42798419D01*
X91750648Y-43846038D02*
X91988743Y-43131752D01*
X91369695Y-43131752D01*
X91131600Y-43798419D02*
X90560171Y-43798419D01*
X90845886Y-42798419D02*
X90845886Y-43798419D01*
X90226838Y-42798419D02*
X90226838Y-43798419D01*
X88417314Y-42893657D02*
X88464933Y-42846038D01*
X88607790Y-42798419D01*
X88703028Y-42798419D01*
X88845886Y-42846038D01*
X88941124Y-42941276D01*
X88988743Y-43036514D01*
X89036362Y-43226990D01*
X89036362Y-43369848D01*
X88988743Y-43560324D01*
X88941124Y-43655562D01*
X88845886Y-43750800D01*
X88703028Y-43798419D01*
X88607790Y-43798419D01*
X88464933Y-43750800D01*
X88417314Y-43703181D01*
X87417314Y-42893657D02*
X87464933Y-42846038D01*
X87607790Y-42798419D01*
X87703028Y-42798419D01*
X87845886Y-42846038D01*
X87941124Y-42941276D01*
X87988743Y-43036514D01*
X88036362Y-43226990D01*
X88036362Y-43369848D01*
X87988743Y-43560324D01*
X87941124Y-43655562D01*
X87845886Y-43750800D01*
X87703028Y-43798419D01*
X87607790Y-43798419D01*
X87464933Y-43750800D01*
X87417314Y-43703181D01*
X86988743Y-43179371D02*
X86226838Y-43179371D01*
X85417314Y-43322229D02*
X85274457Y-43274610D01*
X85226838Y-43226990D01*
X85179219Y-43131752D01*
X85179219Y-42988895D01*
X85226838Y-42893657D01*
X85274457Y-42846038D01*
X85369695Y-42798419D01*
X85750648Y-42798419D01*
X85750648Y-43798419D01*
X85417314Y-43798419D01*
X85322076Y-43750800D01*
X85274457Y-43703181D01*
X85226838Y-43607943D01*
X85226838Y-43512705D01*
X85274457Y-43417467D01*
X85322076Y-43369848D01*
X85417314Y-43322229D01*
X85750648Y-43322229D01*
X84560172Y-43274610D02*
X84560172Y-42798419D01*
X84893505Y-43798419D02*
X84560172Y-43274610D01*
X84226838Y-43798419D01*
X83893505Y-43179371D02*
X83131600Y-43179371D01*
X82703029Y-42846038D02*
X82560172Y-42798419D01*
X82322076Y-42798419D01*
X82226838Y-42846038D01*
X82179219Y-42893657D01*
X82131600Y-42988895D01*
X82131600Y-43084133D01*
X82179219Y-43179371D01*
X82226838Y-43226990D01*
X82322076Y-43274610D01*
X82512553Y-43322229D01*
X82607791Y-43369848D01*
X82655410Y-43417467D01*
X82703029Y-43512705D01*
X82703029Y-43607943D01*
X82655410Y-43703181D01*
X82607791Y-43750800D01*
X82512553Y-43798419D01*
X82274457Y-43798419D01*
X82131600Y-43750800D01*
X81750648Y-43084133D02*
X81274457Y-43084133D01*
X81845886Y-42798419D02*
X81512553Y-43798419D01*
X81179219Y-42798419D01*
X79655409Y-43465086D02*
X79655409Y-42798419D01*
X79893505Y-43846038D02*
X80131600Y-43131752D01*
X79512552Y-43131752D01*
X79131600Y-42893657D02*
X79083981Y-42846038D01*
X79131600Y-42798419D01*
X79179219Y-42846038D01*
X79131600Y-42893657D01*
X79131600Y-42798419D01*
X78464934Y-43798419D02*
X78369695Y-43798419D01*
X78274457Y-43750800D01*
X78226838Y-43703181D01*
X78179219Y-43607943D01*
X78131600Y-43417467D01*
X78131600Y-43179371D01*
X78179219Y-42988895D01*
X78226838Y-42893657D01*
X78274457Y-42846038D01*
X78369695Y-42798419D01*
X78464934Y-42798419D01*
X78560172Y-42846038D01*
X78607791Y-42893657D01*
X78655410Y-42988895D01*
X78703029Y-43179371D01*
X78703029Y-43417467D01*
X78655410Y-43607943D01*
X78607791Y-43703181D01*
X78560172Y-43750800D01*
X78464934Y-43798419D01*
X63778379Y-112911381D02*
X62968855Y-112911381D01*
X62873617Y-112959000D01*
X62825998Y-113006619D01*
X62778379Y-113101857D01*
X62778379Y-113292334D01*
X62825998Y-113387572D01*
X62873617Y-113435191D01*
X62968855Y-113482810D01*
X63778379Y-113482810D01*
X62778379Y-114435191D02*
X62778379Y-113959000D01*
X63778379Y-113959000D01*
X62778379Y-114768524D02*
X63778379Y-114768524D01*
X62778379Y-115339953D01*
X63778379Y-115339953D01*
X63683141Y-115768524D02*
X63730760Y-115816143D01*
X63778379Y-115911381D01*
X63778379Y-116149477D01*
X63730760Y-116244715D01*
X63683141Y-116292334D01*
X63587903Y-116339953D01*
X63492665Y-116339953D01*
X63349808Y-116292334D01*
X62778379Y-115720905D01*
X62778379Y-116339953D01*
X63349808Y-116911381D02*
X63397427Y-116816143D01*
X63445046Y-116768524D01*
X63540284Y-116720905D01*
X63587903Y-116720905D01*
X63683141Y-116768524D01*
X63730760Y-116816143D01*
X63778379Y-116911381D01*
X63778379Y-117101858D01*
X63730760Y-117197096D01*
X63683141Y-117244715D01*
X63587903Y-117292334D01*
X63540284Y-117292334D01*
X63445046Y-117244715D01*
X63397427Y-117197096D01*
X63349808Y-117101858D01*
X63349808Y-116911381D01*
X63302189Y-116816143D01*
X63254570Y-116768524D01*
X63159331Y-116720905D01*
X62968855Y-116720905D01*
X62873617Y-116768524D01*
X62825998Y-116816143D01*
X62778379Y-116911381D01*
X62778379Y-117101858D01*
X62825998Y-117197096D01*
X62873617Y-117244715D01*
X62968855Y-117292334D01*
X63159331Y-117292334D01*
X63254570Y-117244715D01*
X63302189Y-117197096D01*
X63349808Y-117101858D01*
X63778379Y-117911381D02*
X63778379Y-118006620D01*
X63730760Y-118101858D01*
X63683141Y-118149477D01*
X63587903Y-118197096D01*
X63397427Y-118244715D01*
X63159331Y-118244715D01*
X62968855Y-118197096D01*
X62873617Y-118149477D01*
X62825998Y-118101858D01*
X62778379Y-118006620D01*
X62778379Y-117911381D01*
X62825998Y-117816143D01*
X62873617Y-117768524D01*
X62968855Y-117720905D01*
X63159331Y-117673286D01*
X63397427Y-117673286D01*
X63587903Y-117720905D01*
X63683141Y-117768524D01*
X63730760Y-117816143D01*
X63778379Y-117911381D01*
X63778379Y-118578048D02*
X63778379Y-119197096D01*
X63397427Y-118863762D01*
X63397427Y-119006620D01*
X63349808Y-119101858D01*
X63302189Y-119149477D01*
X63206950Y-119197096D01*
X62968855Y-119197096D01*
X62873617Y-119149477D01*
X62825998Y-119101858D01*
X62778379Y-119006620D01*
X62778379Y-118720905D01*
X62825998Y-118625667D01*
X62873617Y-118578048D01*
X63064093Y-119578048D02*
X63064093Y-120054239D01*
X62778379Y-119482810D02*
X63778379Y-119816143D01*
X62778379Y-120149477D01*
X41965619Y-82835715D02*
X41965619Y-82264286D01*
X41965619Y-82550000D02*
X42965619Y-82550000D01*
X42822762Y-82454762D01*
X42727524Y-82359524D01*
X42679905Y-82264286D01*
X41838571Y-116030476D02*
X41838571Y-116792381D01*
X41457619Y-116411429D02*
X42219524Y-116411429D01*
X42457619Y-117125714D02*
X41457619Y-117459047D01*
X42457619Y-117792381D01*
X42457619Y-114490477D02*
X42457619Y-114300000D01*
X42410000Y-114204762D01*
X42362381Y-114157143D01*
X42219524Y-114061905D01*
X42029048Y-114014286D01*
X41648095Y-114014286D01*
X41552857Y-114061905D01*
X41505238Y-114109524D01*
X41457619Y-114204762D01*
X41457619Y-114395239D01*
X41505238Y-114490477D01*
X41552857Y-114538096D01*
X41648095Y-114585715D01*
X41886190Y-114585715D01*
X41981429Y-114538096D01*
X42029048Y-114490477D01*
X42076667Y-114395239D01*
X42076667Y-114204762D01*
X42029048Y-114109524D01*
X41981429Y-114061905D01*
X41886190Y-114014286D01*
X42457619Y-112252096D02*
X42457619Y-111775905D01*
X41981429Y-111728286D01*
X42029048Y-111775905D01*
X42076667Y-111871143D01*
X42076667Y-112109239D01*
X42029048Y-112204477D01*
X41981429Y-112252096D01*
X41886190Y-112299715D01*
X41648095Y-112299715D01*
X41552857Y-112252096D01*
X41505238Y-112204477D01*
X41457619Y-112109239D01*
X41457619Y-111871143D01*
X41505238Y-111775905D01*
X41552857Y-111728286D01*
X42124286Y-109664477D02*
X41457619Y-109664477D01*
X42505238Y-109426381D02*
X41790952Y-109188286D01*
X41790952Y-109807334D01*
X42457619Y-106600667D02*
X42457619Y-107219715D01*
X42076667Y-106886381D01*
X42076667Y-107029239D01*
X42029048Y-107124477D01*
X41981429Y-107172096D01*
X41886190Y-107219715D01*
X41648095Y-107219715D01*
X41552857Y-107172096D01*
X41505238Y-107124477D01*
X41457619Y-107029239D01*
X41457619Y-106743524D01*
X41505238Y-106648286D01*
X41552857Y-106600667D01*
X42362381Y-104108286D02*
X42410000Y-104155905D01*
X42457619Y-104251143D01*
X42457619Y-104489239D01*
X42410000Y-104584477D01*
X42362381Y-104632096D01*
X42267143Y-104679715D01*
X42171905Y-104679715D01*
X42029048Y-104632096D01*
X41457619Y-104060667D01*
X41457619Y-104679715D01*
X41457619Y-102393715D02*
X41457619Y-101822286D01*
X41457619Y-102108000D02*
X42457619Y-102108000D01*
X42314762Y-102012762D01*
X42219524Y-101917524D01*
X42171905Y-101822286D01*
X42410000Y-98552096D02*
X42457619Y-98456858D01*
X42457619Y-98314001D01*
X42410000Y-98171143D01*
X42314762Y-98075905D01*
X42219524Y-98028286D01*
X42029048Y-97980667D01*
X41886190Y-97980667D01*
X41695714Y-98028286D01*
X41600476Y-98075905D01*
X41505238Y-98171143D01*
X41457619Y-98314001D01*
X41457619Y-98409239D01*
X41505238Y-98552096D01*
X41552857Y-98599715D01*
X41886190Y-98599715D01*
X41886190Y-98409239D01*
X41457619Y-99028286D02*
X42457619Y-99028286D01*
X41457619Y-99599715D01*
X42457619Y-99599715D01*
X41457619Y-100075905D02*
X42457619Y-100075905D01*
X42457619Y-100314000D01*
X42410000Y-100456858D01*
X42314762Y-100552096D01*
X42219524Y-100599715D01*
X42029048Y-100647334D01*
X41886190Y-100647334D01*
X41695714Y-100599715D01*
X41600476Y-100552096D01*
X41505238Y-100456858D01*
X41457619Y-100314000D01*
X41457619Y-100075905D01*
D12*
X64192000Y-81870000D02*
X64192000Y-78150000D01*
X64192000Y-78150000D02*
X54172000Y-78150000D01*
X54172000Y-78150000D02*
X54172000Y-81870000D01*
X54172000Y-81870000D02*
X64192000Y-81870000D01*
X65422000Y-80010000D02*
X64192000Y-80010000D01*
X52942000Y-80010000D02*
X54172000Y-80010000D01*
X54056900Y-115833584D02*
G75*
G03X48021598Y-115832720I-3017820J-1179136D01*
G01*
X54056900Y-118191856D02*
G75*
G02X48021598Y-118192720I-3017820J1179136D01*
G01*
X54056900Y-118191856D02*
G75*
G03X54056562Y-115832720I-3017820J1179136D01*
G01*
X51039080Y-113812720D02*
X51039080Y-120212720D01*
X51079080Y-113812720D02*
X51079080Y-120212720D01*
X51119080Y-113812720D02*
X51119080Y-120212720D01*
X51159080Y-113814720D02*
X51159080Y-120210720D01*
X51199080Y-113815720D02*
X51199080Y-120209720D01*
X51239080Y-113818720D02*
X51239080Y-120206720D01*
X51279080Y-113820720D02*
X51279080Y-120204720D01*
X51319080Y-113824720D02*
X51319080Y-116032720D01*
X51319080Y-117992720D02*
X51319080Y-120200720D01*
X51359080Y-113827720D02*
X51359080Y-116032720D01*
X51359080Y-117992720D02*
X51359080Y-120197720D01*
X51399080Y-113832720D02*
X51399080Y-116032720D01*
X51399080Y-117992720D02*
X51399080Y-120192720D01*
X51439080Y-113836720D02*
X51439080Y-116032720D01*
X51439080Y-117992720D02*
X51439080Y-120188720D01*
X51479080Y-113842720D02*
X51479080Y-116032720D01*
X51479080Y-117992720D02*
X51479080Y-120182720D01*
X51519080Y-113847720D02*
X51519080Y-116032720D01*
X51519080Y-117992720D02*
X51519080Y-120177720D01*
X51559080Y-113854720D02*
X51559080Y-116032720D01*
X51559080Y-117992720D02*
X51559080Y-120170720D01*
X51599080Y-113860720D02*
X51599080Y-116032720D01*
X51599080Y-117992720D02*
X51599080Y-120164720D01*
X51639080Y-113868720D02*
X51639080Y-116032720D01*
X51639080Y-117992720D02*
X51639080Y-120156720D01*
X51679080Y-113875720D02*
X51679080Y-116032720D01*
X51679080Y-117992720D02*
X51679080Y-120149720D01*
X51719080Y-113884720D02*
X51719080Y-116032720D01*
X51719080Y-117992720D02*
X51719080Y-120140720D01*
X51760080Y-113893720D02*
X51760080Y-116032720D01*
X51760080Y-117992720D02*
X51760080Y-120131720D01*
X51800080Y-113902720D02*
X51800080Y-116032720D01*
X51800080Y-117992720D02*
X51800080Y-120122720D01*
X51840080Y-113912720D02*
X51840080Y-116032720D01*
X51840080Y-117992720D02*
X51840080Y-120112720D01*
X51880080Y-113922720D02*
X51880080Y-116032720D01*
X51880080Y-117992720D02*
X51880080Y-120102720D01*
X51920080Y-113933720D02*
X51920080Y-116032720D01*
X51920080Y-117992720D02*
X51920080Y-120091720D01*
X51960080Y-113945720D02*
X51960080Y-116032720D01*
X51960080Y-117992720D02*
X51960080Y-120079720D01*
X52000080Y-113957720D02*
X52000080Y-116032720D01*
X52000080Y-117992720D02*
X52000080Y-120067720D01*
X52040080Y-113970720D02*
X52040080Y-116032720D01*
X52040080Y-117992720D02*
X52040080Y-120054720D01*
X52080080Y-113983720D02*
X52080080Y-116032720D01*
X52080080Y-117992720D02*
X52080080Y-120041720D01*
X52120080Y-113997720D02*
X52120080Y-116032720D01*
X52120080Y-117992720D02*
X52120080Y-120027720D01*
X52160080Y-114011720D02*
X52160080Y-116032720D01*
X52160080Y-117992720D02*
X52160080Y-120013720D01*
X52200080Y-114026720D02*
X52200080Y-116032720D01*
X52200080Y-117992720D02*
X52200080Y-119998720D01*
X52240080Y-114042720D02*
X52240080Y-116032720D01*
X52240080Y-117992720D02*
X52240080Y-119982720D01*
X52280080Y-114058720D02*
X52280080Y-116032720D01*
X52280080Y-117992720D02*
X52280080Y-119966720D01*
X52320080Y-114075720D02*
X52320080Y-116032720D01*
X52320080Y-117992720D02*
X52320080Y-119949720D01*
X52360080Y-114093720D02*
X52360080Y-116032720D01*
X52360080Y-117992720D02*
X52360080Y-119931720D01*
X52400080Y-114111720D02*
X52400080Y-116032720D01*
X52400080Y-117992720D02*
X52400080Y-119913720D01*
X52440080Y-114130720D02*
X52440080Y-116032720D01*
X52440080Y-117992720D02*
X52440080Y-119894720D01*
X52480080Y-114149720D02*
X52480080Y-116032720D01*
X52480080Y-117992720D02*
X52480080Y-119875720D01*
X52520080Y-114169720D02*
X52520080Y-116032720D01*
X52520080Y-117992720D02*
X52520080Y-119855720D01*
X52560080Y-114190720D02*
X52560080Y-116032720D01*
X52560080Y-117992720D02*
X52560080Y-119834720D01*
X52600080Y-114212720D02*
X52600080Y-116032720D01*
X52600080Y-117992720D02*
X52600080Y-119812720D01*
X52640080Y-114234720D02*
X52640080Y-116032720D01*
X52640080Y-117992720D02*
X52640080Y-119790720D01*
X52680080Y-114257720D02*
X52680080Y-116032720D01*
X52680080Y-117992720D02*
X52680080Y-119767720D01*
X52720080Y-114281720D02*
X52720080Y-116032720D01*
X52720080Y-117992720D02*
X52720080Y-119743720D01*
X52760080Y-114306720D02*
X52760080Y-116032720D01*
X52760080Y-117992720D02*
X52760080Y-119718720D01*
X52800080Y-114331720D02*
X52800080Y-116032720D01*
X52800080Y-117992720D02*
X52800080Y-119693720D01*
X52840080Y-114358720D02*
X52840080Y-116032720D01*
X52840080Y-117992720D02*
X52840080Y-119666720D01*
X52880080Y-114385720D02*
X52880080Y-116032720D01*
X52880080Y-117992720D02*
X52880080Y-119639720D01*
X52920080Y-114413720D02*
X52920080Y-116032720D01*
X52920080Y-117992720D02*
X52920080Y-119611720D01*
X52960080Y-114442720D02*
X52960080Y-116032720D01*
X52960080Y-117992720D02*
X52960080Y-119582720D01*
X53000080Y-114472720D02*
X53000080Y-116032720D01*
X53000080Y-117992720D02*
X53000080Y-119552720D01*
X53040080Y-114502720D02*
X53040080Y-116032720D01*
X53040080Y-117992720D02*
X53040080Y-119522720D01*
X53080080Y-114534720D02*
X53080080Y-116032720D01*
X53080080Y-117992720D02*
X53080080Y-119490720D01*
X53120080Y-114567720D02*
X53120080Y-116032720D01*
X53120080Y-117992720D02*
X53120080Y-119457720D01*
X53160080Y-114601720D02*
X53160080Y-116032720D01*
X53160080Y-117992720D02*
X53160080Y-119423720D01*
X53200080Y-114637720D02*
X53200080Y-116032720D01*
X53200080Y-117992720D02*
X53200080Y-119387720D01*
X53240080Y-114673720D02*
X53240080Y-116032720D01*
X53240080Y-117992720D02*
X53240080Y-119351720D01*
X53280080Y-114711720D02*
X53280080Y-119313720D01*
X53320080Y-114750720D02*
X53320080Y-119274720D01*
X53360080Y-114790720D02*
X53360080Y-119234720D01*
X53400080Y-114832720D02*
X53400080Y-119192720D01*
X53440080Y-114875720D02*
X53440080Y-119149720D01*
X53480080Y-114920720D02*
X53480080Y-119104720D01*
X53520080Y-114967720D02*
X53520080Y-119057720D01*
X53560080Y-115015720D02*
X53560080Y-119009720D01*
X53600080Y-115066720D02*
X53600080Y-118958720D01*
X53640080Y-115118720D02*
X53640080Y-118906720D01*
X53680080Y-115173720D02*
X53680080Y-118851720D01*
X53720080Y-115231720D02*
X53720080Y-118793720D01*
X53760080Y-115291720D02*
X53760080Y-118733720D01*
X53800080Y-115354720D02*
X53800080Y-118670720D01*
X53840080Y-115421720D02*
X53840080Y-118603720D01*
X53880080Y-115492720D02*
X53880080Y-118532720D01*
X53920080Y-115567720D02*
X53920080Y-118457720D01*
X53960080Y-115648720D02*
X53960080Y-118376720D01*
X54000080Y-115734720D02*
X54000080Y-118290720D01*
X54040080Y-115828720D02*
X54040080Y-118196720D01*
X54080080Y-115931720D02*
X54080080Y-118093720D01*
X54120080Y-116046720D02*
X54120080Y-117978720D01*
X54160080Y-116178720D02*
X54160080Y-117846720D01*
X54200080Y-116336720D02*
X54200080Y-117688720D01*
X54240080Y-116544720D02*
X54240080Y-117480720D01*
X47589080Y-117012720D02*
X48789080Y-117012720D01*
X48189080Y-116362720D02*
X48189080Y-117662720D01*
X121638600Y-74682800D02*
X121638600Y-69571800D01*
X121638600Y-66673800D02*
X121638600Y-61562800D01*
X128258600Y-74682800D02*
X128258600Y-69571800D01*
X128258600Y-66673800D02*
X128258600Y-61562800D01*
X121638600Y-74682800D02*
X128258600Y-74682800D01*
X121638600Y-61562800D02*
X128258600Y-61562800D01*
X103160100Y-121926800D02*
X103160100Y-116815800D01*
X103160100Y-113917800D02*
X103160100Y-108806800D01*
X109780100Y-121926800D02*
X109780100Y-116815800D01*
X109780100Y-113917800D02*
X109780100Y-108806800D01*
X103160100Y-121926800D02*
X109780100Y-121926800D01*
X103160100Y-108806800D02*
X109780100Y-108806800D01*
D13*
X74726000Y-34614000D02*
X61926000Y-35314000D01*
X74726000Y-30614000D02*
X61926000Y-31314000D01*
X74726000Y-31614000D02*
X61926000Y-32314000D01*
X74726000Y-33614000D02*
X61926000Y-34314000D01*
X74726000Y-32614000D02*
X61926000Y-33314000D01*
X74726000Y-28614000D02*
X61926000Y-29314000D01*
X74726000Y-29614000D02*
X61926000Y-30314000D01*
X74726000Y-27614000D02*
X61926000Y-28314000D01*
X74726000Y-26614000D02*
X61926000Y-27314000D01*
X61926000Y-26614000D02*
X61926000Y-35814000D01*
X74726000Y-26614000D02*
X74726000Y-35814000D01*
X63526000Y-14614000D02*
X63526000Y-26614000D01*
X73126000Y-14614000D02*
X73126000Y-26614000D01*
X73126000Y-14614000D02*
X63526000Y-14614000D01*
X74726000Y-26614000D02*
X61926000Y-26614000D01*
X60926000Y-35814000D02*
X60926000Y-49514000D01*
X75726000Y-49514000D02*
X75726000Y-35814000D01*
X75726000Y-49514000D02*
X60926000Y-49514000D01*
X75726000Y-35814000D02*
X60926000Y-35814000D01*
D12*
X49276000Y-42926000D02*
X59436000Y-42926000D01*
X49276000Y-41656000D02*
X49276000Y-49276000D01*
X49276000Y-49276000D02*
X59436000Y-49276000D01*
X59436000Y-49276000D02*
X59436000Y-41656000D01*
X59436000Y-41656000D02*
X49276000Y-41656000D01*
D13*
X66790100Y-145903800D02*
X79590100Y-145203800D01*
X66790100Y-149903800D02*
X79590100Y-149203800D01*
X66790100Y-148903800D02*
X79590100Y-148203800D01*
X66790100Y-146903800D02*
X79590100Y-146203800D01*
X66790100Y-147903800D02*
X79590100Y-147203800D01*
X66790100Y-151903800D02*
X79590100Y-151203800D01*
X66790100Y-150903800D02*
X79590100Y-150203800D01*
X66790100Y-152903800D02*
X79590100Y-152203800D01*
X66790100Y-153903800D02*
X79590100Y-153203800D01*
X79590100Y-153903800D02*
X79590100Y-144703800D01*
X66790100Y-153903800D02*
X66790100Y-144703800D01*
X77990100Y-165903800D02*
X77990100Y-153903800D01*
X68390100Y-165903800D02*
X68390100Y-153903800D01*
X68390100Y-165903800D02*
X77990100Y-165903800D01*
X66790100Y-153903800D02*
X79590100Y-153903800D01*
X80590100Y-144703800D02*
X80590100Y-131003800D01*
X65790100Y-131003800D02*
X65790100Y-144703800D01*
X65790100Y-131003800D02*
X80590100Y-131003800D01*
X65790100Y-144703800D02*
X80590100Y-144703800D01*
D12*
X91541600Y-136575800D02*
X81381600Y-136575800D01*
X91541600Y-137845800D02*
X91541600Y-130225800D01*
X91541600Y-130225800D02*
X81381600Y-130225800D01*
X81381600Y-130225800D02*
X81381600Y-137845800D01*
X81381600Y-137845800D02*
X91541600Y-137845800D01*
X47286000Y-135000000D02*
G75*
G03X47286000Y-135000000I-2286000J0D01*
G01*
X137286000Y-135000000D02*
G75*
G03X137286000Y-135000000I-2286000J0D01*
G01*
X137286000Y-45000000D02*
G75*
G03X137286000Y-45000000I-2286000J0D01*
G01*
X47286000Y-45000000D02*
G75*
G03X47286000Y-45000000I-2286000J0D01*
G01*
X103350600Y-106686800D02*
X103350600Y-101575800D01*
X103350600Y-98677800D02*
X103350600Y-93566800D01*
X109970600Y-106686800D02*
X109970600Y-101575800D01*
X109970600Y-98677800D02*
X109970600Y-93566800D01*
X103350600Y-106686800D02*
X109970600Y-106686800D01*
X103350600Y-93566800D02*
X109970600Y-93566800D01*
X103426800Y-137420800D02*
X103426800Y-132309800D01*
X103426800Y-129411800D02*
X103426800Y-124300800D01*
X110046800Y-137420800D02*
X110046800Y-132309800D01*
X110046800Y-129411800D02*
X110046800Y-124300800D01*
X103426800Y-137420800D02*
X110046800Y-137420800D01*
X103426800Y-124300800D02*
X110046800Y-124300800D01*
X121384600Y-59252300D02*
X121384600Y-54141300D01*
X121384600Y-51243300D02*
X121384600Y-46132300D01*
X128004600Y-59252300D02*
X128004600Y-54141300D01*
X128004600Y-51243300D02*
X128004600Y-46132300D01*
X121384600Y-59252300D02*
X128004600Y-59252300D01*
X121384600Y-46132300D02*
X128004600Y-46132300D01*
X121740200Y-91294400D02*
X121740200Y-86183400D01*
X121740200Y-83285400D02*
X121740200Y-78174400D01*
X128360200Y-91294400D02*
X128360200Y-86183400D01*
X128360200Y-83285400D02*
X128360200Y-78174400D01*
X121740200Y-91294400D02*
X128360200Y-91294400D01*
X121740200Y-78174400D02*
X128360200Y-78174400D01*
X121867200Y-106483600D02*
X121867200Y-101372600D01*
X121867200Y-98474600D02*
X121867200Y-93363600D01*
X128487200Y-106483600D02*
X128487200Y-101372600D01*
X128487200Y-98474600D02*
X128487200Y-93363600D01*
X121867200Y-106483600D02*
X128487200Y-106483600D01*
X121867200Y-93363600D02*
X128487200Y-93363600D01*
X121943400Y-121622000D02*
X121943400Y-116511000D01*
X121943400Y-113613000D02*
X121943400Y-108502000D01*
X128563400Y-121622000D02*
X128563400Y-116511000D01*
X128563400Y-113613000D02*
X128563400Y-108502000D01*
X121943400Y-121622000D02*
X128563400Y-121622000D01*
X121943400Y-108502000D02*
X128563400Y-108502000D01*
X121918000Y-136481000D02*
X121918000Y-131370000D01*
X121918000Y-128472000D02*
X121918000Y-123361000D01*
X128538000Y-136481000D02*
X128538000Y-131370000D01*
X128538000Y-128472000D02*
X128538000Y-123361000D01*
X121918000Y-136481000D02*
X128538000Y-136481000D01*
X121918000Y-123361000D02*
X128538000Y-123361000D01*
X99880100Y-49266800D02*
X99880100Y-56886800D01*
X94760100Y-49266800D02*
X94760100Y-56886800D01*
X99880100Y-49266800D02*
X98515100Y-49266800D01*
X96125100Y-49266800D02*
X94760100Y-49266800D01*
X99880100Y-56886800D02*
X98515100Y-56886800D01*
X96125100Y-56886800D02*
X94760100Y-56886800D01*
X99753100Y-64316300D02*
X99753100Y-71936300D01*
X94633100Y-64316300D02*
X94633100Y-71936300D01*
X99753100Y-64316300D02*
X98388100Y-64316300D01*
X95998100Y-64316300D02*
X94633100Y-64316300D01*
X99753100Y-71936300D02*
X98388100Y-71936300D01*
X95998100Y-71936300D02*
X94633100Y-71936300D01*
X99626100Y-80699300D02*
X99626100Y-88319300D01*
X94506100Y-80699300D02*
X94506100Y-88319300D01*
X99626100Y-80699300D02*
X98261100Y-80699300D01*
X95871100Y-80699300D02*
X94506100Y-80699300D01*
X99626100Y-88319300D02*
X98261100Y-88319300D01*
X95871100Y-88319300D02*
X94506100Y-88319300D01*
X99372100Y-95621800D02*
X99372100Y-103241800D01*
X94252100Y-95621800D02*
X94252100Y-103241800D01*
X99372100Y-95621800D02*
X98007100Y-95621800D01*
X95617100Y-95621800D02*
X94252100Y-95621800D01*
X99372100Y-103241800D02*
X98007100Y-103241800D01*
X95617100Y-103241800D02*
X94252100Y-103241800D01*
X99626100Y-111433300D02*
X99626100Y-119053300D01*
X94506100Y-111433300D02*
X94506100Y-119053300D01*
X99626100Y-111433300D02*
X98261100Y-111433300D01*
X95871100Y-111433300D02*
X94506100Y-111433300D01*
X99626100Y-119053300D02*
X98261100Y-119053300D01*
X95871100Y-119053300D02*
X94506100Y-119053300D01*
X99435600Y-126101800D02*
X99435600Y-133721800D01*
X94315600Y-126101800D02*
X94315600Y-133721800D01*
X99435600Y-126101800D02*
X98070600Y-126101800D01*
X95680600Y-126101800D02*
X94315600Y-126101800D01*
X99435600Y-133721800D02*
X98070600Y-133721800D01*
X95680600Y-133721800D02*
X94315600Y-133721800D01*
X113429100Y-56308300D02*
X113429100Y-48688300D01*
X118549100Y-56308300D02*
X118549100Y-48688300D01*
X113429100Y-56308300D02*
X114794100Y-56308300D01*
X117184100Y-56308300D02*
X118549100Y-56308300D01*
X113429100Y-48688300D02*
X114794100Y-48688300D01*
X117184100Y-48688300D02*
X118549100Y-48688300D01*
X113111600Y-71992800D02*
X113111600Y-64372800D01*
X118231600Y-71992800D02*
X118231600Y-64372800D01*
X113111600Y-71992800D02*
X114476600Y-71992800D01*
X116866600Y-71992800D02*
X118231600Y-71992800D01*
X113111600Y-64372800D02*
X114476600Y-64372800D01*
X116866600Y-64372800D02*
X118231600Y-64372800D01*
X113111600Y-88439300D02*
X113111600Y-80819300D01*
X118231600Y-88439300D02*
X118231600Y-80819300D01*
X113111600Y-88439300D02*
X114476600Y-88439300D01*
X116866600Y-88439300D02*
X118231600Y-88439300D01*
X113111600Y-80819300D02*
X114476600Y-80819300D01*
X116866600Y-80819300D02*
X118231600Y-80819300D01*
X113111600Y-103425300D02*
X113111600Y-95805300D01*
X118231600Y-103425300D02*
X118231600Y-95805300D01*
X113111600Y-103425300D02*
X114476600Y-103425300D01*
X116866600Y-103425300D02*
X118231600Y-103425300D01*
X113111600Y-95805300D02*
X114476600Y-95805300D01*
X116866600Y-95805300D02*
X118231600Y-95805300D01*
X113175100Y-119109800D02*
X113175100Y-111489800D01*
X118295100Y-119109800D02*
X118295100Y-111489800D01*
X113175100Y-119109800D02*
X114540100Y-119109800D01*
X116930100Y-119109800D02*
X118295100Y-119109800D01*
X113175100Y-111489800D02*
X114540100Y-111489800D01*
X116930100Y-111489800D02*
X118295100Y-111489800D01*
X113391000Y-133791000D02*
X113391000Y-126171000D01*
X118511000Y-133791000D02*
X118511000Y-126171000D01*
X113391000Y-133791000D02*
X114756000Y-133791000D01*
X117146000Y-133791000D02*
X118511000Y-133791000D01*
X113391000Y-126171000D02*
X114756000Y-126171000D01*
X117146000Y-126171000D02*
X118511000Y-126171000D01*
X137091100Y-50981300D02*
X137091100Y-58601300D01*
X131971100Y-50981300D02*
X131971100Y-58601300D01*
X137091100Y-50981300D02*
X135726100Y-50981300D01*
X133336100Y-50981300D02*
X131971100Y-50981300D01*
X137091100Y-58601300D02*
X135726100Y-58601300D01*
X133336100Y-58601300D02*
X131971100Y-58601300D01*
X136722800Y-64837000D02*
X136722800Y-72457000D01*
X131602800Y-64837000D02*
X131602800Y-72457000D01*
X136722800Y-64837000D02*
X135357800Y-64837000D01*
X132967800Y-64837000D02*
X131602800Y-64837000D01*
X136722800Y-72457000D02*
X135357800Y-72457000D01*
X132967800Y-72457000D02*
X131602800Y-72457000D01*
X136367200Y-80127800D02*
X136367200Y-87747800D01*
X131247200Y-80127800D02*
X131247200Y-87747800D01*
X136367200Y-80127800D02*
X135002200Y-80127800D01*
X132612200Y-80127800D02*
X131247200Y-80127800D01*
X136367200Y-87747800D02*
X135002200Y-87747800D01*
X132612200Y-87747800D02*
X131247200Y-87747800D01*
X136062400Y-95621800D02*
X136062400Y-103241800D01*
X130942400Y-95621800D02*
X130942400Y-103241800D01*
X136062400Y-95621800D02*
X134697400Y-95621800D01*
X132307400Y-95621800D02*
X130942400Y-95621800D01*
X136062400Y-103241800D02*
X134697400Y-103241800D01*
X132307400Y-103241800D02*
X130942400Y-103241800D01*
X136037000Y-111268200D02*
X136037000Y-118888200D01*
X130917000Y-111268200D02*
X130917000Y-118888200D01*
X136037000Y-111268200D02*
X134672000Y-111268200D01*
X132282000Y-111268200D02*
X130917000Y-111268200D01*
X136037000Y-118888200D02*
X134672000Y-118888200D01*
X132282000Y-118888200D02*
X130917000Y-118888200D01*
X136176700Y-122533100D02*
X136176700Y-130153100D01*
X131056700Y-122533100D02*
X131056700Y-130153100D01*
X136176700Y-122533100D02*
X134811700Y-122533100D01*
X132421700Y-122533100D02*
X131056700Y-122533100D01*
X136176700Y-130153100D02*
X134811700Y-130153100D01*
X132421700Y-130153100D02*
X131056700Y-130153100D01*
X103477600Y-59125300D02*
X103477600Y-54014300D01*
X103477600Y-51116300D02*
X103477600Y-46005300D01*
X110097600Y-59125300D02*
X110097600Y-54014300D01*
X110097600Y-51116300D02*
X110097600Y-46005300D01*
X103477600Y-59125300D02*
X110097600Y-59125300D01*
X103477600Y-46005300D02*
X110097600Y-46005300D01*
X103350600Y-75127300D02*
X103350600Y-70016300D01*
X103350600Y-67118300D02*
X103350600Y-62007300D01*
X109970600Y-75127300D02*
X109970600Y-70016300D01*
X109970600Y-67118300D02*
X109970600Y-62007300D01*
X103350600Y-75127300D02*
X109970600Y-75127300D01*
X103350600Y-62007300D02*
X109970600Y-62007300D01*
X103223600Y-90875300D02*
X103223600Y-85764300D01*
X103223600Y-82866300D02*
X103223600Y-77755300D01*
X109843600Y-90875300D02*
X109843600Y-85764300D01*
X109843600Y-82866300D02*
X109843600Y-77755300D01*
X103223600Y-90875300D02*
X109843600Y-90875300D01*
X103223600Y-77755300D02*
X109843600Y-77755300D01*
D14*
X71476100Y-59940200D02*
X92476100Y-59940200D01*
X92476100Y-49940200D02*
X71476100Y-49940200D01*
X71476100Y-49940200D02*
X71476100Y-59940200D01*
X85476100Y-53940200D02*
X90476100Y-53940200D01*
X90476100Y-53940200D02*
X90476100Y-51940200D01*
X85476100Y-55940200D02*
X90476100Y-55940200D01*
X90476100Y-55940200D02*
X90476100Y-57940200D01*
X85476100Y-57940200D02*
X85476100Y-56940200D01*
X85476100Y-51940200D02*
X85476100Y-52940200D01*
X80476100Y-57940200D02*
X80476100Y-55940200D01*
X80476100Y-55940200D02*
X87476100Y-56940200D01*
X80476100Y-51940200D02*
X80476100Y-53940200D01*
X80476100Y-53940200D02*
X87476100Y-52940200D01*
X92476100Y-59940200D02*
X92476100Y-49940200D01*
X76476100Y-55940200D02*
X76476100Y-58940200D01*
X74476100Y-50940200D02*
X76476100Y-50940200D01*
X76476100Y-50940200D02*
X76476100Y-53940200D01*
X76476100Y-53940200D02*
X74476100Y-53940200D01*
X74476100Y-53940200D02*
X74476100Y-55940200D01*
X74476100Y-55940200D02*
X78476100Y-55940200D01*
X78476100Y-55940200D02*
X78476100Y-53940200D01*
X78476100Y-53940200D02*
X76476100Y-53940200D01*
X74476100Y-58940200D02*
X76476100Y-58940200D01*
X71539600Y-75154800D02*
X92539600Y-75154800D01*
X92539600Y-65154800D02*
X71539600Y-65154800D01*
X71539600Y-65154800D02*
X71539600Y-75154800D01*
X85539600Y-69154800D02*
X90539600Y-69154800D01*
X90539600Y-69154800D02*
X90539600Y-67154800D01*
X85539600Y-71154800D02*
X90539600Y-71154800D01*
X90539600Y-71154800D02*
X90539600Y-73154800D01*
X85539600Y-73154800D02*
X85539600Y-72154800D01*
X85539600Y-67154800D02*
X85539600Y-68154800D01*
X80539600Y-73154800D02*
X80539600Y-71154800D01*
X80539600Y-71154800D02*
X87539600Y-72154800D01*
X80539600Y-67154800D02*
X80539600Y-69154800D01*
X80539600Y-69154800D02*
X87539600Y-68154800D01*
X92539600Y-75154800D02*
X92539600Y-65154800D01*
X76539600Y-71154800D02*
X76539600Y-74154800D01*
X74539600Y-66154800D02*
X76539600Y-66154800D01*
X76539600Y-66154800D02*
X76539600Y-69154800D01*
X76539600Y-69154800D02*
X74539600Y-69154800D01*
X74539600Y-69154800D02*
X74539600Y-71154800D01*
X74539600Y-71154800D02*
X78539600Y-71154800D01*
X78539600Y-71154800D02*
X78539600Y-69154800D01*
X78539600Y-69154800D02*
X76539600Y-69154800D01*
X74539600Y-74154800D02*
X76539600Y-74154800D01*
X71539600Y-88362800D02*
X92539600Y-88362800D01*
X92539600Y-78362800D02*
X71539600Y-78362800D01*
X71539600Y-78362800D02*
X71539600Y-88362800D01*
X85539600Y-82362800D02*
X90539600Y-82362800D01*
X90539600Y-82362800D02*
X90539600Y-80362800D01*
X85539600Y-84362800D02*
X90539600Y-84362800D01*
X90539600Y-84362800D02*
X90539600Y-86362800D01*
X85539600Y-86362800D02*
X85539600Y-85362800D01*
X85539600Y-80362800D02*
X85539600Y-81362800D01*
X80539600Y-86362800D02*
X80539600Y-84362800D01*
X80539600Y-84362800D02*
X87539600Y-85362800D01*
X80539600Y-80362800D02*
X80539600Y-82362800D01*
X80539600Y-82362800D02*
X87539600Y-81362800D01*
X92539600Y-88362800D02*
X92539600Y-78362800D01*
X76539600Y-84362800D02*
X76539600Y-87362800D01*
X74539600Y-79362800D02*
X76539600Y-79362800D01*
X76539600Y-79362800D02*
X76539600Y-82362800D01*
X76539600Y-82362800D02*
X74539600Y-82362800D01*
X74539600Y-82362800D02*
X74539600Y-84362800D01*
X74539600Y-84362800D02*
X78539600Y-84362800D01*
X78539600Y-84362800D02*
X78539600Y-82362800D01*
X78539600Y-82362800D02*
X76539600Y-82362800D01*
X74539600Y-87362800D02*
X76539600Y-87362800D01*
X71539600Y-102586800D02*
X92539600Y-102586800D01*
X92539600Y-92586800D02*
X71539600Y-92586800D01*
X71539600Y-92586800D02*
X71539600Y-102586800D01*
X85539600Y-96586800D02*
X90539600Y-96586800D01*
X90539600Y-96586800D02*
X90539600Y-94586800D01*
X85539600Y-98586800D02*
X90539600Y-98586800D01*
X90539600Y-98586800D02*
X90539600Y-100586800D01*
X85539600Y-100586800D02*
X85539600Y-99586800D01*
X85539600Y-94586800D02*
X85539600Y-95586800D01*
X80539600Y-100586800D02*
X80539600Y-98586800D01*
X80539600Y-98586800D02*
X87539600Y-99586800D01*
X80539600Y-94586800D02*
X80539600Y-96586800D01*
X80539600Y-96586800D02*
X87539600Y-95586800D01*
X92539600Y-102586800D02*
X92539600Y-92586800D01*
X76539600Y-98586800D02*
X76539600Y-101586800D01*
X74539600Y-93586800D02*
X76539600Y-93586800D01*
X76539600Y-93586800D02*
X76539600Y-96586800D01*
X76539600Y-96586800D02*
X74539600Y-96586800D01*
X74539600Y-96586800D02*
X74539600Y-98586800D01*
X74539600Y-98586800D02*
X78539600Y-98586800D01*
X78539600Y-98586800D02*
X78539600Y-96586800D01*
X78539600Y-96586800D02*
X76539600Y-96586800D01*
X74539600Y-101586800D02*
X76539600Y-101586800D01*
X71549760Y-117095280D02*
X92549760Y-117095280D01*
X92549760Y-107095280D02*
X71549760Y-107095280D01*
X71549760Y-107095280D02*
X71549760Y-117095280D01*
X85549760Y-111095280D02*
X90549760Y-111095280D01*
X90549760Y-111095280D02*
X90549760Y-109095280D01*
X85549760Y-113095280D02*
X90549760Y-113095280D01*
X90549760Y-113095280D02*
X90549760Y-115095280D01*
X85549760Y-115095280D02*
X85549760Y-114095280D01*
X85549760Y-109095280D02*
X85549760Y-110095280D01*
X80549760Y-115095280D02*
X80549760Y-113095280D01*
X80549760Y-113095280D02*
X87549760Y-114095280D01*
X80549760Y-109095280D02*
X80549760Y-111095280D01*
X80549760Y-111095280D02*
X87549760Y-110095280D01*
X92549760Y-117095280D02*
X92549760Y-107095280D01*
X76549760Y-113095280D02*
X76549760Y-116095280D01*
X74549760Y-108095280D02*
X76549760Y-108095280D01*
X76549760Y-108095280D02*
X76549760Y-111095280D01*
X76549760Y-111095280D02*
X74549760Y-111095280D01*
X74549760Y-111095280D02*
X74549760Y-113095280D01*
X74549760Y-113095280D02*
X78549760Y-113095280D01*
X78549760Y-113095280D02*
X78549760Y-111095280D01*
X78549760Y-111095280D02*
X76549760Y-111095280D01*
X74549760Y-116095280D02*
X76549760Y-116095280D01*
X71605640Y-129612400D02*
X92605640Y-129612400D01*
X92605640Y-119612400D02*
X71605640Y-119612400D01*
X71605640Y-119612400D02*
X71605640Y-129612400D01*
X85605640Y-123612400D02*
X90605640Y-123612400D01*
X90605640Y-123612400D02*
X90605640Y-121612400D01*
X85605640Y-125612400D02*
X90605640Y-125612400D01*
X90605640Y-125612400D02*
X90605640Y-127612400D01*
X85605640Y-127612400D02*
X85605640Y-126612400D01*
X85605640Y-121612400D02*
X85605640Y-122612400D01*
X80605640Y-127612400D02*
X80605640Y-125612400D01*
X80605640Y-125612400D02*
X87605640Y-126612400D01*
X80605640Y-121612400D02*
X80605640Y-123612400D01*
X80605640Y-123612400D02*
X87605640Y-122612400D01*
X92605640Y-129612400D02*
X92605640Y-119612400D01*
X76605640Y-125612400D02*
X76605640Y-128612400D01*
X74605640Y-120612400D02*
X76605640Y-120612400D01*
X76605640Y-120612400D02*
X76605640Y-123612400D01*
X76605640Y-123612400D02*
X74605640Y-123612400D01*
X74605640Y-123612400D02*
X74605640Y-125612400D01*
X74605640Y-125612400D02*
X78605640Y-125612400D01*
X78605640Y-125612400D02*
X78605640Y-123612400D01*
X78605640Y-123612400D02*
X76605640Y-123612400D01*
X74605640Y-128612400D02*
X76605640Y-128612400D01*
D12*
X51713780Y-131785936D02*
G75*
G03X57749082Y-131786800I3017820J1179136D01*
G01*
X51713780Y-129427664D02*
G75*
G02X57749082Y-129426800I3017820J-1179136D01*
G01*
X51713780Y-129427664D02*
G75*
G03X51714118Y-131786800I3017820J-1179136D01*
G01*
X54731600Y-133806800D02*
X54731600Y-127406800D01*
X54691600Y-133806800D02*
X54691600Y-127406800D01*
X54651600Y-133806800D02*
X54651600Y-127406800D01*
X54611600Y-133804800D02*
X54611600Y-127408800D01*
X54571600Y-133803800D02*
X54571600Y-127409800D01*
X54531600Y-133800800D02*
X54531600Y-127412800D01*
X54491600Y-133798800D02*
X54491600Y-127414800D01*
X54451600Y-133794800D02*
X54451600Y-131586800D01*
X54451600Y-129626800D02*
X54451600Y-127418800D01*
X54411600Y-133791800D02*
X54411600Y-131586800D01*
X54411600Y-129626800D02*
X54411600Y-127421800D01*
X54371600Y-133786800D02*
X54371600Y-131586800D01*
X54371600Y-129626800D02*
X54371600Y-127426800D01*
X54331600Y-133782800D02*
X54331600Y-131586800D01*
X54331600Y-129626800D02*
X54331600Y-127430800D01*
X54291600Y-133776800D02*
X54291600Y-131586800D01*
X54291600Y-129626800D02*
X54291600Y-127436800D01*
X54251600Y-133771800D02*
X54251600Y-131586800D01*
X54251600Y-129626800D02*
X54251600Y-127441800D01*
X54211600Y-133764800D02*
X54211600Y-131586800D01*
X54211600Y-129626800D02*
X54211600Y-127448800D01*
X54171600Y-133758800D02*
X54171600Y-131586800D01*
X54171600Y-129626800D02*
X54171600Y-127454800D01*
X54131600Y-133750800D02*
X54131600Y-131586800D01*
X54131600Y-129626800D02*
X54131600Y-127462800D01*
X54091600Y-133743800D02*
X54091600Y-131586800D01*
X54091600Y-129626800D02*
X54091600Y-127469800D01*
X54051600Y-133734800D02*
X54051600Y-131586800D01*
X54051600Y-129626800D02*
X54051600Y-127478800D01*
X54010600Y-133725800D02*
X54010600Y-131586800D01*
X54010600Y-129626800D02*
X54010600Y-127487800D01*
X53970600Y-133716800D02*
X53970600Y-131586800D01*
X53970600Y-129626800D02*
X53970600Y-127496800D01*
X53930600Y-133706800D02*
X53930600Y-131586800D01*
X53930600Y-129626800D02*
X53930600Y-127506800D01*
X53890600Y-133696800D02*
X53890600Y-131586800D01*
X53890600Y-129626800D02*
X53890600Y-127516800D01*
X53850600Y-133685800D02*
X53850600Y-131586800D01*
X53850600Y-129626800D02*
X53850600Y-127527800D01*
X53810600Y-133673800D02*
X53810600Y-131586800D01*
X53810600Y-129626800D02*
X53810600Y-127539800D01*
X53770600Y-133661800D02*
X53770600Y-131586800D01*
X53770600Y-129626800D02*
X53770600Y-127551800D01*
X53730600Y-133648800D02*
X53730600Y-131586800D01*
X53730600Y-129626800D02*
X53730600Y-127564800D01*
X53690600Y-133635800D02*
X53690600Y-131586800D01*
X53690600Y-129626800D02*
X53690600Y-127577800D01*
X53650600Y-133621800D02*
X53650600Y-131586800D01*
X53650600Y-129626800D02*
X53650600Y-127591800D01*
X53610600Y-133607800D02*
X53610600Y-131586800D01*
X53610600Y-129626800D02*
X53610600Y-127605800D01*
X53570600Y-133592800D02*
X53570600Y-131586800D01*
X53570600Y-129626800D02*
X53570600Y-127620800D01*
X53530600Y-133576800D02*
X53530600Y-131586800D01*
X53530600Y-129626800D02*
X53530600Y-127636800D01*
X53490600Y-133560800D02*
X53490600Y-131586800D01*
X53490600Y-129626800D02*
X53490600Y-127652800D01*
X53450600Y-133543800D02*
X53450600Y-131586800D01*
X53450600Y-129626800D02*
X53450600Y-127669800D01*
X53410600Y-133525800D02*
X53410600Y-131586800D01*
X53410600Y-129626800D02*
X53410600Y-127687800D01*
X53370600Y-133507800D02*
X53370600Y-131586800D01*
X53370600Y-129626800D02*
X53370600Y-127705800D01*
X53330600Y-133488800D02*
X53330600Y-131586800D01*
X53330600Y-129626800D02*
X53330600Y-127724800D01*
X53290600Y-133469800D02*
X53290600Y-131586800D01*
X53290600Y-129626800D02*
X53290600Y-127743800D01*
X53250600Y-133449800D02*
X53250600Y-131586800D01*
X53250600Y-129626800D02*
X53250600Y-127763800D01*
X53210600Y-133428800D02*
X53210600Y-131586800D01*
X53210600Y-129626800D02*
X53210600Y-127784800D01*
X53170600Y-133406800D02*
X53170600Y-131586800D01*
X53170600Y-129626800D02*
X53170600Y-127806800D01*
X53130600Y-133384800D02*
X53130600Y-131586800D01*
X53130600Y-129626800D02*
X53130600Y-127828800D01*
X53090600Y-133361800D02*
X53090600Y-131586800D01*
X53090600Y-129626800D02*
X53090600Y-127851800D01*
X53050600Y-133337800D02*
X53050600Y-131586800D01*
X53050600Y-129626800D02*
X53050600Y-127875800D01*
X53010600Y-133312800D02*
X53010600Y-131586800D01*
X53010600Y-129626800D02*
X53010600Y-127900800D01*
X52970600Y-133287800D02*
X52970600Y-131586800D01*
X52970600Y-129626800D02*
X52970600Y-127925800D01*
X52930600Y-133260800D02*
X52930600Y-131586800D01*
X52930600Y-129626800D02*
X52930600Y-127952800D01*
X52890600Y-133233800D02*
X52890600Y-131586800D01*
X52890600Y-129626800D02*
X52890600Y-127979800D01*
X52850600Y-133205800D02*
X52850600Y-131586800D01*
X52850600Y-129626800D02*
X52850600Y-128007800D01*
X52810600Y-133176800D02*
X52810600Y-131586800D01*
X52810600Y-129626800D02*
X52810600Y-128036800D01*
X52770600Y-133146800D02*
X52770600Y-131586800D01*
X52770600Y-129626800D02*
X52770600Y-128066800D01*
X52730600Y-133116800D02*
X52730600Y-131586800D01*
X52730600Y-129626800D02*
X52730600Y-128096800D01*
X52690600Y-133084800D02*
X52690600Y-131586800D01*
X52690600Y-129626800D02*
X52690600Y-128128800D01*
X52650600Y-133051800D02*
X52650600Y-131586800D01*
X52650600Y-129626800D02*
X52650600Y-128161800D01*
X52610600Y-133017800D02*
X52610600Y-131586800D01*
X52610600Y-129626800D02*
X52610600Y-128195800D01*
X52570600Y-132981800D02*
X52570600Y-131586800D01*
X52570600Y-129626800D02*
X52570600Y-128231800D01*
X52530600Y-132945800D02*
X52530600Y-131586800D01*
X52530600Y-129626800D02*
X52530600Y-128267800D01*
X52490600Y-132907800D02*
X52490600Y-128305800D01*
X52450600Y-132868800D02*
X52450600Y-128344800D01*
X52410600Y-132828800D02*
X52410600Y-128384800D01*
X52370600Y-132786800D02*
X52370600Y-128426800D01*
X52330600Y-132743800D02*
X52330600Y-128469800D01*
X52290600Y-132698800D02*
X52290600Y-128514800D01*
X52250600Y-132651800D02*
X52250600Y-128561800D01*
X52210600Y-132603800D02*
X52210600Y-128609800D01*
X52170600Y-132552800D02*
X52170600Y-128660800D01*
X52130600Y-132500800D02*
X52130600Y-128712800D01*
X52090600Y-132445800D02*
X52090600Y-128767800D01*
X52050600Y-132387800D02*
X52050600Y-128825800D01*
X52010600Y-132327800D02*
X52010600Y-128885800D01*
X51970600Y-132264800D02*
X51970600Y-128948800D01*
X51930600Y-132197800D02*
X51930600Y-129015800D01*
X51890600Y-132126800D02*
X51890600Y-129086800D01*
X51850600Y-132051800D02*
X51850600Y-129161800D01*
X51810600Y-131970800D02*
X51810600Y-129242800D01*
X51770600Y-131884800D02*
X51770600Y-129328800D01*
X51730600Y-131790800D02*
X51730600Y-129422800D01*
X51690600Y-131687800D02*
X51690600Y-129525800D01*
X51650600Y-131572800D02*
X51650600Y-129640800D01*
X51610600Y-131440800D02*
X51610600Y-129772800D01*
X51570600Y-131282800D02*
X51570600Y-129930800D01*
X51530600Y-131074800D02*
X51530600Y-130138800D01*
X58181600Y-130606800D02*
X56981600Y-130606800D01*
X57581600Y-131256800D02*
X57581600Y-129956800D01*
X43980100Y-130797300D02*
X43980100Y-120637300D01*
X42710100Y-130797300D02*
X50330100Y-130797300D01*
X50330100Y-130797300D02*
X50330100Y-120637300D01*
X50330100Y-120637300D02*
X42710100Y-120637300D01*
X42710100Y-120637300D02*
X42710100Y-130797300D01*
X60430100Y-138591600D02*
X63090100Y-138591600D01*
X60430100Y-135991600D02*
X60430100Y-138591600D01*
X63090100Y-135991600D02*
X63090100Y-138591600D01*
X60430100Y-135991600D02*
X63090100Y-135991600D01*
X60430100Y-134721600D02*
X60430100Y-133391600D01*
X60430100Y-133391600D02*
X61760100Y-133391600D01*
X59704600Y-138687800D02*
X49464600Y-138687800D01*
X59704600Y-134046800D02*
X49464600Y-134046800D01*
X59704600Y-138687800D02*
X59704600Y-134046800D01*
X49464600Y-138687800D02*
X49464600Y-134046800D01*
X59704600Y-137177800D02*
X49464600Y-137177800D01*
X56434600Y-138687800D02*
X56434600Y-137177800D01*
X52733600Y-138687800D02*
X52733600Y-137177800D01*
X64284100Y-105972300D02*
G75*
G02X62284100Y-105972300I-1000000J0D01*
G01*
X62284100Y-105972300D02*
X60634100Y-105972300D01*
X60634100Y-105972300D02*
X60634100Y-128952300D01*
X60634100Y-128952300D02*
X65934100Y-128952300D01*
X65934100Y-128952300D02*
X65934100Y-105972300D01*
X65934100Y-105972300D02*
X64284100Y-105972300D01*
X58144100Y-105912300D02*
X58144100Y-129012300D01*
X58144100Y-129012300D02*
X68424100Y-129012300D01*
X68424100Y-129012300D02*
X68424100Y-105912300D01*
X68424100Y-105912300D02*
X58144100Y-105912300D01*
X65127500Y-132069200D02*
X60007500Y-132069200D01*
X65127500Y-129449200D02*
X60007500Y-129449200D01*
X65127500Y-132069200D02*
X65127500Y-129449200D01*
X60007500Y-132069200D02*
X60007500Y-129449200D01*
X71943600Y-60970800D02*
X77063600Y-60970800D01*
X71943600Y-63590800D02*
X77063600Y-63590800D01*
X71943600Y-60970800D02*
X71943600Y-63590800D01*
X77063600Y-60970800D02*
X77063600Y-63590800D01*
X72007100Y-75385300D02*
X77127100Y-75385300D01*
X72007100Y-78005300D02*
X77127100Y-78005300D01*
X72007100Y-75385300D02*
X72007100Y-78005300D01*
X77127100Y-75385300D02*
X77127100Y-78005300D01*
X71388600Y-117930300D02*
X71388600Y-123050300D01*
X68768600Y-117930300D02*
X68768600Y-123050300D01*
X71388600Y-117930300D02*
X68768600Y-117930300D01*
X71388600Y-123050300D02*
X68768600Y-123050300D01*
X68641600Y-128868800D02*
X68641600Y-123748800D01*
X71261600Y-128868800D02*
X71261600Y-123748800D01*
X68641600Y-128868800D02*
X71261600Y-128868800D01*
X68641600Y-123748800D02*
X71261600Y-123748800D01*
X71689600Y-89164800D02*
X76809600Y-89164800D01*
X71689600Y-91784800D02*
X76809600Y-91784800D01*
X71689600Y-89164800D02*
X71689600Y-91784800D01*
X76809600Y-89164800D02*
X76809600Y-91784800D01*
X71943600Y-103388800D02*
X77063600Y-103388800D01*
X71943600Y-106008800D02*
X77063600Y-106008800D01*
X71943600Y-103388800D02*
X71943600Y-106008800D01*
X77063600Y-103388800D02*
X77063600Y-106008800D01*
X50760000Y-74890000D02*
X55880000Y-74890000D01*
X50760000Y-77510000D02*
X55880000Y-77510000D01*
X50760000Y-74890000D02*
X50760000Y-77510000D01*
X55880000Y-74890000D02*
X55880000Y-77510000D01*
X62121600Y-86490800D02*
X67241600Y-86490800D01*
X62121600Y-89110800D02*
X67241600Y-89110800D01*
X62121600Y-86490800D02*
X62121600Y-89110800D01*
X67241600Y-86490800D02*
X67241600Y-89110800D01*
X66191600Y-102860800D02*
X61071600Y-102860800D01*
X66191600Y-100240800D02*
X61071600Y-100240800D01*
X66191600Y-102860800D02*
X66191600Y-100240800D01*
X61071600Y-102860800D02*
X61071600Y-100240800D01*
X62171600Y-96650800D02*
X64291600Y-96650800D01*
X64291600Y-96650800D02*
X64291600Y-92530800D01*
X64291600Y-92530800D02*
X62171600Y-92530800D01*
X62171600Y-92530800D02*
X62171600Y-96650800D01*
X63231600Y-97420800D02*
X63231600Y-96650800D01*
X63231600Y-91760800D02*
X63231600Y-92530800D01*
X62171600Y-95990800D02*
X64291600Y-95990800D01*
X61241600Y-92600800D02*
X59121600Y-92600800D01*
X59121600Y-92600800D02*
X59121600Y-96720800D01*
X59121600Y-96720800D02*
X61241600Y-96720800D01*
X61241600Y-96720800D02*
X61241600Y-92600800D01*
X60181600Y-91830800D02*
X60181600Y-92600800D01*
X60181600Y-97490800D02*
X60181600Y-96720800D01*
X61241600Y-93260800D02*
X59121600Y-93260800D01*
X43628000Y-118424000D02*
X46288000Y-118424000D01*
X43628000Y-100584000D02*
X43628000Y-118424000D01*
X46288000Y-100584000D02*
X46288000Y-118424000D01*
X43628000Y-100584000D02*
X46288000Y-100584000D01*
X43628000Y-99314000D02*
X43628000Y-97984000D01*
X43628000Y-97984000D02*
X44958000Y-97984000D01*
X54172000Y-82468000D02*
X54172000Y-86188000D01*
X54172000Y-86188000D02*
X64192000Y-86188000D01*
X64192000Y-86188000D02*
X64192000Y-82468000D01*
X64192000Y-82468000D02*
X54172000Y-82468000D01*
X52942000Y-84328000D02*
X54172000Y-84328000D01*
X65422000Y-84328000D02*
X64192000Y-84328000D01*
X56000000Y-96530000D02*
X56000000Y-96660000D01*
X56000000Y-96660000D02*
X50680000Y-96660000D01*
X50680000Y-96660000D02*
X50680000Y-96530000D01*
X56000000Y-93970000D02*
X56000000Y-93840000D01*
X56000000Y-93840000D02*
X50680000Y-93840000D01*
X50680000Y-93840000D02*
X50680000Y-93970000D01*
X55160000Y-96660000D02*
X55160000Y-93840000D01*
X65251600Y-98000800D02*
X64921600Y-98000800D01*
X64921600Y-98000800D02*
X64921600Y-91580800D01*
X64921600Y-91580800D02*
X65251600Y-91580800D01*
X67211600Y-98000800D02*
X67541600Y-98000800D01*
X67541600Y-98000800D02*
X67541600Y-91580800D01*
X67541600Y-91580800D02*
X67211600Y-91580800D01*
X56296000Y-92928000D02*
X56296000Y-93258000D01*
X56296000Y-93258000D02*
X49876000Y-93258000D01*
X49876000Y-93258000D02*
X49876000Y-92928000D01*
X56296000Y-90968000D02*
X56296000Y-90638000D01*
X56296000Y-90638000D02*
X49876000Y-90638000D01*
X49876000Y-90638000D02*
X49876000Y-90968000D01*
X49947200Y-96988000D02*
X55067200Y-96988000D01*
X49947200Y-99608000D02*
X55067200Y-99608000D01*
X49947200Y-96988000D02*
X49947200Y-99608000D01*
X55067200Y-96988000D02*
X55067200Y-99608000D01*
X49947200Y-99782000D02*
X55067200Y-99782000D01*
X49947200Y-102402000D02*
X55067200Y-102402000D01*
X49947200Y-99782000D02*
X49947200Y-102402000D01*
X55067200Y-99782000D02*
X55067200Y-102402000D01*
X49896400Y-102677600D02*
X55016400Y-102677600D01*
X49896400Y-105297600D02*
X55016400Y-105297600D01*
X49896400Y-102677600D02*
X49896400Y-105297600D01*
X55016400Y-102677600D02*
X55016400Y-105297600D01*
X49845600Y-105268400D02*
X54965600Y-105268400D01*
X49845600Y-107888400D02*
X54965600Y-107888400D01*
X49845600Y-105268400D02*
X49845600Y-107888400D01*
X54965600Y-105268400D02*
X54965600Y-107888400D01*
X49794800Y-107960800D02*
X54914800Y-107960800D01*
X49794800Y-110580800D02*
X54914800Y-110580800D01*
X49794800Y-107960800D02*
X49794800Y-110580800D01*
X54914800Y-107960800D02*
X54914800Y-110580800D01*
X49845600Y-110704000D02*
X54965600Y-110704000D01*
X49845600Y-113324000D02*
X54965600Y-113324000D01*
X49845600Y-110704000D02*
X49845600Y-113324000D01*
X54965600Y-110704000D02*
X54965600Y-113324000D01*
X51268000Y-121168800D02*
X56388000Y-121168800D01*
X51268000Y-123788800D02*
X56388000Y-123788800D01*
X51268000Y-121168800D02*
X51268000Y-123788800D01*
X56388000Y-121168800D02*
X56388000Y-123788800D01*
X49824000Y-81828000D02*
X44704000Y-81828000D01*
X49824000Y-79208000D02*
X44704000Y-79208000D01*
X49824000Y-81828000D02*
X49824000Y-79208000D01*
X44704000Y-81828000D02*
X44704000Y-79208000D01*
X45760000Y-65572000D02*
X40640000Y-65572000D01*
X45760000Y-62952000D02*
X40640000Y-62952000D01*
X45760000Y-65572000D02*
X45760000Y-62952000D01*
X40640000Y-65572000D02*
X40640000Y-62952000D01*
X44152000Y-74450000D02*
X46272000Y-74450000D01*
X46272000Y-74450000D02*
X46272000Y-70330000D01*
X46272000Y-70330000D02*
X44152000Y-70330000D01*
X44152000Y-70330000D02*
X44152000Y-74450000D01*
X45212000Y-75220000D02*
X45212000Y-74450000D01*
X45212000Y-69560000D02*
X45212000Y-70330000D01*
X44152000Y-73790000D02*
X46272000Y-73790000D01*
X43914000Y-55836000D02*
X43914000Y-57956000D01*
X43914000Y-57956000D02*
X48034000Y-57956000D01*
X48034000Y-57956000D02*
X48034000Y-55836000D01*
X48034000Y-55836000D02*
X43914000Y-55836000D01*
X43144000Y-56896000D02*
X43914000Y-56896000D01*
X48804000Y-56896000D02*
X48034000Y-56896000D01*
X44574000Y-55836000D02*
X44574000Y-57956000D01*
X47470000Y-84482000D02*
X41470000Y-84482000D01*
X41470000Y-84482000D02*
X41470000Y-94842000D01*
X41470000Y-94842000D02*
X47470000Y-94842000D01*
X47470000Y-94842000D02*
X47470000Y-84482000D01*
X41470000Y-85852000D02*
X42470000Y-85852000D01*
X42470000Y-85852000D02*
X42470000Y-93472000D01*
X42470000Y-93472000D02*
X41470000Y-93472000D01*
X42470000Y-85852000D02*
X42900000Y-86102000D01*
X42900000Y-86102000D02*
X42900000Y-93222000D01*
X42900000Y-93222000D02*
X42470000Y-93472000D01*
X41470000Y-86102000D02*
X42470000Y-86102000D01*
X41470000Y-93222000D02*
X42470000Y-93222000D01*
X47470000Y-85052000D02*
X46850000Y-85052000D01*
X46850000Y-85052000D02*
X46850000Y-86652000D01*
X46850000Y-86652000D02*
X47470000Y-86652000D01*
X47470000Y-87592000D02*
X46850000Y-87592000D01*
X46850000Y-87592000D02*
X46850000Y-89192000D01*
X46850000Y-89192000D02*
X47470000Y-89192000D01*
X47470000Y-90132000D02*
X46850000Y-90132000D01*
X46850000Y-90132000D02*
X46850000Y-91732000D01*
X46850000Y-91732000D02*
X47470000Y-91732000D01*
X47470000Y-92672000D02*
X46850000Y-92672000D01*
X46850000Y-92672000D02*
X46850000Y-94272000D01*
X46850000Y-94272000D02*
X47470000Y-94272000D01*
X43652000Y-69180000D02*
X43982000Y-69180000D01*
X43982000Y-69180000D02*
X43982000Y-75600000D01*
X43982000Y-75600000D02*
X43652000Y-75600000D01*
X41692000Y-69180000D02*
X41362000Y-69180000D01*
X41362000Y-69180000D02*
X41362000Y-75600000D01*
X41362000Y-75600000D02*
X41692000Y-75600000D01*
X51654000Y-87158000D02*
X51654000Y-86828000D01*
X51654000Y-86828000D02*
X58074000Y-86828000D01*
X58074000Y-86828000D02*
X58074000Y-87158000D01*
X51654000Y-89118000D02*
X51654000Y-89448000D01*
X51654000Y-89448000D02*
X58074000Y-89448000D01*
X58074000Y-89448000D02*
X58074000Y-89118000D01*
X50174000Y-65544000D02*
X46854000Y-65544000D01*
X46854000Y-65544000D02*
X46854000Y-74664000D01*
X46854000Y-74664000D02*
X50174000Y-74664000D01*
X50174000Y-74664000D02*
X50174000Y-65544000D01*
X48514000Y-64734000D02*
X48514000Y-65544000D01*
X48514000Y-75474000D02*
X48514000Y-74664000D01*
X53585000Y-62210000D02*
X53585000Y-58890000D01*
X53585000Y-58890000D02*
X44465000Y-58890000D01*
X44465000Y-58890000D02*
X44465000Y-62210000D01*
X44465000Y-62210000D02*
X53585000Y-62210000D01*
X54395000Y-60550000D02*
X53585000Y-60550000D01*
X43655000Y-60550000D02*
X44465000Y-60550000D01*
X43018000Y-52868000D02*
X43018000Y-52538000D01*
X43018000Y-52538000D02*
X49438000Y-52538000D01*
X49438000Y-52538000D02*
X49438000Y-52868000D01*
X43018000Y-54828000D02*
X43018000Y-55158000D01*
X43018000Y-55158000D02*
X49438000Y-55158000D01*
X49438000Y-55158000D02*
X49438000Y-54828000D01*
X49438000Y-51780000D02*
X49438000Y-52110000D01*
X49438000Y-52110000D02*
X43018000Y-52110000D01*
X43018000Y-52110000D02*
X43018000Y-51780000D01*
X49438000Y-49820000D02*
X49438000Y-49490000D01*
X49438000Y-49490000D02*
X43018000Y-49490000D01*
X43018000Y-49490000D02*
X43018000Y-49820000D01*
X56134000Y-56134000D02*
G75*
G03X56134000Y-56134000I-2286000J0D01*
G01*
X68834000Y-71120000D02*
G75*
G03X68834000Y-71120000I-2286000J0D01*
G01*
X63246000Y-52070000D02*
G75*
G03X63246000Y-52070000I-2286000J0D01*
G01*
X63246000Y-60706000D02*
G75*
G03X63246000Y-60706000I-2286000J0D01*
G01*
X61976000Y-67056000D02*
G75*
G03X61976000Y-67056000I-2286000J0D01*
G01*
X62484000Y-75946000D02*
G75*
G03X62484000Y-75946000I-2286000J0D01*
G01*
X69850000Y-56134000D02*
G75*
G03X69850000Y-56134000I-2286000J0D01*
G01*
X55372000Y-70612000D02*
G75*
G03X55372000Y-70612000I-2286000J0D01*
G01*
D11*
X59078834Y-80551281D02*
X58745500Y-80075090D01*
X58507405Y-80551281D02*
X58507405Y-79551281D01*
X58888358Y-79551281D01*
X58983596Y-79598900D01*
X59031215Y-79646519D01*
X59078834Y-79741757D01*
X59078834Y-79884614D01*
X59031215Y-79979852D01*
X58983596Y-80027471D01*
X58888358Y-80075090D01*
X58507405Y-80075090D01*
X60031215Y-80551281D02*
X59459786Y-80551281D01*
X59745500Y-80551281D02*
X59745500Y-79551281D01*
X59650262Y-79694138D01*
X59555024Y-79789376D01*
X59459786Y-79836995D01*
X48810943Y-119828583D02*
X48763324Y-119876202D01*
X48620467Y-119923821D01*
X48525229Y-119923821D01*
X48382371Y-119876202D01*
X48287133Y-119780964D01*
X48239514Y-119685726D01*
X48191895Y-119495250D01*
X48191895Y-119352392D01*
X48239514Y-119161916D01*
X48287133Y-119066678D01*
X48382371Y-118971440D01*
X48525229Y-118923821D01*
X48620467Y-118923821D01*
X48763324Y-118971440D01*
X48810943Y-119019059D01*
X49191895Y-119019059D02*
X49239514Y-118971440D01*
X49334752Y-118923821D01*
X49572848Y-118923821D01*
X49668086Y-118971440D01*
X49715705Y-119019059D01*
X49763324Y-119114297D01*
X49763324Y-119209535D01*
X49715705Y-119352392D01*
X49144276Y-119923821D01*
X49763324Y-119923821D01*
X50715705Y-119923821D02*
X50144276Y-119923821D01*
X50429990Y-119923821D02*
X50429990Y-118923821D01*
X50334752Y-119066678D01*
X50239514Y-119161916D01*
X50144276Y-119209535D01*
X120213381Y-68162466D02*
X120213381Y-68638657D01*
X119213381Y-68638657D01*
X119641952Y-67686276D02*
X119594333Y-67781514D01*
X119546714Y-67829133D01*
X119451476Y-67876752D01*
X119403857Y-67876752D01*
X119308619Y-67829133D01*
X119261000Y-67781514D01*
X119213381Y-67686276D01*
X119213381Y-67495799D01*
X119261000Y-67400561D01*
X119308619Y-67352942D01*
X119403857Y-67305323D01*
X119451476Y-67305323D01*
X119546714Y-67352942D01*
X119594333Y-67400561D01*
X119641952Y-67495799D01*
X119641952Y-67686276D01*
X119689571Y-67781514D01*
X119737190Y-67829133D01*
X119832429Y-67876752D01*
X120022905Y-67876752D01*
X120118143Y-67829133D01*
X120165762Y-67781514D01*
X120213381Y-67686276D01*
X120213381Y-67495799D01*
X120165762Y-67400561D01*
X120118143Y-67352942D01*
X120022905Y-67305323D01*
X119832429Y-67305323D01*
X119737190Y-67352942D01*
X119689571Y-67400561D01*
X119641952Y-67495799D01*
X101493581Y-115609666D02*
X101493581Y-116085857D01*
X100493581Y-116085857D01*
X100493581Y-114800142D02*
X100493581Y-115276333D01*
X100969771Y-115323952D01*
X100922152Y-115276333D01*
X100874533Y-115181095D01*
X100874533Y-114942999D01*
X100922152Y-114847761D01*
X100969771Y-114800142D01*
X101065010Y-114752523D01*
X101303105Y-114752523D01*
X101398343Y-114800142D01*
X101445962Y-114847761D01*
X101493581Y-114942999D01*
X101493581Y-115181095D01*
X101445962Y-115276333D01*
X101398343Y-115323952D01*
D14*
X76058781Y-45939033D02*
X76773067Y-45939033D01*
X76915924Y-45986653D01*
X77011162Y-46081891D01*
X77058781Y-46224748D01*
X77058781Y-46319986D01*
X77058781Y-44939033D02*
X77058781Y-45510462D01*
X77058781Y-45224748D02*
X76058781Y-45224748D01*
X76201638Y-45319986D01*
X76296876Y-45415224D01*
X76344495Y-45510462D01*
X63414164Y-46280343D02*
X63366545Y-46327962D01*
X63223688Y-46375581D01*
X63128450Y-46375581D01*
X62985592Y-46327962D01*
X62890354Y-46232724D01*
X62842735Y-46137486D01*
X62795116Y-45947010D01*
X62795116Y-45804152D01*
X62842735Y-45613676D01*
X62890354Y-45518438D01*
X62985592Y-45423200D01*
X63128450Y-45375581D01*
X63223688Y-45375581D01*
X63366545Y-45423200D01*
X63414164Y-45470819D01*
X63985592Y-46375581D02*
X63890354Y-46327962D01*
X63842735Y-46280343D01*
X63795116Y-46185105D01*
X63795116Y-45899390D01*
X63842735Y-45804152D01*
X63890354Y-45756533D01*
X63985592Y-45708914D01*
X64128450Y-45708914D01*
X64223688Y-45756533D01*
X64271307Y-45804152D01*
X64318926Y-45899390D01*
X64318926Y-46185105D01*
X64271307Y-46280343D01*
X64223688Y-46327962D01*
X64128450Y-46375581D01*
X63985592Y-46375581D01*
X64747497Y-45708914D02*
X64747497Y-46375581D01*
X64747497Y-45804152D02*
X64795116Y-45756533D01*
X64890354Y-45708914D01*
X65033212Y-45708914D01*
X65128450Y-45756533D01*
X65176069Y-45851771D01*
X65176069Y-46375581D01*
X65652259Y-45708914D02*
X65652259Y-46375581D01*
X65652259Y-45804152D02*
X65699878Y-45756533D01*
X65795116Y-45708914D01*
X65937974Y-45708914D01*
X66033212Y-45756533D01*
X66080831Y-45851771D01*
X66080831Y-46375581D01*
X66318926Y-46470819D02*
X67080831Y-46470819D01*
X67890355Y-46280343D02*
X67842736Y-46327962D01*
X67699879Y-46375581D01*
X67604641Y-46375581D01*
X67461783Y-46327962D01*
X67366545Y-46232724D01*
X67318926Y-46137486D01*
X67271307Y-45947010D01*
X67271307Y-45804152D01*
X67318926Y-45613676D01*
X67366545Y-45518438D01*
X67461783Y-45423200D01*
X67604641Y-45375581D01*
X67699879Y-45375581D01*
X67842736Y-45423200D01*
X67890355Y-45470819D01*
X68461783Y-46375581D02*
X68366545Y-46327962D01*
X68318926Y-46280343D01*
X68271307Y-46185105D01*
X68271307Y-45899390D01*
X68318926Y-45804152D01*
X68366545Y-45756533D01*
X68461783Y-45708914D01*
X68604641Y-45708914D01*
X68699879Y-45756533D01*
X68747498Y-45804152D01*
X68795117Y-45899390D01*
X68795117Y-46185105D01*
X68747498Y-46280343D01*
X68699879Y-46327962D01*
X68604641Y-46375581D01*
X68461783Y-46375581D01*
X69652260Y-46375581D02*
X69652260Y-45851771D01*
X69604641Y-45756533D01*
X69509403Y-45708914D01*
X69318926Y-45708914D01*
X69223688Y-45756533D01*
X69652260Y-46327962D02*
X69557022Y-46375581D01*
X69318926Y-46375581D01*
X69223688Y-46327962D01*
X69176069Y-46232724D01*
X69176069Y-46137486D01*
X69223688Y-46042248D01*
X69318926Y-45994629D01*
X69557022Y-45994629D01*
X69652260Y-45947010D01*
X70033212Y-46375581D02*
X70557022Y-45708914D01*
X70033212Y-45708914D02*
X70557022Y-46375581D01*
X70937974Y-46375581D02*
X70937974Y-45708914D01*
X70937974Y-45375581D02*
X70890355Y-45423200D01*
X70937974Y-45470819D01*
X70985593Y-45423200D01*
X70937974Y-45375581D01*
X70937974Y-45470819D01*
X71842736Y-46375581D02*
X71842736Y-45851771D01*
X71795117Y-45756533D01*
X71699879Y-45708914D01*
X71509402Y-45708914D01*
X71414164Y-45756533D01*
X71842736Y-46327962D02*
X71747498Y-46375581D01*
X71509402Y-46375581D01*
X71414164Y-46327962D01*
X71366545Y-46232724D01*
X71366545Y-46137486D01*
X71414164Y-46042248D01*
X71509402Y-45994629D01*
X71747498Y-45994629D01*
X71842736Y-45947010D01*
X72461783Y-46375581D02*
X72366545Y-46327962D01*
X72318926Y-46232724D01*
X72318926Y-45375581D01*
D11*
X47966381Y-44529333D02*
X48680667Y-44529333D01*
X48823524Y-44576953D01*
X48918762Y-44672191D01*
X48966381Y-44815048D01*
X48966381Y-44910286D01*
X48061619Y-44100762D02*
X48014000Y-44053143D01*
X47966381Y-43957905D01*
X47966381Y-43719809D01*
X48014000Y-43624571D01*
X48061619Y-43576952D01*
X48156857Y-43529333D01*
X48252095Y-43529333D01*
X48394952Y-43576952D01*
X48966381Y-44148381D01*
X48966381Y-43529333D01*
D14*
X72983767Y-136663181D02*
X72983767Y-137377467D01*
X72936147Y-137520324D01*
X72840909Y-137615562D01*
X72698052Y-137663181D01*
X72602814Y-137663181D01*
X73364719Y-136663181D02*
X73983767Y-136663181D01*
X73650433Y-137044133D01*
X73793291Y-137044133D01*
X73888529Y-137091752D01*
X73936148Y-137139371D01*
X73983767Y-137234610D01*
X73983767Y-137472705D01*
X73936148Y-137567943D01*
X73888529Y-137615562D01*
X73793291Y-137663181D01*
X73507576Y-137663181D01*
X73412338Y-137615562D01*
X73364719Y-137567943D01*
X68872624Y-135104143D02*
X68825005Y-135151762D01*
X68682148Y-135199381D01*
X68586910Y-135199381D01*
X68444052Y-135151762D01*
X68348814Y-135056524D01*
X68301195Y-134961286D01*
X68253576Y-134770810D01*
X68253576Y-134627952D01*
X68301195Y-134437476D01*
X68348814Y-134342238D01*
X68444052Y-134247000D01*
X68586910Y-134199381D01*
X68682148Y-134199381D01*
X68825005Y-134247000D01*
X68872624Y-134294619D01*
X69444052Y-135199381D02*
X69348814Y-135151762D01*
X69301195Y-135104143D01*
X69253576Y-135008905D01*
X69253576Y-134723190D01*
X69301195Y-134627952D01*
X69348814Y-134580333D01*
X69444052Y-134532714D01*
X69586910Y-134532714D01*
X69682148Y-134580333D01*
X69729767Y-134627952D01*
X69777386Y-134723190D01*
X69777386Y-135008905D01*
X69729767Y-135104143D01*
X69682148Y-135151762D01*
X69586910Y-135199381D01*
X69444052Y-135199381D01*
X70205957Y-134532714D02*
X70205957Y-135199381D01*
X70205957Y-134627952D02*
X70253576Y-134580333D01*
X70348814Y-134532714D01*
X70491672Y-134532714D01*
X70586910Y-134580333D01*
X70634529Y-134675571D01*
X70634529Y-135199381D01*
X71110719Y-134532714D02*
X71110719Y-135199381D01*
X71110719Y-134627952D02*
X71158338Y-134580333D01*
X71253576Y-134532714D01*
X71396434Y-134532714D01*
X71491672Y-134580333D01*
X71539291Y-134675571D01*
X71539291Y-135199381D01*
X71777386Y-135294619D02*
X72539291Y-135294619D01*
X73348815Y-135104143D02*
X73301196Y-135151762D01*
X73158339Y-135199381D01*
X73063101Y-135199381D01*
X72920243Y-135151762D01*
X72825005Y-135056524D01*
X72777386Y-134961286D01*
X72729767Y-134770810D01*
X72729767Y-134627952D01*
X72777386Y-134437476D01*
X72825005Y-134342238D01*
X72920243Y-134247000D01*
X73063101Y-134199381D01*
X73158339Y-134199381D01*
X73301196Y-134247000D01*
X73348815Y-134294619D01*
X73920243Y-135199381D02*
X73825005Y-135151762D01*
X73777386Y-135104143D01*
X73729767Y-135008905D01*
X73729767Y-134723190D01*
X73777386Y-134627952D01*
X73825005Y-134580333D01*
X73920243Y-134532714D01*
X74063101Y-134532714D01*
X74158339Y-134580333D01*
X74205958Y-134627952D01*
X74253577Y-134723190D01*
X74253577Y-135008905D01*
X74205958Y-135104143D01*
X74158339Y-135151762D01*
X74063101Y-135199381D01*
X73920243Y-135199381D01*
X75110720Y-135199381D02*
X75110720Y-134675571D01*
X75063101Y-134580333D01*
X74967863Y-134532714D01*
X74777386Y-134532714D01*
X74682148Y-134580333D01*
X75110720Y-135151762D02*
X75015482Y-135199381D01*
X74777386Y-135199381D01*
X74682148Y-135151762D01*
X74634529Y-135056524D01*
X74634529Y-134961286D01*
X74682148Y-134866048D01*
X74777386Y-134818429D01*
X75015482Y-134818429D01*
X75110720Y-134770810D01*
X75491672Y-135199381D02*
X76015482Y-134532714D01*
X75491672Y-134532714D02*
X76015482Y-135199381D01*
X76396434Y-135199381D02*
X76396434Y-134532714D01*
X76396434Y-134199381D02*
X76348815Y-134247000D01*
X76396434Y-134294619D01*
X76444053Y-134247000D01*
X76396434Y-134199381D01*
X76396434Y-134294619D01*
X77301196Y-135199381D02*
X77301196Y-134675571D01*
X77253577Y-134580333D01*
X77158339Y-134532714D01*
X76967862Y-134532714D01*
X76872624Y-134580333D01*
X77301196Y-135151762D02*
X77205958Y-135199381D01*
X76967862Y-135199381D01*
X76872624Y-135151762D01*
X76825005Y-135056524D01*
X76825005Y-134961286D01*
X76872624Y-134866048D01*
X76967862Y-134818429D01*
X77205958Y-134818429D01*
X77301196Y-134770810D01*
X77920243Y-135199381D02*
X77825005Y-135151762D01*
X77777386Y-135056524D01*
X77777386Y-134199381D01*
D11*
X92175081Y-134546933D02*
X92889367Y-134546933D01*
X93032224Y-134594553D01*
X93127462Y-134689791D01*
X93175081Y-134832648D01*
X93175081Y-134927886D01*
X92175081Y-133594552D02*
X92175081Y-134070743D01*
X92651271Y-134118362D01*
X92603652Y-134070743D01*
X92556033Y-133975505D01*
X92556033Y-133737409D01*
X92603652Y-133642171D01*
X92651271Y-133594552D01*
X92746510Y-133546933D01*
X92984605Y-133546933D01*
X93079843Y-133594552D01*
X93127462Y-133642171D01*
X93175081Y-133737409D01*
X93175081Y-133975505D01*
X93127462Y-134070743D01*
X93079843Y-134118362D01*
X44666667Y-131404381D02*
X44666667Y-132118667D01*
X44619047Y-132261524D01*
X44523809Y-132356762D01*
X44380952Y-132404381D01*
X44285714Y-132404381D01*
X45571429Y-131404381D02*
X45380952Y-131404381D01*
X45285714Y-131452000D01*
X45238095Y-131499619D01*
X45142857Y-131642476D01*
X45095238Y-131832952D01*
X45095238Y-132213905D01*
X45142857Y-132309143D01*
X45190476Y-132356762D01*
X45285714Y-132404381D01*
X45476191Y-132404381D01*
X45571429Y-132356762D01*
X45619048Y-132309143D01*
X45666667Y-132213905D01*
X45666667Y-131975810D01*
X45619048Y-131880571D01*
X45571429Y-131832952D01*
X45476191Y-131785333D01*
X45285714Y-131785333D01*
X45190476Y-131832952D01*
X45142857Y-131880571D01*
X45095238Y-131975810D01*
X134666667Y-131404381D02*
X134666667Y-132118667D01*
X134619047Y-132261524D01*
X134523809Y-132356762D01*
X134380952Y-132404381D01*
X134285714Y-132404381D01*
X135047619Y-131404381D02*
X135714286Y-131404381D01*
X135285714Y-132404381D01*
X134718467Y-40955981D02*
X134718467Y-41670267D01*
X134670847Y-41813124D01*
X134575609Y-41908362D01*
X134432752Y-41955981D01*
X134337514Y-41955981D01*
X135337514Y-41384552D02*
X135242276Y-41336933D01*
X135194657Y-41289314D01*
X135147038Y-41194076D01*
X135147038Y-41146457D01*
X135194657Y-41051219D01*
X135242276Y-41003600D01*
X135337514Y-40955981D01*
X135527991Y-40955981D01*
X135623229Y-41003600D01*
X135670848Y-41051219D01*
X135718467Y-41146457D01*
X135718467Y-41194076D01*
X135670848Y-41289314D01*
X135623229Y-41336933D01*
X135527991Y-41384552D01*
X135337514Y-41384552D01*
X135242276Y-41432171D01*
X135194657Y-41479790D01*
X135147038Y-41575029D01*
X135147038Y-41765505D01*
X135194657Y-41860743D01*
X135242276Y-41908362D01*
X135337514Y-41955981D01*
X135527991Y-41955981D01*
X135623229Y-41908362D01*
X135670848Y-41860743D01*
X135718467Y-41765505D01*
X135718467Y-41575029D01*
X135670848Y-41479790D01*
X135623229Y-41432171D01*
X135527991Y-41384552D01*
X44666667Y-41404381D02*
X44666667Y-42118667D01*
X44619047Y-42261524D01*
X44523809Y-42356762D01*
X44380952Y-42404381D01*
X44285714Y-42404381D01*
X45190476Y-42404381D02*
X45380952Y-42404381D01*
X45476191Y-42356762D01*
X45523810Y-42309143D01*
X45619048Y-42166286D01*
X45666667Y-41975810D01*
X45666667Y-41594857D01*
X45619048Y-41499619D01*
X45571429Y-41452000D01*
X45476191Y-41404381D01*
X45285714Y-41404381D01*
X45190476Y-41452000D01*
X45142857Y-41499619D01*
X45095238Y-41594857D01*
X45095238Y-41832952D01*
X45142857Y-41928190D01*
X45190476Y-41975810D01*
X45285714Y-42023429D01*
X45476191Y-42023429D01*
X45571429Y-41975810D01*
X45619048Y-41928190D01*
X45666667Y-41832952D01*
X101518981Y-99912466D02*
X101518981Y-100388657D01*
X100518981Y-100388657D01*
X100852314Y-99150561D02*
X101518981Y-99150561D01*
X100471362Y-99388657D02*
X101185648Y-99626752D01*
X101185648Y-99007704D01*
X101950781Y-131052866D02*
X101950781Y-131529057D01*
X100950781Y-131529057D01*
X100950781Y-130290961D02*
X100950781Y-130481438D01*
X100998400Y-130576676D01*
X101046019Y-130624295D01*
X101188876Y-130719533D01*
X101379352Y-130767152D01*
X101760305Y-130767152D01*
X101855543Y-130719533D01*
X101903162Y-130671914D01*
X101950781Y-130576676D01*
X101950781Y-130386199D01*
X101903162Y-130290961D01*
X101855543Y-130243342D01*
X101760305Y-130195723D01*
X101522210Y-130195723D01*
X101426971Y-130243342D01*
X101379352Y-130290961D01*
X101331733Y-130386199D01*
X101331733Y-130576676D01*
X101379352Y-130671914D01*
X101426971Y-130719533D01*
X101522210Y-130767152D01*
X125102881Y-53024066D02*
X125102881Y-53500257D01*
X124102881Y-53500257D01*
X124102881Y-52785971D02*
X124102881Y-52119304D01*
X125102881Y-52547876D01*
X120010181Y-84977266D02*
X120010181Y-85453457D01*
X119010181Y-85453457D01*
X120010181Y-84596314D02*
X120010181Y-84405838D01*
X119962562Y-84310599D01*
X119914943Y-84262980D01*
X119772086Y-84167742D01*
X119581610Y-84120123D01*
X119200657Y-84120123D01*
X119105419Y-84167742D01*
X119057800Y-84215361D01*
X119010181Y-84310599D01*
X119010181Y-84501076D01*
X119057800Y-84596314D01*
X119105419Y-84643933D01*
X119200657Y-84691552D01*
X119438752Y-84691552D01*
X119533990Y-84643933D01*
X119581610Y-84596314D01*
X119629229Y-84501076D01*
X119629229Y-84310599D01*
X119581610Y-84215361D01*
X119533990Y-84167742D01*
X119438752Y-84120123D01*
X120060981Y-100515657D02*
X120060981Y-100991848D01*
X119060981Y-100991848D01*
X120060981Y-99658514D02*
X120060981Y-100229943D01*
X120060981Y-99944229D02*
X119060981Y-99944229D01*
X119203838Y-100039467D01*
X119299076Y-100134705D01*
X119346695Y-100229943D01*
X119060981Y-99039467D02*
X119060981Y-98944228D01*
X119108600Y-98848990D01*
X119156219Y-98801371D01*
X119251457Y-98753752D01*
X119441933Y-98706133D01*
X119680029Y-98706133D01*
X119870505Y-98753752D01*
X119965743Y-98801371D01*
X120013362Y-98848990D01*
X120060981Y-98944228D01*
X120060981Y-99039467D01*
X120013362Y-99134705D01*
X119965743Y-99182324D01*
X119870505Y-99229943D01*
X119680029Y-99277562D01*
X119441933Y-99277562D01*
X119251457Y-99229943D01*
X119156219Y-99182324D01*
X119108600Y-99134705D01*
X119060981Y-99039467D01*
X120238781Y-115831857D02*
X120238781Y-116308048D01*
X119238781Y-116308048D01*
X120238781Y-114974714D02*
X120238781Y-115546143D01*
X120238781Y-115260429D02*
X119238781Y-115260429D01*
X119381638Y-115355667D01*
X119476876Y-115450905D01*
X119524495Y-115546143D01*
X120238781Y-114022333D02*
X120238781Y-114593762D01*
X120238781Y-114308048D02*
X119238781Y-114308048D01*
X119381638Y-114403286D01*
X119476876Y-114498524D01*
X119524495Y-114593762D01*
X120137181Y-130487657D02*
X120137181Y-130963848D01*
X119137181Y-130963848D01*
X120137181Y-129630514D02*
X120137181Y-130201943D01*
X120137181Y-129916229D02*
X119137181Y-129916229D01*
X119280038Y-130011467D01*
X119375276Y-130106705D01*
X119422895Y-130201943D01*
X119232419Y-129249562D02*
X119184800Y-129201943D01*
X119137181Y-129106705D01*
X119137181Y-128868609D01*
X119184800Y-128773371D01*
X119232419Y-128725752D01*
X119327657Y-128678133D01*
X119422895Y-128678133D01*
X119565752Y-128725752D01*
X120137181Y-129297181D01*
X120137181Y-128678133D01*
X97153434Y-53493943D02*
X97105815Y-53541562D01*
X96962958Y-53589181D01*
X96867720Y-53589181D01*
X96724862Y-53541562D01*
X96629624Y-53446324D01*
X96582005Y-53351086D01*
X96534386Y-53160610D01*
X96534386Y-53017752D01*
X96582005Y-52827276D01*
X96629624Y-52732038D01*
X96724862Y-52636800D01*
X96867720Y-52589181D01*
X96962958Y-52589181D01*
X97105815Y-52636800D01*
X97153434Y-52684419D01*
X98105815Y-53589181D02*
X97534386Y-53589181D01*
X97820100Y-53589181D02*
X97820100Y-52589181D01*
X97724862Y-52732038D01*
X97629624Y-52827276D01*
X97534386Y-52874895D01*
X97026434Y-68543443D02*
X96978815Y-68591062D01*
X96835958Y-68638681D01*
X96740720Y-68638681D01*
X96597862Y-68591062D01*
X96502624Y-68495824D01*
X96455005Y-68400586D01*
X96407386Y-68210110D01*
X96407386Y-68067252D01*
X96455005Y-67876776D01*
X96502624Y-67781538D01*
X96597862Y-67686300D01*
X96740720Y-67638681D01*
X96835958Y-67638681D01*
X96978815Y-67686300D01*
X97026434Y-67733919D01*
X97407386Y-67733919D02*
X97455005Y-67686300D01*
X97550243Y-67638681D01*
X97788339Y-67638681D01*
X97883577Y-67686300D01*
X97931196Y-67733919D01*
X97978815Y-67829157D01*
X97978815Y-67924395D01*
X97931196Y-68067252D01*
X97359767Y-68638681D01*
X97978815Y-68638681D01*
X96899434Y-84926443D02*
X96851815Y-84974062D01*
X96708958Y-85021681D01*
X96613720Y-85021681D01*
X96470862Y-84974062D01*
X96375624Y-84878824D01*
X96328005Y-84783586D01*
X96280386Y-84593110D01*
X96280386Y-84450252D01*
X96328005Y-84259776D01*
X96375624Y-84164538D01*
X96470862Y-84069300D01*
X96613720Y-84021681D01*
X96708958Y-84021681D01*
X96851815Y-84069300D01*
X96899434Y-84116919D01*
X97232767Y-84021681D02*
X97851815Y-84021681D01*
X97518481Y-84402633D01*
X97661339Y-84402633D01*
X97756577Y-84450252D01*
X97804196Y-84497871D01*
X97851815Y-84593110D01*
X97851815Y-84831205D01*
X97804196Y-84926443D01*
X97756577Y-84974062D01*
X97661339Y-85021681D01*
X97375624Y-85021681D01*
X97280386Y-84974062D01*
X97232767Y-84926443D01*
X96645434Y-99848943D02*
X96597815Y-99896562D01*
X96454958Y-99944181D01*
X96359720Y-99944181D01*
X96216862Y-99896562D01*
X96121624Y-99801324D01*
X96074005Y-99706086D01*
X96026386Y-99515610D01*
X96026386Y-99372752D01*
X96074005Y-99182276D01*
X96121624Y-99087038D01*
X96216862Y-98991800D01*
X96359720Y-98944181D01*
X96454958Y-98944181D01*
X96597815Y-98991800D01*
X96645434Y-99039419D01*
X97502577Y-99277514D02*
X97502577Y-99944181D01*
X97264481Y-98896562D02*
X97026386Y-99610848D01*
X97645434Y-99610848D01*
X96899434Y-115660443D02*
X96851815Y-115708062D01*
X96708958Y-115755681D01*
X96613720Y-115755681D01*
X96470862Y-115708062D01*
X96375624Y-115612824D01*
X96328005Y-115517586D01*
X96280386Y-115327110D01*
X96280386Y-115184252D01*
X96328005Y-114993776D01*
X96375624Y-114898538D01*
X96470862Y-114803300D01*
X96613720Y-114755681D01*
X96708958Y-114755681D01*
X96851815Y-114803300D01*
X96899434Y-114850919D01*
X97804196Y-114755681D02*
X97328005Y-114755681D01*
X97280386Y-115231871D01*
X97328005Y-115184252D01*
X97423243Y-115136633D01*
X97661339Y-115136633D01*
X97756577Y-115184252D01*
X97804196Y-115231871D01*
X97851815Y-115327110D01*
X97851815Y-115565205D01*
X97804196Y-115660443D01*
X97756577Y-115708062D01*
X97661339Y-115755681D01*
X97423243Y-115755681D01*
X97328005Y-115708062D01*
X97280386Y-115660443D01*
X96708934Y-130328943D02*
X96661315Y-130376562D01*
X96518458Y-130424181D01*
X96423220Y-130424181D01*
X96280362Y-130376562D01*
X96185124Y-130281324D01*
X96137505Y-130186086D01*
X96089886Y-129995610D01*
X96089886Y-129852752D01*
X96137505Y-129662276D01*
X96185124Y-129567038D01*
X96280362Y-129471800D01*
X96423220Y-129424181D01*
X96518458Y-129424181D01*
X96661315Y-129471800D01*
X96708934Y-129519419D01*
X97566077Y-129424181D02*
X97375600Y-129424181D01*
X97280362Y-129471800D01*
X97232743Y-129519419D01*
X97137505Y-129662276D01*
X97089886Y-129852752D01*
X97089886Y-130233705D01*
X97137505Y-130328943D01*
X97185124Y-130376562D01*
X97280362Y-130424181D01*
X97470839Y-130424181D01*
X97566077Y-130376562D01*
X97613696Y-130328943D01*
X97661315Y-130233705D01*
X97661315Y-129995610D01*
X97613696Y-129900371D01*
X97566077Y-129852752D01*
X97470839Y-129805133D01*
X97280362Y-129805133D01*
X97185124Y-129852752D01*
X97137505Y-129900371D01*
X97089886Y-129995610D01*
X115822434Y-52795443D02*
X115774815Y-52843062D01*
X115631958Y-52890681D01*
X115536720Y-52890681D01*
X115393862Y-52843062D01*
X115298624Y-52747824D01*
X115251005Y-52652586D01*
X115203386Y-52462110D01*
X115203386Y-52319252D01*
X115251005Y-52128776D01*
X115298624Y-52033538D01*
X115393862Y-51938300D01*
X115536720Y-51890681D01*
X115631958Y-51890681D01*
X115774815Y-51938300D01*
X115822434Y-51985919D01*
X116155767Y-51890681D02*
X116822434Y-51890681D01*
X116393862Y-52890681D01*
X115504934Y-68479943D02*
X115457315Y-68527562D01*
X115314458Y-68575181D01*
X115219220Y-68575181D01*
X115076362Y-68527562D01*
X114981124Y-68432324D01*
X114933505Y-68337086D01*
X114885886Y-68146610D01*
X114885886Y-68003752D01*
X114933505Y-67813276D01*
X114981124Y-67718038D01*
X115076362Y-67622800D01*
X115219220Y-67575181D01*
X115314458Y-67575181D01*
X115457315Y-67622800D01*
X115504934Y-67670419D01*
X116076362Y-68003752D02*
X115981124Y-67956133D01*
X115933505Y-67908514D01*
X115885886Y-67813276D01*
X115885886Y-67765657D01*
X115933505Y-67670419D01*
X115981124Y-67622800D01*
X116076362Y-67575181D01*
X116266839Y-67575181D01*
X116362077Y-67622800D01*
X116409696Y-67670419D01*
X116457315Y-67765657D01*
X116457315Y-67813276D01*
X116409696Y-67908514D01*
X116362077Y-67956133D01*
X116266839Y-68003752D01*
X116076362Y-68003752D01*
X115981124Y-68051371D01*
X115933505Y-68098990D01*
X115885886Y-68194229D01*
X115885886Y-68384705D01*
X115933505Y-68479943D01*
X115981124Y-68527562D01*
X116076362Y-68575181D01*
X116266839Y-68575181D01*
X116362077Y-68527562D01*
X116409696Y-68479943D01*
X116457315Y-68384705D01*
X116457315Y-68194229D01*
X116409696Y-68098990D01*
X116362077Y-68051371D01*
X116266839Y-68003752D01*
X115504934Y-84926443D02*
X115457315Y-84974062D01*
X115314458Y-85021681D01*
X115219220Y-85021681D01*
X115076362Y-84974062D01*
X114981124Y-84878824D01*
X114933505Y-84783586D01*
X114885886Y-84593110D01*
X114885886Y-84450252D01*
X114933505Y-84259776D01*
X114981124Y-84164538D01*
X115076362Y-84069300D01*
X115219220Y-84021681D01*
X115314458Y-84021681D01*
X115457315Y-84069300D01*
X115504934Y-84116919D01*
X115981124Y-85021681D02*
X116171600Y-85021681D01*
X116266839Y-84974062D01*
X116314458Y-84926443D01*
X116409696Y-84783586D01*
X116457315Y-84593110D01*
X116457315Y-84212157D01*
X116409696Y-84116919D01*
X116362077Y-84069300D01*
X116266839Y-84021681D01*
X116076362Y-84021681D01*
X115981124Y-84069300D01*
X115933505Y-84116919D01*
X115885886Y-84212157D01*
X115885886Y-84450252D01*
X115933505Y-84545490D01*
X115981124Y-84593110D01*
X116076362Y-84640729D01*
X116266839Y-84640729D01*
X116362077Y-84593110D01*
X116409696Y-84545490D01*
X116457315Y-84450252D01*
X115028743Y-99912443D02*
X114981124Y-99960062D01*
X114838267Y-100007681D01*
X114743029Y-100007681D01*
X114600171Y-99960062D01*
X114504933Y-99864824D01*
X114457314Y-99769586D01*
X114409695Y-99579110D01*
X114409695Y-99436252D01*
X114457314Y-99245776D01*
X114504933Y-99150538D01*
X114600171Y-99055300D01*
X114743029Y-99007681D01*
X114838267Y-99007681D01*
X114981124Y-99055300D01*
X115028743Y-99102919D01*
X115981124Y-100007681D02*
X115409695Y-100007681D01*
X115695409Y-100007681D02*
X115695409Y-99007681D01*
X115600171Y-99150538D01*
X115504933Y-99245776D01*
X115409695Y-99293395D01*
X116600171Y-99007681D02*
X116695410Y-99007681D01*
X116790648Y-99055300D01*
X116838267Y-99102919D01*
X116885886Y-99198157D01*
X116933505Y-99388633D01*
X116933505Y-99626729D01*
X116885886Y-99817205D01*
X116838267Y-99912443D01*
X116790648Y-99960062D01*
X116695410Y-100007681D01*
X116600171Y-100007681D01*
X116504933Y-99960062D01*
X116457314Y-99912443D01*
X116409695Y-99817205D01*
X116362076Y-99626729D01*
X116362076Y-99388633D01*
X116409695Y-99198157D01*
X116457314Y-99102919D01*
X116504933Y-99055300D01*
X116600171Y-99007681D01*
X115092243Y-115596943D02*
X115044624Y-115644562D01*
X114901767Y-115692181D01*
X114806529Y-115692181D01*
X114663671Y-115644562D01*
X114568433Y-115549324D01*
X114520814Y-115454086D01*
X114473195Y-115263610D01*
X114473195Y-115120752D01*
X114520814Y-114930276D01*
X114568433Y-114835038D01*
X114663671Y-114739800D01*
X114806529Y-114692181D01*
X114901767Y-114692181D01*
X115044624Y-114739800D01*
X115092243Y-114787419D01*
X116044624Y-115692181D02*
X115473195Y-115692181D01*
X115758909Y-115692181D02*
X115758909Y-114692181D01*
X115663671Y-114835038D01*
X115568433Y-114930276D01*
X115473195Y-114977895D01*
X116997005Y-115692181D02*
X116425576Y-115692181D01*
X116711290Y-115692181D02*
X116711290Y-114692181D01*
X116616052Y-114835038D01*
X116520814Y-114930276D01*
X116425576Y-114977895D01*
X115308143Y-130278143D02*
X115260524Y-130325762D01*
X115117667Y-130373381D01*
X115022429Y-130373381D01*
X114879571Y-130325762D01*
X114784333Y-130230524D01*
X114736714Y-130135286D01*
X114689095Y-129944810D01*
X114689095Y-129801952D01*
X114736714Y-129611476D01*
X114784333Y-129516238D01*
X114879571Y-129421000D01*
X115022429Y-129373381D01*
X115117667Y-129373381D01*
X115260524Y-129421000D01*
X115308143Y-129468619D01*
X116260524Y-130373381D02*
X115689095Y-130373381D01*
X115974809Y-130373381D02*
X115974809Y-129373381D01*
X115879571Y-129516238D01*
X115784333Y-129611476D01*
X115689095Y-129659095D01*
X116641476Y-129468619D02*
X116689095Y-129421000D01*
X116784333Y-129373381D01*
X117022429Y-129373381D01*
X117117667Y-129421000D01*
X117165286Y-129468619D01*
X117212905Y-129563857D01*
X117212905Y-129659095D01*
X117165286Y-129801952D01*
X116593857Y-130373381D01*
X117212905Y-130373381D01*
X133888243Y-55208443D02*
X133840624Y-55256062D01*
X133697767Y-55303681D01*
X133602529Y-55303681D01*
X133459671Y-55256062D01*
X133364433Y-55160824D01*
X133316814Y-55065586D01*
X133269195Y-54875110D01*
X133269195Y-54732252D01*
X133316814Y-54541776D01*
X133364433Y-54446538D01*
X133459671Y-54351300D01*
X133602529Y-54303681D01*
X133697767Y-54303681D01*
X133840624Y-54351300D01*
X133888243Y-54398919D01*
X134840624Y-55303681D02*
X134269195Y-55303681D01*
X134554909Y-55303681D02*
X134554909Y-54303681D01*
X134459671Y-54446538D01*
X134364433Y-54541776D01*
X134269195Y-54589395D01*
X135173957Y-54303681D02*
X135793005Y-54303681D01*
X135459671Y-54684633D01*
X135602529Y-54684633D01*
X135697767Y-54732252D01*
X135745386Y-54779871D01*
X135793005Y-54875110D01*
X135793005Y-55113205D01*
X135745386Y-55208443D01*
X135697767Y-55256062D01*
X135602529Y-55303681D01*
X135316814Y-55303681D01*
X135221576Y-55256062D01*
X135173957Y-55208443D01*
X133519943Y-69064143D02*
X133472324Y-69111762D01*
X133329467Y-69159381D01*
X133234229Y-69159381D01*
X133091371Y-69111762D01*
X132996133Y-69016524D01*
X132948514Y-68921286D01*
X132900895Y-68730810D01*
X132900895Y-68587952D01*
X132948514Y-68397476D01*
X132996133Y-68302238D01*
X133091371Y-68207000D01*
X133234229Y-68159381D01*
X133329467Y-68159381D01*
X133472324Y-68207000D01*
X133519943Y-68254619D01*
X134472324Y-69159381D02*
X133900895Y-69159381D01*
X134186609Y-69159381D02*
X134186609Y-68159381D01*
X134091371Y-68302238D01*
X133996133Y-68397476D01*
X133900895Y-68445095D01*
X135329467Y-68492714D02*
X135329467Y-69159381D01*
X135091371Y-68111762D02*
X134853276Y-68826048D01*
X135472324Y-68826048D01*
X133164343Y-84354943D02*
X133116724Y-84402562D01*
X132973867Y-84450181D01*
X132878629Y-84450181D01*
X132735771Y-84402562D01*
X132640533Y-84307324D01*
X132592914Y-84212086D01*
X132545295Y-84021610D01*
X132545295Y-83878752D01*
X132592914Y-83688276D01*
X132640533Y-83593038D01*
X132735771Y-83497800D01*
X132878629Y-83450181D01*
X132973867Y-83450181D01*
X133116724Y-83497800D01*
X133164343Y-83545419D01*
X134116724Y-84450181D02*
X133545295Y-84450181D01*
X133831009Y-84450181D02*
X133831009Y-83450181D01*
X133735771Y-83593038D01*
X133640533Y-83688276D01*
X133545295Y-83735895D01*
X135021486Y-83450181D02*
X134545295Y-83450181D01*
X134497676Y-83926371D01*
X134545295Y-83878752D01*
X134640533Y-83831133D01*
X134878629Y-83831133D01*
X134973867Y-83878752D01*
X135021486Y-83926371D01*
X135069105Y-84021610D01*
X135069105Y-84259705D01*
X135021486Y-84354943D01*
X134973867Y-84402562D01*
X134878629Y-84450181D01*
X134640533Y-84450181D01*
X134545295Y-84402562D01*
X134497676Y-84354943D01*
X132859543Y-99848943D02*
X132811924Y-99896562D01*
X132669067Y-99944181D01*
X132573829Y-99944181D01*
X132430971Y-99896562D01*
X132335733Y-99801324D01*
X132288114Y-99706086D01*
X132240495Y-99515610D01*
X132240495Y-99372752D01*
X132288114Y-99182276D01*
X132335733Y-99087038D01*
X132430971Y-98991800D01*
X132573829Y-98944181D01*
X132669067Y-98944181D01*
X132811924Y-98991800D01*
X132859543Y-99039419D01*
X133811924Y-99944181D02*
X133240495Y-99944181D01*
X133526209Y-99944181D02*
X133526209Y-98944181D01*
X133430971Y-99087038D01*
X133335733Y-99182276D01*
X133240495Y-99229895D01*
X134669067Y-98944181D02*
X134478590Y-98944181D01*
X134383352Y-98991800D01*
X134335733Y-99039419D01*
X134240495Y-99182276D01*
X134192876Y-99372752D01*
X134192876Y-99753705D01*
X134240495Y-99848943D01*
X134288114Y-99896562D01*
X134383352Y-99944181D01*
X134573829Y-99944181D01*
X134669067Y-99896562D01*
X134716686Y-99848943D01*
X134764305Y-99753705D01*
X134764305Y-99515610D01*
X134716686Y-99420371D01*
X134669067Y-99372752D01*
X134573829Y-99325133D01*
X134383352Y-99325133D01*
X134288114Y-99372752D01*
X134240495Y-99420371D01*
X134192876Y-99515610D01*
X132834143Y-115495343D02*
X132786524Y-115542962D01*
X132643667Y-115590581D01*
X132548429Y-115590581D01*
X132405571Y-115542962D01*
X132310333Y-115447724D01*
X132262714Y-115352486D01*
X132215095Y-115162010D01*
X132215095Y-115019152D01*
X132262714Y-114828676D01*
X132310333Y-114733438D01*
X132405571Y-114638200D01*
X132548429Y-114590581D01*
X132643667Y-114590581D01*
X132786524Y-114638200D01*
X132834143Y-114685819D01*
X133786524Y-115590581D02*
X133215095Y-115590581D01*
X133500809Y-115590581D02*
X133500809Y-114590581D01*
X133405571Y-114733438D01*
X133310333Y-114828676D01*
X133215095Y-114876295D01*
X134119857Y-114590581D02*
X134786524Y-114590581D01*
X134357952Y-115590581D01*
X132973843Y-126760243D02*
X132926224Y-126807862D01*
X132783367Y-126855481D01*
X132688129Y-126855481D01*
X132545271Y-126807862D01*
X132450033Y-126712624D01*
X132402414Y-126617386D01*
X132354795Y-126426910D01*
X132354795Y-126284052D01*
X132402414Y-126093576D01*
X132450033Y-125998338D01*
X132545271Y-125903100D01*
X132688129Y-125855481D01*
X132783367Y-125855481D01*
X132926224Y-125903100D01*
X132973843Y-125950719D01*
X133926224Y-126855481D02*
X133354795Y-126855481D01*
X133640509Y-126855481D02*
X133640509Y-125855481D01*
X133545271Y-125998338D01*
X133450033Y-126093576D01*
X133354795Y-126141195D01*
X134497652Y-126284052D02*
X134402414Y-126236433D01*
X134354795Y-126188814D01*
X134307176Y-126093576D01*
X134307176Y-126045957D01*
X134354795Y-125950719D01*
X134402414Y-125903100D01*
X134497652Y-125855481D01*
X134688129Y-125855481D01*
X134783367Y-125903100D01*
X134830986Y-125950719D01*
X134878605Y-126045957D01*
X134878605Y-126093576D01*
X134830986Y-126188814D01*
X134783367Y-126236433D01*
X134688129Y-126284052D01*
X134497652Y-126284052D01*
X134402414Y-126331671D01*
X134354795Y-126379290D01*
X134307176Y-126474529D01*
X134307176Y-126665005D01*
X134354795Y-126760243D01*
X134402414Y-126807862D01*
X134497652Y-126855481D01*
X134688129Y-126855481D01*
X134783367Y-126807862D01*
X134830986Y-126760243D01*
X134878605Y-126665005D01*
X134878605Y-126474529D01*
X134830986Y-126379290D01*
X134783367Y-126331671D01*
X134688129Y-126284052D01*
X101889981Y-52731966D02*
X101889981Y-53208157D01*
X100889981Y-53208157D01*
X101889981Y-51874823D02*
X101889981Y-52446252D01*
X101889981Y-52160538D02*
X100889981Y-52160538D01*
X101032838Y-52255776D01*
X101128076Y-52351014D01*
X101175695Y-52446252D01*
X101762981Y-68733966D02*
X101762981Y-69210157D01*
X100762981Y-69210157D01*
X100858219Y-68448252D02*
X100810600Y-68400633D01*
X100762981Y-68305395D01*
X100762981Y-68067299D01*
X100810600Y-67972061D01*
X100858219Y-67924442D01*
X100953457Y-67876823D01*
X101048695Y-67876823D01*
X101191552Y-67924442D01*
X101762981Y-68495871D01*
X101762981Y-67876823D01*
X101635981Y-84481966D02*
X101635981Y-84958157D01*
X100635981Y-84958157D01*
X100635981Y-84243871D02*
X100635981Y-83624823D01*
X101016933Y-83958157D01*
X101016933Y-83815299D01*
X101064552Y-83720061D01*
X101112171Y-83672442D01*
X101207410Y-83624823D01*
X101445505Y-83624823D01*
X101540743Y-83672442D01*
X101588362Y-83720061D01*
X101635981Y-83815299D01*
X101635981Y-84101014D01*
X101588362Y-84196252D01*
X101540743Y-84243871D01*
X91928481Y-55940200D02*
X91452290Y-56273534D01*
X91928481Y-56511629D02*
X90928481Y-56511629D01*
X90928481Y-56130676D01*
X90976100Y-56035438D01*
X91023719Y-55987819D01*
X91118957Y-55940200D01*
X91261814Y-55940200D01*
X91357052Y-55987819D01*
X91404671Y-56035438D01*
X91452290Y-56130676D01*
X91452290Y-56511629D01*
X91928481Y-55035438D02*
X91928481Y-55511629D01*
X90928481Y-55511629D01*
X91452290Y-54511629D02*
X91928481Y-54511629D01*
X90928481Y-54844962D02*
X91452290Y-54511629D01*
X90928481Y-54178295D01*
X91928481Y-53321152D02*
X91928481Y-53892581D01*
X91928481Y-53606867D02*
X90928481Y-53606867D01*
X91071338Y-53702105D01*
X91166576Y-53797343D01*
X91214195Y-53892581D01*
X81738005Y-54440200D02*
X81642767Y-54392581D01*
X81499910Y-54392581D01*
X81357052Y-54440200D01*
X81261814Y-54535438D01*
X81214195Y-54630676D01*
X81166576Y-54821152D01*
X81166576Y-54964010D01*
X81214195Y-55154486D01*
X81261814Y-55249724D01*
X81357052Y-55344962D01*
X81499910Y-55392581D01*
X81595148Y-55392581D01*
X81738005Y-55344962D01*
X81785624Y-55297343D01*
X81785624Y-54964010D01*
X81595148Y-54964010D01*
X82690386Y-54392581D02*
X82214195Y-54392581D01*
X82166576Y-54868771D01*
X82214195Y-54821152D01*
X82309433Y-54773533D01*
X82547529Y-54773533D01*
X82642767Y-54821152D01*
X82690386Y-54868771D01*
X82738005Y-54964010D01*
X82738005Y-55202105D01*
X82690386Y-55297343D01*
X82642767Y-55344962D01*
X82547529Y-55392581D01*
X82309433Y-55392581D01*
X82214195Y-55344962D01*
X82166576Y-55297343D01*
X83023719Y-54392581D02*
X83357052Y-55392581D01*
X83690386Y-54392581D01*
X84023719Y-55011629D02*
X84785624Y-55011629D01*
X85214195Y-54487819D02*
X85261814Y-54440200D01*
X85357052Y-54392581D01*
X85595148Y-54392581D01*
X85690386Y-54440200D01*
X85738005Y-54487819D01*
X85785624Y-54583057D01*
X85785624Y-54678295D01*
X85738005Y-54821152D01*
X85166576Y-55392581D01*
X85785624Y-55392581D01*
X91991981Y-71154800D02*
X91515790Y-71488134D01*
X91991981Y-71726229D02*
X90991981Y-71726229D01*
X90991981Y-71345276D01*
X91039600Y-71250038D01*
X91087219Y-71202419D01*
X91182457Y-71154800D01*
X91325314Y-71154800D01*
X91420552Y-71202419D01*
X91468171Y-71250038D01*
X91515790Y-71345276D01*
X91515790Y-71726229D01*
X91991981Y-70250038D02*
X91991981Y-70726229D01*
X90991981Y-70726229D01*
X91515790Y-69726229D02*
X91991981Y-69726229D01*
X90991981Y-70059562D02*
X91515790Y-69726229D01*
X90991981Y-69392895D01*
X91087219Y-69107181D02*
X91039600Y-69059562D01*
X90991981Y-68964324D01*
X90991981Y-68726228D01*
X91039600Y-68630990D01*
X91087219Y-68583371D01*
X91182457Y-68535752D01*
X91277695Y-68535752D01*
X91420552Y-68583371D01*
X91991981Y-69154800D01*
X91991981Y-68535752D01*
X81801505Y-69654800D02*
X81706267Y-69607181D01*
X81563410Y-69607181D01*
X81420552Y-69654800D01*
X81325314Y-69750038D01*
X81277695Y-69845276D01*
X81230076Y-70035752D01*
X81230076Y-70178610D01*
X81277695Y-70369086D01*
X81325314Y-70464324D01*
X81420552Y-70559562D01*
X81563410Y-70607181D01*
X81658648Y-70607181D01*
X81801505Y-70559562D01*
X81849124Y-70511943D01*
X81849124Y-70178610D01*
X81658648Y-70178610D01*
X82753886Y-69607181D02*
X82277695Y-69607181D01*
X82230076Y-70083371D01*
X82277695Y-70035752D01*
X82372933Y-69988133D01*
X82611029Y-69988133D01*
X82706267Y-70035752D01*
X82753886Y-70083371D01*
X82801505Y-70178610D01*
X82801505Y-70416705D01*
X82753886Y-70511943D01*
X82706267Y-70559562D01*
X82611029Y-70607181D01*
X82372933Y-70607181D01*
X82277695Y-70559562D01*
X82230076Y-70511943D01*
X83087219Y-69607181D02*
X83420552Y-70607181D01*
X83753886Y-69607181D01*
X84087219Y-70226229D02*
X84849124Y-70226229D01*
X85277695Y-69702419D02*
X85325314Y-69654800D01*
X85420552Y-69607181D01*
X85658648Y-69607181D01*
X85753886Y-69654800D01*
X85801505Y-69702419D01*
X85849124Y-69797657D01*
X85849124Y-69892895D01*
X85801505Y-70035752D01*
X85230076Y-70607181D01*
X85849124Y-70607181D01*
X91991981Y-84362800D02*
X91515790Y-84696134D01*
X91991981Y-84934229D02*
X90991981Y-84934229D01*
X90991981Y-84553276D01*
X91039600Y-84458038D01*
X91087219Y-84410419D01*
X91182457Y-84362800D01*
X91325314Y-84362800D01*
X91420552Y-84410419D01*
X91468171Y-84458038D01*
X91515790Y-84553276D01*
X91515790Y-84934229D01*
X91991981Y-83458038D02*
X91991981Y-83934229D01*
X90991981Y-83934229D01*
X91515790Y-82934229D02*
X91991981Y-82934229D01*
X90991981Y-83267562D02*
X91515790Y-82934229D01*
X90991981Y-82600895D01*
X90991981Y-82362800D02*
X90991981Y-81743752D01*
X91372933Y-82077086D01*
X91372933Y-81934228D01*
X91420552Y-81838990D01*
X91468171Y-81791371D01*
X91563410Y-81743752D01*
X91801505Y-81743752D01*
X91896743Y-81791371D01*
X91944362Y-81838990D01*
X91991981Y-81934228D01*
X91991981Y-82219943D01*
X91944362Y-82315181D01*
X91896743Y-82362800D01*
X81801505Y-82862800D02*
X81706267Y-82815181D01*
X81563410Y-82815181D01*
X81420552Y-82862800D01*
X81325314Y-82958038D01*
X81277695Y-83053276D01*
X81230076Y-83243752D01*
X81230076Y-83386610D01*
X81277695Y-83577086D01*
X81325314Y-83672324D01*
X81420552Y-83767562D01*
X81563410Y-83815181D01*
X81658648Y-83815181D01*
X81801505Y-83767562D01*
X81849124Y-83719943D01*
X81849124Y-83386610D01*
X81658648Y-83386610D01*
X82753886Y-82815181D02*
X82277695Y-82815181D01*
X82230076Y-83291371D01*
X82277695Y-83243752D01*
X82372933Y-83196133D01*
X82611029Y-83196133D01*
X82706267Y-83243752D01*
X82753886Y-83291371D01*
X82801505Y-83386610D01*
X82801505Y-83624705D01*
X82753886Y-83719943D01*
X82706267Y-83767562D01*
X82611029Y-83815181D01*
X82372933Y-83815181D01*
X82277695Y-83767562D01*
X82230076Y-83719943D01*
X83087219Y-82815181D02*
X83420552Y-83815181D01*
X83753886Y-82815181D01*
X84087219Y-83434229D02*
X84849124Y-83434229D01*
X85277695Y-82910419D02*
X85325314Y-82862800D01*
X85420552Y-82815181D01*
X85658648Y-82815181D01*
X85753886Y-82862800D01*
X85801505Y-82910419D01*
X85849124Y-83005657D01*
X85849124Y-83100895D01*
X85801505Y-83243752D01*
X85230076Y-83815181D01*
X85849124Y-83815181D01*
X91991981Y-98586800D02*
X91515790Y-98920134D01*
X91991981Y-99158229D02*
X90991981Y-99158229D01*
X90991981Y-98777276D01*
X91039600Y-98682038D01*
X91087219Y-98634419D01*
X91182457Y-98586800D01*
X91325314Y-98586800D01*
X91420552Y-98634419D01*
X91468171Y-98682038D01*
X91515790Y-98777276D01*
X91515790Y-99158229D01*
X91991981Y-97682038D02*
X91991981Y-98158229D01*
X90991981Y-98158229D01*
X91515790Y-97158229D02*
X91991981Y-97158229D01*
X90991981Y-97491562D02*
X91515790Y-97158229D01*
X90991981Y-96824895D01*
X91325314Y-96062990D02*
X91991981Y-96062990D01*
X90944362Y-96301086D02*
X91658648Y-96539181D01*
X91658648Y-95920133D01*
X81801505Y-97086800D02*
X81706267Y-97039181D01*
X81563410Y-97039181D01*
X81420552Y-97086800D01*
X81325314Y-97182038D01*
X81277695Y-97277276D01*
X81230076Y-97467752D01*
X81230076Y-97610610D01*
X81277695Y-97801086D01*
X81325314Y-97896324D01*
X81420552Y-97991562D01*
X81563410Y-98039181D01*
X81658648Y-98039181D01*
X81801505Y-97991562D01*
X81849124Y-97943943D01*
X81849124Y-97610610D01*
X81658648Y-97610610D01*
X82753886Y-97039181D02*
X82277695Y-97039181D01*
X82230076Y-97515371D01*
X82277695Y-97467752D01*
X82372933Y-97420133D01*
X82611029Y-97420133D01*
X82706267Y-97467752D01*
X82753886Y-97515371D01*
X82801505Y-97610610D01*
X82801505Y-97848705D01*
X82753886Y-97943943D01*
X82706267Y-97991562D01*
X82611029Y-98039181D01*
X82372933Y-98039181D01*
X82277695Y-97991562D01*
X82230076Y-97943943D01*
X83087219Y-97039181D02*
X83420552Y-98039181D01*
X83753886Y-97039181D01*
X84087219Y-97658229D02*
X84849124Y-97658229D01*
X85277695Y-97134419D02*
X85325314Y-97086800D01*
X85420552Y-97039181D01*
X85658648Y-97039181D01*
X85753886Y-97086800D01*
X85801505Y-97134419D01*
X85849124Y-97229657D01*
X85849124Y-97324895D01*
X85801505Y-97467752D01*
X85230076Y-98039181D01*
X85849124Y-98039181D01*
X92002141Y-113095280D02*
X91525950Y-113428614D01*
X92002141Y-113666709D02*
X91002141Y-113666709D01*
X91002141Y-113285756D01*
X91049760Y-113190518D01*
X91097379Y-113142899D01*
X91192617Y-113095280D01*
X91335474Y-113095280D01*
X91430712Y-113142899D01*
X91478331Y-113190518D01*
X91525950Y-113285756D01*
X91525950Y-113666709D01*
X92002141Y-112190518D02*
X92002141Y-112666709D01*
X91002141Y-112666709D01*
X91525950Y-111666709D02*
X92002141Y-111666709D01*
X91002141Y-112000042D02*
X91525950Y-111666709D01*
X91002141Y-111333375D01*
X91002141Y-110523851D02*
X91002141Y-111000042D01*
X91478331Y-111047661D01*
X91430712Y-111000042D01*
X91383093Y-110904804D01*
X91383093Y-110666708D01*
X91430712Y-110571470D01*
X91478331Y-110523851D01*
X91573570Y-110476232D01*
X91811665Y-110476232D01*
X91906903Y-110523851D01*
X91954522Y-110571470D01*
X92002141Y-110666708D01*
X92002141Y-110904804D01*
X91954522Y-111000042D01*
X91906903Y-111047661D01*
X81811665Y-111595280D02*
X81716427Y-111547661D01*
X81573570Y-111547661D01*
X81430712Y-111595280D01*
X81335474Y-111690518D01*
X81287855Y-111785756D01*
X81240236Y-111976232D01*
X81240236Y-112119090D01*
X81287855Y-112309566D01*
X81335474Y-112404804D01*
X81430712Y-112500042D01*
X81573570Y-112547661D01*
X81668808Y-112547661D01*
X81811665Y-112500042D01*
X81859284Y-112452423D01*
X81859284Y-112119090D01*
X81668808Y-112119090D01*
X82764046Y-111547661D02*
X82287855Y-111547661D01*
X82240236Y-112023851D01*
X82287855Y-111976232D01*
X82383093Y-111928613D01*
X82621189Y-111928613D01*
X82716427Y-111976232D01*
X82764046Y-112023851D01*
X82811665Y-112119090D01*
X82811665Y-112357185D01*
X82764046Y-112452423D01*
X82716427Y-112500042D01*
X82621189Y-112547661D01*
X82383093Y-112547661D01*
X82287855Y-112500042D01*
X82240236Y-112452423D01*
X83097379Y-111547661D02*
X83430712Y-112547661D01*
X83764046Y-111547661D01*
X84097379Y-112166709D02*
X84859284Y-112166709D01*
X85287855Y-111642899D02*
X85335474Y-111595280D01*
X85430712Y-111547661D01*
X85668808Y-111547661D01*
X85764046Y-111595280D01*
X85811665Y-111642899D01*
X85859284Y-111738137D01*
X85859284Y-111833375D01*
X85811665Y-111976232D01*
X85240236Y-112547661D01*
X85859284Y-112547661D01*
X92058021Y-125612400D02*
X91581830Y-125945734D01*
X92058021Y-126183829D02*
X91058021Y-126183829D01*
X91058021Y-125802876D01*
X91105640Y-125707638D01*
X91153259Y-125660019D01*
X91248497Y-125612400D01*
X91391354Y-125612400D01*
X91486592Y-125660019D01*
X91534211Y-125707638D01*
X91581830Y-125802876D01*
X91581830Y-126183829D01*
X92058021Y-124707638D02*
X92058021Y-125183829D01*
X91058021Y-125183829D01*
X91581830Y-124183829D02*
X92058021Y-124183829D01*
X91058021Y-124517162D02*
X91581830Y-124183829D01*
X91058021Y-123850495D01*
X91058021Y-123088590D02*
X91058021Y-123279067D01*
X91105640Y-123374305D01*
X91153259Y-123421924D01*
X91296116Y-123517162D01*
X91486592Y-123564781D01*
X91867545Y-123564781D01*
X91962783Y-123517162D01*
X92010402Y-123469543D01*
X92058021Y-123374305D01*
X92058021Y-123183828D01*
X92010402Y-123088590D01*
X91962783Y-123040971D01*
X91867545Y-122993352D01*
X91629450Y-122993352D01*
X91534211Y-123040971D01*
X91486592Y-123088590D01*
X91438973Y-123183828D01*
X91438973Y-123374305D01*
X91486592Y-123469543D01*
X91534211Y-123517162D01*
X91629450Y-123564781D01*
X81867545Y-124112400D02*
X81772307Y-124064781D01*
X81629450Y-124064781D01*
X81486592Y-124112400D01*
X81391354Y-124207638D01*
X81343735Y-124302876D01*
X81296116Y-124493352D01*
X81296116Y-124636210D01*
X81343735Y-124826686D01*
X81391354Y-124921924D01*
X81486592Y-125017162D01*
X81629450Y-125064781D01*
X81724688Y-125064781D01*
X81867545Y-125017162D01*
X81915164Y-124969543D01*
X81915164Y-124636210D01*
X81724688Y-124636210D01*
X82819926Y-124064781D02*
X82343735Y-124064781D01*
X82296116Y-124540971D01*
X82343735Y-124493352D01*
X82438973Y-124445733D01*
X82677069Y-124445733D01*
X82772307Y-124493352D01*
X82819926Y-124540971D01*
X82867545Y-124636210D01*
X82867545Y-124874305D01*
X82819926Y-124969543D01*
X82772307Y-125017162D01*
X82677069Y-125064781D01*
X82438973Y-125064781D01*
X82343735Y-125017162D01*
X82296116Y-124969543D01*
X83153259Y-124064781D02*
X83486592Y-125064781D01*
X83819926Y-124064781D01*
X84153259Y-124683829D02*
X84915164Y-124683829D01*
X85343735Y-124160019D02*
X85391354Y-124112400D01*
X85486592Y-124064781D01*
X85724688Y-124064781D01*
X85819926Y-124112400D01*
X85867545Y-124160019D01*
X85915164Y-124255257D01*
X85915164Y-124350495D01*
X85867545Y-124493352D01*
X85296116Y-125064781D01*
X85915164Y-125064781D01*
X55851823Y-128322343D02*
X55804204Y-128369962D01*
X55661347Y-128417581D01*
X55566109Y-128417581D01*
X55423251Y-128369962D01*
X55328013Y-128274724D01*
X55280394Y-128179486D01*
X55232775Y-127989010D01*
X55232775Y-127846152D01*
X55280394Y-127655676D01*
X55328013Y-127560438D01*
X55423251Y-127465200D01*
X55566109Y-127417581D01*
X55661347Y-127417581D01*
X55804204Y-127465200D01*
X55851823Y-127512819D01*
X56804204Y-128417581D02*
X56232775Y-128417581D01*
X56518489Y-128417581D02*
X56518489Y-127417581D01*
X56423251Y-127560438D01*
X56328013Y-127655676D01*
X56232775Y-127703295D01*
X57280394Y-128417581D02*
X57470870Y-128417581D01*
X57566109Y-128369962D01*
X57613728Y-128322343D01*
X57708966Y-128179486D01*
X57756585Y-127989010D01*
X57756585Y-127608057D01*
X57708966Y-127512819D01*
X57661347Y-127465200D01*
X57566109Y-127417581D01*
X57375632Y-127417581D01*
X57280394Y-127465200D01*
X57232775Y-127512819D01*
X57185156Y-127608057D01*
X57185156Y-127846152D01*
X57232775Y-127941390D01*
X57280394Y-127989010D01*
X57375632Y-128036629D01*
X57566109Y-128036629D01*
X57661347Y-127989010D01*
X57708966Y-127941390D01*
X57756585Y-127846152D01*
X51052481Y-126050633D02*
X51766767Y-126050633D01*
X51909624Y-126098253D01*
X52004862Y-126193491D01*
X52052481Y-126336348D01*
X52052481Y-126431586D01*
X51385814Y-125145871D02*
X52052481Y-125145871D01*
X51004862Y-125383967D02*
X51719148Y-125622062D01*
X51719148Y-125003014D01*
X63917581Y-137040833D02*
X64631867Y-137040833D01*
X64774724Y-137088453D01*
X64869962Y-137183691D01*
X64917581Y-137326548D01*
X64917581Y-137421786D01*
X64917581Y-136564643D02*
X63917581Y-136564643D01*
X63917581Y-136183690D01*
X63965200Y-136088452D01*
X64012819Y-136040833D01*
X64108057Y-135993214D01*
X64250914Y-135993214D01*
X64346152Y-136040833D01*
X64393771Y-136088452D01*
X64441390Y-136183690D01*
X64441390Y-136564643D01*
X64917581Y-135040833D02*
X64917581Y-135612262D01*
X64917581Y-135326548D02*
X63917581Y-135326548D01*
X64060438Y-135421786D01*
X64155676Y-135517024D01*
X64203295Y-135612262D01*
X53822695Y-139140181D02*
X53822695Y-139949705D01*
X53870314Y-140044943D01*
X53917933Y-140092562D01*
X54013171Y-140140181D01*
X54203648Y-140140181D01*
X54298886Y-140092562D01*
X54346505Y-140044943D01*
X54394124Y-139949705D01*
X54394124Y-139140181D01*
X55394124Y-140140181D02*
X54822695Y-140140181D01*
X55108409Y-140140181D02*
X55108409Y-139140181D01*
X55013171Y-139283038D01*
X54917933Y-139378276D01*
X54822695Y-139425895D01*
X62522195Y-104424681D02*
X62522195Y-105234205D01*
X62569814Y-105329443D01*
X62617433Y-105377062D01*
X62712671Y-105424681D01*
X62903148Y-105424681D01*
X62998386Y-105377062D01*
X63046005Y-105329443D01*
X63093624Y-105234205D01*
X63093624Y-104424681D01*
X63474576Y-104424681D02*
X64093624Y-104424681D01*
X63760290Y-104805633D01*
X63903148Y-104805633D01*
X63998386Y-104853252D01*
X64046005Y-104900871D01*
X64093624Y-104996110D01*
X64093624Y-105234205D01*
X64046005Y-105329443D01*
X63998386Y-105377062D01*
X63903148Y-105424681D01*
X63617433Y-105424681D01*
X63522195Y-105377062D01*
X63474576Y-105329443D01*
X59526443Y-131478257D02*
X59574062Y-131525876D01*
X59621681Y-131668733D01*
X59621681Y-131763971D01*
X59574062Y-131906829D01*
X59478824Y-132002067D01*
X59383586Y-132049686D01*
X59193110Y-132097305D01*
X59050252Y-132097305D01*
X58859776Y-132049686D01*
X58764538Y-132002067D01*
X58669300Y-131906829D01*
X58621681Y-131763971D01*
X58621681Y-131668733D01*
X58669300Y-131525876D01*
X58716919Y-131478257D01*
X58716919Y-131097305D02*
X58669300Y-131049686D01*
X58621681Y-130954448D01*
X58621681Y-130716352D01*
X58669300Y-130621114D01*
X58716919Y-130573495D01*
X58812157Y-130525876D01*
X58907395Y-130525876D01*
X59050252Y-130573495D01*
X59621681Y-131144924D01*
X59621681Y-130525876D01*
X58621681Y-130192543D02*
X58621681Y-129573495D01*
X59002633Y-129906829D01*
X59002633Y-129763971D01*
X59050252Y-129668733D01*
X59097871Y-129621114D01*
X59193110Y-129573495D01*
X59431205Y-129573495D01*
X59526443Y-129621114D01*
X59574062Y-129668733D01*
X59621681Y-129763971D01*
X59621681Y-130049686D01*
X59574062Y-130144924D01*
X59526443Y-130192543D01*
X78198743Y-62891943D02*
X78151124Y-62939562D01*
X78008267Y-62987181D01*
X77913029Y-62987181D01*
X77770171Y-62939562D01*
X77674933Y-62844324D01*
X77627314Y-62749086D01*
X77579695Y-62558610D01*
X77579695Y-62415752D01*
X77627314Y-62225276D01*
X77674933Y-62130038D01*
X77770171Y-62034800D01*
X77913029Y-61987181D01*
X78008267Y-61987181D01*
X78151124Y-62034800D01*
X78198743Y-62082419D01*
X78579695Y-62082419D02*
X78627314Y-62034800D01*
X78722552Y-61987181D01*
X78960648Y-61987181D01*
X79055886Y-62034800D01*
X79103505Y-62082419D01*
X79151124Y-62177657D01*
X79151124Y-62272895D01*
X79103505Y-62415752D01*
X78532076Y-62987181D01*
X79151124Y-62987181D01*
X79484457Y-61987181D02*
X80151124Y-61987181D01*
X79722552Y-62987181D01*
X78643243Y-77242943D02*
X78595624Y-77290562D01*
X78452767Y-77338181D01*
X78357529Y-77338181D01*
X78214671Y-77290562D01*
X78119433Y-77195324D01*
X78071814Y-77100086D01*
X78024195Y-76909610D01*
X78024195Y-76766752D01*
X78071814Y-76576276D01*
X78119433Y-76481038D01*
X78214671Y-76385800D01*
X78357529Y-76338181D01*
X78452767Y-76338181D01*
X78595624Y-76385800D01*
X78643243Y-76433419D01*
X79024195Y-76433419D02*
X79071814Y-76385800D01*
X79167052Y-76338181D01*
X79405148Y-76338181D01*
X79500386Y-76385800D01*
X79548005Y-76433419D01*
X79595624Y-76528657D01*
X79595624Y-76623895D01*
X79548005Y-76766752D01*
X78976576Y-77338181D01*
X79595624Y-77338181D01*
X80167052Y-76766752D02*
X80071814Y-76719133D01*
X80024195Y-76671514D01*
X79976576Y-76576276D01*
X79976576Y-76528657D01*
X80024195Y-76433419D01*
X80071814Y-76385800D01*
X80167052Y-76338181D01*
X80357529Y-76338181D01*
X80452767Y-76385800D01*
X80500386Y-76433419D01*
X80548005Y-76528657D01*
X80548005Y-76576276D01*
X80500386Y-76671514D01*
X80452767Y-76719133D01*
X80357529Y-76766752D01*
X80167052Y-76766752D01*
X80071814Y-76814371D01*
X80024195Y-76861990D01*
X79976576Y-76957229D01*
X79976576Y-77147705D01*
X80024195Y-77242943D01*
X80071814Y-77290562D01*
X80167052Y-77338181D01*
X80357529Y-77338181D01*
X80452767Y-77290562D01*
X80500386Y-77242943D01*
X80548005Y-77147705D01*
X80548005Y-76957229D01*
X80500386Y-76861990D01*
X80452767Y-76814371D01*
X80357529Y-76766752D01*
X72864743Y-119025943D02*
X72817124Y-119073562D01*
X72674267Y-119121181D01*
X72579029Y-119121181D01*
X72436171Y-119073562D01*
X72340933Y-118978324D01*
X72293314Y-118883086D01*
X72245695Y-118692610D01*
X72245695Y-118549752D01*
X72293314Y-118359276D01*
X72340933Y-118264038D01*
X72436171Y-118168800D01*
X72579029Y-118121181D01*
X72674267Y-118121181D01*
X72817124Y-118168800D01*
X72864743Y-118216419D01*
X73245695Y-118216419D02*
X73293314Y-118168800D01*
X73388552Y-118121181D01*
X73626648Y-118121181D01*
X73721886Y-118168800D01*
X73769505Y-118216419D01*
X73817124Y-118311657D01*
X73817124Y-118406895D01*
X73769505Y-118549752D01*
X73198076Y-119121181D01*
X73817124Y-119121181D01*
X74293314Y-119121181D02*
X74483790Y-119121181D01*
X74579029Y-119073562D01*
X74626648Y-119025943D01*
X74721886Y-118883086D01*
X74769505Y-118692610D01*
X74769505Y-118311657D01*
X74721886Y-118216419D01*
X74674267Y-118168800D01*
X74579029Y-118121181D01*
X74388552Y-118121181D01*
X74293314Y-118168800D01*
X74245695Y-118216419D01*
X74198076Y-118311657D01*
X74198076Y-118549752D01*
X74245695Y-118644990D01*
X74293314Y-118692610D01*
X74388552Y-118740229D01*
X74579029Y-118740229D01*
X74674267Y-118692610D01*
X74721886Y-118644990D01*
X74769505Y-118549752D01*
X69245243Y-130265443D02*
X69197624Y-130313062D01*
X69054767Y-130360681D01*
X68959529Y-130360681D01*
X68816671Y-130313062D01*
X68721433Y-130217824D01*
X68673814Y-130122586D01*
X68626195Y-129932110D01*
X68626195Y-129789252D01*
X68673814Y-129598776D01*
X68721433Y-129503538D01*
X68816671Y-129408300D01*
X68959529Y-129360681D01*
X69054767Y-129360681D01*
X69197624Y-129408300D01*
X69245243Y-129455919D01*
X69578576Y-129360681D02*
X70197624Y-129360681D01*
X69864290Y-129741633D01*
X70007148Y-129741633D01*
X70102386Y-129789252D01*
X70150005Y-129836871D01*
X70197624Y-129932110D01*
X70197624Y-130170205D01*
X70150005Y-130265443D01*
X70102386Y-130313062D01*
X70007148Y-130360681D01*
X69721433Y-130360681D01*
X69626195Y-130313062D01*
X69578576Y-130265443D01*
X70816671Y-129360681D02*
X70911910Y-129360681D01*
X71007148Y-129408300D01*
X71054767Y-129455919D01*
X71102386Y-129551157D01*
X71150005Y-129741633D01*
X71150005Y-129979729D01*
X71102386Y-130170205D01*
X71054767Y-130265443D01*
X71007148Y-130313062D01*
X70911910Y-130360681D01*
X70816671Y-130360681D01*
X70721433Y-130313062D01*
X70673814Y-130265443D01*
X70626195Y-130170205D01*
X70578576Y-129979729D01*
X70578576Y-129741633D01*
X70626195Y-129551157D01*
X70673814Y-129455919D01*
X70721433Y-129408300D01*
X70816671Y-129360681D01*
X78452743Y-91085943D02*
X78405124Y-91133562D01*
X78262267Y-91181181D01*
X78167029Y-91181181D01*
X78024171Y-91133562D01*
X77928933Y-91038324D01*
X77881314Y-90943086D01*
X77833695Y-90752610D01*
X77833695Y-90609752D01*
X77881314Y-90419276D01*
X77928933Y-90324038D01*
X78024171Y-90228800D01*
X78167029Y-90181181D01*
X78262267Y-90181181D01*
X78405124Y-90228800D01*
X78452743Y-90276419D01*
X78786076Y-90181181D02*
X79405124Y-90181181D01*
X79071790Y-90562133D01*
X79214648Y-90562133D01*
X79309886Y-90609752D01*
X79357505Y-90657371D01*
X79405124Y-90752610D01*
X79405124Y-90990705D01*
X79357505Y-91085943D01*
X79309886Y-91133562D01*
X79214648Y-91181181D01*
X78928933Y-91181181D01*
X78833695Y-91133562D01*
X78786076Y-91085943D01*
X80357505Y-91181181D02*
X79786076Y-91181181D01*
X80071790Y-91181181D02*
X80071790Y-90181181D01*
X79976552Y-90324038D01*
X79881314Y-90419276D01*
X79786076Y-90466895D01*
X78325743Y-105055943D02*
X78278124Y-105103562D01*
X78135267Y-105151181D01*
X78040029Y-105151181D01*
X77897171Y-105103562D01*
X77801933Y-105008324D01*
X77754314Y-104913086D01*
X77706695Y-104722610D01*
X77706695Y-104579752D01*
X77754314Y-104389276D01*
X77801933Y-104294038D01*
X77897171Y-104198800D01*
X78040029Y-104151181D01*
X78135267Y-104151181D01*
X78278124Y-104198800D01*
X78325743Y-104246419D01*
X78659076Y-104151181D02*
X79278124Y-104151181D01*
X78944790Y-104532133D01*
X79087648Y-104532133D01*
X79182886Y-104579752D01*
X79230505Y-104627371D01*
X79278124Y-104722610D01*
X79278124Y-104960705D01*
X79230505Y-105055943D01*
X79182886Y-105103562D01*
X79087648Y-105151181D01*
X78801933Y-105151181D01*
X78706695Y-105103562D01*
X78659076Y-105055943D01*
X79659076Y-104246419D02*
X79706695Y-104198800D01*
X79801933Y-104151181D01*
X80040029Y-104151181D01*
X80135267Y-104198800D01*
X80182886Y-104246419D01*
X80230505Y-104341657D01*
X80230505Y-104436895D01*
X80182886Y-104579752D01*
X79611457Y-105151181D01*
X80230505Y-105151181D01*
X57277143Y-76942857D02*
X57324762Y-76990476D01*
X57372381Y-77133333D01*
X57372381Y-77228571D01*
X57324762Y-77371429D01*
X57229524Y-77466667D01*
X57134286Y-77514286D01*
X56943810Y-77561905D01*
X56800952Y-77561905D01*
X56610476Y-77514286D01*
X56515238Y-77466667D01*
X56420000Y-77371429D01*
X56372381Y-77228571D01*
X56372381Y-77133333D01*
X56420000Y-76990476D01*
X56467619Y-76942857D01*
X56467619Y-76561905D02*
X56420000Y-76514286D01*
X56372381Y-76419048D01*
X56372381Y-76180952D01*
X56420000Y-76085714D01*
X56467619Y-76038095D01*
X56562857Y-75990476D01*
X56658095Y-75990476D01*
X56800952Y-76038095D01*
X57372381Y-76609524D01*
X57372381Y-75990476D01*
X56372381Y-75371429D02*
X56372381Y-75276190D01*
X56420000Y-75180952D01*
X56467619Y-75133333D01*
X56562857Y-75085714D01*
X56753333Y-75038095D01*
X56991429Y-75038095D01*
X57181905Y-75085714D01*
X57277143Y-75133333D01*
X57324762Y-75180952D01*
X57372381Y-75276190D01*
X57372381Y-75371429D01*
X57324762Y-75466667D01*
X57277143Y-75514286D01*
X57181905Y-75561905D01*
X56991429Y-75609524D01*
X56753333Y-75609524D01*
X56562857Y-75561905D01*
X56467619Y-75514286D01*
X56420000Y-75466667D01*
X56372381Y-75371429D01*
X61188743Y-88343657D02*
X61236362Y-88391276D01*
X61283981Y-88534133D01*
X61283981Y-88629371D01*
X61236362Y-88772229D01*
X61141124Y-88867467D01*
X61045886Y-88915086D01*
X60855410Y-88962705D01*
X60712552Y-88962705D01*
X60522076Y-88915086D01*
X60426838Y-88867467D01*
X60331600Y-88772229D01*
X60283981Y-88629371D01*
X60283981Y-88534133D01*
X60331600Y-88391276D01*
X60379219Y-88343657D01*
X60379219Y-87962705D02*
X60331600Y-87915086D01*
X60283981Y-87819848D01*
X60283981Y-87581752D01*
X60331600Y-87486514D01*
X60379219Y-87438895D01*
X60474457Y-87391276D01*
X60569695Y-87391276D01*
X60712552Y-87438895D01*
X61283981Y-88010324D01*
X61283981Y-87391276D01*
X60379219Y-87010324D02*
X60331600Y-86962705D01*
X60283981Y-86867467D01*
X60283981Y-86629371D01*
X60331600Y-86534133D01*
X60379219Y-86486514D01*
X60474457Y-86438895D01*
X60569695Y-86438895D01*
X60712552Y-86486514D01*
X61283981Y-87057943D01*
X61283981Y-86438895D01*
X67738743Y-101593657D02*
X67786362Y-101641276D01*
X67833981Y-101784133D01*
X67833981Y-101879371D01*
X67786362Y-102022229D01*
X67691124Y-102117467D01*
X67595886Y-102165086D01*
X67405410Y-102212705D01*
X67262552Y-102212705D01*
X67072076Y-102165086D01*
X66976838Y-102117467D01*
X66881600Y-102022229D01*
X66833981Y-101879371D01*
X66833981Y-101784133D01*
X66881600Y-101641276D01*
X66929219Y-101593657D01*
X66929219Y-101212705D02*
X66881600Y-101165086D01*
X66833981Y-101069848D01*
X66833981Y-100831752D01*
X66881600Y-100736514D01*
X66929219Y-100688895D01*
X67024457Y-100641276D01*
X67119695Y-100641276D01*
X67262552Y-100688895D01*
X67833981Y-101260324D01*
X67833981Y-100641276D01*
X67167314Y-99784133D02*
X67833981Y-99784133D01*
X66786362Y-100022229D02*
X67500648Y-100260324D01*
X67500648Y-99641276D01*
X63595081Y-95316195D02*
X62595081Y-95316195D01*
X62595081Y-95078100D01*
X62642700Y-94935242D01*
X62737938Y-94840004D01*
X62833176Y-94792385D01*
X63023652Y-94744766D01*
X63166510Y-94744766D01*
X63356986Y-94792385D01*
X63452224Y-94840004D01*
X63547462Y-94935242D01*
X63595081Y-95078100D01*
X63595081Y-95316195D01*
X63595081Y-93792385D02*
X63595081Y-94363814D01*
X63595081Y-94078100D02*
X62595081Y-94078100D01*
X62737938Y-94173338D01*
X62833176Y-94268576D01*
X62880795Y-94363814D01*
X60545081Y-95411595D02*
X59545081Y-95411595D01*
X59545081Y-95173500D01*
X59592700Y-95030642D01*
X59687938Y-94935404D01*
X59783176Y-94887785D01*
X59973652Y-94840166D01*
X60116510Y-94840166D01*
X60306986Y-94887785D01*
X60402224Y-94935404D01*
X60497462Y-95030642D01*
X60545081Y-95173500D01*
X60545081Y-95411595D01*
X59640319Y-94459214D02*
X59592700Y-94411595D01*
X59545081Y-94316357D01*
X59545081Y-94078261D01*
X59592700Y-93983023D01*
X59640319Y-93935404D01*
X59735557Y-93887785D01*
X59830795Y-93887785D01*
X59973652Y-93935404D01*
X60545081Y-94506833D01*
X60545081Y-93887785D01*
X44148477Y-96436381D02*
X44148477Y-97150667D01*
X44100857Y-97293524D01*
X44005619Y-97388762D01*
X43862762Y-97436381D01*
X43767524Y-97436381D01*
X45148477Y-97436381D02*
X44577048Y-97436381D01*
X44862762Y-97436381D02*
X44862762Y-96436381D01*
X44767524Y-96579238D01*
X44672286Y-96674476D01*
X44577048Y-96722095D01*
X46100858Y-97436381D02*
X45529429Y-97436381D01*
X45815143Y-97436381D02*
X45815143Y-96436381D01*
X45719905Y-96579238D01*
X45624667Y-96674476D01*
X45529429Y-96722095D01*
X59129634Y-84424781D02*
X58796300Y-83948590D01*
X58558205Y-84424781D02*
X58558205Y-83424781D01*
X58939158Y-83424781D01*
X59034396Y-83472400D01*
X59082015Y-83520019D01*
X59129634Y-83615257D01*
X59129634Y-83758114D01*
X59082015Y-83853352D01*
X59034396Y-83900971D01*
X58939158Y-83948590D01*
X58558205Y-83948590D01*
X59510586Y-83520019D02*
X59558205Y-83472400D01*
X59653443Y-83424781D01*
X59891539Y-83424781D01*
X59986777Y-83472400D01*
X60034396Y-83520019D01*
X60082015Y-83615257D01*
X60082015Y-83710495D01*
X60034396Y-83853352D01*
X59462967Y-84424781D01*
X60082015Y-84424781D01*
X52678105Y-95702381D02*
X52678105Y-94702381D01*
X52916200Y-94702381D01*
X53059058Y-94750000D01*
X53154296Y-94845238D01*
X53201915Y-94940476D01*
X53249534Y-95130952D01*
X53249534Y-95273810D01*
X53201915Y-95464286D01*
X53154296Y-95559524D01*
X53059058Y-95654762D01*
X52916200Y-95702381D01*
X52678105Y-95702381D01*
X53582867Y-94702381D02*
X54201915Y-94702381D01*
X53868581Y-95083333D01*
X54011439Y-95083333D01*
X54106677Y-95130952D01*
X54154296Y-95178571D01*
X54201915Y-95273810D01*
X54201915Y-95511905D01*
X54154296Y-95607143D01*
X54106677Y-95654762D01*
X54011439Y-95702381D01*
X53725724Y-95702381D01*
X53630486Y-95654762D01*
X53582867Y-95607143D01*
X66595081Y-94944766D02*
X66118890Y-95278100D01*
X66595081Y-95516195D02*
X65595081Y-95516195D01*
X65595081Y-95135242D01*
X65642700Y-95040004D01*
X65690319Y-94992385D01*
X65785557Y-94944766D01*
X65928414Y-94944766D01*
X66023652Y-94992385D01*
X66071271Y-95040004D01*
X66118890Y-95135242D01*
X66118890Y-95516195D01*
X65595081Y-94611433D02*
X65595081Y-93992385D01*
X65976033Y-94325719D01*
X65976033Y-94182861D01*
X66023652Y-94087623D01*
X66071271Y-94040004D01*
X66166510Y-93992385D01*
X66404605Y-93992385D01*
X66499843Y-94040004D01*
X66547462Y-94087623D01*
X66595081Y-94182861D01*
X66595081Y-94468576D01*
X66547462Y-94563814D01*
X66499843Y-94611433D01*
X53160634Y-92336881D02*
X52827300Y-91860690D01*
X52589205Y-92336881D02*
X52589205Y-91336881D01*
X52970158Y-91336881D01*
X53065396Y-91384500D01*
X53113015Y-91432119D01*
X53160634Y-91527357D01*
X53160634Y-91670214D01*
X53113015Y-91765452D01*
X53065396Y-91813071D01*
X52970158Y-91860690D01*
X52589205Y-91860690D01*
X54017777Y-91670214D02*
X54017777Y-92336881D01*
X53779681Y-91289262D02*
X53541586Y-92003548D01*
X54160634Y-92003548D01*
X56541943Y-98940857D02*
X56589562Y-98988476D01*
X56637181Y-99131333D01*
X56637181Y-99226571D01*
X56589562Y-99369429D01*
X56494324Y-99464667D01*
X56399086Y-99512286D01*
X56208610Y-99559905D01*
X56065752Y-99559905D01*
X55875276Y-99512286D01*
X55780038Y-99464667D01*
X55684800Y-99369429D01*
X55637181Y-99226571D01*
X55637181Y-99131333D01*
X55684800Y-98988476D01*
X55732419Y-98940857D01*
X55732419Y-98559905D02*
X55684800Y-98512286D01*
X55637181Y-98417048D01*
X55637181Y-98178952D01*
X55684800Y-98083714D01*
X55732419Y-98036095D01*
X55827657Y-97988476D01*
X55922895Y-97988476D01*
X56065752Y-98036095D01*
X56637181Y-98607524D01*
X56637181Y-97988476D01*
X55637181Y-97083714D02*
X55637181Y-97559905D01*
X56113371Y-97607524D01*
X56065752Y-97559905D01*
X56018133Y-97464667D01*
X56018133Y-97226571D01*
X56065752Y-97131333D01*
X56113371Y-97083714D01*
X56208610Y-97036095D01*
X56446705Y-97036095D01*
X56541943Y-97083714D01*
X56589562Y-97131333D01*
X56637181Y-97226571D01*
X56637181Y-97464667D01*
X56589562Y-97559905D01*
X56541943Y-97607524D01*
X56592743Y-101684057D02*
X56640362Y-101731676D01*
X56687981Y-101874533D01*
X56687981Y-101969771D01*
X56640362Y-102112629D01*
X56545124Y-102207867D01*
X56449886Y-102255486D01*
X56259410Y-102303105D01*
X56116552Y-102303105D01*
X55926076Y-102255486D01*
X55830838Y-102207867D01*
X55735600Y-102112629D01*
X55687981Y-101969771D01*
X55687981Y-101874533D01*
X55735600Y-101731676D01*
X55783219Y-101684057D01*
X55783219Y-101303105D02*
X55735600Y-101255486D01*
X55687981Y-101160248D01*
X55687981Y-100922152D01*
X55735600Y-100826914D01*
X55783219Y-100779295D01*
X55878457Y-100731676D01*
X55973695Y-100731676D01*
X56116552Y-100779295D01*
X56687981Y-101350724D01*
X56687981Y-100731676D01*
X55687981Y-99874533D02*
X55687981Y-100065010D01*
X55735600Y-100160248D01*
X55783219Y-100207867D01*
X55926076Y-100303105D01*
X56116552Y-100350724D01*
X56497505Y-100350724D01*
X56592743Y-100303105D01*
X56640362Y-100255486D01*
X56687981Y-100160248D01*
X56687981Y-99969771D01*
X56640362Y-99874533D01*
X56592743Y-99826914D01*
X56497505Y-99779295D01*
X56259410Y-99779295D01*
X56164171Y-99826914D01*
X56116552Y-99874533D01*
X56068933Y-99969771D01*
X56068933Y-100160248D01*
X56116552Y-100255486D01*
X56164171Y-100303105D01*
X56259410Y-100350724D01*
X56694343Y-104376457D02*
X56741962Y-104424076D01*
X56789581Y-104566933D01*
X56789581Y-104662171D01*
X56741962Y-104805029D01*
X56646724Y-104900267D01*
X56551486Y-104947886D01*
X56361010Y-104995505D01*
X56218152Y-104995505D01*
X56027676Y-104947886D01*
X55932438Y-104900267D01*
X55837200Y-104805029D01*
X55789581Y-104662171D01*
X55789581Y-104566933D01*
X55837200Y-104424076D01*
X55884819Y-104376457D01*
X55789581Y-104043124D02*
X55789581Y-103424076D01*
X56170533Y-103757410D01*
X56170533Y-103614552D01*
X56218152Y-103519314D01*
X56265771Y-103471695D01*
X56361010Y-103424076D01*
X56599105Y-103424076D01*
X56694343Y-103471695D01*
X56741962Y-103519314D01*
X56789581Y-103614552D01*
X56789581Y-103900267D01*
X56741962Y-103995505D01*
X56694343Y-104043124D01*
X55789581Y-103090743D02*
X55789581Y-102471695D01*
X56170533Y-102805029D01*
X56170533Y-102662171D01*
X56218152Y-102566933D01*
X56265771Y-102519314D01*
X56361010Y-102471695D01*
X56599105Y-102471695D01*
X56694343Y-102519314D01*
X56741962Y-102566933D01*
X56789581Y-102662171D01*
X56789581Y-102947886D01*
X56741962Y-103043124D01*
X56694343Y-103090743D01*
X56592743Y-107170457D02*
X56640362Y-107218076D01*
X56687981Y-107360933D01*
X56687981Y-107456171D01*
X56640362Y-107599029D01*
X56545124Y-107694267D01*
X56449886Y-107741886D01*
X56259410Y-107789505D01*
X56116552Y-107789505D01*
X55926076Y-107741886D01*
X55830838Y-107694267D01*
X55735600Y-107599029D01*
X55687981Y-107456171D01*
X55687981Y-107360933D01*
X55735600Y-107218076D01*
X55783219Y-107170457D01*
X55687981Y-106837124D02*
X55687981Y-106218076D01*
X56068933Y-106551410D01*
X56068933Y-106408552D01*
X56116552Y-106313314D01*
X56164171Y-106265695D01*
X56259410Y-106218076D01*
X56497505Y-106218076D01*
X56592743Y-106265695D01*
X56640362Y-106313314D01*
X56687981Y-106408552D01*
X56687981Y-106694267D01*
X56640362Y-106789505D01*
X56592743Y-106837124D01*
X56021314Y-105360933D02*
X56687981Y-105360933D01*
X55640362Y-105599029D02*
X56354648Y-105837124D01*
X56354648Y-105218076D01*
X56592743Y-109862857D02*
X56640362Y-109910476D01*
X56687981Y-110053333D01*
X56687981Y-110148571D01*
X56640362Y-110291429D01*
X56545124Y-110386667D01*
X56449886Y-110434286D01*
X56259410Y-110481905D01*
X56116552Y-110481905D01*
X55926076Y-110434286D01*
X55830838Y-110386667D01*
X55735600Y-110291429D01*
X55687981Y-110148571D01*
X55687981Y-110053333D01*
X55735600Y-109910476D01*
X55783219Y-109862857D01*
X55687981Y-109529524D02*
X55687981Y-108910476D01*
X56068933Y-109243810D01*
X56068933Y-109100952D01*
X56116552Y-109005714D01*
X56164171Y-108958095D01*
X56259410Y-108910476D01*
X56497505Y-108910476D01*
X56592743Y-108958095D01*
X56640362Y-109005714D01*
X56687981Y-109100952D01*
X56687981Y-109386667D01*
X56640362Y-109481905D01*
X56592743Y-109529524D01*
X55687981Y-108005714D02*
X55687981Y-108481905D01*
X56164171Y-108529524D01*
X56116552Y-108481905D01*
X56068933Y-108386667D01*
X56068933Y-108148571D01*
X56116552Y-108053333D01*
X56164171Y-108005714D01*
X56259410Y-107958095D01*
X56497505Y-107958095D01*
X56592743Y-108005714D01*
X56640362Y-108053333D01*
X56687981Y-108148571D01*
X56687981Y-108386667D01*
X56640362Y-108481905D01*
X56592743Y-108529524D01*
X56541943Y-112656857D02*
X56589562Y-112704476D01*
X56637181Y-112847333D01*
X56637181Y-112942571D01*
X56589562Y-113085429D01*
X56494324Y-113180667D01*
X56399086Y-113228286D01*
X56208610Y-113275905D01*
X56065752Y-113275905D01*
X55875276Y-113228286D01*
X55780038Y-113180667D01*
X55684800Y-113085429D01*
X55637181Y-112942571D01*
X55637181Y-112847333D01*
X55684800Y-112704476D01*
X55732419Y-112656857D01*
X55637181Y-112323524D02*
X55637181Y-111704476D01*
X56018133Y-112037810D01*
X56018133Y-111894952D01*
X56065752Y-111799714D01*
X56113371Y-111752095D01*
X56208610Y-111704476D01*
X56446705Y-111704476D01*
X56541943Y-111752095D01*
X56589562Y-111799714D01*
X56637181Y-111894952D01*
X56637181Y-112180667D01*
X56589562Y-112275905D01*
X56541943Y-112323524D01*
X55637181Y-110847333D02*
X55637181Y-111037810D01*
X55684800Y-111133048D01*
X55732419Y-111180667D01*
X55875276Y-111275905D01*
X56065752Y-111323524D01*
X56446705Y-111323524D01*
X56541943Y-111275905D01*
X56589562Y-111228286D01*
X56637181Y-111133048D01*
X56637181Y-110942571D01*
X56589562Y-110847333D01*
X56541943Y-110799714D01*
X56446705Y-110752095D01*
X56208610Y-110752095D01*
X56113371Y-110799714D01*
X56065752Y-110847333D01*
X56018133Y-110942571D01*
X56018133Y-111133048D01*
X56065752Y-111228286D01*
X56113371Y-111275905D01*
X56208610Y-111323524D01*
X54881543Y-125325143D02*
X54833924Y-125372762D01*
X54691067Y-125420381D01*
X54595829Y-125420381D01*
X54452971Y-125372762D01*
X54357733Y-125277524D01*
X54310114Y-125182286D01*
X54262495Y-124991810D01*
X54262495Y-124848952D01*
X54310114Y-124658476D01*
X54357733Y-124563238D01*
X54452971Y-124468000D01*
X54595829Y-124420381D01*
X54691067Y-124420381D01*
X54833924Y-124468000D01*
X54881543Y-124515619D01*
X55214876Y-124420381D02*
X55833924Y-124420381D01*
X55500590Y-124801333D01*
X55643448Y-124801333D01*
X55738686Y-124848952D01*
X55786305Y-124896571D01*
X55833924Y-124991810D01*
X55833924Y-125229905D01*
X55786305Y-125325143D01*
X55738686Y-125372762D01*
X55643448Y-125420381D01*
X55357733Y-125420381D01*
X55262495Y-125372762D01*
X55214876Y-125325143D01*
X56167257Y-124420381D02*
X56833924Y-124420381D01*
X56405352Y-125420381D01*
X46601143Y-83161143D02*
X46553524Y-83208762D01*
X46410667Y-83256381D01*
X46315429Y-83256381D01*
X46172571Y-83208762D01*
X46077333Y-83113524D01*
X46029714Y-83018286D01*
X45982095Y-82827810D01*
X45982095Y-82684952D01*
X46029714Y-82494476D01*
X46077333Y-82399238D01*
X46172571Y-82304000D01*
X46315429Y-82256381D01*
X46410667Y-82256381D01*
X46553524Y-82304000D01*
X46601143Y-82351619D01*
X46934476Y-82256381D02*
X47553524Y-82256381D01*
X47220190Y-82637333D01*
X47363048Y-82637333D01*
X47458286Y-82684952D01*
X47505905Y-82732571D01*
X47553524Y-82827810D01*
X47553524Y-83065905D01*
X47505905Y-83161143D01*
X47458286Y-83208762D01*
X47363048Y-83256381D01*
X47077333Y-83256381D01*
X46982095Y-83208762D01*
X46934476Y-83161143D01*
X48124952Y-82684952D02*
X48029714Y-82637333D01*
X47982095Y-82589714D01*
X47934476Y-82494476D01*
X47934476Y-82446857D01*
X47982095Y-82351619D01*
X48029714Y-82304000D01*
X48124952Y-82256381D01*
X48315429Y-82256381D01*
X48410667Y-82304000D01*
X48458286Y-82351619D01*
X48505905Y-82446857D01*
X48505905Y-82494476D01*
X48458286Y-82589714D01*
X48410667Y-82637333D01*
X48315429Y-82684952D01*
X48124952Y-82684952D01*
X48029714Y-82732571D01*
X47982095Y-82780190D01*
X47934476Y-82875429D01*
X47934476Y-83065905D01*
X47982095Y-83161143D01*
X48029714Y-83208762D01*
X48124952Y-83256381D01*
X48315429Y-83256381D01*
X48410667Y-83208762D01*
X48458286Y-83161143D01*
X48505905Y-83065905D01*
X48505905Y-82875429D01*
X48458286Y-82780190D01*
X48410667Y-82732571D01*
X48315429Y-82684952D01*
X42557143Y-67179143D02*
X42509524Y-67226762D01*
X42366667Y-67274381D01*
X42271429Y-67274381D01*
X42128571Y-67226762D01*
X42033333Y-67131524D01*
X41985714Y-67036286D01*
X41938095Y-66845810D01*
X41938095Y-66702952D01*
X41985714Y-66512476D01*
X42033333Y-66417238D01*
X42128571Y-66322000D01*
X42271429Y-66274381D01*
X42366667Y-66274381D01*
X42509524Y-66322000D01*
X42557143Y-66369619D01*
X42890476Y-66274381D02*
X43509524Y-66274381D01*
X43176190Y-66655333D01*
X43319048Y-66655333D01*
X43414286Y-66702952D01*
X43461905Y-66750571D01*
X43509524Y-66845810D01*
X43509524Y-67083905D01*
X43461905Y-67179143D01*
X43414286Y-67226762D01*
X43319048Y-67274381D01*
X43033333Y-67274381D01*
X42938095Y-67226762D01*
X42890476Y-67179143D01*
X43985714Y-67274381D02*
X44176190Y-67274381D01*
X44271429Y-67226762D01*
X44319048Y-67179143D01*
X44414286Y-67036286D01*
X44461905Y-66845810D01*
X44461905Y-66464857D01*
X44414286Y-66369619D01*
X44366667Y-66322000D01*
X44271429Y-66274381D01*
X44080952Y-66274381D01*
X43985714Y-66322000D01*
X43938095Y-66369619D01*
X43890476Y-66464857D01*
X43890476Y-66702952D01*
X43938095Y-66798190D01*
X43985714Y-66845810D01*
X44080952Y-66893429D01*
X44271429Y-66893429D01*
X44366667Y-66845810D01*
X44414286Y-66798190D01*
X44461905Y-66702952D01*
X45556381Y-72920095D02*
X44556381Y-72920095D01*
X44556381Y-72682000D01*
X44604000Y-72539142D01*
X44699238Y-72443904D01*
X44794476Y-72396285D01*
X44984952Y-72348666D01*
X45127810Y-72348666D01*
X45318286Y-72396285D01*
X45413524Y-72443904D01*
X45508762Y-72539142D01*
X45556381Y-72682000D01*
X45556381Y-72920095D01*
X44889714Y-71491523D02*
X45556381Y-71491523D01*
X44508762Y-71729619D02*
X45223048Y-71967714D01*
X45223048Y-71348666D01*
X45235905Y-57348381D02*
X45235905Y-56348381D01*
X45474000Y-56348381D01*
X45616858Y-56396000D01*
X45712096Y-56491238D01*
X45759715Y-56586476D01*
X45807334Y-56776952D01*
X45807334Y-56919810D01*
X45759715Y-57110286D01*
X45712096Y-57205524D01*
X45616858Y-57300762D01*
X45474000Y-57348381D01*
X45235905Y-57348381D01*
X46712096Y-56348381D02*
X46235905Y-56348381D01*
X46188286Y-56824571D01*
X46235905Y-56776952D01*
X46331143Y-56729333D01*
X46569239Y-56729333D01*
X46664477Y-56776952D01*
X46712096Y-56824571D01*
X46759715Y-56919810D01*
X46759715Y-57157905D01*
X46712096Y-57253143D01*
X46664477Y-57300762D01*
X46569239Y-57348381D01*
X46331143Y-57348381D01*
X46235905Y-57300762D01*
X46188286Y-57253143D01*
X48402381Y-87661523D02*
X49116667Y-87661523D01*
X49259524Y-87709143D01*
X49354762Y-87804381D01*
X49402381Y-87947238D01*
X49402381Y-88042476D01*
X49402381Y-86661523D02*
X49402381Y-87232952D01*
X49402381Y-86947238D02*
X48402381Y-86947238D01*
X48545238Y-87042476D01*
X48640476Y-87137714D01*
X48688095Y-87232952D01*
X48402381Y-86042476D02*
X48402381Y-85947237D01*
X48450000Y-85851999D01*
X48497619Y-85804380D01*
X48592857Y-85756761D01*
X48783333Y-85709142D01*
X49021429Y-85709142D01*
X49211905Y-85756761D01*
X49307143Y-85804380D01*
X49354762Y-85851999D01*
X49402381Y-85947237D01*
X49402381Y-86042476D01*
X49354762Y-86137714D01*
X49307143Y-86185333D01*
X49211905Y-86232952D01*
X49021429Y-86280571D01*
X48783333Y-86280571D01*
X48592857Y-86232952D01*
X48497619Y-86185333D01*
X48450000Y-86137714D01*
X48402381Y-86042476D01*
X43124381Y-72556666D02*
X42648190Y-72890000D01*
X43124381Y-73128095D02*
X42124381Y-73128095D01*
X42124381Y-72747142D01*
X42172000Y-72651904D01*
X42219619Y-72604285D01*
X42314857Y-72556666D01*
X42457714Y-72556666D01*
X42552952Y-72604285D01*
X42600571Y-72651904D01*
X42648190Y-72747142D01*
X42648190Y-73128095D01*
X42124381Y-71651904D02*
X42124381Y-72128095D01*
X42600571Y-72175714D01*
X42552952Y-72128095D01*
X42505333Y-72032857D01*
X42505333Y-71794761D01*
X42552952Y-71699523D01*
X42600571Y-71651904D01*
X42695810Y-71604285D01*
X42933905Y-71604285D01*
X43029143Y-71651904D01*
X43076762Y-71699523D01*
X43124381Y-71794761D01*
X43124381Y-72032857D01*
X43076762Y-72128095D01*
X43029143Y-72175714D01*
X54443334Y-88590381D02*
X54110000Y-88114190D01*
X53871905Y-88590381D02*
X53871905Y-87590381D01*
X54252858Y-87590381D01*
X54348096Y-87638000D01*
X54395715Y-87685619D01*
X54443334Y-87780857D01*
X54443334Y-87923714D01*
X54395715Y-88018952D01*
X54348096Y-88066571D01*
X54252858Y-88114190D01*
X53871905Y-88114190D01*
X55300477Y-87590381D02*
X55110000Y-87590381D01*
X55014762Y-87638000D01*
X54967143Y-87685619D01*
X54871905Y-87828476D01*
X54824286Y-88018952D01*
X54824286Y-88399905D01*
X54871905Y-88495143D01*
X54919524Y-88542762D01*
X55014762Y-88590381D01*
X55205239Y-88590381D01*
X55300477Y-88542762D01*
X55348096Y-88495143D01*
X55395715Y-88399905D01*
X55395715Y-88161810D01*
X55348096Y-88066571D01*
X55300477Y-88018952D01*
X55205239Y-87971333D01*
X55014762Y-87971333D01*
X54919524Y-88018952D01*
X54871905Y-88066571D01*
X54824286Y-88161810D01*
X49084781Y-70269866D02*
X48608590Y-70603200D01*
X49084781Y-70841295D02*
X48084781Y-70841295D01*
X48084781Y-70460342D01*
X48132400Y-70365104D01*
X48180019Y-70317485D01*
X48275257Y-70269866D01*
X48418114Y-70269866D01*
X48513352Y-70317485D01*
X48560971Y-70365104D01*
X48608590Y-70460342D01*
X48608590Y-70841295D01*
X48084781Y-69936533D02*
X48084781Y-69269866D01*
X49084781Y-69698438D01*
X48958334Y-61252381D02*
X48625000Y-60776190D01*
X48386905Y-61252381D02*
X48386905Y-60252381D01*
X48767858Y-60252381D01*
X48863096Y-60300000D01*
X48910715Y-60347619D01*
X48958334Y-60442857D01*
X48958334Y-60585714D01*
X48910715Y-60680952D01*
X48863096Y-60728571D01*
X48767858Y-60776190D01*
X48386905Y-60776190D01*
X49529762Y-60680952D02*
X49434524Y-60633333D01*
X49386905Y-60585714D01*
X49339286Y-60490476D01*
X49339286Y-60442857D01*
X49386905Y-60347619D01*
X49434524Y-60300000D01*
X49529762Y-60252381D01*
X49720239Y-60252381D01*
X49815477Y-60300000D01*
X49863096Y-60347619D01*
X49910715Y-60442857D01*
X49910715Y-60490476D01*
X49863096Y-60585714D01*
X49815477Y-60633333D01*
X49720239Y-60680952D01*
X49529762Y-60680952D01*
X49434524Y-60728571D01*
X49386905Y-60776190D01*
X49339286Y-60871429D01*
X49339286Y-61061905D01*
X49386905Y-61157143D01*
X49434524Y-61204762D01*
X49529762Y-61252381D01*
X49720239Y-61252381D01*
X49815477Y-61204762D01*
X49863096Y-61157143D01*
X49910715Y-61061905D01*
X49910715Y-60871429D01*
X49863096Y-60776190D01*
X49815477Y-60728571D01*
X49720239Y-60680952D01*
X45585143Y-54300381D02*
X45251809Y-53824190D01*
X45013714Y-54300381D02*
X45013714Y-53300381D01*
X45394667Y-53300381D01*
X45489905Y-53348000D01*
X45537524Y-53395619D01*
X45585143Y-53490857D01*
X45585143Y-53633714D01*
X45537524Y-53728952D01*
X45489905Y-53776571D01*
X45394667Y-53824190D01*
X45013714Y-53824190D01*
X46537524Y-54300381D02*
X45966095Y-54300381D01*
X46251809Y-54300381D02*
X46251809Y-53300381D01*
X46156571Y-53443238D01*
X46061333Y-53538476D01*
X45966095Y-53586095D01*
X47489905Y-54300381D02*
X46918476Y-54300381D01*
X47204190Y-54300381D02*
X47204190Y-53300381D01*
X47108952Y-53443238D01*
X47013714Y-53538476D01*
X46918476Y-53586095D01*
X45585143Y-51252381D02*
X45251809Y-50776190D01*
X45013714Y-51252381D02*
X45013714Y-50252381D01*
X45394667Y-50252381D01*
X45489905Y-50300000D01*
X45537524Y-50347619D01*
X45585143Y-50442857D01*
X45585143Y-50585714D01*
X45537524Y-50680952D01*
X45489905Y-50728571D01*
X45394667Y-50776190D01*
X45013714Y-50776190D01*
X46537524Y-51252381D02*
X45966095Y-51252381D01*
X46251809Y-51252381D02*
X46251809Y-50252381D01*
X46156571Y-50395238D01*
X46061333Y-50490476D01*
X45966095Y-50538095D01*
X46918476Y-50347619D02*
X46966095Y-50300000D01*
X47061333Y-50252381D01*
X47299429Y-50252381D01*
X47394667Y-50300000D01*
X47442286Y-50347619D01*
X47489905Y-50442857D01*
X47489905Y-50538095D01*
X47442286Y-50680952D01*
X46870857Y-51252381D01*
X47489905Y-51252381D01*
X53038477Y-52538381D02*
X53038477Y-53252667D01*
X52990857Y-53395524D01*
X52895619Y-53490762D01*
X52752762Y-53538381D01*
X52657524Y-53538381D01*
X54038477Y-53538381D02*
X53467048Y-53538381D01*
X53752762Y-53538381D02*
X53752762Y-52538381D01*
X53657524Y-52681238D01*
X53562286Y-52776476D01*
X53467048Y-52824095D01*
X54895620Y-52538381D02*
X54705143Y-52538381D01*
X54609905Y-52586000D01*
X54562286Y-52633619D01*
X54467048Y-52776476D01*
X54419429Y-52966952D01*
X54419429Y-53347905D01*
X54467048Y-53443143D01*
X54514667Y-53490762D01*
X54609905Y-53538381D01*
X54800382Y-53538381D01*
X54895620Y-53490762D01*
X54943239Y-53443143D01*
X54990858Y-53347905D01*
X54990858Y-53109810D01*
X54943239Y-53014571D01*
X54895620Y-52966952D01*
X54800382Y-52919333D01*
X54609905Y-52919333D01*
X54514667Y-52966952D01*
X54467048Y-53014571D01*
X54419429Y-53109810D01*
X65738477Y-67524381D02*
X65738477Y-68238667D01*
X65690857Y-68381524D01*
X65595619Y-68476762D01*
X65452762Y-68524381D01*
X65357524Y-68524381D01*
X66738477Y-68524381D02*
X66167048Y-68524381D01*
X66452762Y-68524381D02*
X66452762Y-67524381D01*
X66357524Y-67667238D01*
X66262286Y-67762476D01*
X66167048Y-67810095D01*
X67071810Y-67524381D02*
X67738477Y-67524381D01*
X67309905Y-68524381D01*
X63762381Y-52779523D02*
X64476667Y-52779523D01*
X64619524Y-52827143D01*
X64714762Y-52922381D01*
X64762381Y-53065238D01*
X64762381Y-53160476D01*
X64762381Y-51779523D02*
X64762381Y-52350952D01*
X64762381Y-52065238D02*
X63762381Y-52065238D01*
X63905238Y-52160476D01*
X64000476Y-52255714D01*
X64048095Y-52350952D01*
X64190952Y-51208095D02*
X64143333Y-51303333D01*
X64095714Y-51350952D01*
X64000476Y-51398571D01*
X63952857Y-51398571D01*
X63857619Y-51350952D01*
X63810000Y-51303333D01*
X63762381Y-51208095D01*
X63762381Y-51017618D01*
X63810000Y-50922380D01*
X63857619Y-50874761D01*
X63952857Y-50827142D01*
X64000476Y-50827142D01*
X64095714Y-50874761D01*
X64143333Y-50922380D01*
X64190952Y-51017618D01*
X64190952Y-51208095D01*
X64238571Y-51303333D01*
X64286190Y-51350952D01*
X64381429Y-51398571D01*
X64571905Y-51398571D01*
X64667143Y-51350952D01*
X64714762Y-51303333D01*
X64762381Y-51208095D01*
X64762381Y-51017618D01*
X64714762Y-50922380D01*
X64667143Y-50874761D01*
X64571905Y-50827142D01*
X64381429Y-50827142D01*
X64286190Y-50874761D01*
X64238571Y-50922380D01*
X64190952Y-51017618D01*
X63762381Y-61565523D02*
X64476667Y-61565523D01*
X64619524Y-61613143D01*
X64714762Y-61708381D01*
X64762381Y-61851238D01*
X64762381Y-61946476D01*
X64762381Y-60565523D02*
X64762381Y-61136952D01*
X64762381Y-60851238D02*
X63762381Y-60851238D01*
X63905238Y-60946476D01*
X64000476Y-61041714D01*
X64048095Y-61136952D01*
X64762381Y-60089333D02*
X64762381Y-59898857D01*
X64714762Y-59803618D01*
X64667143Y-59755999D01*
X64524286Y-59660761D01*
X64333810Y-59613142D01*
X63952857Y-59613142D01*
X63857619Y-59660761D01*
X63810000Y-59708380D01*
X63762381Y-59803618D01*
X63762381Y-59994095D01*
X63810000Y-60089333D01*
X63857619Y-60136952D01*
X63952857Y-60184571D01*
X64190952Y-60184571D01*
X64286190Y-60136952D01*
X64333810Y-60089333D01*
X64381429Y-59994095D01*
X64381429Y-59803618D01*
X64333810Y-59708380D01*
X64286190Y-59660761D01*
X64190952Y-59613142D01*
X56094381Y-67865523D02*
X56808667Y-67865523D01*
X56951524Y-67913143D01*
X57046762Y-68008381D01*
X57094381Y-68151238D01*
X57094381Y-68246476D01*
X56189619Y-67436952D02*
X56142000Y-67389333D01*
X56094381Y-67294095D01*
X56094381Y-67055999D01*
X56142000Y-66960761D01*
X56189619Y-66913142D01*
X56284857Y-66865523D01*
X56380095Y-66865523D01*
X56522952Y-66913142D01*
X57094381Y-67484571D01*
X57094381Y-66865523D01*
X56094381Y-66246476D02*
X56094381Y-66151237D01*
X56142000Y-66055999D01*
X56189619Y-66008380D01*
X56284857Y-65960761D01*
X56475333Y-65913142D01*
X56713429Y-65913142D01*
X56903905Y-65960761D01*
X56999143Y-66008380D01*
X57046762Y-66055999D01*
X57094381Y-66151237D01*
X57094381Y-66246476D01*
X57046762Y-66341714D01*
X56999143Y-66389333D01*
X56903905Y-66436952D01*
X56713429Y-66484571D01*
X56475333Y-66484571D01*
X56284857Y-66436952D01*
X56189619Y-66389333D01*
X56142000Y-66341714D01*
X56094381Y-66246476D01*
X59388477Y-72350381D02*
X59388477Y-73064667D01*
X59340857Y-73207524D01*
X59245619Y-73302762D01*
X59102762Y-73350381D01*
X59007524Y-73350381D01*
X59817048Y-72445619D02*
X59864667Y-72398000D01*
X59959905Y-72350381D01*
X60198001Y-72350381D01*
X60293239Y-72398000D01*
X60340858Y-72445619D01*
X60388477Y-72540857D01*
X60388477Y-72636095D01*
X60340858Y-72778952D01*
X59769429Y-73350381D01*
X60388477Y-73350381D01*
X61340858Y-73350381D02*
X60769429Y-73350381D01*
X61055143Y-73350381D02*
X61055143Y-72350381D01*
X60959905Y-72493238D01*
X60864667Y-72588476D01*
X60769429Y-72636095D01*
X66754477Y-52538381D02*
X66754477Y-53252667D01*
X66706857Y-53395524D01*
X66611619Y-53490762D01*
X66468762Y-53538381D01*
X66373524Y-53538381D01*
X67183048Y-52633619D02*
X67230667Y-52586000D01*
X67325905Y-52538381D01*
X67564001Y-52538381D01*
X67659239Y-52586000D01*
X67706858Y-52633619D01*
X67754477Y-52728857D01*
X67754477Y-52824095D01*
X67706858Y-52966952D01*
X67135429Y-53538381D01*
X67754477Y-53538381D01*
X68135429Y-52633619D02*
X68183048Y-52586000D01*
X68278286Y-52538381D01*
X68516382Y-52538381D01*
X68611620Y-52586000D01*
X68659239Y-52633619D01*
X68706858Y-52728857D01*
X68706858Y-52824095D01*
X68659239Y-52966952D01*
X68087810Y-53538381D01*
X68706858Y-53538381D01*
X56013381Y-71321523D02*
X56727667Y-71321523D01*
X56870524Y-71369143D01*
X56965762Y-71464381D01*
X57013381Y-71607238D01*
X57013381Y-71702476D01*
X56108619Y-70892952D02*
X56061000Y-70845333D01*
X56013381Y-70750095D01*
X56013381Y-70511999D01*
X56061000Y-70416761D01*
X56108619Y-70369142D01*
X56203857Y-70321523D01*
X56299095Y-70321523D01*
X56441952Y-70369142D01*
X57013381Y-70940571D01*
X57013381Y-70321523D01*
X56013381Y-69988190D02*
X56013381Y-69369142D01*
X56394333Y-69702476D01*
X56394333Y-69559618D01*
X56441952Y-69464380D01*
X56489571Y-69416761D01*
X56584810Y-69369142D01*
X56822905Y-69369142D01*
X56918143Y-69416761D01*
X56965762Y-69464380D01*
X57013381Y-69559618D01*
X57013381Y-69845333D01*
X56965762Y-69940571D01*
X56918143Y-69988190D01*
M02*
