G04 #@! TF.FileFunction,Copper,L2,Bot,Signal*
%FSLAX46Y46*%
G04 Gerber Fmt 4.6, Leading zero omitted, Abs format (unit mm)*
G04 Created by KiCad (PCBNEW 4.0.7) date 06/30/19 17:42:04*
%MOMM*%
%LPD*%
G01*
G04 APERTURE LIST*
%ADD10C,0.100000*%
%ADD11R,1.600000X1.600000*%
%ADD12C,1.600000*%
%ADD13C,2.600000*%
%ADD14C,1.500000*%
%ADD15R,3.000000X3.000000*%
%ADD16C,3.000000*%
%ADD17C,5.000000*%
%ADD18C,2.000000*%
%ADD19C,1.800000*%
%ADD20R,1.700000X1.700000*%
%ADD21O,1.700000X1.700000*%
%ADD22R,1.800000X1.800000*%
%ADD23O,1.800000X1.800000*%
%ADD24O,1.600000X1.600000*%
%ADD25C,2.400000*%
%ADD26O,2.400000X2.400000*%
%ADD27R,2.200000X2.200000*%
%ADD28O,2.200000X2.200000*%
%ADD29C,1.500000*%
%ADD30C,0.500000*%
%ADD31C,1.000000*%
G04 APERTURE END LIST*
D10*
D11*
X49789080Y-117012720D03*
D12*
X52289080Y-117012720D03*
D13*
X122148600Y-68122800D03*
X127748600Y-68122800D03*
X103670100Y-115366800D03*
X109270100Y-115366800D03*
D14*
X74587100Y-47317700D03*
X72047100Y-47317700D03*
D15*
X90906600Y-45643800D03*
D16*
X85826600Y-45643800D03*
D14*
X73190100Y-132323800D03*
X75730100Y-132323800D03*
D15*
X83921600Y-134035800D03*
D16*
X89001600Y-134035800D03*
D17*
X45000000Y-135000000D03*
X135000000Y-135000000D03*
X135000000Y-45000000D03*
X45000000Y-45000000D03*
D13*
X103860600Y-100126800D03*
X109460600Y-100126800D03*
X103936800Y-130860800D03*
X109536800Y-130860800D03*
X121894600Y-52692300D03*
X127494600Y-52692300D03*
X122250200Y-84734400D03*
X127850200Y-84734400D03*
X122377200Y-99923600D03*
X127977200Y-99923600D03*
X122453400Y-115062000D03*
X128053400Y-115062000D03*
X122428000Y-129921000D03*
X128028000Y-129921000D03*
D18*
X97320100Y-49326800D03*
X97320100Y-56826800D03*
X97193100Y-64376300D03*
X97193100Y-71876300D03*
X97066100Y-80759300D03*
X97066100Y-88259300D03*
X96812100Y-95681800D03*
X96812100Y-103181800D03*
X97066100Y-111493300D03*
X97066100Y-118993300D03*
X96875600Y-126161800D03*
X96875600Y-133661800D03*
X115989100Y-56248300D03*
X115989100Y-48748300D03*
X115671600Y-71932800D03*
X115671600Y-64432800D03*
X115671600Y-88379300D03*
X115671600Y-80879300D03*
X115671600Y-103365300D03*
X115671600Y-95865300D03*
X115735100Y-119049800D03*
X115735100Y-111549800D03*
X115951000Y-133731000D03*
X115951000Y-126231000D03*
X134531100Y-51041300D03*
X134531100Y-58541300D03*
X134162800Y-64897000D03*
X134162800Y-72397000D03*
X133807200Y-80187800D03*
X133807200Y-87687800D03*
X133502400Y-95681800D03*
X133502400Y-103181800D03*
X133477000Y-111328200D03*
X133477000Y-118828200D03*
X133616700Y-122593100D03*
X133616700Y-130093100D03*
D13*
X103987600Y-52565300D03*
X109587600Y-52565300D03*
X103860600Y-68567300D03*
X109460600Y-68567300D03*
X103733600Y-84315300D03*
X109333600Y-84315300D03*
D19*
X80716100Y-51140200D03*
X90876100Y-51140200D03*
X85796100Y-51140200D03*
X85796100Y-58740200D03*
X80716100Y-58740200D03*
X90876100Y-58740200D03*
X73096100Y-51140200D03*
X73096100Y-58740200D03*
X80779600Y-66354800D03*
X90939600Y-66354800D03*
X85859600Y-66354800D03*
X85859600Y-73954800D03*
X80779600Y-73954800D03*
X90939600Y-73954800D03*
X73159600Y-66354800D03*
X73159600Y-73954800D03*
X80779600Y-79562800D03*
X90939600Y-79562800D03*
X85859600Y-79562800D03*
X85859600Y-87162800D03*
X80779600Y-87162800D03*
X90939600Y-87162800D03*
X73159600Y-79562800D03*
X73159600Y-87162800D03*
X80779600Y-93786800D03*
X90939600Y-93786800D03*
X85859600Y-93786800D03*
X85859600Y-101386800D03*
X80779600Y-101386800D03*
X90939600Y-101386800D03*
X73159600Y-93786800D03*
X73159600Y-101386800D03*
X80789760Y-108295280D03*
X90949760Y-108295280D03*
X85869760Y-108295280D03*
X85869760Y-115895280D03*
X80789760Y-115895280D03*
X90949760Y-115895280D03*
X73169760Y-108295280D03*
X73169760Y-115895280D03*
X80845640Y-120812400D03*
X91005640Y-120812400D03*
X85925640Y-120812400D03*
X85925640Y-128412400D03*
X80845640Y-128412400D03*
X91005640Y-128412400D03*
X73225640Y-120812400D03*
X73225640Y-128412400D03*
D11*
X55981600Y-130606800D03*
D12*
X53481600Y-130606800D03*
D15*
X46520100Y-123177300D03*
D16*
X46520100Y-128257300D03*
D20*
X61760100Y-134721600D03*
D21*
X61760100Y-137261600D03*
D22*
X57124600Y-136067800D03*
D23*
X54584600Y-136067800D03*
X52044600Y-136067800D03*
D11*
X59474100Y-107302300D03*
D24*
X67094100Y-127622300D03*
X59474100Y-109842300D03*
X67094100Y-125082300D03*
X59474100Y-112382300D03*
X67094100Y-122542300D03*
X59474100Y-114922300D03*
X67094100Y-120002300D03*
X59474100Y-117462300D03*
X67094100Y-117462300D03*
X59474100Y-120002300D03*
X67094100Y-114922300D03*
X59474100Y-122542300D03*
X67094100Y-112382300D03*
X59474100Y-125082300D03*
X67094100Y-109842300D03*
X59474100Y-127622300D03*
X67094100Y-107302300D03*
D12*
X63817500Y-130759200D03*
X61317500Y-130759200D03*
X73253600Y-62280800D03*
X75753600Y-62280800D03*
X73317100Y-76695300D03*
X75817100Y-76695300D03*
X70078600Y-119240300D03*
X70078600Y-121740300D03*
X69951600Y-127558800D03*
X69951600Y-125058800D03*
X72999600Y-90474800D03*
X75499600Y-90474800D03*
X73253600Y-104698800D03*
X75753600Y-104698800D03*
X59512200Y-47050960D03*
X62012200Y-47050960D03*
X56184800Y-61341000D03*
X53684800Y-61341000D03*
X67056000Y-79629000D03*
X64556000Y-79629000D03*
D11*
X67586860Y-72085200D03*
D24*
X59966860Y-72085200D03*
D11*
X60015120Y-68732400D03*
D24*
X67635120Y-68732400D03*
D15*
X46603920Y-72308720D03*
D16*
X46603920Y-67228720D03*
D20*
X45039280Y-99913440D03*
D21*
X45039280Y-102453440D03*
X45039280Y-104993440D03*
X45039280Y-107533440D03*
X45039280Y-110073440D03*
X45039280Y-112613440D03*
X45039280Y-115153440D03*
X45039280Y-117693440D03*
D25*
X68719700Y-51828700D03*
D26*
X53479700Y-51828700D03*
D25*
X53644800Y-56819800D03*
D26*
X68884800Y-56819800D03*
D27*
X67335400Y-75829160D03*
D28*
X59715400Y-75829160D03*
D12*
X67503040Y-65379600D03*
D24*
X59883040Y-65379600D03*
D12*
X59829700Y-61696600D03*
D24*
X67449700Y-61696600D03*
D29*
X90876100Y-58740200D02*
X90876100Y-55770800D01*
X90876100Y-55770800D02*
X97320100Y-49326800D01*
X97320100Y-49326800D02*
X100749100Y-49326800D01*
X100749100Y-49326800D02*
X103987600Y-52565300D01*
X90939600Y-73954800D02*
X90939600Y-73068200D01*
X90939600Y-73068200D02*
X97193100Y-64376300D01*
X97193100Y-64376300D02*
X99669600Y-64376300D01*
X99669600Y-64376300D02*
X103860600Y-68567300D01*
D30*
X134793900Y-45000000D02*
X135000000Y-45000000D01*
D29*
X133426200Y-129921000D02*
X133629400Y-130124200D01*
X133629400Y-129895600D02*
X133629400Y-130124200D01*
X90949760Y-115895280D02*
X90497640Y-116441240D01*
X90497640Y-116441240D02*
X97066100Y-111493300D01*
X97066100Y-111493300D02*
X99796600Y-111493300D01*
X99796600Y-111493300D02*
X103670100Y-115366800D01*
X91005640Y-128412400D02*
X94625000Y-128412400D01*
X94625000Y-128412400D02*
X96875600Y-126161800D01*
X96875600Y-126161800D02*
X99237800Y-126161800D01*
X99237800Y-126161800D02*
X103936800Y-130860800D01*
X109333600Y-84315300D02*
X109333600Y-86245000D01*
X111467900Y-88379300D02*
X115671600Y-88379300D01*
X109333600Y-86245000D02*
X111467900Y-88379300D01*
X115671600Y-88379300D02*
X118605300Y-88379300D01*
X118605300Y-88379300D02*
X122250200Y-84734400D01*
X109460600Y-100126800D02*
X112433100Y-100126800D01*
X112433100Y-100126800D02*
X115671600Y-103365300D01*
X115671600Y-103365300D02*
X118935500Y-103365300D01*
X118935500Y-103365300D02*
X122377200Y-99923600D01*
X109270100Y-115366800D02*
X109270100Y-117347300D01*
X110972600Y-119049800D02*
X115735100Y-119049800D01*
X109270100Y-117347300D02*
X110972600Y-119049800D01*
X115735100Y-119049800D02*
X118465600Y-119049800D01*
X118465600Y-119049800D02*
X122453400Y-115062000D01*
X109536800Y-130860800D02*
X109536800Y-131025200D01*
X109536800Y-131025200D02*
X112242600Y-133731000D01*
X112242600Y-133731000D02*
X115951000Y-133731000D01*
X122428000Y-129921000D02*
X119761000Y-129921000D01*
X119761000Y-129921000D02*
X115951000Y-133731000D01*
X83032600Y-76657200D02*
X83032600Y-61056700D01*
X83032600Y-61056700D02*
X80716100Y-58740200D01*
X80845640Y-128412400D02*
X83449140Y-133563340D01*
X83449140Y-133563340D02*
X83921600Y-134035800D01*
X73190100Y-132323800D02*
X73190100Y-132511800D01*
X73190100Y-132511800D02*
X74264520Y-134950200D01*
X74264520Y-134950200D02*
X83921600Y-134035800D01*
X80789760Y-115895280D02*
X80789760Y-116552960D01*
X80789760Y-116552960D02*
X83032600Y-118795800D01*
X80779600Y-101386800D02*
X81308100Y-101386800D01*
X81308100Y-101386800D02*
X83032600Y-103111300D01*
X80779600Y-87162800D02*
X80779600Y-87523300D01*
X80779600Y-87523300D02*
X83032600Y-89776300D01*
X80845640Y-128412400D02*
X81480500Y-128412400D01*
X81480500Y-128412400D02*
X83032600Y-126860300D01*
X83032600Y-76657200D02*
X80779600Y-74404200D01*
X83032600Y-126860300D02*
X83032600Y-118795800D01*
X83032600Y-118795800D02*
X83032600Y-103111300D01*
X83032600Y-103111300D02*
X83032600Y-89776300D01*
X83032600Y-89776300D02*
X83032600Y-76657200D01*
X80779600Y-74404200D02*
X80779600Y-73954800D01*
X80789760Y-115895280D02*
X80911540Y-115895280D01*
X80845640Y-128412400D02*
X80904240Y-128260000D01*
X80789760Y-115895280D02*
X80789760Y-116446280D01*
X80779600Y-101386800D02*
X81295400Y-101386800D01*
X80779600Y-87162800D02*
X80779600Y-87942400D01*
D30*
X70967600Y-63652400D02*
X70967600Y-60868700D01*
X70967600Y-60868700D02*
X73096100Y-58740200D01*
X70967600Y-63652400D02*
X71882000Y-63652400D01*
X70967600Y-77520800D02*
X70967600Y-63652400D01*
X69507100Y-78981300D02*
X70967600Y-77520800D01*
X69507100Y-89522300D02*
X69507100Y-78981300D01*
X68872100Y-90157300D02*
X69507100Y-89522300D01*
X68872100Y-103746300D02*
X68872100Y-90157300D01*
X67856100Y-104762300D02*
X68872100Y-103746300D01*
X67856100Y-106032300D02*
X67856100Y-104762300D01*
X67094100Y-106794300D02*
X67856100Y-106032300D01*
X71882000Y-63652400D02*
X73253600Y-62280800D01*
X67094100Y-107302300D02*
X67094100Y-106794300D01*
X73317100Y-76695300D02*
X73317100Y-74112300D01*
X67360800Y-109220000D02*
X68567300Y-109220000D01*
X68567300Y-109220000D02*
X69062600Y-108724700D01*
X69062600Y-108724700D02*
X69062600Y-104889300D01*
X69062600Y-104889300D02*
X70078600Y-103873300D01*
X70078600Y-103873300D02*
X70078600Y-90411300D01*
X70078600Y-90411300D02*
X70904100Y-89585800D01*
X70904100Y-89585800D02*
X70904100Y-79108300D01*
X70904100Y-79108300D02*
X73317100Y-76695300D01*
X73317100Y-74112300D02*
X73159600Y-73954800D01*
X70396100Y-117462300D02*
X71602740Y-117462300D01*
X71602740Y-117462300D02*
X73169760Y-115895280D01*
X70078600Y-119240300D02*
X70078600Y-117779800D01*
X67094100Y-117462300D02*
X70396100Y-117462300D01*
X70078600Y-117779800D02*
X70396100Y-117462300D01*
X69951600Y-127558800D02*
X72372040Y-127558800D01*
X72372040Y-127558800D02*
X73225640Y-128412400D01*
X67284600Y-120002300D02*
X68491100Y-121208800D01*
X68491100Y-126098300D02*
X69951600Y-127558800D01*
X68491100Y-121208800D02*
X68491100Y-126098300D01*
X67094100Y-120002300D02*
X67284600Y-120002300D01*
X67094100Y-112382300D02*
X69253100Y-112382300D01*
X69253100Y-112382300D02*
X70205600Y-111429800D01*
X70205600Y-111429800D02*
X70205600Y-105905300D01*
X70205600Y-105905300D02*
X71031100Y-105079800D01*
X71031100Y-105079800D02*
X71031100Y-92443300D01*
X71031100Y-92443300D02*
X72999600Y-90474800D01*
X72999600Y-90474800D02*
X72999600Y-87322800D01*
X72999600Y-87322800D02*
X73159600Y-87162800D01*
X67094100Y-114922300D02*
X70523100Y-114922300D01*
X70523100Y-114922300D02*
X71158100Y-114287300D01*
X71158100Y-114287300D02*
X71158100Y-106794300D01*
X71158100Y-106794300D02*
X73253600Y-104698800D01*
X73253600Y-104698800D02*
X73253600Y-101480800D01*
X73253600Y-101480800D02*
X73159600Y-101386800D01*
D29*
X97066100Y-80759300D02*
X100177600Y-80759300D01*
X100177600Y-80759300D02*
X103733600Y-84315300D01*
X90939600Y-87162800D02*
X91117400Y-86708000D01*
X91117400Y-86708000D02*
X97066100Y-80759300D01*
X91033600Y-100634800D02*
X96812100Y-95681800D01*
X103860600Y-100126800D02*
X101257100Y-100126800D01*
X101257100Y-100126800D02*
X96812100Y-95681800D01*
X109587600Y-52565300D02*
X109587600Y-53707600D01*
X109587600Y-53707600D02*
X112128300Y-56248300D01*
X112128300Y-56248300D02*
X115989100Y-56248300D01*
X115989100Y-56248300D02*
X118338600Y-56248300D01*
X118338600Y-56248300D02*
X121894600Y-52692300D01*
X115671600Y-71932800D02*
X117373400Y-71932800D01*
X117373400Y-71932800D02*
X121183400Y-68122800D01*
X121183400Y-68122800D02*
X122148600Y-68122800D01*
X109460600Y-68567300D02*
X109460600Y-68617400D01*
X109460600Y-68617400D02*
X112776000Y-71932800D01*
X112776000Y-71932800D02*
X115671600Y-71932800D01*
X127494600Y-52692300D02*
X132880100Y-52692300D01*
X132880100Y-52692300D02*
X134531100Y-51041300D01*
X90876100Y-51140200D02*
X93990160Y-48028860D01*
X129971800Y-46482000D02*
X134531100Y-51041300D01*
X97566480Y-46548040D02*
X129971800Y-46482000D01*
X93990160Y-48028860D02*
X97566480Y-46548040D01*
X90939600Y-66354800D02*
X90939600Y-65524400D01*
X90939600Y-65524400D02*
X92252800Y-61772800D01*
X92252800Y-61772800D02*
X131038600Y-61772800D01*
X131038600Y-61772800D02*
X134162800Y-64897000D01*
X127748600Y-68122800D02*
X128905000Y-68122800D01*
X128905000Y-68122800D02*
X132130800Y-64897000D01*
X132130800Y-64897000D02*
X134162800Y-64897000D01*
X127850200Y-84734400D02*
X129260600Y-84734400D01*
X129260600Y-84734400D02*
X133807200Y-80187800D01*
X90939600Y-79562800D02*
X90939600Y-78707000D01*
X90939600Y-78707000D02*
X93243400Y-77597000D01*
X93243400Y-77597000D02*
X131216400Y-77597000D01*
X131216400Y-77597000D02*
X133807200Y-80187800D01*
X127977200Y-99923600D02*
X129260600Y-99923600D01*
X129260600Y-99923600D02*
X133502400Y-95681800D01*
X90939600Y-93786800D02*
X90939600Y-93566000D01*
X90939600Y-93566000D02*
X93268800Y-92735400D01*
X93268800Y-92735400D02*
X130556000Y-92735400D01*
X130556000Y-92735400D02*
X133502400Y-95681800D01*
X90949760Y-108295280D02*
X130444080Y-108295280D01*
X130444080Y-108295280D02*
X133477000Y-111328200D01*
X128053400Y-115062000D02*
X129743200Y-115062000D01*
X129743200Y-115062000D02*
X133477000Y-111328200D01*
X128028000Y-129921000D02*
X128028000Y-124383100D01*
X128028000Y-124383100D02*
X127127000Y-123482100D01*
X91005640Y-120812400D02*
X92631100Y-120812400D01*
X132727700Y-123482100D02*
X133616700Y-122593100D01*
X95300800Y-123482100D02*
X127127000Y-123482100D01*
X127127000Y-123482100D02*
X132727700Y-123482100D01*
X92631100Y-120812400D02*
X95300800Y-123482100D01*
X91005640Y-120812400D02*
X91005640Y-120058200D01*
X91005640Y-120058200D02*
X91516200Y-120533160D01*
D31*
X57124600Y-136067800D02*
X58521600Y-136067800D01*
X60109100Y-134480300D02*
X61760100Y-134721600D01*
X58521600Y-136067800D02*
X60109100Y-134480300D01*
D29*
X55981600Y-130606800D02*
X55981600Y-131114800D01*
X55981600Y-131114800D02*
X57124600Y-132257800D01*
X57124600Y-132257800D02*
X57124600Y-136067800D01*
X46520100Y-123177300D02*
X52171600Y-123177300D01*
X55981600Y-126987300D02*
X55981600Y-130606800D01*
X52171600Y-123177300D02*
X55981600Y-126987300D01*
D30*
X53644800Y-56819800D02*
X53644800Y-61301000D01*
X53644800Y-61301000D02*
X53684800Y-61341000D01*
X53479700Y-51828700D02*
X53479700Y-56654700D01*
X53479700Y-56654700D02*
X53644800Y-56819800D01*
X53479700Y-51828700D02*
X54734460Y-51828700D01*
X54734460Y-51828700D02*
X59512200Y-47050960D01*
D29*
X49789080Y-117012720D02*
X48839120Y-117012720D01*
X48158400Y-117693440D02*
X45039280Y-117693440D01*
X48839120Y-117012720D02*
X48158400Y-117693440D01*
X42307510Y-130585210D02*
X42307510Y-117687090D01*
X42307510Y-117687090D02*
X45039280Y-117693440D01*
D30*
X63817500Y-130759200D02*
X63957200Y-130759200D01*
X63957200Y-130759200D02*
X67094100Y-127622300D01*
X75753600Y-62280800D02*
X75753600Y-53797700D01*
X75753600Y-53797700D02*
X73096100Y-51140200D01*
X75817100Y-67574800D02*
X75817100Y-62344300D01*
X73159600Y-66354800D02*
X74597100Y-66354800D01*
X75817100Y-76695300D02*
X75817100Y-67574800D01*
X74597100Y-66354800D02*
X75817100Y-67574800D01*
X75499600Y-81417800D02*
X75499600Y-77012800D01*
X73644600Y-79562800D02*
X75499600Y-81417800D01*
X75499600Y-90474800D02*
X75499600Y-81417800D01*
X75753600Y-95705300D02*
X75753600Y-90728800D01*
X73835100Y-93786800D02*
X75753600Y-95705300D01*
X75753600Y-104698800D02*
X75753600Y-95705300D01*
X74031000Y-120812400D02*
X75412600Y-119430800D01*
X75412600Y-119430800D02*
X75412600Y-110538120D01*
X75412600Y-110538120D02*
X75350440Y-110475960D01*
X75350440Y-110475960D02*
X75350440Y-105101960D01*
X75350440Y-110475960D02*
X73169760Y-108295280D01*
X75539600Y-123126360D02*
X73225640Y-120812400D01*
X69443600Y-130479800D02*
X74333100Y-130479800D01*
X74333100Y-130479800D02*
X75539600Y-129273300D01*
X75539600Y-129273300D02*
X75539600Y-123126360D01*
X69951600Y-125058800D02*
X72007100Y-125058800D01*
X72007100Y-125058800D02*
X73225640Y-123840260D01*
X73225640Y-123840260D02*
X73225640Y-120812400D01*
X70078600Y-121740300D02*
X72297740Y-121740300D01*
X72297740Y-121740300D02*
X73225640Y-120812400D01*
X67094100Y-127622300D02*
X67094100Y-128130300D01*
X67094100Y-128130300D02*
X69443600Y-130479800D01*
X61760100Y-137261600D02*
X61823600Y-137261600D01*
X61823600Y-137261600D02*
X69443600Y-130479800D01*
D31*
X52044600Y-136067800D02*
X52044600Y-134797800D01*
X42773600Y-131051300D02*
X42307510Y-130585210D01*
X42307510Y-130585210D02*
X42265600Y-130543300D01*
X48298100Y-131051300D02*
X42773600Y-131051300D01*
X52044600Y-134797800D02*
X48298100Y-131051300D01*
X52044600Y-136067800D02*
X52044600Y-137337800D01*
X60871100Y-138988800D02*
X61760100Y-137261600D01*
X53695600Y-138988800D02*
X60871100Y-138988800D01*
X52044600Y-137337800D02*
X53695600Y-138988800D01*
D30*
X75817100Y-62344300D02*
X75753600Y-62280800D01*
X73159600Y-79562800D02*
X73644600Y-79562800D01*
X75499600Y-77012800D02*
X75817100Y-76695300D01*
X73159600Y-93786800D02*
X73835100Y-93786800D01*
X75753600Y-90728800D02*
X75499600Y-90474800D01*
X75350440Y-105101960D02*
X75753600Y-104698800D01*
X73225640Y-120812400D02*
X74031000Y-120812400D01*
X73159600Y-66354800D02*
X73967500Y-66354800D01*
X73159600Y-79562800D02*
X73159600Y-79037200D01*
X73159600Y-93786800D02*
X73159600Y-93769200D01*
X73169760Y-108295280D02*
X73169760Y-107706180D01*
X73096100Y-51140200D02*
X73096100Y-51722000D01*
X73322340Y-120660000D02*
X73225640Y-120812400D01*
X59966860Y-72085200D02*
X46827440Y-72085200D01*
X46827440Y-72085200D02*
X46603920Y-72308720D01*
X60015120Y-68732400D02*
X60015120Y-72036940D01*
X60015120Y-72036940D02*
X59966860Y-72085200D01*
X59883040Y-65379600D02*
X59883040Y-68600320D01*
X59883040Y-68600320D02*
X60015120Y-68732400D01*
X59829700Y-61696600D02*
X59829700Y-65326260D01*
X59829700Y-65326260D02*
X59883040Y-65379600D01*
X56184800Y-61341000D02*
X59474100Y-61341000D01*
X59474100Y-61341000D02*
X59829700Y-61696600D01*
X62012200Y-47050960D02*
X63941960Y-47050960D01*
X63941960Y-47050960D02*
X68719700Y-51828700D01*
X68719700Y-51828700D02*
X68719700Y-51447700D01*
X68719700Y-51447700D02*
X71132700Y-49034700D01*
X71132700Y-49034700D02*
X72870100Y-49034700D01*
X72870100Y-49034700D02*
X74587100Y-47317700D01*
D29*
X80716100Y-51140200D02*
X80716100Y-49512200D01*
X80716100Y-49512200D02*
X79677300Y-48473400D01*
X74587100Y-47317700D02*
X79677300Y-48473400D01*
X79677300Y-48473400D02*
X87957620Y-48473400D01*
X87957620Y-48473400D02*
X90906600Y-45643800D01*
X80779600Y-66354800D02*
X80779600Y-65361800D01*
X80779600Y-65361800D02*
X78079600Y-62661800D01*
X80779600Y-79562800D02*
X80312100Y-79562800D01*
X80312100Y-79562800D02*
X78079600Y-77330300D01*
X80779600Y-93786800D02*
X80779600Y-92984300D01*
X80779600Y-92984300D02*
X78079600Y-90284300D01*
X78079600Y-105905300D02*
X78399780Y-105905300D01*
X78399780Y-105905300D02*
X80789760Y-108295280D01*
X80716100Y-51140200D02*
X79758700Y-51140200D01*
X79758700Y-51140200D02*
X78079600Y-52819300D01*
X78079600Y-52819300D02*
X78079600Y-62661800D01*
X78079600Y-118046360D02*
X80845640Y-120812400D01*
X78079600Y-62661800D02*
X78079600Y-77330300D01*
X78079600Y-77330300D02*
X78079600Y-90284300D01*
X78079600Y-90284300D02*
X78079600Y-105905300D01*
X78079600Y-105905300D02*
X78079600Y-118046360D01*
X80845640Y-120812400D02*
X80124140Y-120812400D01*
X80779600Y-66354800D02*
X80779600Y-66225400D01*
X80779600Y-79562800D02*
X80578800Y-79562800D01*
X80789760Y-108295280D02*
X80789760Y-107454680D01*
D30*
X67335400Y-75829160D02*
X67335400Y-79349600D01*
X67335400Y-79349600D02*
X67056000Y-79629000D01*
X67586860Y-72085200D02*
X67586860Y-75577700D01*
X67586860Y-75577700D02*
X67335400Y-75829160D01*
X67503040Y-65379600D02*
X66832480Y-65379600D01*
X66832480Y-65379600D02*
X65714880Y-66497200D01*
X65714880Y-66497200D02*
X65714880Y-70213220D01*
X65714880Y-70213220D02*
X67586860Y-72085200D01*
X45039280Y-102453440D02*
X52217320Y-102453440D01*
X57066180Y-107302300D02*
X59474100Y-107302300D01*
X52217320Y-102453440D02*
X57066180Y-107302300D01*
X45039280Y-104993440D02*
X51572160Y-104993440D01*
X56421020Y-109842300D02*
X59474100Y-109842300D01*
X51572160Y-104993440D02*
X56421020Y-109842300D01*
X45039280Y-107533440D02*
X51988720Y-107533440D01*
X56837580Y-112382300D02*
X59474100Y-112382300D01*
X51988720Y-107533440D02*
X56837580Y-112382300D01*
X45039280Y-110073440D02*
X52014120Y-110073440D01*
X56862980Y-114922300D02*
X59474100Y-114922300D01*
X52014120Y-110073440D02*
X56862980Y-114922300D01*
X45039280Y-112613440D02*
X52821840Y-112613440D01*
X56106060Y-117462300D02*
X59474100Y-117462300D01*
X55097680Y-116453920D02*
X56106060Y-117462300D01*
X55097680Y-114889280D02*
X55097680Y-116453920D01*
X52821840Y-112613440D02*
X55097680Y-114889280D01*
X45039280Y-115153440D02*
X53070760Y-115153440D01*
X55069740Y-120002300D02*
X59474100Y-120002300D01*
X53980080Y-118912640D02*
X55069740Y-120002300D01*
X53980080Y-116062760D02*
X53980080Y-118912640D01*
X53070760Y-115153440D02*
X53980080Y-116062760D01*
M02*
