G04 #@! TF.FileFunction,Soldermask,Bot*
%FSLAX46Y46*%
G04 Gerber Fmt 4.6, Leading zero omitted, Abs format (unit mm)*
G04 Created by KiCad (PCBNEW 4.0.7) date 12/21/19 19:13:45*
%MOMM*%
%LPD*%
G01*
G04 APERTURE LIST*
%ADD10C,0.100000*%
%ADD11C,2.400000*%
%ADD12C,2.800000*%
%ADD13O,2.800000X2.800000*%
%ADD14R,2.000000X2.000000*%
%ADD15C,2.000000*%
%ADD16C,1.900000*%
%ADD17C,2.500000*%
%ADD18R,3.400000X3.400000*%
%ADD19C,3.400000*%
%ADD20C,5.400000*%
%ADD21C,2.200000*%
%ADD22R,2.100000X2.100000*%
%ADD23O,2.100000X2.100000*%
%ADD24R,2.200000X2.200000*%
%ADD25O,2.200000X2.200000*%
%ADD26O,2.000000X2.000000*%
%ADD27R,2.600000X2.600000*%
%ADD28O,2.600000X2.600000*%
%ADD29R,3.000000X2.400000*%
%ADD30O,3.000000X2.400000*%
%ADD31C,3.000000*%
G04 APERTURE END LIST*
D10*
D11*
X109982000Y-119888000D03*
X102482000Y-119888000D03*
X127762000Y-128524000D03*
X120262000Y-128524000D03*
D12*
X66802000Y-80010000D03*
D13*
X51562000Y-80010000D03*
D14*
X49789080Y-117012720D03*
D15*
X52289080Y-117012720D03*
D16*
X68326000Y-48194000D03*
X65786000Y-48194000D03*
D17*
X63246000Y-43114000D03*
X73406000Y-43114000D03*
D18*
X56896000Y-45466000D03*
D19*
X51816000Y-45466000D03*
D16*
X73190100Y-132323800D03*
X75730100Y-132323800D03*
D17*
X78270100Y-137403800D03*
X68110100Y-137403800D03*
D18*
X83921600Y-134035800D03*
D19*
X89001600Y-134035800D03*
D20*
X45000000Y-135000000D03*
X135000000Y-135000000D03*
X135000000Y-45000000D03*
X45000000Y-45000000D03*
D11*
X97320100Y-49326800D03*
X97320100Y-56826800D03*
X97193100Y-64376300D03*
X97193100Y-71876300D03*
X97282000Y-78994000D03*
X97282000Y-86494000D03*
X96812100Y-95681800D03*
X96812100Y-103181800D03*
X97066100Y-111493300D03*
X97066100Y-118993300D03*
X96774000Y-138430000D03*
X96774000Y-130930000D03*
X115570000Y-46736000D03*
X115570000Y-54236000D03*
X115316000Y-61976000D03*
X115316000Y-69476000D03*
X115316000Y-78486000D03*
X115316000Y-85986000D03*
X115570000Y-94742000D03*
X115570000Y-102242000D03*
X116078000Y-111252000D03*
X116078000Y-118752000D03*
X115316000Y-138430000D03*
X115316000Y-130930000D03*
X134531100Y-51041300D03*
X134531100Y-58541300D03*
X134162800Y-64897000D03*
X134162800Y-72397000D03*
X133807200Y-80187800D03*
X133807200Y-87687800D03*
X133502400Y-95681800D03*
X133502400Y-103181800D03*
X133477000Y-111328200D03*
X133477000Y-118828200D03*
X133350000Y-130556000D03*
X133350000Y-123056000D03*
D21*
X80716100Y-51140200D03*
X90876100Y-51140200D03*
X85796100Y-51140200D03*
X85796100Y-58740200D03*
X80716100Y-58740200D03*
X90876100Y-58740200D03*
X73096100Y-51140200D03*
X73096100Y-58740200D03*
X80779600Y-66354800D03*
X90939600Y-66354800D03*
X85859600Y-66354800D03*
X85859600Y-73954800D03*
X80779600Y-73954800D03*
X90939600Y-73954800D03*
X73159600Y-66354800D03*
X73159600Y-73954800D03*
X80779600Y-79562800D03*
X90939600Y-79562800D03*
X85859600Y-79562800D03*
X85859600Y-87162800D03*
X80779600Y-87162800D03*
X90939600Y-87162800D03*
X73159600Y-79562800D03*
X73159600Y-87162800D03*
X80779600Y-93786800D03*
X90939600Y-93786800D03*
X85859600Y-93786800D03*
X85859600Y-101386800D03*
X80779600Y-101386800D03*
X90939600Y-101386800D03*
X73159600Y-93786800D03*
X73159600Y-101386800D03*
X80789760Y-108295280D03*
X90949760Y-108295280D03*
X85869760Y-108295280D03*
X85869760Y-115895280D03*
X80789760Y-115895280D03*
X90949760Y-115895280D03*
X73169760Y-108295280D03*
X73169760Y-115895280D03*
X80845640Y-120812400D03*
X91005640Y-120812400D03*
X85925640Y-120812400D03*
X85925640Y-128412400D03*
X80845640Y-128412400D03*
X91005640Y-128412400D03*
X73225640Y-120812400D03*
X73225640Y-128412400D03*
D14*
X55981600Y-130606800D03*
D15*
X53481600Y-130606800D03*
D18*
X46520100Y-123177300D03*
D19*
X46520100Y-128257300D03*
D22*
X61760100Y-134721600D03*
D23*
X61760100Y-137261600D03*
D24*
X57124600Y-136067800D03*
D25*
X54584600Y-136067800D03*
X52044600Y-136067800D03*
D14*
X59474100Y-107302300D03*
D26*
X67094100Y-127622300D03*
X59474100Y-109842300D03*
X67094100Y-125082300D03*
X59474100Y-112382300D03*
X67094100Y-122542300D03*
X59474100Y-114922300D03*
X67094100Y-120002300D03*
X59474100Y-117462300D03*
X67094100Y-117462300D03*
X59474100Y-120002300D03*
X67094100Y-114922300D03*
X59474100Y-122542300D03*
X67094100Y-112382300D03*
X59474100Y-125082300D03*
X67094100Y-109842300D03*
X59474100Y-127622300D03*
X67094100Y-107302300D03*
D15*
X63817500Y-130759200D03*
X61317500Y-130759200D03*
X73253600Y-62280800D03*
X75753600Y-62280800D03*
X73317100Y-76695300D03*
X75817100Y-76695300D03*
X70078600Y-119240300D03*
X70078600Y-121740300D03*
X69951600Y-127558800D03*
X69951600Y-125058800D03*
X72999600Y-90474800D03*
X75499600Y-90474800D03*
X73253600Y-104698800D03*
X75753600Y-104698800D03*
X52070000Y-76200000D03*
X54570000Y-76200000D03*
X63431600Y-87800800D03*
X65931600Y-87800800D03*
X64881600Y-101550800D03*
X62381600Y-101550800D03*
D14*
X63231600Y-98400800D03*
D26*
X63231600Y-90780800D03*
D14*
X60181600Y-90850800D03*
D26*
X60181600Y-98470800D03*
D22*
X44958000Y-99314000D03*
D23*
X44958000Y-101854000D03*
X44958000Y-104394000D03*
X44958000Y-106934000D03*
X44958000Y-109474000D03*
X44958000Y-112014000D03*
X44958000Y-114554000D03*
X44958000Y-117094000D03*
D12*
X51562000Y-84328000D03*
D13*
X66802000Y-84328000D03*
D27*
X57150000Y-95250000D03*
D28*
X49530000Y-95250000D03*
D15*
X66231600Y-98600800D03*
D26*
X66231600Y-90980800D03*
D15*
X56896000Y-91948000D03*
D26*
X49276000Y-91948000D03*
D15*
X51257200Y-98298000D03*
X53757200Y-98298000D03*
X51257200Y-101092000D03*
X53757200Y-101092000D03*
X51206400Y-103987600D03*
X53706400Y-103987600D03*
X51155600Y-106578400D03*
X53655600Y-106578400D03*
X51104800Y-109270800D03*
X53604800Y-109270800D03*
X51155600Y-112014000D03*
X53655600Y-112014000D03*
X52578000Y-122478800D03*
X55078000Y-122478800D03*
X48514000Y-80518000D03*
X46014000Y-80518000D03*
X44450000Y-64262000D03*
X41950000Y-64262000D03*
D14*
X45212000Y-76200000D03*
D26*
X45212000Y-68580000D03*
D14*
X42164000Y-56896000D03*
D26*
X49784000Y-56896000D03*
D29*
X44450000Y-85852000D03*
D30*
X44450000Y-88392000D03*
X44450000Y-90932000D03*
X44450000Y-93472000D03*
D15*
X42672000Y-68580000D03*
D26*
X42672000Y-76200000D03*
D15*
X51054000Y-88138000D03*
D26*
X58674000Y-88138000D03*
D15*
X48514000Y-63754000D03*
D26*
X48514000Y-76454000D03*
D15*
X55375000Y-60550000D03*
D26*
X42675000Y-60550000D03*
D15*
X42418000Y-53848000D03*
D26*
X50038000Y-53848000D03*
D15*
X50038000Y-50800000D03*
D26*
X42418000Y-50800000D03*
D19*
X53848000Y-56134000D03*
X66548000Y-71120000D03*
X60960000Y-52070000D03*
X60960000Y-60706000D03*
X59690000Y-67056000D03*
X60198000Y-75946000D03*
X67564000Y-56134000D03*
X53086000Y-70612000D03*
D11*
X110490000Y-54102000D03*
X102990000Y-54102000D03*
X110236000Y-70104000D03*
X102736000Y-70104000D03*
X109982000Y-87630000D03*
X102482000Y-87630000D03*
X110236000Y-103886000D03*
X102736000Y-103886000D03*
X110490000Y-128778000D03*
X102990000Y-128778000D03*
X128270000Y-54102000D03*
X120770000Y-54102000D03*
X129032000Y-119888000D03*
X121532000Y-119888000D03*
X128270000Y-70358000D03*
X120770000Y-70358000D03*
X128270000Y-87376000D03*
X120770000Y-87376000D03*
X129286000Y-103886000D03*
X121786000Y-103886000D03*
D31*
X103886000Y-47244000D03*
X109486000Y-47244000D03*
X103378000Y-62992000D03*
X108978000Y-62992000D03*
X103378000Y-80518000D03*
X108978000Y-80518000D03*
X103632000Y-95758000D03*
X109232000Y-95758000D03*
X103632000Y-112522000D03*
X109232000Y-112522000D03*
X103886000Y-136398000D03*
X109486000Y-136398000D03*
X121412000Y-47498000D03*
X127012000Y-47498000D03*
X121920000Y-62992000D03*
X127520000Y-62992000D03*
X121412000Y-80264000D03*
X127012000Y-80264000D03*
X122428000Y-94996000D03*
X128028000Y-94996000D03*
X122428000Y-112268000D03*
X128028000Y-112268000D03*
X122174000Y-136398000D03*
X127774000Y-136398000D03*
M02*
