G04 #@! TF.FileFunction,Soldermask,Top*
%FSLAX46Y46*%
G04 Gerber Fmt 4.6, Leading zero omitted, Abs format (unit mm)*
G04 Created by KiCad (PCBNEW 4.0.7) date 11/12/19 23:32:46*
%MOMM*%
%LPD*%
G01*
G04 APERTURE LIST*
%ADD10C,0.100000*%
%ADD11C,2.800000*%
%ADD12O,2.800000X2.800000*%
%ADD13R,2.000000X2.000000*%
%ADD14C,2.000000*%
%ADD15C,3.000000*%
%ADD16C,1.900000*%
%ADD17C,2.500000*%
%ADD18R,3.400000X3.400000*%
%ADD19C,3.400000*%
%ADD20C,5.400000*%
%ADD21C,2.400000*%
%ADD22R,4.400000X3.900000*%
%ADD23C,2.200000*%
%ADD24R,2.100000X2.100000*%
%ADD25O,2.100000X2.100000*%
%ADD26R,2.200000X2.200000*%
%ADD27O,2.200000X2.200000*%
%ADD28O,2.000000X2.000000*%
%ADD29R,2.600000X2.600000*%
%ADD30O,2.600000X2.600000*%
%ADD31R,3.000000X2.400000*%
%ADD32O,3.000000X2.400000*%
G04 APERTURE END LIST*
D10*
D11*
X66802000Y-80010000D03*
D12*
X51562000Y-80010000D03*
D13*
X49789080Y-117012720D03*
D14*
X52289080Y-117012720D03*
D15*
X122148600Y-68122800D03*
X127748600Y-68122800D03*
X103670100Y-115366800D03*
X109270100Y-115366800D03*
D16*
X68326000Y-48194000D03*
X65786000Y-48194000D03*
D17*
X63246000Y-43114000D03*
X73406000Y-43114000D03*
D18*
X56896000Y-45466000D03*
D19*
X51816000Y-45466000D03*
D16*
X73190100Y-132323800D03*
X75730100Y-132323800D03*
D17*
X78270100Y-137403800D03*
X68110100Y-137403800D03*
D18*
X83921600Y-134035800D03*
D19*
X89001600Y-134035800D03*
D20*
X45000000Y-135000000D03*
X135000000Y-135000000D03*
X135000000Y-45000000D03*
X45000000Y-45000000D03*
D15*
X103860600Y-100126800D03*
X109460600Y-100126800D03*
X103936800Y-130860800D03*
X109536800Y-130860800D03*
X121894600Y-52692300D03*
X127494600Y-52692300D03*
X122250200Y-84734400D03*
X127850200Y-84734400D03*
X122377200Y-99923600D03*
X127977200Y-99923600D03*
X122453400Y-115062000D03*
X128053400Y-115062000D03*
X122428000Y-129921000D03*
X128028000Y-129921000D03*
D21*
X97320100Y-49326800D03*
X97320100Y-56826800D03*
D22*
X97320100Y-50596800D03*
X97320100Y-55676800D03*
D21*
X97193100Y-64376300D03*
X97193100Y-71876300D03*
D22*
X97193100Y-65646300D03*
X97193100Y-70726300D03*
D21*
X97066100Y-80759300D03*
X97066100Y-88259300D03*
D22*
X97066100Y-82029300D03*
X97066100Y-87109300D03*
D21*
X96812100Y-95681800D03*
X96812100Y-103181800D03*
D22*
X96812100Y-96951800D03*
X96812100Y-102031800D03*
D21*
X97066100Y-111493300D03*
X97066100Y-118993300D03*
D22*
X97066100Y-112763300D03*
X97066100Y-117843300D03*
D21*
X96875600Y-126161800D03*
X96875600Y-133661800D03*
D22*
X96875600Y-127431800D03*
X96875600Y-132511800D03*
D21*
X115989100Y-56248300D03*
X115989100Y-48748300D03*
D22*
X115989100Y-54978300D03*
X115989100Y-49898300D03*
D21*
X115671600Y-71932800D03*
X115671600Y-64432800D03*
D22*
X115671600Y-70662800D03*
X115671600Y-65582800D03*
D21*
X115671600Y-88379300D03*
X115671600Y-80879300D03*
D22*
X115671600Y-87109300D03*
X115671600Y-82029300D03*
D21*
X115671600Y-103365300D03*
X115671600Y-95865300D03*
D22*
X115671600Y-102095300D03*
X115671600Y-97015300D03*
D21*
X115735100Y-119049800D03*
X115735100Y-111549800D03*
D22*
X115735100Y-117779800D03*
X115735100Y-112699800D03*
D21*
X115951000Y-133731000D03*
X115951000Y-126231000D03*
D22*
X115951000Y-132461000D03*
X115951000Y-127381000D03*
D21*
X134531100Y-51041300D03*
X134531100Y-58541300D03*
D22*
X134531100Y-52311300D03*
X134531100Y-57391300D03*
D21*
X134162800Y-64897000D03*
X134162800Y-72397000D03*
D22*
X134162800Y-66167000D03*
X134162800Y-71247000D03*
D21*
X133807200Y-80187800D03*
X133807200Y-87687800D03*
D22*
X133807200Y-81457800D03*
X133807200Y-86537800D03*
D21*
X133502400Y-95681800D03*
X133502400Y-103181800D03*
D22*
X133502400Y-96951800D03*
X133502400Y-102031800D03*
D21*
X133477000Y-111328200D03*
X133477000Y-118828200D03*
D22*
X133477000Y-112598200D03*
X133477000Y-117678200D03*
D21*
X133616700Y-122593100D03*
X133616700Y-130093100D03*
D22*
X133616700Y-123863100D03*
X133616700Y-128943100D03*
D15*
X103987600Y-52565300D03*
X109587600Y-52565300D03*
X103860600Y-68567300D03*
X109460600Y-68567300D03*
X103733600Y-84315300D03*
X109333600Y-84315300D03*
D23*
X80716100Y-51140200D03*
X90876100Y-51140200D03*
X85796100Y-51140200D03*
X85796100Y-58740200D03*
X80716100Y-58740200D03*
X90876100Y-58740200D03*
X73096100Y-51140200D03*
X73096100Y-58740200D03*
X80779600Y-66354800D03*
X90939600Y-66354800D03*
X85859600Y-66354800D03*
X85859600Y-73954800D03*
X80779600Y-73954800D03*
X90939600Y-73954800D03*
X73159600Y-66354800D03*
X73159600Y-73954800D03*
X80779600Y-79562800D03*
X90939600Y-79562800D03*
X85859600Y-79562800D03*
X85859600Y-87162800D03*
X80779600Y-87162800D03*
X90939600Y-87162800D03*
X73159600Y-79562800D03*
X73159600Y-87162800D03*
X80779600Y-93786800D03*
X90939600Y-93786800D03*
X85859600Y-93786800D03*
X85859600Y-101386800D03*
X80779600Y-101386800D03*
X90939600Y-101386800D03*
X73159600Y-93786800D03*
X73159600Y-101386800D03*
X80789760Y-108295280D03*
X90949760Y-108295280D03*
X85869760Y-108295280D03*
X85869760Y-115895280D03*
X80789760Y-115895280D03*
X90949760Y-115895280D03*
X73169760Y-108295280D03*
X73169760Y-115895280D03*
X80845640Y-120812400D03*
X91005640Y-120812400D03*
X85925640Y-120812400D03*
X85925640Y-128412400D03*
X80845640Y-128412400D03*
X91005640Y-128412400D03*
X73225640Y-120812400D03*
X73225640Y-128412400D03*
D13*
X55981600Y-130606800D03*
D14*
X53481600Y-130606800D03*
D18*
X46520100Y-123177300D03*
D19*
X46520100Y-128257300D03*
D24*
X61760100Y-134721600D03*
D25*
X61760100Y-137261600D03*
D26*
X57124600Y-136067800D03*
D27*
X54584600Y-136067800D03*
X52044600Y-136067800D03*
D13*
X59474100Y-107302300D03*
D28*
X67094100Y-127622300D03*
X59474100Y-109842300D03*
X67094100Y-125082300D03*
X59474100Y-112382300D03*
X67094100Y-122542300D03*
X59474100Y-114922300D03*
X67094100Y-120002300D03*
X59474100Y-117462300D03*
X67094100Y-117462300D03*
X59474100Y-120002300D03*
X67094100Y-114922300D03*
X59474100Y-122542300D03*
X67094100Y-112382300D03*
X59474100Y-125082300D03*
X67094100Y-109842300D03*
X59474100Y-127622300D03*
X67094100Y-107302300D03*
D14*
X63817500Y-130759200D03*
X61317500Y-130759200D03*
X73253600Y-62280800D03*
X75753600Y-62280800D03*
X73317100Y-76695300D03*
X75817100Y-76695300D03*
X70078600Y-119240300D03*
X70078600Y-121740300D03*
X69951600Y-127558800D03*
X69951600Y-125058800D03*
X72999600Y-90474800D03*
X75499600Y-90474800D03*
X73253600Y-104698800D03*
X75753600Y-104698800D03*
X52070000Y-76200000D03*
X54570000Y-76200000D03*
X63431600Y-87800800D03*
X65931600Y-87800800D03*
X64881600Y-101550800D03*
X62381600Y-101550800D03*
D13*
X63231600Y-98400800D03*
D28*
X63231600Y-90780800D03*
D13*
X60181600Y-90850800D03*
D28*
X60181600Y-98470800D03*
D24*
X44958000Y-99314000D03*
D25*
X44958000Y-101854000D03*
X44958000Y-104394000D03*
X44958000Y-106934000D03*
X44958000Y-109474000D03*
X44958000Y-112014000D03*
X44958000Y-114554000D03*
X44958000Y-117094000D03*
D11*
X51562000Y-84328000D03*
D12*
X66802000Y-84328000D03*
D29*
X57150000Y-95250000D03*
D30*
X49530000Y-95250000D03*
D14*
X66231600Y-98600800D03*
D28*
X66231600Y-90980800D03*
D14*
X56896000Y-91948000D03*
D28*
X49276000Y-91948000D03*
D14*
X51257200Y-98298000D03*
X53757200Y-98298000D03*
X51257200Y-101092000D03*
X53757200Y-101092000D03*
X51206400Y-103987600D03*
X53706400Y-103987600D03*
X51155600Y-106578400D03*
X53655600Y-106578400D03*
X51104800Y-109270800D03*
X53604800Y-109270800D03*
X51155600Y-112014000D03*
X53655600Y-112014000D03*
X52578000Y-122478800D03*
X55078000Y-122478800D03*
X48514000Y-80518000D03*
X46014000Y-80518000D03*
X44450000Y-64262000D03*
X41950000Y-64262000D03*
D13*
X45212000Y-76200000D03*
D28*
X45212000Y-68580000D03*
D13*
X42164000Y-56896000D03*
D28*
X49784000Y-56896000D03*
D31*
X44450000Y-85852000D03*
D32*
X44450000Y-88392000D03*
X44450000Y-90932000D03*
X44450000Y-93472000D03*
D14*
X42672000Y-68580000D03*
D28*
X42672000Y-76200000D03*
D14*
X51054000Y-88138000D03*
D28*
X58674000Y-88138000D03*
D14*
X48514000Y-63754000D03*
D28*
X48514000Y-76454000D03*
D14*
X55375000Y-60550000D03*
D28*
X42675000Y-60550000D03*
D14*
X42418000Y-53848000D03*
D28*
X50038000Y-53848000D03*
D14*
X50038000Y-50800000D03*
D28*
X42418000Y-50800000D03*
D19*
X53848000Y-56134000D03*
X66548000Y-71120000D03*
X60960000Y-52070000D03*
X60960000Y-60706000D03*
X59690000Y-67056000D03*
X60198000Y-75946000D03*
X67564000Y-56134000D03*
X53086000Y-70612000D03*
M02*
