G04 #@! TF.FileFunction,Soldermask,Bot*
%FSLAX46Y46*%
G04 Gerber Fmt 4.6, Leading zero omitted, Abs format (unit mm)*
G04 Created by KiCad (PCBNEW 4.0.7) date 02/13/19 11:03:37*
%MOMM*%
%LPD*%
G01*
G04 APERTURE LIST*
%ADD10C,0.100000*%
%ADD11C,3.000000*%
%ADD12C,2.400000*%
%ADD13R,2.000000X2.000000*%
%ADD14C,2.000000*%
%ADD15R,2.400000X2.400000*%
%ADD16O,2.000000X2.000000*%
%ADD17R,2.600000X2.600000*%
%ADD18O,2.600000X2.600000*%
%ADD19C,1.900000*%
%ADD20C,2.500000*%
%ADD21R,3.400000X3.400000*%
%ADD22C,3.400000*%
%ADD23R,2.100000X2.100000*%
%ADD24O,2.100000X2.100000*%
%ADD25C,1.400000*%
%ADD26R,1.400000X1.400000*%
%ADD27C,2.800000*%
%ADD28O,2.800000X2.800000*%
%ADD29C,2.200000*%
%ADD30C,1.840000*%
%ADD31C,4.464000*%
%ADD32R,2.200000X2.200000*%
%ADD33O,2.200000X2.200000*%
G04 APERTURE END LIST*
D10*
D11*
X42697400Y-90576400D03*
X48297400Y-90576400D03*
D12*
X112268000Y-69088000D03*
X86868000Y-69088000D03*
X112268000Y-89408000D03*
X86868000Y-89408000D03*
D13*
X124206000Y-83312000D03*
D14*
X126706000Y-83312000D03*
X116840000Y-91186000D03*
X116840000Y-93686000D03*
X124206000Y-78740000D03*
X126706000Y-78740000D03*
X65074800Y-60579000D03*
X65074800Y-63079000D03*
X122707400Y-43967400D03*
X122707400Y-46467400D03*
X67208400Y-56083200D03*
X69708400Y-56083200D03*
X115976400Y-60248800D03*
X118476400Y-60248800D03*
X86410800Y-52222400D03*
X91410800Y-52222400D03*
X114147600Y-52933600D03*
X119147600Y-52933600D03*
X78841600Y-52222400D03*
X83841600Y-52222400D03*
X106527600Y-53086000D03*
X111527600Y-53086000D03*
D13*
X99250500Y-106108500D03*
D14*
X99250500Y-108608500D03*
X108204000Y-61087000D03*
X110704000Y-61087000D03*
D13*
X116814600Y-116459000D03*
D14*
X116814600Y-121459000D03*
D15*
X125806200Y-129794000D03*
D12*
X125806200Y-134794000D03*
D14*
X94526100Y-57086500D03*
X92026100Y-57086500D03*
X103124000Y-68834000D03*
X108124000Y-68834000D03*
X103251000Y-65786000D03*
X108251000Y-65786000D03*
D13*
X124739400Y-120192800D03*
D14*
X124739400Y-117692800D03*
D13*
X123027440Y-92506800D03*
D16*
X123027440Y-100126800D03*
D13*
X119253000Y-89662000D03*
D16*
X126873000Y-89662000D03*
D17*
X127101600Y-103593900D03*
D18*
X119481600Y-103593900D03*
D17*
X113322100Y-99860100D03*
D18*
X113322100Y-92240100D03*
D17*
X137414000Y-90170000D03*
D18*
X137414000Y-97790000D03*
D17*
X136829800Y-120294400D03*
D18*
X129209800Y-120294400D03*
D19*
X55052000Y-58166000D03*
X55052000Y-60706000D03*
D20*
X49972000Y-63246000D03*
X49972000Y-53086000D03*
D21*
X58420000Y-46228000D03*
D22*
X53340000Y-46228000D03*
D19*
X126761200Y-68554600D03*
X126761200Y-66014600D03*
D20*
X131841200Y-63474600D03*
X131841200Y-73634600D03*
D21*
X133223000Y-81026000D03*
D22*
X133223000Y-86106000D03*
D21*
X133858000Y-56896000D03*
D22*
X133858000Y-51816000D03*
D23*
X66484500Y-77851000D03*
D24*
X69024500Y-77851000D03*
X71564500Y-77851000D03*
D23*
X63220600Y-51689000D03*
D24*
X63220600Y-54229000D03*
D23*
X115824000Y-56438800D03*
D24*
X118364000Y-56438800D03*
D23*
X110363000Y-106045000D03*
D24*
X112903000Y-106045000D03*
X115443000Y-106045000D03*
D14*
X65024000Y-74231500D03*
D16*
X75184000Y-74231500D03*
D14*
X70510400Y-42926000D03*
D16*
X70510400Y-53086000D03*
D14*
X102666800Y-42773600D03*
D16*
X102666800Y-52933600D03*
D25*
X118455440Y-84561680D03*
X119725440Y-83291680D03*
D26*
X119725440Y-85831680D03*
D25*
X121221500Y-106934000D03*
X122491500Y-108204000D03*
D26*
X119951500Y-108204000D03*
D25*
X130111500Y-104965500D03*
X131381500Y-103695500D03*
D26*
X131381500Y-106235500D03*
D14*
X119979440Y-100050600D03*
D16*
X119979440Y-92430600D03*
D14*
X126075440Y-92430600D03*
D16*
X126075440Y-100050600D03*
D27*
X84709000Y-85852000D03*
D28*
X72009000Y-85852000D03*
D27*
X72072500Y-81661000D03*
D28*
X84772500Y-81661000D03*
D27*
X62903100Y-70294500D03*
D28*
X75603100Y-70294500D03*
D27*
X75031600Y-56184800D03*
D28*
X75031600Y-43484800D03*
D27*
X98856800Y-55930800D03*
D28*
X98856800Y-43230800D03*
D27*
X91998800Y-48310800D03*
D28*
X79298800Y-48310800D03*
D14*
X66852800Y-42926000D03*
D16*
X66852800Y-53086000D03*
D27*
X118770400Y-49174400D03*
D28*
X106070400Y-49174400D03*
D14*
X102565200Y-56057800D03*
D16*
X112725200Y-56057800D03*
D14*
X132842000Y-109601000D03*
D16*
X125222000Y-109601000D03*
D27*
X136474200Y-124460000D03*
D28*
X123774200Y-124460000D03*
D27*
X104140000Y-110236000D03*
D28*
X116840000Y-110236000D03*
D14*
X130810000Y-90424000D03*
D16*
X130810000Y-98044000D03*
D14*
X136906000Y-116814600D03*
D16*
X129286000Y-116814600D03*
D29*
X101884500Y-99723100D03*
X91724500Y-99723100D03*
X96804500Y-99723100D03*
X96804500Y-92123100D03*
X101884500Y-92123100D03*
X91724500Y-92123100D03*
X109504500Y-99723100D03*
X109504500Y-92123100D03*
D30*
X69646800Y-61823600D03*
X72186800Y-61823600D03*
X74726800Y-61823600D03*
X124104400Y-50711100D03*
X124104400Y-53251100D03*
X124104400Y-55791100D03*
D14*
X81927400Y-74291200D03*
X82027400Y-64491200D03*
X78627400Y-74291200D03*
X78727400Y-64491200D03*
X104695000Y-60134800D03*
X94895000Y-60034800D03*
X104695000Y-63434800D03*
X94895000Y-63334800D03*
D31*
X45000000Y-135000000D03*
X135000000Y-135000000D03*
X135000000Y-45000000D03*
X45000000Y-45000000D03*
D32*
X80467200Y-43992800D03*
D33*
X83007200Y-43992800D03*
X85547200Y-43992800D03*
D32*
X108813600Y-44246800D03*
D33*
X111353600Y-44246800D03*
X113893600Y-44246800D03*
D32*
X136017000Y-104711500D03*
D33*
X136017000Y-107251500D03*
X136017000Y-109791500D03*
D14*
X79019400Y-56413400D03*
X79019400Y-61413400D03*
X83820000Y-57442100D03*
X88820000Y-57442100D03*
X102870000Y-102362000D03*
X107870000Y-102362000D03*
D23*
X85852000Y-93980000D03*
D24*
X85852000Y-96520000D03*
X85852000Y-99060000D03*
D23*
X81915000Y-94043500D03*
D24*
X81915000Y-96583500D03*
X81915000Y-99123500D03*
D12*
X51968400Y-76454000D03*
X59468400Y-76454000D03*
X51295300Y-83261200D03*
X58795300Y-83261200D03*
X59067700Y-90805000D03*
X51567700Y-90805000D03*
D31*
X62814200Y-83375500D03*
X63144400Y-91973400D03*
D11*
X48450500Y-76098400D03*
X42850500Y-76098400D03*
D12*
X50800000Y-118910100D03*
X58300000Y-118910100D03*
X72974200Y-128282700D03*
X80474200Y-128282700D03*
X50520600Y-111315500D03*
X58020600Y-111315500D03*
X62750700Y-128104900D03*
X70250700Y-128104900D03*
X50838100Y-102857300D03*
X58338100Y-102857300D03*
X59639200Y-128104900D03*
X52139200Y-128104900D03*
D31*
X77965300Y-99212400D03*
X90385900Y-105168700D03*
X62217300Y-116509800D03*
X72872600Y-122237500D03*
X62103000Y-104355900D03*
X64122300Y-122288300D03*
D11*
X48056800Y-122542300D03*
X42456800Y-122542300D03*
X72085200Y-132816600D03*
X72085200Y-138416600D03*
X42570400Y-107480100D03*
X48170400Y-107480100D03*
X57861200Y-138417300D03*
X57861200Y-132817300D03*
D12*
X110134400Y-126898400D03*
X117634400Y-126898400D03*
X93040200Y-120192800D03*
X93040200Y-127692800D03*
X106781600Y-126847600D03*
X99281600Y-126847600D03*
X77520800Y-109435900D03*
X85020800Y-109435900D03*
X90360500Y-135509000D03*
X82860500Y-135509000D03*
X73520300Y-100190300D03*
X66020300Y-100190300D03*
D31*
X109423200Y-121005600D03*
X93370400Y-115443000D03*
X100926900Y-121081800D03*
X70408800Y-94322900D03*
D11*
X112801400Y-131838700D03*
X112801400Y-137438700D03*
X82867500Y-120650000D03*
X82867500Y-115050000D03*
X98856800Y-137579100D03*
X98856800Y-131979100D03*
X74142600Y-109994700D03*
X68542600Y-109994700D03*
D31*
X85496400Y-126123700D03*
X105359200Y-116547900D03*
X68643500Y-118592600D03*
X67729100Y-88061800D03*
X64160400Y-110261400D03*
D17*
X134112000Y-97993200D03*
D18*
X134112000Y-90373200D03*
M02*
