G04 #@! TF.FileFunction,Copper,L2,Bot,Signal*
%FSLAX46Y46*%
G04 Gerber Fmt 4.6, Leading zero omitted, Abs format (unit mm)*
G04 Created by KiCad (PCBNEW 4.0.7) date 02/15/19 18:40:02*
%MOMM*%
%LPD*%
G01*
G04 APERTURE LIST*
%ADD10C,0.100000*%
%ADD11C,1.600000*%
%ADD12R,1.600000X1.600000*%
%ADD13C,2.600000*%
%ADD14R,2.000000X2.000000*%
%ADD15C,2.000000*%
%ADD16O,1.600000X1.600000*%
%ADD17R,2.200000X2.200000*%
%ADD18O,2.200000X2.200000*%
%ADD19C,1.500000*%
%ADD20R,3.000000X3.000000*%
%ADD21C,3.000000*%
%ADD22R,1.700000X1.700000*%
%ADD23O,1.700000X1.700000*%
%ADD24C,1.000000*%
%ADD25R,1.000000X1.000000*%
%ADD26C,2.400000*%
%ADD27O,2.400000X2.400000*%
%ADD28C,1.800000*%
%ADD29C,1.440000*%
%ADD30C,5.000000*%
%ADD31R,1.800000X1.800000*%
%ADD32O,1.800000X1.800000*%
%ADD33C,4.064000*%
%ADD34C,2.500000*%
%ADD35C,0.600000*%
%ADD36C,1.500000*%
%ADD37C,1.000000*%
%ADD38C,0.500000*%
G04 APERTURE END LIST*
D10*
D11*
X96621600Y-47802800D03*
X96621600Y-42802800D03*
D12*
X124206000Y-82550000D03*
D11*
X126706000Y-82550000D03*
D13*
X42697400Y-90576400D03*
X48297400Y-90576400D03*
D11*
X116840000Y-91186000D03*
X116840000Y-93686000D03*
X124206000Y-77978000D03*
X126706000Y-77978000D03*
X63093600Y-60502800D03*
X63093600Y-63002800D03*
X129413000Y-43586400D03*
X129413000Y-46086400D03*
X68681600Y-57454800D03*
X66181600Y-57454800D03*
X128244600Y-53421280D03*
X128244600Y-55921280D03*
X93487240Y-42943780D03*
X93487240Y-47943780D03*
X123550680Y-47945040D03*
X118550680Y-47945040D03*
X126847600Y-44424600D03*
X121847600Y-44424600D03*
D12*
X100965000Y-95910400D03*
D11*
X100965000Y-98410400D03*
X92456000Y-52514500D03*
X94956000Y-52514500D03*
D12*
X116814600Y-116459000D03*
D11*
X116814600Y-121459000D03*
D14*
X125806200Y-129794000D03*
D15*
X125806200Y-134794000D03*
D11*
X106781600Y-56438800D03*
X109281600Y-56438800D03*
X103695500Y-62420500D03*
X108695500Y-62420500D03*
X103632000Y-59118500D03*
X108632000Y-59118500D03*
D12*
X124739400Y-120192800D03*
D11*
X124739400Y-117692800D03*
D12*
X123027440Y-92506800D03*
D16*
X123027440Y-100126800D03*
D12*
X119253000Y-89662000D03*
D16*
X126873000Y-89662000D03*
D17*
X127101600Y-103593900D03*
D18*
X119481600Y-103593900D03*
D17*
X109468920Y-89575640D03*
D18*
X109468920Y-81955640D03*
D17*
X137414000Y-90170000D03*
D18*
X137414000Y-97790000D03*
D17*
X136829800Y-120294400D03*
D18*
X129209800Y-120294400D03*
D19*
X52766000Y-58105040D03*
X52766000Y-60645040D03*
D20*
X58420000Y-46228000D03*
D21*
X53340000Y-46228000D03*
D19*
X126761200Y-68554600D03*
X126761200Y-66014600D03*
D20*
X133223000Y-81026000D03*
D21*
X133223000Y-86106000D03*
D20*
X133858000Y-56896000D03*
D21*
X133858000Y-51816000D03*
D22*
X67919600Y-77774800D03*
D23*
X70459600Y-77774800D03*
X72999600Y-77774800D03*
D22*
X64109600Y-53898800D03*
D23*
X64109600Y-51358800D03*
D22*
X119359680Y-51297840D03*
D23*
X119359680Y-53837840D03*
D22*
X110363000Y-106045000D03*
D23*
X112903000Y-106045000D03*
X115443000Y-106045000D03*
D11*
X64109600Y-74218800D03*
D16*
X74269600Y-74218800D03*
D11*
X70459600Y-42722800D03*
D16*
X70459600Y-52882800D03*
D11*
X103352600Y-42138600D03*
D16*
X103352600Y-52298600D03*
D24*
X119761000Y-83820000D03*
X118491000Y-82550000D03*
D25*
X121031000Y-82550000D03*
D24*
X121221500Y-106934000D03*
X122491500Y-108204000D03*
D25*
X119951500Y-108204000D03*
D24*
X130111500Y-104965500D03*
X131381500Y-103695500D03*
D25*
X131381500Y-106235500D03*
D11*
X119979440Y-100050600D03*
D16*
X119979440Y-92430600D03*
D11*
X126075440Y-92430600D03*
D16*
X126075440Y-100050600D03*
D26*
X82651600Y-85902800D03*
D27*
X69951600Y-85902800D03*
D26*
X69951600Y-81711800D03*
D27*
X82651600Y-81711800D03*
D26*
X61188600Y-70408800D03*
D27*
X73888600Y-70408800D03*
D11*
X67157600Y-42722800D03*
D16*
X67157600Y-52882800D03*
D11*
X106060240Y-51186080D03*
D16*
X116220240Y-51186080D03*
D11*
X132842000Y-109601000D03*
D16*
X125222000Y-109601000D03*
D26*
X136474200Y-124460000D03*
D27*
X123774200Y-124460000D03*
D26*
X104140000Y-110236000D03*
D27*
X116840000Y-110236000D03*
D11*
X130810000Y-90424000D03*
D16*
X130810000Y-98044000D03*
D11*
X136906000Y-116814600D03*
D16*
X129286000Y-116814600D03*
D28*
X98193880Y-89799320D03*
X88033880Y-89799320D03*
X93113880Y-89799320D03*
X93113880Y-82199320D03*
X98193880Y-82199320D03*
X88033880Y-82199320D03*
X105813880Y-89799320D03*
X105813880Y-82199320D03*
D29*
X67157600Y-61772800D03*
X69697600Y-61772800D03*
X72237600Y-61772800D03*
X123662440Y-51689000D03*
X123662440Y-54229000D03*
X123662440Y-56769000D03*
D30*
X45000000Y-135000000D03*
X135000000Y-135000000D03*
X135000000Y-45000000D03*
X45000000Y-45000000D03*
D31*
X80822800Y-43891200D03*
D32*
X83362800Y-43891200D03*
X85902800Y-43891200D03*
D31*
X110223300Y-44196000D03*
D32*
X112763300Y-44196000D03*
X115303300Y-44196000D03*
D31*
X136017000Y-104711500D03*
D32*
X136017000Y-107251500D03*
X136017000Y-109791500D03*
D11*
X71729600Y-57708800D03*
X76729600Y-57708800D03*
X84546440Y-51018440D03*
X89546440Y-51018440D03*
X98120200Y-92659200D03*
X103120200Y-92659200D03*
D22*
X93827600Y-94538800D03*
D23*
X93827600Y-97078800D03*
X93827600Y-99618800D03*
D22*
X90017600Y-94538800D03*
D23*
X90017600Y-97078800D03*
X90017600Y-99618800D03*
D33*
X62865000Y-81915000D03*
X63144400Y-92290900D03*
D13*
X48450500Y-76098400D03*
X42850500Y-76098400D03*
D33*
X82296000Y-99517200D03*
X91516200Y-105816400D03*
X62217300Y-116509800D03*
X73012300Y-122428000D03*
X62445900Y-103289100D03*
X63474600Y-122542300D03*
D13*
X48056800Y-122542300D03*
X42456800Y-122542300D03*
X72085200Y-132816600D03*
X72085200Y-138416600D03*
X42570400Y-107480100D03*
X48170400Y-107480100D03*
X57861200Y-138417300D03*
X57861200Y-132817300D03*
D33*
X109753400Y-121234200D03*
X93370400Y-115443000D03*
X99606100Y-121259600D03*
X71589900Y-93268800D03*
D13*
X112801400Y-131838700D03*
X112801400Y-137438700D03*
X82867500Y-120650000D03*
X82867500Y-115050000D03*
X98856800Y-137579100D03*
X98856800Y-131979100D03*
X74142600Y-109994700D03*
X68542600Y-109994700D03*
D33*
X85496400Y-126123700D03*
X105359200Y-116547900D03*
X68643500Y-118592600D03*
X66776600Y-87680800D03*
X64160400Y-110261400D03*
D17*
X134112000Y-97993200D03*
D18*
X134112000Y-90373200D03*
D15*
X72415400Y-99021900D03*
X64915400Y-99021900D03*
X90360500Y-135509000D03*
X82860500Y-135509000D03*
X77520800Y-109435900D03*
X85020800Y-109435900D03*
X105664000Y-126822200D03*
X98164000Y-126822200D03*
X92430600Y-120230900D03*
X92430600Y-127730900D03*
X110134400Y-126898400D03*
X117634400Y-126898400D03*
X58585100Y-128130300D03*
X51085100Y-128130300D03*
X50800000Y-102489000D03*
X58300000Y-102489000D03*
X62395100Y-128130300D03*
X69895100Y-128130300D03*
X51130200Y-111480600D03*
X58630200Y-111480600D03*
X73571100Y-128244600D03*
X81071100Y-128244600D03*
X50965100Y-120091200D03*
X58465100Y-120091200D03*
X58978800Y-92964000D03*
X51478800Y-92964000D03*
X51473100Y-84505800D03*
X58973100Y-84505800D03*
X51968400Y-76454000D03*
X59468400Y-76454000D03*
D11*
X130810000Y-113792000D03*
X128310000Y-113792000D03*
X130302000Y-100584000D03*
X132802000Y-100584000D03*
D17*
X84429600Y-55676800D03*
D18*
X84429600Y-63296800D03*
D17*
X115506500Y-58445400D03*
D18*
X115506500Y-66065400D03*
D17*
X84429600Y-66344800D03*
D18*
X84429600Y-73964800D03*
D17*
X118973600Y-66192400D03*
D18*
X118973600Y-58572400D03*
D15*
X115062000Y-86741000D03*
X114909600Y-82397600D03*
D11*
X125984000Y-86868000D03*
D16*
X118364000Y-86868000D03*
D11*
X89631520Y-47665640D03*
D16*
X79471520Y-47665640D03*
D11*
X116052600Y-47929800D03*
D16*
X105892600Y-47929800D03*
D11*
X74015600Y-52882800D03*
D16*
X74015600Y-42722800D03*
D11*
X99974400Y-52362100D03*
D16*
X99974400Y-42202100D03*
D15*
X79463600Y-72614800D03*
X79563600Y-62814800D03*
X76163600Y-72614800D03*
X76263600Y-62814800D03*
X100440500Y-55131000D03*
X90640500Y-55031000D03*
X100440500Y-58431000D03*
X90640500Y-58331000D03*
D33*
X82143600Y-91998800D03*
X97383600Y-105968800D03*
D34*
X112623600Y-58216800D03*
X87223600Y-58216800D03*
X112623600Y-78536800D03*
X87223600Y-78536800D03*
D35*
X138988800Y-77495400D03*
D36*
X92113100Y-74993500D02*
X92062300Y-74993500D01*
X57594500Y-65163700D02*
X57594500Y-58064400D01*
X59283600Y-66852800D02*
X57594500Y-65163700D01*
X75031600Y-66852800D02*
X59283600Y-66852800D01*
X78333600Y-70154800D02*
X75031600Y-66852800D01*
X87223600Y-70154800D02*
X78333600Y-70154800D01*
X92062300Y-74993500D02*
X87223600Y-70154800D01*
X57594500Y-58064400D02*
X52806640Y-58064400D01*
X52806640Y-58064400D02*
X52766000Y-58105040D01*
X57594500Y-58064400D02*
X57594500Y-47053500D01*
X57594500Y-47053500D02*
X58420000Y-46228000D01*
X92113100Y-74993500D02*
X92113100Y-74815700D01*
D37*
X94837091Y-77717491D02*
X92113100Y-74993500D01*
X94837091Y-86557009D02*
X94837091Y-77717491D01*
X98193880Y-89799320D02*
X98079402Y-89799320D01*
X98079402Y-89799320D02*
X94837091Y-86557009D01*
X94837091Y-86557009D02*
X94818200Y-86538118D01*
X98193880Y-89799320D02*
X98193880Y-90121720D01*
X98193880Y-90121720D02*
X98120200Y-92659200D01*
X98193880Y-89799320D02*
X98181320Y-89799320D01*
X57594500Y-47053500D02*
X58420000Y-46228000D01*
D38*
X119979440Y-100050600D02*
X119786400Y-100050600D01*
X119786400Y-100050600D02*
X116078000Y-96342200D01*
X116078000Y-96342200D02*
X115951000Y-96342200D01*
X115951000Y-96342200D02*
X112268000Y-92659200D01*
X112268000Y-92659200D02*
X103120200Y-92659200D01*
X109468920Y-81955640D02*
X106057560Y-81955640D01*
X106057560Y-81955640D02*
X105813880Y-82199320D01*
X109468920Y-81955640D02*
X109468920Y-82255360D01*
X109468920Y-82255360D02*
X111312960Y-84099400D01*
X116941600Y-84099400D02*
X118491000Y-82550000D01*
X111312960Y-84099400D02*
X116941600Y-84099400D01*
D37*
X106057560Y-81955640D02*
X105813880Y-82199320D01*
D38*
X124206000Y-77978000D02*
X124206000Y-82550000D01*
X118491000Y-82550000D02*
X118491000Y-82042000D01*
X122682000Y-81026000D02*
X124206000Y-82550000D01*
X119507000Y-81026000D02*
X122682000Y-81026000D01*
X118491000Y-82042000D02*
X119507000Y-81026000D01*
X126706000Y-82550000D02*
X126706000Y-77978000D01*
X125603000Y-84455000D02*
X125603000Y-86487000D01*
X125603000Y-86487000D02*
X125984000Y-86868000D01*
X126706000Y-82550000D02*
X126706000Y-83352000D01*
X120396000Y-84455000D02*
X119761000Y-83820000D01*
X125603000Y-84455000D02*
X120396000Y-84455000D01*
X126706000Y-83352000D02*
X125603000Y-84455000D01*
X119761000Y-83820000D02*
X119888000Y-83820000D01*
X119888000Y-83820000D02*
X120142000Y-84074000D01*
X120142000Y-84074000D02*
X120142000Y-88773000D01*
X120142000Y-88773000D02*
X119253000Y-89662000D01*
X119253000Y-89662000D02*
X118364000Y-89662000D01*
X118364000Y-89662000D02*
X116840000Y-91186000D01*
D36*
X74015600Y-52882800D02*
X72491600Y-55676800D01*
X72491600Y-55676800D02*
X71729600Y-57708800D01*
X74015600Y-53030120D02*
X74015600Y-52882800D01*
X76263600Y-62814800D02*
X76228540Y-62814800D01*
X76228540Y-62814800D02*
X76174600Y-63131700D01*
X76174600Y-63131700D02*
X76530200Y-57908200D01*
X76530200Y-57908200D02*
X76729600Y-57708800D01*
X79563600Y-62814800D02*
X79349600Y-53136800D01*
X81721960Y-51018440D02*
X84546440Y-51018440D01*
X79349600Y-53136800D02*
X81721960Y-51018440D01*
X84546440Y-51186080D02*
X84546440Y-51018440D01*
X89546440Y-51018440D02*
X90129360Y-51018440D01*
X90129360Y-51018440D02*
X91031060Y-50368200D01*
X91031060Y-50368200D02*
X98130360Y-50368200D01*
X98130360Y-50368200D02*
X99974400Y-51904900D01*
X99974400Y-51904900D02*
X99974400Y-52362100D01*
D38*
X94691200Y-40589200D02*
X64516000Y-40589200D01*
X120243600Y-40919400D02*
X119913400Y-40589200D01*
X119913400Y-40589200D02*
X94691200Y-40589200D01*
X132638800Y-40919400D02*
X120243600Y-40919400D01*
X61061600Y-61518800D02*
X63093600Y-63002800D01*
X61112400Y-43992800D02*
X61061600Y-61518800D01*
X64516000Y-40589200D02*
X61112400Y-43992800D01*
X131292600Y-44206800D02*
X129413000Y-46086400D01*
X131292600Y-42265600D02*
X131292600Y-44206800D01*
X132664200Y-40894000D02*
X132638800Y-40919400D01*
X132638800Y-40919400D02*
X131292600Y-42265600D01*
X137388600Y-40894000D02*
X132664200Y-40894000D01*
X139039600Y-42545000D02*
X137388600Y-40894000D01*
X139039600Y-77444600D02*
X139039600Y-42545000D01*
X138988800Y-77495400D02*
X139039600Y-77444600D01*
X129413000Y-45745400D02*
X129413000Y-46086400D01*
D36*
X123662440Y-51689000D02*
X123990740Y-51689000D01*
X123990740Y-51689000D02*
X129413000Y-46086400D01*
D38*
X124739400Y-120192800D02*
X124739400Y-121361200D01*
X127838200Y-124460000D02*
X136474200Y-124460000D01*
X124739400Y-121361200D02*
X127838200Y-124460000D01*
X136829800Y-120294400D02*
X136829800Y-116890800D01*
X136829800Y-116890800D02*
X136906000Y-116814600D01*
X136829800Y-120294400D02*
X136829800Y-124104400D01*
X136829800Y-124104400D02*
X136474200Y-124460000D01*
D36*
X63093600Y-63002800D02*
X65379600Y-63042800D01*
X65379600Y-63042800D02*
X67157600Y-61772800D01*
X68681600Y-57454800D02*
X68681600Y-56946800D01*
X68681600Y-56946800D02*
X67157600Y-55422800D01*
X67157600Y-55422800D02*
X67157600Y-52882800D01*
X64109600Y-53898800D02*
X65125600Y-52882800D01*
X65125600Y-52882800D02*
X67157600Y-52882800D01*
X69697600Y-61772800D02*
X69697600Y-60502800D01*
X68681600Y-59486800D02*
X68681600Y-57454800D01*
X69697600Y-60502800D02*
X68681600Y-59486800D01*
X123662440Y-54229000D02*
X123352560Y-54229000D01*
X123352560Y-54229000D02*
X120421400Y-51297840D01*
X120421400Y-51297840D02*
X119359680Y-51297840D01*
X116220240Y-51186080D02*
X119247920Y-51186080D01*
X119247920Y-51186080D02*
X119359680Y-51297840D01*
X123662440Y-54229000D02*
X124922280Y-54229000D01*
X125730000Y-53421280D02*
X128244600Y-53421280D01*
X124922280Y-54229000D02*
X125730000Y-53421280D01*
X84429600Y-55676800D02*
X86684264Y-55676800D01*
X87207932Y-56200468D02*
X87207932Y-56200449D01*
X86684264Y-55676800D02*
X87207932Y-56200468D01*
X90640500Y-58331000D02*
X87337800Y-58331000D01*
X87337800Y-58331000D02*
X87223600Y-58216800D01*
X96621600Y-42802800D02*
X93179647Y-42802800D01*
X93179647Y-42802800D02*
X92751647Y-43230800D01*
X92751647Y-43230800D02*
X92557600Y-43230800D01*
X92557600Y-43230800D02*
X92557600Y-42517695D01*
X83362800Y-43891200D02*
X83362800Y-42693442D01*
X91475560Y-42021760D02*
X92557600Y-42517695D01*
X92557600Y-42517695D02*
X93487240Y-42943780D01*
X84034482Y-42021760D02*
X91475560Y-42021760D01*
X83362800Y-42693442D02*
X84034482Y-42021760D01*
X90640500Y-58331000D02*
X92379700Y-58331000D01*
X96469200Y-62420500D02*
X103695500Y-62420500D01*
X92379700Y-58331000D02*
X96469200Y-62420500D01*
X103695500Y-62420500D02*
X103695500Y-59182000D01*
X103695500Y-59182000D02*
X103632000Y-59118500D01*
X87223600Y-58216800D02*
X87207932Y-56200449D01*
X87207932Y-56200449D02*
X87157560Y-49717960D01*
X83342480Y-45902880D02*
X83362800Y-43891200D01*
X87157560Y-49717960D02*
X83342480Y-45902880D01*
X83362800Y-43891200D02*
X83362800Y-43027600D01*
X89631520Y-47665640D02*
X93181160Y-47637700D01*
X93181160Y-47637700D02*
X93487240Y-47943780D01*
X115506500Y-58445400D02*
X112852200Y-58445400D01*
X112852200Y-58445400D02*
X112623600Y-58216800D01*
X108632000Y-59118500D02*
X111721900Y-59118500D01*
X111721900Y-59118500D02*
X112623600Y-58216800D01*
X114932460Y-59019440D02*
X115506500Y-58445400D01*
X100440500Y-55131000D02*
X108737400Y-53200300D01*
X108737400Y-53200300D02*
X112557560Y-51615340D01*
X108632000Y-59118500D02*
X108632000Y-62357000D01*
X108632000Y-62357000D02*
X108695500Y-62420500D01*
X112524540Y-58315860D02*
X112623600Y-58216800D01*
X112623600Y-58216800D02*
X112557560Y-51615340D01*
X112557560Y-51615340D02*
X112557560Y-44401740D01*
X112557560Y-44401740D02*
X112763300Y-44196000D01*
X121847600Y-44424600D02*
X121847600Y-46241960D01*
X121847600Y-46241960D02*
X123550680Y-47945040D01*
X112763300Y-44196000D02*
X112763300Y-43588940D01*
X112763300Y-43588940D02*
X114416840Y-41932505D01*
X114416840Y-41932505D02*
X118748800Y-41932505D01*
X118748800Y-41932505D02*
X121847600Y-44424600D01*
X118550680Y-47945040D02*
X116067840Y-47945040D01*
X116067840Y-47945040D02*
X116052600Y-47929800D01*
X92456000Y-52514500D02*
X92456000Y-54989753D01*
X92557600Y-54406800D02*
X92557600Y-54987444D01*
X92557600Y-54888153D02*
X92557600Y-54406800D01*
X92456000Y-54989753D02*
X92557600Y-54888153D01*
X96316800Y-77228700D02*
X96316800Y-76352400D01*
X106197400Y-66725800D02*
X106197400Y-56510706D01*
X96316800Y-76352400D02*
X106197400Y-66725800D01*
X116814600Y-116459000D02*
X116535200Y-116459000D01*
X116535200Y-116459000D02*
X112903000Y-112826800D01*
X112903000Y-103479600D02*
X112903000Y-103454200D01*
X104419400Y-103479600D02*
X112903000Y-103479600D01*
X101269800Y-106629200D02*
X104419400Y-103479600D01*
X101269800Y-111480600D02*
X101269800Y-106629200D01*
X102616000Y-112826800D02*
X101269800Y-111480600D01*
X112903000Y-112826800D02*
X102616000Y-112826800D01*
X112903000Y-103454200D02*
X112750600Y-103454200D01*
X112750600Y-103454200D02*
X112903000Y-103454200D01*
X112903000Y-106045000D02*
X112903000Y-103454200D01*
X112903000Y-103454200D02*
X112903000Y-99390200D01*
X109423200Y-95910400D02*
X100965000Y-95910400D01*
X112903000Y-99390200D02*
X109423200Y-95910400D01*
D37*
X100965000Y-95910400D02*
X100965000Y-87807800D01*
X96316800Y-83159600D02*
X96316800Y-77228700D01*
X96316800Y-77228700D02*
X96316800Y-77190600D01*
X100965000Y-87807800D02*
X96316800Y-83159600D01*
D36*
X100440500Y-58431000D02*
X100440500Y-58284100D01*
X100440500Y-58284100D02*
X102704900Y-56883300D01*
X102704900Y-56883300D02*
X106197400Y-56510706D01*
X106197400Y-56510706D02*
X106426000Y-56484405D01*
X106426000Y-56484405D02*
X106781600Y-56438800D01*
X90640500Y-55031000D02*
X92557600Y-54987444D01*
X92557600Y-54987444D02*
X94441640Y-54944640D01*
X97739200Y-57696100D02*
X100440500Y-58431000D01*
X96901000Y-57404000D02*
X97739200Y-57696100D01*
X94441640Y-54944640D02*
X96901000Y-57404000D01*
X123774200Y-124460000D02*
X123774200Y-127762000D01*
X123774200Y-127762000D02*
X125806200Y-129794000D01*
X116814600Y-116459000D02*
X117144800Y-116459000D01*
X117144800Y-116459000D02*
X120396000Y-119710200D01*
X120396000Y-121081800D02*
X123774200Y-124460000D01*
X120396000Y-119710200D02*
X120396000Y-121081800D01*
D38*
X126075440Y-92430600D02*
X126075440Y-91666060D01*
X126075440Y-91666060D02*
X127251460Y-89855040D01*
X126075440Y-92430600D02*
X123103640Y-92430600D01*
X123103640Y-92430600D02*
X123027440Y-92506800D01*
X123027440Y-92506800D02*
X120055640Y-92506800D01*
X120055640Y-92506800D02*
X119979440Y-92430600D01*
X137185400Y-113771680D02*
X130830320Y-113771680D01*
X130830320Y-113771680D02*
X130810000Y-113792000D01*
X137185400Y-113771680D02*
X139252960Y-111704120D01*
X139252960Y-111704120D02*
X139252960Y-105349040D01*
X130810000Y-90424000D02*
X128651000Y-90424000D01*
D37*
X137414000Y-90170000D02*
X137668000Y-90170000D01*
X137668000Y-90170000D02*
X139446000Y-91948000D01*
X137350500Y-107251500D02*
X136017000Y-107251500D01*
X139446000Y-105156000D02*
X139252960Y-105349040D01*
X139252960Y-105349040D02*
X137350500Y-107251500D01*
X139446000Y-91948000D02*
X139446000Y-105156000D01*
X115443000Y-106045000D02*
X119100600Y-106045000D01*
X125031500Y-105664000D02*
X127101600Y-103593900D01*
X119481600Y-105664000D02*
X125031500Y-105664000D01*
X119100600Y-106045000D02*
X119481600Y-105664000D01*
X133223000Y-81026000D02*
X135191500Y-81026000D01*
X137604500Y-83439000D02*
X137414000Y-90170000D01*
X135191500Y-81026000D02*
X137604500Y-83439000D01*
X127101600Y-103593900D02*
X127101600Y-103022400D01*
X127101600Y-103022400D02*
X128651000Y-101219000D01*
X128651000Y-85344000D02*
X133223000Y-81026000D01*
X128651000Y-101219000D02*
X128651000Y-90424000D01*
X128651000Y-90424000D02*
X128651000Y-85344000D01*
D38*
X127101600Y-103593900D02*
X127546100Y-103593900D01*
D36*
X127101600Y-103593900D02*
X127693420Y-103593900D01*
D38*
X109468920Y-89575640D02*
X106037560Y-89575640D01*
X106037560Y-89575640D02*
X105813880Y-89799320D01*
X119481600Y-103593900D02*
X120205500Y-103593900D01*
X120205500Y-103593900D02*
X121539000Y-102260400D01*
X111470440Y-89575640D02*
X109468920Y-89575640D01*
X114325400Y-92430600D02*
X111470440Y-89575640D01*
X114325400Y-93573600D02*
X114325400Y-92430600D01*
X116586000Y-95834200D02*
X114325400Y-93573600D01*
X120700800Y-95834200D02*
X116586000Y-95834200D01*
X121539000Y-96672400D02*
X120700800Y-95834200D01*
X121539000Y-102260400D02*
X121539000Y-96672400D01*
D37*
X106037560Y-89575640D02*
X105813880Y-89799320D01*
D38*
X119481600Y-102743000D02*
X119481600Y-103593900D01*
D36*
X98193880Y-82199320D02*
X99245580Y-82199320D01*
X119649200Y-74472800D02*
X126761200Y-68554600D01*
X105778300Y-74472800D02*
X119649200Y-74472800D01*
X99245580Y-82199320D02*
X105778300Y-74472800D01*
X126761200Y-68554600D02*
X127825500Y-68554600D01*
X129349500Y-61404500D02*
X133858000Y-56896000D01*
X129349500Y-67030600D02*
X129349500Y-61404500D01*
X127825500Y-68554600D02*
X129349500Y-67030600D01*
D37*
X93827600Y-94538800D02*
X90017600Y-94538800D01*
X90081100Y-94602300D02*
X90017600Y-94538800D01*
D36*
X67919600Y-77774800D02*
X68554600Y-79425800D01*
X64236600Y-76504800D02*
X61798200Y-75450700D01*
X61798200Y-75450700D02*
X61798200Y-70891400D01*
X67919600Y-77774800D02*
X64236600Y-76504800D01*
X68554600Y-79425800D02*
X68935600Y-80441800D01*
X68935600Y-80441800D02*
X69951600Y-81711800D01*
X61798200Y-70891400D02*
X61188600Y-70408800D01*
X70459600Y-77774800D02*
X69024500Y-75374500D01*
X69024500Y-75374500D02*
X67881500Y-74231500D01*
X67881500Y-74231500D02*
X64109600Y-74218800D01*
X82461100Y-81711800D02*
X79756000Y-77851000D01*
X79756000Y-77851000D02*
X72999600Y-77774800D01*
X82651600Y-81711800D02*
X82461100Y-81711800D01*
X82651600Y-81711800D02*
X82651600Y-85902800D01*
X82651600Y-85902800D02*
X83045160Y-85902800D01*
X83045160Y-85902800D02*
X88033880Y-89799320D01*
D37*
X82651600Y-85902800D02*
X82651600Y-86525240D01*
X82715100Y-85839300D02*
X82651600Y-85902800D01*
X82873850Y-86125050D02*
X82651600Y-85902800D01*
X104140000Y-110236000D02*
X106172000Y-110236000D01*
X106172000Y-110236000D02*
X110363000Y-106045000D01*
D38*
X110363000Y-106045000D02*
X110363000Y-106553000D01*
X110363000Y-106553000D02*
X111696500Y-107886500D01*
X111696500Y-107886500D02*
X119634000Y-107886500D01*
X119634000Y-107886500D02*
X119951500Y-108204000D01*
D36*
X74269600Y-74218800D02*
X76048020Y-72499220D01*
D37*
X74329300Y-74278500D02*
X74269600Y-74218800D01*
D36*
X76048020Y-72499220D02*
X76163600Y-72614800D01*
X79471520Y-47665640D02*
X79471520Y-45242480D01*
X79471520Y-45242480D02*
X80822800Y-43891200D01*
X74015600Y-42722800D02*
X79654400Y-42722800D01*
X79654400Y-42722800D02*
X80822800Y-43891200D01*
X70459600Y-42722800D02*
X74015600Y-42722800D01*
X67157600Y-42722800D02*
X67919600Y-45770800D01*
X68427600Y-47548800D02*
X70459600Y-52882800D01*
X67919600Y-45770800D02*
X68427600Y-47548800D01*
X105892600Y-47929800D02*
X105892600Y-45262800D01*
X105892600Y-45262800D02*
X104876600Y-44246800D01*
X103223060Y-42252900D02*
X99522280Y-42273220D01*
X110111540Y-44155360D02*
X104876600Y-44246800D01*
X104876600Y-44246800D02*
X104140000Y-44246800D01*
X104140000Y-44246800D02*
X103223060Y-42252900D01*
X106060240Y-51186080D02*
X104973120Y-51186080D01*
X104973120Y-51186080D02*
X103223060Y-52412900D01*
D38*
X121221500Y-106934000D02*
X121221500Y-111760000D01*
X121412000Y-111569500D02*
X121412000Y-111760000D01*
X121221500Y-111760000D02*
X121412000Y-111569500D01*
D37*
X116840000Y-110236000D02*
X116840000Y-110998000D01*
X116840000Y-110998000D02*
X117602000Y-111760000D01*
X117602000Y-111760000D02*
X121412000Y-111760000D01*
X121412000Y-111760000D02*
X134048500Y-111760000D01*
X134048500Y-111760000D02*
X136017000Y-109791500D01*
D38*
X125222000Y-109601000D02*
X125476000Y-109601000D01*
X125476000Y-109601000D02*
X130111500Y-104965500D01*
X122491500Y-108204000D02*
X122682000Y-108204000D01*
X122682000Y-108204000D02*
X124079000Y-109601000D01*
X124079000Y-109601000D02*
X125222000Y-109601000D01*
D36*
X93113880Y-82199320D02*
X93113880Y-89799320D01*
D37*
X91313000Y-91440000D02*
X91313000Y-92024200D01*
X91313000Y-85090000D02*
X91313000Y-91440000D01*
X88422320Y-82199320D02*
X91313000Y-85090000D01*
X94843600Y-97078800D02*
X93827600Y-97078800D01*
X96113600Y-95808800D02*
X94843600Y-97078800D01*
X96113600Y-93141800D02*
X96113600Y-95808800D01*
X94970600Y-91998800D02*
X96113600Y-93141800D01*
X91338400Y-91998800D02*
X94970600Y-91998800D01*
X91313000Y-92024200D02*
X91338400Y-91998800D01*
X88033880Y-82199320D02*
X88422320Y-82199320D01*
X88033880Y-82199320D02*
X88033880Y-82255380D01*
X93827600Y-99618800D02*
X91821000Y-105511600D01*
X91821000Y-105511600D02*
X91516200Y-105816400D01*
X90017600Y-91998800D02*
X89001600Y-91998800D01*
X90017600Y-91998800D02*
X90017600Y-87680800D01*
X90017600Y-87680800D02*
X85317790Y-84042238D01*
X85317790Y-84042238D02*
X85445600Y-79044800D01*
X87223600Y-78536800D02*
X85445600Y-79044800D01*
X88366600Y-97078800D02*
X90017600Y-97078800D01*
X87604600Y-96316800D02*
X88366600Y-97078800D01*
X87604600Y-93395800D02*
X87604600Y-96316800D01*
X89001600Y-91998800D02*
X87604600Y-93395800D01*
X90017600Y-99618800D02*
X82435700Y-99377500D01*
X82435700Y-99377500D02*
X82296000Y-99517200D01*
D36*
X48450500Y-76098400D02*
X51612800Y-76098400D01*
X51612800Y-76098400D02*
X51968400Y-76454000D01*
X51968400Y-76454000D02*
X51968400Y-77114400D01*
X51968400Y-77114400D02*
X54051200Y-80251300D01*
X54051200Y-80251300D02*
X59956700Y-80251300D01*
X59956700Y-80251300D02*
X62865000Y-80594200D01*
X62865000Y-80594200D02*
X62865000Y-81915000D01*
X42697400Y-90576400D02*
X42697400Y-89052400D01*
X42697400Y-89052400D02*
X48044100Y-84505800D01*
X42850500Y-76098400D02*
X42850500Y-78816900D01*
X47294800Y-83261200D02*
X48044100Y-84505800D01*
X48044100Y-84505800D02*
X51473100Y-84505800D01*
X42850500Y-78816900D02*
X47294800Y-83261200D01*
X63144400Y-92290900D02*
X60236100Y-91973400D01*
X60236100Y-91973400D02*
X58978800Y-92964000D01*
X48297400Y-90576400D02*
X48297400Y-89510300D01*
X48297400Y-89510300D02*
X50215800Y-88468200D01*
X50215800Y-88468200D02*
X56159400Y-88468200D01*
X56159400Y-88468200D02*
X58978800Y-92964000D01*
X48056800Y-122542300D02*
X48056800Y-121653300D01*
X48056800Y-121653300D02*
X50965100Y-120091200D01*
X50965100Y-120091200D02*
X50965100Y-119392700D01*
X50965100Y-119392700D02*
X52501800Y-116509800D01*
X52501800Y-116509800D02*
X62217300Y-116509800D01*
X48056800Y-122542300D02*
X48056800Y-122161300D01*
X50965100Y-120091200D02*
X50965100Y-120078500D01*
X73571100Y-128244600D02*
X73113900Y-122529600D01*
X73113900Y-122529600D02*
X73012300Y-122428000D01*
X73901300Y-123317000D02*
X73012300Y-122428000D01*
X73571100Y-128244600D02*
X72974200Y-130251200D01*
X72085200Y-131140200D02*
X72085200Y-132816600D01*
X72974200Y-130251200D02*
X72085200Y-131140200D01*
X42456800Y-122542300D02*
X42456800Y-119379300D01*
X42456800Y-119379300D02*
X51130200Y-111480600D01*
X42570400Y-107480100D02*
X42570400Y-108127800D01*
X42570400Y-108127800D02*
X45758100Y-111315500D01*
X45758100Y-111315500D02*
X51130200Y-111480600D01*
X72085200Y-138416600D02*
X67664900Y-138416600D01*
X67664900Y-138416600D02*
X62750700Y-133502400D01*
X57861200Y-138417300D02*
X57861200Y-138391900D01*
X57861200Y-138391900D02*
X62750700Y-133502400D01*
X62750700Y-133502400D02*
X62395100Y-128130300D01*
X62445900Y-103289100D02*
X61264800Y-103289100D01*
X61264800Y-103289100D02*
X59512200Y-106553000D01*
X59512200Y-106553000D02*
X49884900Y-106553000D01*
X50800000Y-102489000D02*
X50838100Y-104812400D01*
X50838100Y-104812400D02*
X49884900Y-106553000D01*
X49884900Y-106553000D02*
X48170400Y-107480100D01*
X58585100Y-128130300D02*
X58432700Y-128130300D01*
X58432700Y-128130300D02*
X57861200Y-129730500D01*
X57861200Y-129730500D02*
X57861200Y-132817300D01*
X58585100Y-128130300D02*
X59639200Y-126047500D01*
X59639200Y-126047500D02*
X62128400Y-122542300D01*
X62128400Y-122542300D02*
X63474600Y-122542300D01*
X109753400Y-121234200D02*
X109753400Y-126517400D01*
X109753400Y-126517400D02*
X110134400Y-126898400D01*
X110134400Y-126898400D02*
X111531400Y-126898400D01*
X112801400Y-128168400D02*
X112801400Y-131838700D01*
X111531400Y-126898400D02*
X112801400Y-128168400D01*
X93370400Y-115443000D02*
X92760800Y-119900700D01*
X92760800Y-119900700D02*
X92430600Y-120230900D01*
X82867500Y-120650000D02*
X91973400Y-120688100D01*
X91973400Y-120688100D02*
X92430600Y-120230900D01*
X98856800Y-137579100D02*
X102692200Y-137579100D01*
X102692200Y-137579100D02*
X106781600Y-133489700D01*
X105664000Y-126822200D02*
X106781600Y-133489700D01*
X110730600Y-137438700D02*
X112801400Y-137438700D01*
X106781600Y-133489700D02*
X110730600Y-137438700D01*
X77520800Y-109435900D02*
X77520800Y-109703300D01*
X77520800Y-109703300D02*
X82867500Y-115050000D01*
X74142600Y-109994700D02*
X76962000Y-109994700D01*
X76962000Y-109994700D02*
X77520800Y-109435900D01*
X95999300Y-131979100D02*
X95999300Y-124866400D01*
X95999300Y-124866400D02*
X99606100Y-121259600D01*
X90360500Y-135509000D02*
X90360500Y-135394700D01*
X90360500Y-135394700D02*
X93776100Y-131979100D01*
X93776100Y-131979100D02*
X95999300Y-131979100D01*
X95999300Y-131979100D02*
X98856800Y-131979100D01*
X99606100Y-121259600D02*
X99212400Y-121259600D01*
X90360500Y-135509000D02*
X90474800Y-135509000D01*
X72415400Y-99021900D02*
X71513700Y-107023600D01*
X71513700Y-107023600D02*
X68542600Y-109994700D01*
X71589900Y-93268800D02*
X71589900Y-96431100D01*
X71589900Y-96431100D02*
X72415400Y-99021900D01*
D38*
X130302000Y-100584000D02*
X130556000Y-102870000D01*
X130556000Y-102870000D02*
X131381500Y-103695500D01*
X130810000Y-98044000D02*
X130556000Y-100330000D01*
X130556000Y-100330000D02*
X130302000Y-100584000D01*
X130302000Y-100584000D02*
X130403600Y-100965000D01*
X131381500Y-103695500D02*
X135001000Y-103695500D01*
X135001000Y-103695500D02*
X136017000Y-104711500D01*
X130937000Y-98171000D02*
X130810000Y-98044000D01*
X130810000Y-98044000D02*
X134048500Y-97980500D01*
X134048500Y-97980500D02*
X134112000Y-98044000D01*
D36*
X84429600Y-63296800D02*
X84429600Y-66344800D01*
X118973600Y-66192400D02*
X115633500Y-66192400D01*
X115633500Y-66192400D02*
X115506500Y-66065400D01*
D38*
X118364000Y-86868000D02*
X115189000Y-86868000D01*
X115189000Y-86868000D02*
X115062000Y-86741000D01*
M02*
