G04 #@! TF.FileFunction,Copper,L2,Bot,Signal*
%FSLAX46Y46*%
G04 Gerber Fmt 4.6, Leading zero omitted, Abs format (unit mm)*
G04 Created by KiCad (PCBNEW 4.0.7) date 10/20/19 19:46:38*
%MOMM*%
%LPD*%
G01*
G04 APERTURE LIST*
%ADD10C,0.100000*%
%ADD11R,2.200000X2.200000*%
%ADD12O,2.200000X2.200000*%
%ADD13C,2.500000*%
%ADD14C,2.400000*%
%ADD15O,2.400000X2.400000*%
%ADD16C,2.600000*%
%ADD17C,1.600000*%
%ADD18R,1.600000X1.600000*%
%ADD19R,2.000000X2.000000*%
%ADD20C,2.000000*%
%ADD21O,1.600000X1.600000*%
%ADD22C,1.500000*%
%ADD23R,3.000000X3.000000*%
%ADD24C,3.000000*%
%ADD25R,1.700000X1.700000*%
%ADD26O,1.700000X1.700000*%
%ADD27C,1.000000*%
%ADD28R,1.000000X1.000000*%
%ADD29C,1.800000*%
%ADD30C,1.440000*%
%ADD31C,5.000000*%
%ADD32C,4.064000*%
%ADD33R,1.800000X1.800000*%
%ADD34O,1.800000X1.800000*%
%ADD35C,0.600000*%
%ADD36C,0.500000*%
%ADD37C,1.500000*%
%ADD38C,1.000000*%
%ADD39C,0.350000*%
G04 APERTURE END LIST*
D10*
D11*
X95605600Y-81521300D03*
D12*
X103225600Y-81521300D03*
D13*
X114655600Y-58724800D03*
X85699600Y-58724800D03*
X114147600Y-77520800D03*
X85699600Y-77520800D03*
D14*
X88747600Y-85648800D03*
D15*
X76047600Y-85648800D03*
D16*
X42570400Y-107480100D03*
X48170400Y-107480100D03*
D17*
X89570560Y-59679840D03*
X89570560Y-54679840D03*
X96324420Y-47800260D03*
X96324420Y-42800260D03*
D18*
X124206000Y-82550000D03*
D17*
X126706000Y-82550000D03*
D16*
X42697400Y-90576400D03*
X48297400Y-90576400D03*
D17*
X116840000Y-91186000D03*
X116840000Y-93686000D03*
X124320300Y-78447900D03*
X126820300Y-78447900D03*
X63093600Y-60502800D03*
X63093600Y-63002800D03*
X129413000Y-43586400D03*
X129413000Y-46086400D03*
X68681600Y-57454800D03*
X66181600Y-57454800D03*
X121132600Y-51358800D03*
X121132600Y-53858800D03*
X93599000Y-42804080D03*
X93599000Y-47804080D03*
X123550680Y-47945040D03*
X118550680Y-47945040D03*
X126847600Y-44424600D03*
X121847600Y-44424600D03*
D18*
X106654600Y-101396800D03*
D17*
X109154600Y-101396800D03*
X107487720Y-59989720D03*
X109987720Y-59989720D03*
D18*
X114909600Y-119430800D03*
D17*
X119909600Y-119430800D03*
D19*
X125806200Y-129794000D03*
D20*
X125806200Y-134794000D03*
D17*
X107457240Y-57277000D03*
X109957240Y-57277000D03*
X92186760Y-59695080D03*
X92186760Y-54695080D03*
D18*
X124739400Y-120192800D03*
D17*
X124739400Y-117692800D03*
D18*
X123027440Y-92506800D03*
D21*
X123027440Y-100126800D03*
D18*
X119253000Y-89662000D03*
D21*
X126873000Y-89662000D03*
D11*
X130911600Y-90220800D03*
D12*
X130911600Y-97840800D03*
D11*
X135229600Y-93268800D03*
D12*
X135229600Y-100888800D03*
D11*
X136753600Y-120954800D03*
D12*
X129133600Y-120954800D03*
D22*
X52766000Y-58105040D03*
X52766000Y-60645040D03*
D23*
X57759600Y-46278800D03*
D24*
X52679600Y-46278800D03*
D22*
X126723100Y-57137300D03*
X126723100Y-54597300D03*
D23*
X133223000Y-81026000D03*
D24*
X133223000Y-86106000D03*
D23*
X133441440Y-72979280D03*
D24*
X133441440Y-67899280D03*
D25*
X76301600Y-77266800D03*
D26*
X78841600Y-77266800D03*
X81381600Y-77266800D03*
D25*
X64109600Y-53898800D03*
D26*
X64109600Y-51358800D03*
D25*
X117830600Y-54152800D03*
D26*
X115290600Y-54152800D03*
D25*
X119989600Y-113080800D03*
D26*
X117449600Y-113080800D03*
X114909600Y-113080800D03*
D17*
X63601600Y-71170800D03*
D21*
X73761600Y-71170800D03*
D17*
X70459600Y-42722800D03*
D21*
X70459600Y-52882800D03*
D17*
X103416100Y-42151300D03*
D21*
X103416100Y-52311300D03*
D27*
X119761000Y-83820000D03*
X118491000Y-82550000D03*
D28*
X121031000Y-82550000D03*
D27*
X125069600Y-113588800D03*
X123799600Y-112318800D03*
D28*
X126339600Y-112318800D03*
D17*
X119979440Y-100050600D03*
D21*
X119979440Y-92430600D03*
D17*
X126075440Y-92430600D03*
D21*
X126075440Y-100050600D03*
D14*
X76047600Y-81330800D03*
D15*
X88747600Y-81330800D03*
D14*
X70967600Y-74726800D03*
D15*
X70967600Y-87426800D03*
D17*
X67157600Y-42722800D03*
D21*
X67157600Y-52882800D03*
D17*
X106060240Y-51186080D03*
D21*
X116220240Y-51186080D03*
D17*
X127101600Y-108508800D03*
D21*
X119481600Y-108508800D03*
D14*
X136474200Y-124460000D03*
D15*
X123774200Y-124460000D03*
D14*
X129895600Y-100888800D03*
D15*
X129895600Y-113588800D03*
D17*
X127101600Y-104952800D03*
D21*
X119481600Y-104952800D03*
D17*
X136753600Y-117652800D03*
D21*
X129133600Y-117652800D03*
D29*
X103215600Y-92920800D03*
X103215600Y-103080800D03*
X103215600Y-98000800D03*
X95615600Y-98000800D03*
X95615600Y-92920800D03*
X95615600Y-103080800D03*
X103215600Y-85300800D03*
X95615600Y-85300800D03*
D30*
X67157600Y-61772800D03*
X69697600Y-61772800D03*
X72237600Y-61772800D03*
X120116600Y-57962800D03*
X120116600Y-60502800D03*
X120116600Y-63042800D03*
D31*
X45000000Y-135000000D03*
X135000000Y-135000000D03*
X135000000Y-45000000D03*
X45000000Y-45000000D03*
D17*
X71729600Y-57708800D03*
X76729600Y-57708800D03*
X84546440Y-51018440D03*
X89546440Y-51018440D03*
X105575100Y-96824800D03*
X110575100Y-96824800D03*
D25*
X89446100Y-100825300D03*
D26*
X89446100Y-103365300D03*
X89446100Y-105905300D03*
D25*
X87985600Y-93713300D03*
D26*
X85445600Y-93713300D03*
X82905600Y-93713300D03*
D32*
X62865000Y-81915000D03*
X63144400Y-92290900D03*
D16*
X48450500Y-76098400D03*
X42850500Y-76098400D03*
D32*
X84175600Y-98602800D03*
X100050600Y-109143800D03*
X62217300Y-116509800D03*
X73012300Y-122428000D03*
X62445900Y-103289100D03*
X63474600Y-122542300D03*
D16*
X48056800Y-122542300D03*
X42456800Y-122542300D03*
X72085200Y-132816600D03*
X72085200Y-138416600D03*
X57861200Y-138417300D03*
X57861200Y-132817300D03*
D32*
X109753400Y-121234200D03*
X93370400Y-115443000D03*
X99606100Y-121259600D03*
X70650100Y-93268800D03*
D16*
X112801400Y-131838700D03*
X112801400Y-137438700D03*
X82867500Y-120650000D03*
X82867500Y-115050000D03*
X98856800Y-137579100D03*
X98856800Y-131979100D03*
X74142600Y-109994700D03*
X68542600Y-109994700D03*
D32*
X85496400Y-126123700D03*
X105359200Y-116547900D03*
X68643500Y-118592600D03*
X66776600Y-87680800D03*
X64160400Y-110261400D03*
D20*
X72415400Y-99021900D03*
X64915400Y-99021900D03*
X90360500Y-135509000D03*
X82860500Y-135509000D03*
X77520800Y-109435900D03*
X85020800Y-109435900D03*
X105664000Y-126822200D03*
X98164000Y-126822200D03*
X92430600Y-120230900D03*
X92430600Y-127730900D03*
X110134400Y-126898400D03*
X117634400Y-126898400D03*
X58585100Y-128130300D03*
X51085100Y-128130300D03*
X50800000Y-102489000D03*
X58300000Y-102489000D03*
X62395100Y-128130300D03*
X69895100Y-128130300D03*
X51130200Y-111480600D03*
X58630200Y-111480600D03*
X73571100Y-128244600D03*
X81071100Y-128244600D03*
X50965100Y-120091200D03*
X58465100Y-120091200D03*
X51495960Y-92679520D03*
X58995960Y-92679520D03*
X51473100Y-84505800D03*
X58973100Y-84505800D03*
X51968400Y-76454000D03*
X59468400Y-76454000D03*
D17*
X137515600Y-90220800D03*
X135015600Y-90220800D03*
D20*
X115062000Y-86741000D03*
X107858560Y-91968320D03*
D17*
X125984000Y-86868000D03*
D21*
X118364000Y-86868000D03*
D17*
X90830400Y-48031400D03*
D21*
X80670400Y-48031400D03*
D17*
X116052600Y-47929800D03*
D21*
X105892600Y-47929800D03*
D17*
X74015600Y-52882800D03*
D21*
X74015600Y-42722800D03*
D17*
X99860100Y-52374800D03*
D21*
X99860100Y-42214800D03*
D20*
X79463600Y-72614800D03*
X79563600Y-62814800D03*
X76163600Y-72614800D03*
X76263600Y-62814800D03*
X104547680Y-56975040D03*
X94747680Y-56875040D03*
X104547680Y-60275040D03*
X94747680Y-60175040D03*
D32*
X78587600Y-98602800D03*
X105511600Y-109143800D03*
D33*
X114401600Y-104952800D03*
D29*
X116941600Y-104952800D03*
D17*
X110845600Y-75107800D03*
D21*
X103225600Y-75107800D03*
D17*
X108242100Y-78346300D03*
D21*
X100622100Y-78346300D03*
D33*
X80797400Y-44373800D03*
D34*
X83337400Y-44373800D03*
X85877400Y-44373800D03*
D33*
X110223300Y-44196000D03*
D34*
X112763300Y-44196000D03*
X115303300Y-44196000D03*
D33*
X135737600Y-106476800D03*
D34*
X135737600Y-109016800D03*
X135737600Y-111556800D03*
D25*
X120777000Y-78867000D03*
D26*
X118237000Y-78867000D03*
D25*
X116395500Y-97459800D03*
D26*
X113855500Y-97459800D03*
D33*
X136232900Y-128803400D03*
D29*
X133692900Y-128803400D03*
D25*
X113352580Y-93878400D03*
D26*
X113352580Y-91338400D03*
D17*
X110642400Y-88905080D03*
D21*
X110642400Y-81285080D03*
D20*
X114833400Y-81955640D03*
D27*
X126212600Y-73919080D03*
X124942600Y-72649080D03*
D28*
X127482600Y-72649080D03*
D17*
X122542300Y-72872600D03*
D21*
X114922300Y-72872600D03*
D17*
X116088160Y-75692000D03*
D21*
X123708160Y-75692000D03*
D35*
X130982720Y-73705720D03*
X109834680Y-79263240D03*
X123057920Y-68681600D03*
X121861580Y-68699380D03*
X118432580Y-68572380D03*
X117210840Y-68587620D03*
X112682020Y-68564760D03*
X111579660Y-68618100D03*
X107213400Y-72961500D03*
X107289600Y-74256900D03*
X107533440Y-80507840D03*
X107487720Y-82085180D03*
X107513120Y-84315300D03*
X107449620Y-87045800D03*
X107162600Y-88188800D03*
X105293160Y-92674440D03*
X104881680Y-93695520D03*
X107320080Y-94000320D03*
X107899200Y-94548960D03*
X109131100Y-96697800D03*
X109067600Y-97650300D03*
X97764600Y-99428300D03*
X97637600Y-96570800D03*
X97193100Y-93840300D03*
X97256600Y-91871800D03*
X96875600Y-90157300D03*
X96685100Y-88950800D03*
X96177100Y-88252300D03*
X95415100Y-87490300D03*
X93700600Y-85966300D03*
X93573600Y-85077300D03*
X93446600Y-83235800D03*
X93510100Y-82156300D03*
X93383100Y-78790800D03*
X93446600Y-77266800D03*
X93446600Y-74853800D03*
X93573600Y-73837800D03*
X93510100Y-71361300D03*
X93065600Y-70789800D03*
X91795600Y-69265800D03*
X91160600Y-68757800D03*
X131610100Y-48183800D03*
X130594100Y-48882300D03*
X128371600Y-50850800D03*
X127736600Y-51803300D03*
X103403400Y-72732900D03*
X105422700Y-65303400D03*
X107734100Y-65227200D03*
X111861600Y-65100200D03*
X113131600Y-65189100D03*
X117132100Y-65125600D03*
X118135400Y-65062100D03*
X121500900Y-65112900D03*
X122796300Y-65036700D03*
X123609100Y-64185800D03*
X123736100Y-62598300D03*
X123990100Y-59677300D03*
X124307600Y-58597800D03*
X92621100Y-103111300D03*
X91732100Y-102095300D03*
X91033600Y-98285300D03*
X90843100Y-96888300D03*
X90462100Y-94411800D03*
X90462100Y-93332300D03*
X88557100Y-91490800D03*
X87668100Y-91173300D03*
X87033100Y-88315800D03*
X86906100Y-87172800D03*
X86906100Y-83870800D03*
X86906100Y-82537300D03*
X87033100Y-79235300D03*
X100749100Y-101777800D03*
X99923600Y-102285800D03*
X96875600Y-104444800D03*
X95351600Y-104698800D03*
X101511100Y-115493800D03*
X100749100Y-115239800D03*
X98272600Y-113398300D03*
X97129600Y-112445800D03*
X92875100Y-110794800D03*
X91287600Y-110667800D03*
X87668100Y-109524800D03*
X87223600Y-108508800D03*
X85191600Y-104952800D03*
X83794600Y-104381300D03*
X80683100Y-103936800D03*
X79540100Y-103238300D03*
X74396600Y-97205800D03*
X74269600Y-95491300D03*
X74206100Y-91300300D03*
X73761600Y-89903300D03*
X68745100Y-84061300D03*
X67856100Y-83235800D03*
X66078100Y-80568800D03*
X65697100Y-79489300D03*
X63601600Y-76949300D03*
X62839600Y-76568300D03*
X93954600Y-93268800D03*
X93891100Y-94348300D03*
X93954600Y-97205800D03*
X94018100Y-98158300D03*
X95415100Y-100444300D03*
X96621600Y-100634800D03*
X82207100Y-71932800D03*
X83159600Y-71996300D03*
X85318600Y-72059800D03*
X86207600Y-72186800D03*
X89065100Y-72186800D03*
X90017600Y-72758300D03*
X90525600Y-76441300D03*
X90589100Y-77711300D03*
X90652600Y-80949800D03*
X90716100Y-82283300D03*
X90652600Y-84696300D03*
X93319600Y-90347800D03*
X91478100Y-89014300D03*
X90652600Y-86220300D03*
X105702100Y-104889300D03*
X104813100Y-103873300D03*
X104622600Y-101587300D03*
X103987600Y-100888800D03*
X101257100Y-100761800D03*
X99987100Y-100634800D03*
X70205600Y-68630800D03*
X68935600Y-68630800D03*
X65379600Y-68630800D03*
X63855600Y-68630800D03*
X61244480Y-68437760D03*
X60248800Y-68397120D03*
X56388000Y-67950080D03*
X55819040Y-67198240D03*
X55727600Y-63550800D03*
X55717440Y-62666880D03*
X55727600Y-59994800D03*
X77825600Y-71424800D03*
X77190600Y-71107300D03*
X74968100Y-69011800D03*
X74079100Y-68376800D03*
X61569600Y-40944800D03*
X60807600Y-41452800D03*
X60553600Y-43738800D03*
X60553600Y-46024800D03*
X60553600Y-48818800D03*
X60299600Y-50088800D03*
X88239600Y-68376800D03*
X86715600Y-68376800D03*
X83921600Y-68376800D03*
X82905600Y-68376800D03*
X81635600Y-61264800D03*
X81635600Y-59740800D03*
X81889600Y-58216800D03*
X81889600Y-56438800D03*
X81635600Y-54914800D03*
X82143600Y-53644800D03*
X83159600Y-53136800D03*
X85191600Y-53136800D03*
X88747600Y-52882800D03*
X91897200Y-52781200D03*
X92811600Y-52806600D03*
X95961200Y-53086000D03*
X96875600Y-53136800D03*
X98653600Y-53898800D03*
X99669600Y-54152800D03*
X101193600Y-53898800D03*
X101727000Y-53263800D03*
X101447600Y-49834800D03*
X101147880Y-49072800D03*
X101031040Y-44277280D03*
X98145600Y-41706800D03*
X73456800Y-59537600D03*
X73964800Y-58724800D03*
X74777600Y-56946800D03*
X75234800Y-56184800D03*
X76047600Y-54813200D03*
X76555600Y-53898800D03*
X77571600Y-51866800D03*
X78079600Y-51104800D03*
X79349600Y-49834800D03*
X80010000Y-49631600D03*
X82651600Y-49072800D03*
X83413600Y-49072800D03*
X98145600Y-44754800D03*
X90119200Y-49479200D03*
X91541600Y-49580800D03*
X93573600Y-49834800D03*
X94335600Y-49834800D03*
X96367600Y-49834800D03*
X97383600Y-49580800D03*
X98653600Y-48310800D03*
X98653600Y-47294800D03*
X98399600Y-45516800D03*
X88747600Y-49072800D03*
X85176360Y-49072800D03*
X87223600Y-61264800D03*
X87210900Y-63367920D03*
X87477600Y-64312800D03*
X88239600Y-65582800D03*
X88747600Y-66852800D03*
X79349600Y-66090800D03*
X77571600Y-65836800D03*
X75209400Y-65166240D03*
X74015600Y-65074800D03*
X70820280Y-64998600D03*
X69697600Y-65074800D03*
X66431160Y-64968120D03*
X65379600Y-65074800D03*
X61036200Y-64739520D03*
X60299600Y-64058800D03*
X59537600Y-62026800D03*
X59436000Y-60919360D03*
X59436000Y-54620160D03*
X59537600Y-53644800D03*
X59791600Y-51866800D03*
X81635600Y-62026800D03*
X81559400Y-65735200D03*
X81127600Y-66598800D03*
X80873600Y-68122800D03*
D36*
X105575100Y-96824800D02*
X104686100Y-96824800D01*
X97988100Y-92920800D02*
X95615600Y-92920800D01*
X101130100Y-96062800D02*
X97988100Y-92920800D01*
X103924100Y-96062800D02*
X101130100Y-96062800D01*
X104686100Y-96824800D02*
X103924100Y-96062800D01*
D37*
X95615600Y-92920800D02*
X95361600Y-90230800D01*
X90017600Y-70154800D02*
X86207600Y-70154800D01*
X92049600Y-72250300D02*
X90017600Y-70154800D01*
X92049600Y-86982300D02*
X92049600Y-72250300D01*
X95361600Y-90230800D02*
X92049600Y-86982300D01*
X95615600Y-92920800D02*
X95615600Y-92262800D01*
X57594500Y-65163700D02*
X57594500Y-58064400D01*
X86207600Y-70154800D02*
X78333600Y-70154800D01*
X78333600Y-70154800D02*
X75031600Y-66852800D01*
X75031600Y-66852800D02*
X59283600Y-66852800D01*
X59283600Y-66852800D02*
X57594500Y-65163700D01*
X86969600Y-70154800D02*
X86207600Y-70154800D01*
X57594500Y-58064400D02*
X52806640Y-58064400D01*
X52806640Y-58064400D02*
X52766000Y-58105040D01*
X57594500Y-58064400D02*
X56934100Y-47104300D01*
X56934100Y-47104300D02*
X57759600Y-46278800D01*
D38*
X56934100Y-47104300D02*
X57759600Y-46278800D01*
D36*
X110575100Y-96824800D02*
X110575100Y-98840300D01*
X111785400Y-100050600D02*
X119979440Y-100050600D01*
X110575100Y-98840300D02*
X111785400Y-100050600D01*
X119979440Y-100050600D02*
X119786400Y-100050600D01*
X118491000Y-82677000D02*
X116789200Y-84378800D01*
X116789200Y-84378800D02*
X113685320Y-84378800D01*
X113685320Y-84378800D02*
X112151160Y-82844640D01*
X112151160Y-82844640D02*
X112151160Y-76413360D01*
X112151160Y-76413360D02*
X110845600Y-75107800D01*
X118491000Y-82550000D02*
X118491000Y-82677000D01*
X119761000Y-81026000D02*
X120942100Y-78955900D01*
X120942100Y-78955900D02*
X120408700Y-78422500D01*
X124320300Y-78447900D02*
X124206000Y-82550000D01*
X118491000Y-82550000D02*
X118491000Y-82042000D01*
X118491000Y-82042000D02*
X119507000Y-81026000D01*
X119507000Y-81026000D02*
X119761000Y-81026000D01*
X122682000Y-81026000D02*
X124206000Y-82550000D01*
X119761000Y-81026000D02*
X122682000Y-81026000D01*
X126820300Y-78447900D02*
X126809500Y-78447900D01*
X126809500Y-78447900D02*
X125450600Y-77089000D01*
X116560600Y-72872600D02*
X114922300Y-72872600D01*
X120777000Y-77089000D02*
X116560600Y-72872600D01*
X125450600Y-77089000D02*
X120777000Y-77089000D01*
X116840000Y-91186000D02*
X118618000Y-91186000D01*
X121790460Y-89575640D02*
X121790460Y-84455000D01*
X120373140Y-90992960D02*
X121790460Y-89575640D01*
X118811040Y-90992960D02*
X120373140Y-90992960D01*
X118618000Y-91186000D02*
X118811040Y-90992960D01*
X113352580Y-93878400D02*
X114147600Y-93878400D01*
X114147600Y-93878400D02*
X116840000Y-91186000D01*
X110642400Y-88905080D02*
X110698280Y-92448380D01*
X112128300Y-93878400D02*
X113352580Y-93878400D01*
X110698280Y-92448380D02*
X112128300Y-93878400D01*
X126706000Y-82550000D02*
X126820300Y-78447900D01*
X125603000Y-84455000D02*
X125603000Y-86487000D01*
X125603000Y-86487000D02*
X125984000Y-86868000D01*
X126706000Y-82550000D02*
X126706000Y-83352000D01*
X120396000Y-84455000D02*
X119761000Y-83820000D01*
X121790460Y-84455000D02*
X120396000Y-84455000D01*
X125603000Y-84455000D02*
X121790460Y-84455000D01*
X126706000Y-83352000D02*
X125603000Y-84455000D01*
X119761000Y-83820000D02*
X119888000Y-83820000D01*
X119888000Y-83820000D02*
X120142000Y-84074000D01*
X130144520Y-72867520D02*
X130144520Y-72783700D01*
X130982720Y-73705720D02*
X130144520Y-72867520D01*
X109804200Y-76855320D02*
X107289600Y-74256900D01*
X109834680Y-79263240D02*
X109804200Y-76855320D01*
X109154600Y-101396800D02*
X109154600Y-97737300D01*
X125841760Y-69738240D02*
X130144520Y-72783700D01*
X124805440Y-69148960D02*
X125841760Y-69738240D01*
X123057920Y-68681600D02*
X124805440Y-69148960D01*
X118559580Y-68699380D02*
X121861580Y-68699380D01*
X118432580Y-68572380D02*
X118559580Y-68699380D01*
X113654840Y-68587620D02*
X117210840Y-68587620D01*
X112682020Y-68564760D02*
X113654840Y-68587620D01*
X108468160Y-68618100D02*
X111579660Y-68618100D01*
X107213400Y-72961500D02*
X108468160Y-68618100D01*
X107461772Y-80959820D02*
X107533440Y-80507840D01*
X107487720Y-82085180D02*
X107461772Y-80959820D01*
X107513120Y-86982300D02*
X107513120Y-84315300D01*
X107449620Y-87045800D02*
X107513120Y-86982300D01*
X106070400Y-89870280D02*
X107162600Y-88188800D01*
X105293160Y-92674440D02*
X106070400Y-89870280D01*
X106249382Y-93260799D02*
X104881680Y-93695520D01*
X107320080Y-94000320D02*
X106249382Y-93260799D01*
X109194600Y-96634300D02*
X107899200Y-94548960D01*
X109131100Y-96697800D02*
X109194600Y-96634300D01*
X109154600Y-97737300D02*
X109067600Y-97650300D01*
X89446100Y-68376800D02*
X90779600Y-68376800D01*
X98018600Y-99682300D02*
X98018600Y-100634800D01*
X97764600Y-99428300D02*
X98018600Y-99682300D01*
X97637600Y-94284800D02*
X97637600Y-96570800D01*
X97193100Y-93840300D02*
X97637600Y-94284800D01*
X97256600Y-90538300D02*
X97256600Y-91871800D01*
X96875600Y-90157300D02*
X97256600Y-90538300D01*
X96685100Y-88760300D02*
X96685100Y-88950800D01*
X96177100Y-88252300D02*
X96685100Y-88760300D01*
X95224600Y-87490300D02*
X95415100Y-87490300D01*
X93700600Y-85966300D02*
X95224600Y-87490300D01*
X93573600Y-83362800D02*
X93573600Y-85077300D01*
X93446600Y-83235800D02*
X93573600Y-83362800D01*
X93510100Y-78917800D02*
X93510100Y-82156300D01*
X93383100Y-78790800D02*
X93510100Y-78917800D01*
X93446600Y-74853800D02*
X93446600Y-77266800D01*
X93573600Y-71424800D02*
X93573600Y-73837800D01*
X93510100Y-71361300D02*
X93573600Y-71424800D01*
X93065600Y-70535800D02*
X93065600Y-70789800D01*
X91795600Y-69265800D02*
X93065600Y-70535800D01*
X90779600Y-68376800D02*
X91160600Y-68757800D01*
X126723100Y-54597300D02*
X126723100Y-52816800D01*
X131610100Y-48183800D02*
X134793900Y-45000000D01*
X130340100Y-48882300D02*
X130594100Y-48882300D01*
X128371600Y-50850800D02*
X130340100Y-48882300D01*
X126723100Y-52816800D02*
X127736600Y-51803300D01*
X134793900Y-45000000D02*
X135000000Y-45000000D01*
X126723100Y-54597300D02*
X126593600Y-54597300D01*
X126593600Y-54597300D02*
X124307600Y-56883300D01*
X103746300Y-70142100D02*
X103403400Y-72732900D01*
X105422700Y-65303400D02*
X103746300Y-70142100D01*
X111734600Y-65227200D02*
X107734100Y-65227200D01*
X111861600Y-65100200D02*
X111734600Y-65227200D01*
X117068600Y-65189100D02*
X113131600Y-65189100D01*
X117132100Y-65125600D02*
X117068600Y-65189100D01*
X121310400Y-65062100D02*
X118135400Y-65062100D01*
X121500900Y-65112900D02*
X121310400Y-65062100D01*
X123037600Y-64757300D02*
X122796300Y-65036700D01*
X123609100Y-64185800D02*
X123037600Y-64757300D01*
X123736100Y-59931300D02*
X123736100Y-62598300D01*
X123990100Y-59677300D02*
X123736100Y-59931300D01*
X124307600Y-56883300D02*
X124307600Y-58597800D01*
X92621100Y-103111300D02*
X92748100Y-103111300D01*
X91287600Y-101650800D02*
X91732100Y-102095300D01*
X91287600Y-98539300D02*
X91287600Y-101650800D01*
X91033600Y-98285300D02*
X91287600Y-98539300D01*
X90843100Y-94792800D02*
X90843100Y-96888300D01*
X90462100Y-94411800D02*
X90843100Y-94792800D01*
X90398600Y-93332300D02*
X90462100Y-93332300D01*
X88557100Y-91490800D02*
X90398600Y-93332300D01*
X87668100Y-88950800D02*
X87668100Y-91173300D01*
X87033100Y-88315800D02*
X87668100Y-88950800D01*
X86906100Y-83870800D02*
X86906100Y-87172800D01*
X86906100Y-79362300D02*
X86906100Y-82537300D01*
X87033100Y-79235300D02*
X86906100Y-79362300D01*
X101257100Y-101269800D02*
X101257100Y-100761800D01*
X100749100Y-101777800D02*
X101257100Y-101269800D01*
X99415600Y-102793800D02*
X99923600Y-102285800D01*
X98526600Y-102793800D02*
X99415600Y-102793800D01*
X96875600Y-104444800D02*
X98526600Y-102793800D01*
X94335600Y-104698800D02*
X95351600Y-104698800D01*
X92748100Y-103111300D02*
X94335600Y-104698800D01*
X78587600Y-98602800D02*
X78587600Y-102285800D01*
X102565200Y-116547900D02*
X105359200Y-116547900D01*
X101511100Y-115493800D02*
X102565200Y-116547900D01*
X100114100Y-115239800D02*
X100749100Y-115239800D01*
X98272600Y-113398300D02*
X100114100Y-115239800D01*
X97129600Y-112191800D02*
X97129600Y-112445800D01*
X95732600Y-110794800D02*
X97129600Y-112191800D01*
X92875100Y-110794800D02*
X95732600Y-110794800D01*
X88811100Y-110667800D02*
X91287600Y-110667800D01*
X87668100Y-109524800D02*
X88811100Y-110667800D01*
X87223600Y-106286300D02*
X87223600Y-108508800D01*
X86398100Y-105460800D02*
X87223600Y-106286300D01*
X85699600Y-105460800D02*
X86398100Y-105460800D01*
X85191600Y-104952800D02*
X85699600Y-105460800D01*
X81127600Y-104381300D02*
X83794600Y-104381300D01*
X80683100Y-103936800D02*
X81127600Y-104381300D01*
X78587600Y-102285800D02*
X79540100Y-103238300D01*
X70967600Y-87426800D02*
X71285100Y-87426800D01*
X71285100Y-87426800D02*
X73761600Y-89903300D01*
X74777600Y-97586800D02*
X77571600Y-97586800D01*
X74396600Y-97205800D02*
X74777600Y-97586800D01*
X74269600Y-91363800D02*
X74269600Y-95491300D01*
X74206100Y-91300300D02*
X74269600Y-91363800D01*
X77571600Y-97586800D02*
X78587600Y-98602800D01*
X59468400Y-76454000D02*
X62725300Y-76454000D01*
X68745100Y-84061300D02*
X70967600Y-86283800D01*
X67856100Y-82346800D02*
X67856100Y-83235800D01*
X66078100Y-80568800D02*
X67856100Y-82346800D01*
X65697100Y-79044800D02*
X65697100Y-79489300D01*
X63601600Y-76949300D02*
X65697100Y-79044800D01*
X62725300Y-76454000D02*
X62839600Y-76568300D01*
X70967600Y-86283800D02*
X70967600Y-87426800D01*
X93319600Y-90347800D02*
X93319600Y-90538300D01*
X93319600Y-90538300D02*
X93954600Y-91173300D01*
X93954600Y-91173300D02*
X93954600Y-93268800D01*
X93891100Y-94348300D02*
X93954600Y-94411800D01*
X93954600Y-94411800D02*
X93954600Y-97205800D01*
X94018100Y-98158300D02*
X94018100Y-99428300D01*
X94018100Y-99428300D02*
X95034100Y-100444300D01*
X95034100Y-100444300D02*
X95415100Y-100444300D01*
X96621600Y-100634800D02*
X98018600Y-100634800D01*
X80890100Y-72614800D02*
X81572100Y-71932800D01*
X81572100Y-71932800D02*
X82207100Y-71932800D01*
X83159600Y-71996300D02*
X83223100Y-72059800D01*
X83223100Y-72059800D02*
X85318600Y-72059800D01*
X86207600Y-72186800D02*
X89065100Y-72186800D01*
X90017600Y-72758300D02*
X90525600Y-73266300D01*
X90525600Y-73266300D02*
X90525600Y-76441300D01*
X90589100Y-77711300D02*
X90652600Y-77774800D01*
X90652600Y-77774800D02*
X90652600Y-80949800D01*
X90716100Y-82283300D02*
X90652600Y-82346800D01*
X90652600Y-82346800D02*
X90652600Y-84696300D01*
X79463600Y-72614800D02*
X80890100Y-72614800D01*
X91478100Y-88950800D02*
X91478100Y-89014300D01*
X90652600Y-88125300D02*
X91478100Y-88950800D01*
X90652600Y-86220300D02*
X90652600Y-88125300D01*
X106019600Y-105206800D02*
X106273600Y-108381800D01*
X105702100Y-104889300D02*
X106019600Y-105206800D01*
X104813100Y-101777800D02*
X104813100Y-103873300D01*
X104622600Y-101587300D02*
X104813100Y-101777800D01*
X101384100Y-100888800D02*
X103987600Y-100888800D01*
X101257100Y-100761800D02*
X101384100Y-100888800D01*
X98018600Y-100634800D02*
X99987100Y-100634800D01*
X106273600Y-108381800D02*
X105511600Y-109143800D01*
X70205600Y-68630800D02*
X73825100Y-68630800D01*
X68935600Y-68630800D02*
X65379600Y-68630800D01*
X63855600Y-68630800D02*
X61244480Y-68437760D01*
X60248800Y-68397120D02*
X57843805Y-68153058D01*
X57843805Y-68153058D02*
X56388000Y-67950080D01*
X55819040Y-67198240D02*
X55727600Y-63550800D01*
X55727600Y-59994800D02*
X55717440Y-62666880D01*
X77825600Y-71424800D02*
X79015600Y-72614800D01*
X77063600Y-71107300D02*
X77190600Y-71107300D01*
X74968100Y-69011800D02*
X77063600Y-71107300D01*
X73825100Y-68630800D02*
X74079100Y-68376800D01*
X79015600Y-72614800D02*
X79463600Y-72614800D01*
X59791600Y-51866800D02*
X59791600Y-50596800D01*
X61823600Y-40690800D02*
X62585600Y-40690800D01*
X61569600Y-40944800D02*
X61823600Y-40690800D01*
X60807600Y-43484800D02*
X60807600Y-41452800D01*
X60553600Y-43738800D02*
X60807600Y-43484800D01*
X60553600Y-48818800D02*
X60553600Y-46024800D01*
X59791600Y-50596800D02*
X60299600Y-50088800D01*
D39*
X78507600Y-72614800D02*
X79463600Y-72614800D01*
D36*
X80873600Y-68122800D02*
X81635600Y-68122800D01*
X88239600Y-68376800D02*
X89446100Y-68376800D01*
X89446100Y-68376800D02*
X89763600Y-68376800D01*
X83921600Y-68376800D02*
X86715600Y-68376800D01*
X81889600Y-68376800D02*
X82905600Y-68376800D01*
X81635600Y-68122800D02*
X81889600Y-68376800D01*
X59468400Y-76454000D02*
X59740800Y-76454000D01*
D39*
X85191600Y-53136800D02*
X85191600Y-52943760D01*
X85755480Y-49651920D02*
X85176360Y-49072800D01*
X85755480Y-52379880D02*
X85755480Y-49651920D01*
X85191600Y-52943760D02*
X85755480Y-52379880D01*
X88747600Y-52882800D02*
X88747600Y-52798698D01*
X88747600Y-49829720D02*
X88747600Y-49072800D01*
X88335496Y-50241824D02*
X88747600Y-49829720D01*
X88335496Y-52386594D02*
X88335496Y-50241824D01*
X88747600Y-52798698D02*
X88335496Y-52386594D01*
D36*
X81635600Y-61264800D02*
X81635600Y-59740800D01*
X81889600Y-58216800D02*
X81889600Y-56438800D01*
X81635600Y-54914800D02*
X82143600Y-54406800D01*
X82143600Y-54406800D02*
X82143600Y-53644800D01*
X83159600Y-53136800D02*
X85191600Y-53136800D01*
X88747600Y-52882800D02*
X91897200Y-52781200D01*
X92811600Y-52806600D02*
X93827600Y-52857400D01*
X93827600Y-52857400D02*
X95961200Y-53086000D01*
X96875600Y-53136800D02*
X97637600Y-53390800D01*
X97637600Y-53390800D02*
X98653600Y-53898800D01*
X99669600Y-54152800D02*
X100482400Y-54051200D01*
X100482400Y-54051200D02*
X101193600Y-53898800D01*
X101727000Y-53263800D02*
X101600000Y-51460400D01*
X101600000Y-51460400D02*
X101447600Y-49834800D01*
X101147880Y-49072800D02*
X101447600Y-48310800D01*
X101447600Y-48310800D02*
X101031040Y-44277280D01*
X72237600Y-61518800D02*
X73456800Y-59537600D01*
X73964800Y-58724800D02*
X74472800Y-57810400D01*
X74472800Y-57810400D02*
X74777600Y-56946800D01*
X75234800Y-56184800D02*
X76047600Y-55067200D01*
X76047600Y-55067200D02*
X76047600Y-54813200D01*
X76555600Y-53898800D02*
X77165200Y-52781200D01*
X77165200Y-52781200D02*
X77571600Y-51866800D01*
X78079600Y-51104800D02*
X78841600Y-49834800D01*
X78841600Y-49834800D02*
X79349600Y-49834800D01*
X80010000Y-49631600D02*
X81635600Y-49072800D01*
X81635600Y-49072800D02*
X82651600Y-49072800D01*
X83413600Y-49072800D02*
X85176360Y-49072800D01*
X98145600Y-44754800D02*
X98145600Y-41706800D01*
X88747600Y-49072800D02*
X89484200Y-49174400D01*
X89484200Y-49174400D02*
X90119200Y-49479200D01*
X91541600Y-49580800D02*
X92405200Y-49657000D01*
X92405200Y-49657000D02*
X93573600Y-49834800D01*
X94335600Y-49834800D02*
X96367600Y-49834800D01*
X97383600Y-49580800D02*
X98653600Y-48818800D01*
X98653600Y-48818800D02*
X98653600Y-48310800D01*
X98653600Y-47294800D02*
X98399600Y-45516800D01*
X87223600Y-61264800D02*
X87210900Y-63367920D01*
X87477600Y-64312800D02*
X88239600Y-65074800D01*
X88239600Y-65074800D02*
X88239600Y-65582800D01*
X88747600Y-66852800D02*
X89763600Y-67868800D01*
X89763600Y-67868800D02*
X89763600Y-68376800D01*
X79857600Y-66598800D02*
X81127600Y-66598800D01*
X79349600Y-66090800D02*
X79857600Y-66598800D01*
X76413360Y-65471040D02*
X77571600Y-65836800D01*
X75209400Y-65166240D02*
X76413360Y-65471040D01*
X70820280Y-64998600D02*
X74015600Y-65074800D01*
X66431160Y-64968120D02*
X69697600Y-65074800D01*
X61823600Y-65074800D02*
X65379600Y-65074800D01*
X61036200Y-64739520D02*
X61823600Y-65074800D01*
X59851981Y-63017601D02*
X60299600Y-64058800D01*
X59537600Y-62026800D02*
X59851981Y-63017601D01*
X59283600Y-57200800D02*
X59436000Y-60919360D01*
X59436000Y-54620160D02*
X59283600Y-57200800D01*
X59537600Y-52120800D02*
X59537600Y-53644800D01*
X59791600Y-51866800D02*
X59537600Y-52120800D01*
X81559400Y-65735200D02*
X81635600Y-62026800D01*
X81127600Y-67868800D02*
X81127600Y-66598800D01*
X80873600Y-68122800D02*
X81127600Y-67868800D01*
X72237600Y-61772800D02*
X72237600Y-61518800D01*
D37*
X74015600Y-52882800D02*
X72491600Y-55676800D01*
X72491600Y-55676800D02*
X71729600Y-57708800D01*
X74015600Y-53030120D02*
X74015600Y-52882800D01*
X76263600Y-62814800D02*
X76228540Y-62814800D01*
X76228540Y-62814800D02*
X76174600Y-63131700D01*
X76174600Y-63131700D02*
X76530200Y-57908200D01*
X76530200Y-57908200D02*
X76729600Y-57708800D01*
X79563600Y-62814800D02*
X79349600Y-53136800D01*
X81721960Y-51018440D02*
X84546440Y-51018440D01*
X79349600Y-53136800D02*
X81721960Y-51018440D01*
X84546440Y-51186080D02*
X84546440Y-51018440D01*
D38*
X90078560Y-51018440D02*
X90860880Y-51282600D01*
X90860880Y-51282600D02*
X97848420Y-51282600D01*
X97848420Y-51282600D02*
X99860100Y-52374800D01*
D37*
X99860100Y-51917600D02*
X99860100Y-52374800D01*
D38*
X89546440Y-51018440D02*
X90078560Y-51018440D01*
X89546440Y-51018440D02*
X89687400Y-51018440D01*
D36*
X136474200Y-124460000D02*
X137896600Y-124460000D01*
X139085320Y-77058520D02*
X139039600Y-77058520D01*
X139085320Y-123271280D02*
X139085320Y-77058520D01*
X137896600Y-124460000D02*
X139085320Y-123271280D01*
D37*
X120116600Y-57962800D02*
X121894600Y-57962800D01*
X123799600Y-51699800D02*
X129413000Y-46086400D01*
X123799600Y-54406800D02*
X123799600Y-51699800D01*
X121894600Y-57962800D02*
X123799600Y-54406800D01*
D36*
X119913400Y-40589200D02*
X64516000Y-40589200D01*
X120243600Y-40919400D02*
X119913400Y-40589200D01*
X132638800Y-40919400D02*
X120243600Y-40919400D01*
X61569600Y-61264800D02*
X63093600Y-63002800D01*
X61620400Y-43738800D02*
X61569600Y-61264800D01*
X64516000Y-40589200D02*
X61620400Y-43738800D01*
X131292600Y-44206800D02*
X129413000Y-46086400D01*
X131292600Y-42265600D02*
X131292600Y-44206800D01*
X132664200Y-40894000D02*
X132638800Y-40919400D01*
X139039600Y-77058520D02*
X139039600Y-42545000D01*
X139039600Y-42545000D02*
X137388600Y-40894000D01*
X137388600Y-40894000D02*
X132664200Y-40894000D01*
X132638800Y-40919400D02*
X131292600Y-42265600D01*
X129413000Y-45745400D02*
X129413000Y-46086400D01*
X124739400Y-120192800D02*
X124739400Y-121361200D01*
X127838200Y-124460000D02*
X136474200Y-124460000D01*
X124739400Y-121361200D02*
X127838200Y-124460000D01*
X136753600Y-120954800D02*
X136677400Y-117729000D01*
X136677400Y-117729000D02*
X136753600Y-117652800D01*
X136753600Y-120954800D02*
X136829800Y-124104400D01*
X136829800Y-124104400D02*
X136474200Y-124460000D01*
D37*
X63093600Y-63002800D02*
X65379600Y-63042800D01*
X65379600Y-63042800D02*
X67157600Y-61772800D01*
X68681600Y-57454800D02*
X68681600Y-56946800D01*
X68681600Y-56946800D02*
X67157600Y-55422800D01*
X67157600Y-55422800D02*
X67157600Y-52882800D01*
X64109600Y-53898800D02*
X66141600Y-53898800D01*
X66141600Y-53898800D02*
X67157600Y-52882800D01*
X69697600Y-61772800D02*
X69697600Y-60502800D01*
X68681600Y-59486800D02*
X68681600Y-57454800D01*
X69697600Y-60502800D02*
X68681600Y-59486800D01*
X118084600Y-53771800D02*
X118084600Y-58597800D01*
X119354600Y-60502800D02*
X120116600Y-60502800D01*
X118084600Y-58597800D02*
X119354600Y-60502800D01*
X118084600Y-53771800D02*
X117830600Y-52247800D01*
X117830600Y-52247800D02*
X116768880Y-51186080D01*
X116768880Y-51186080D02*
X116220240Y-51186080D01*
X121132600Y-51358800D02*
X119420640Y-51358800D01*
X119420640Y-51358800D02*
X119247920Y-51186080D01*
X120116600Y-60502800D02*
X119735600Y-60502800D01*
X116220240Y-51186080D02*
X119247920Y-51186080D01*
X85636100Y-58534300D02*
X87731600Y-59613800D01*
X87731600Y-59613800D02*
X89570560Y-59679840D01*
X92186760Y-59695080D02*
X89585800Y-59695080D01*
X89585800Y-59695080D02*
X89570560Y-59679840D01*
X94747680Y-60175040D02*
X92666720Y-60175040D01*
X92666720Y-60175040D02*
X92186760Y-59695080D01*
X85750300Y-58648500D02*
X85636100Y-58534300D01*
X96324420Y-42800260D02*
X93291407Y-42663100D01*
X83337400Y-44373800D02*
X83362800Y-42693442D01*
X91475560Y-42021760D02*
X92557600Y-42517695D01*
X92557600Y-42517695D02*
X93599000Y-42804080D01*
X84034482Y-42021760D02*
X91475560Y-42021760D01*
X83362800Y-42693442D02*
X84034482Y-42021760D01*
X85636100Y-58534300D02*
X86969600Y-55994300D01*
X86969600Y-55994300D02*
X87017274Y-54226465D01*
X87017274Y-54226465D02*
X87013406Y-53728683D01*
X87013406Y-53728683D02*
X87048340Y-47810420D01*
X83342480Y-45902880D02*
X83337400Y-44373800D01*
X87048340Y-47810420D02*
X83342480Y-45902880D01*
X83337400Y-44373800D02*
X83337400Y-43510200D01*
X90830400Y-48031400D02*
X93292920Y-47498000D01*
X93292920Y-47498000D02*
X93599000Y-47804080D01*
D38*
X104547680Y-56975040D02*
X102583280Y-56975040D01*
X96798120Y-54695080D02*
X92186760Y-54695080D01*
X97464880Y-55361840D02*
X96798120Y-54695080D01*
X100970080Y-55361840D02*
X97464880Y-55361840D01*
X102583280Y-56975040D02*
X100970080Y-55361840D01*
D37*
X92186760Y-54695080D02*
X89585800Y-54695080D01*
X89585800Y-54695080D02*
X89570560Y-54679840D01*
D38*
X92186760Y-54695080D02*
X92186760Y-54635400D01*
X104547680Y-56975040D02*
X104547680Y-56391800D01*
X104547680Y-56391800D02*
X105882440Y-54711600D01*
X105882440Y-54711600D02*
X112588535Y-54711600D01*
X112588535Y-54711600D02*
X112588535Y-54711649D01*
D37*
X114719100Y-58661300D02*
X114490500Y-58432700D01*
X114391440Y-58531760D02*
X114490500Y-58432700D01*
X114490500Y-58432700D02*
X112588535Y-54711649D01*
X112588535Y-54711649D02*
X112581318Y-53990227D01*
X112581318Y-53990227D02*
X112578371Y-53695640D01*
X112811560Y-51615340D02*
X112811560Y-44401740D01*
X112578371Y-53695640D02*
X112811560Y-51615340D01*
X112811560Y-44401740D02*
X113017300Y-44196000D01*
X121847600Y-44424600D02*
X121847600Y-46241960D01*
X121847600Y-46241960D02*
X123550680Y-47945040D01*
X113017300Y-44196000D02*
X112763300Y-43588940D01*
X112763300Y-43588940D02*
X114416840Y-41932505D01*
X114416840Y-41932505D02*
X118748800Y-41932505D01*
X118748800Y-41932505D02*
X121847600Y-44424600D01*
X118550680Y-47945040D02*
X116067840Y-47945040D01*
X116067840Y-47945040D02*
X116052600Y-47929800D01*
D38*
X102273100Y-79552800D02*
X102273100Y-76504800D01*
X100431600Y-80759300D02*
X102273100Y-79552800D01*
X102273100Y-76504800D02*
X101193600Y-75552300D01*
X101193600Y-75552300D02*
X101193600Y-63629120D01*
X106260900Y-94856300D02*
X106476800Y-94856300D01*
X106654600Y-99999800D02*
X107670600Y-98983800D01*
X106654600Y-99999800D02*
X106654600Y-101396800D01*
X107670600Y-96050100D02*
X107670600Y-98983800D01*
X106476800Y-94856300D02*
X107670600Y-96050100D01*
X101193600Y-63629120D02*
X104547680Y-60275040D01*
X100431600Y-93141800D02*
X100431600Y-80759300D01*
X102146100Y-94856300D02*
X100431600Y-93141800D01*
X106260900Y-94856300D02*
X102146100Y-94856300D01*
D37*
X106654600Y-101396800D02*
X106654600Y-103047800D01*
X106654600Y-103047800D02*
X107861100Y-104254300D01*
X107861100Y-104254300D02*
X111353600Y-104254300D01*
D38*
X106654600Y-101396800D02*
X106654600Y-101015800D01*
X104368600Y-60454120D02*
X104547680Y-60275040D01*
D37*
X111353600Y-110096300D02*
X111353600Y-109270800D01*
X111353600Y-116382800D02*
X111353600Y-110096300D01*
X114401600Y-119430800D02*
X111353600Y-116382800D01*
X111353600Y-109270800D02*
X111353600Y-104254300D01*
X111353600Y-104254300D02*
X111353600Y-103301800D01*
X111353600Y-103301800D02*
X112242600Y-102412800D01*
X112242600Y-102412800D02*
X129133600Y-102412800D01*
X129895600Y-100888800D02*
X129133600Y-102412800D01*
X114909600Y-119430800D02*
X114401600Y-119430800D01*
X125806200Y-129794000D02*
X124002800Y-129794000D01*
X116687600Y-121970800D02*
X114909600Y-120192800D01*
X119481600Y-121970800D02*
X116687600Y-121970800D01*
X120751600Y-123240800D02*
X119481600Y-121970800D01*
X120751600Y-126542800D02*
X120751600Y-123240800D01*
X124002800Y-129794000D02*
X120751600Y-126542800D01*
X114909600Y-120192800D02*
X114909600Y-119430800D01*
X129895600Y-100888800D02*
X129895600Y-101396800D01*
X129895600Y-101396800D02*
X135737600Y-106476800D01*
X104547680Y-60275040D02*
X105060320Y-60275040D01*
X105060320Y-60275040D02*
X107487720Y-59989720D01*
X107487720Y-59989720D02*
X107497880Y-57317640D01*
X107497880Y-57317640D02*
X107457240Y-57277000D01*
X104547680Y-60275040D02*
X104936720Y-60254720D01*
X94747680Y-56875040D02*
X95381440Y-56875040D01*
X95381440Y-56875040D02*
X98907600Y-58257440D01*
X98907600Y-58257440D02*
X104547680Y-60275040D01*
X104547680Y-60275040D02*
X104547680Y-60128140D01*
D36*
X126075440Y-92430600D02*
X126075440Y-91666060D01*
X126075440Y-91666060D02*
X127251460Y-89855040D01*
X126075440Y-92430600D02*
X123103640Y-92430600D01*
X123103640Y-92430600D02*
X123027440Y-92506800D01*
X123027440Y-92506800D02*
X120055640Y-92506800D01*
X120055640Y-92506800D02*
X119979440Y-92430600D01*
X127482600Y-72649080D02*
X127355600Y-73736200D01*
X127355600Y-73736200D02*
X133223000Y-79603600D01*
X133223000Y-79603600D02*
X133223000Y-81026000D01*
X116395500Y-97459800D02*
X117576600Y-97459800D01*
X130911600Y-94145100D02*
X130911600Y-90220800D01*
X128854200Y-96202500D02*
X130911600Y-94145100D01*
X118833900Y-96202500D02*
X128854200Y-96202500D01*
X117576600Y-97459800D02*
X118833900Y-96202500D01*
D37*
X130911600Y-90220800D02*
X130911600Y-91744800D01*
X132435600Y-93268800D02*
X135229600Y-93268800D01*
X130911600Y-91744800D02*
X132435600Y-93268800D01*
X135229600Y-93268800D02*
X137769600Y-93268800D01*
D36*
X126339600Y-112318800D02*
X129387600Y-112318800D01*
X129387600Y-112318800D02*
X129895600Y-113588800D01*
X119989600Y-113080800D02*
X119989600Y-113842800D01*
X119989600Y-113842800D02*
X121767600Y-115620800D01*
X121767600Y-115620800D02*
X128625600Y-115620800D01*
X128625600Y-115620800D02*
X129895600Y-113588800D01*
D37*
X129895600Y-113588800D02*
X130149600Y-113588800D01*
X130149600Y-113588800D02*
X132943600Y-111556800D01*
X132943600Y-111556800D02*
X135737600Y-111556800D01*
X135737600Y-111556800D02*
X136499600Y-111556800D01*
X136499600Y-111556800D02*
X137769600Y-110286800D01*
X137769600Y-110286800D02*
X137769600Y-93268800D01*
X137769600Y-93268800D02*
X137769600Y-90474800D01*
X137769600Y-90474800D02*
X137515600Y-90220800D01*
X137515600Y-90220800D02*
X137515600Y-82854800D01*
X135686800Y-81026000D02*
X133223000Y-81026000D01*
X137515600Y-82854800D02*
X135686800Y-81026000D01*
D36*
X108658660Y-90119200D02*
X108955840Y-90119200D01*
X109585760Y-90749120D02*
X109585760Y-93994349D01*
X108955840Y-90119200D02*
X109585760Y-90749120D01*
X108242100Y-78346300D02*
X108658660Y-79865220D01*
X113855500Y-96481900D02*
X113855500Y-97459800D01*
X108658660Y-79865220D02*
X108658660Y-90119200D01*
X109585760Y-93994349D02*
X113855500Y-96481900D01*
X113855500Y-97459800D02*
X113855500Y-97840800D01*
X113855500Y-97840800D02*
X115062000Y-99047300D01*
X119392700Y-97840800D02*
X130911600Y-97840800D01*
X118186200Y-99047300D02*
X119392700Y-97840800D01*
X115062000Y-99047300D02*
X118186200Y-99047300D01*
D37*
X103215600Y-92920800D02*
X103319600Y-92920800D01*
X103319600Y-92920800D02*
X105511600Y-87680800D01*
X105511600Y-87680800D02*
X105613200Y-70751700D01*
X105613200Y-70751700D02*
X107175300Y-66979800D01*
X107175300Y-66979800D02*
X125018800Y-66852800D01*
X125222000Y-65532000D02*
X125425200Y-66446400D01*
X126723100Y-57137300D02*
X125222000Y-65532000D01*
X125425200Y-66446400D02*
X125018800Y-66852800D01*
X133441440Y-72979280D02*
X125018800Y-66852800D01*
X89446100Y-100825300D02*
X87985600Y-93713300D01*
X70967600Y-74726800D02*
X71983600Y-76250800D01*
X72999600Y-77266800D02*
X76301600Y-77266800D01*
X71983600Y-76250800D02*
X72999600Y-77266800D01*
X76301600Y-77266800D02*
X76301600Y-81076800D01*
X76301600Y-81076800D02*
X76047600Y-81330800D01*
D38*
X63601600Y-71170800D02*
X70713600Y-71170800D01*
X78841600Y-75488800D02*
X78841600Y-77266800D01*
X78079600Y-74726800D02*
X78841600Y-75488800D01*
X74269600Y-74726800D02*
X78079600Y-74726800D01*
X70713600Y-71170800D02*
X74269600Y-74726800D01*
D37*
X81381600Y-77266800D02*
X81381600Y-75742800D01*
X88747600Y-75234800D02*
X88747600Y-81330800D01*
X87731600Y-74218800D02*
X88747600Y-75234800D01*
X82905600Y-74218800D02*
X87731600Y-74218800D01*
X81381600Y-75742800D02*
X82905600Y-74218800D01*
X88747600Y-85648800D02*
X88747600Y-81330800D01*
X88747600Y-85648800D02*
X89446100Y-89458800D01*
X92748100Y-100698300D02*
X95615600Y-103080800D01*
X92255097Y-92178529D02*
X92748100Y-100698300D01*
X89446100Y-89458800D02*
X92255097Y-92178529D01*
X73761600Y-71170800D02*
X74719600Y-71170800D01*
X74719600Y-71170800D02*
X76163600Y-72614800D01*
X76048020Y-72499220D02*
X76163600Y-72614800D01*
X80670400Y-48031400D02*
X80741520Y-45445680D01*
X80741520Y-45445680D02*
X80797400Y-44373800D01*
X74015600Y-42722800D02*
X79654400Y-42722800D01*
X79654400Y-42722800D02*
X80797400Y-44373800D01*
X70459600Y-42722800D02*
X74015600Y-42722800D01*
X67157600Y-42722800D02*
X67919600Y-45770800D01*
X68427600Y-47548800D02*
X70459600Y-52882800D01*
X67919600Y-45770800D02*
X68427600Y-47548800D01*
X99860100Y-42214800D02*
X103352600Y-42214800D01*
X103352600Y-42214800D02*
X103416100Y-42151300D01*
X105892600Y-47929800D02*
X105892600Y-45262800D01*
X105892600Y-45262800D02*
X104876600Y-44246800D01*
X110111540Y-44155360D02*
X104876600Y-44246800D01*
X104876600Y-44246800D02*
X104140000Y-44246800D01*
X104140000Y-44246800D02*
X103286560Y-42265600D01*
X106060240Y-51186080D02*
X104973120Y-51186080D01*
X104973120Y-51186080D02*
X103286560Y-52425600D01*
D36*
X125069600Y-113588800D02*
X125069600Y-110540800D01*
X123037600Y-108508800D02*
X119481600Y-108508800D01*
X125069600Y-110540800D02*
X123037600Y-108508800D01*
D37*
X103215600Y-98000800D02*
X95615600Y-98000800D01*
X103215600Y-103080800D02*
X101066600Y-103936800D01*
X91605100Y-104571800D02*
X89446100Y-103365300D01*
X94399100Y-106603800D02*
X91605100Y-104571800D01*
X96685100Y-106603800D02*
X94399100Y-106603800D01*
X101066600Y-103936800D02*
X96685100Y-106603800D01*
X89446100Y-105905300D02*
X89446100Y-106667300D01*
X89446100Y-106667300D02*
X91795600Y-108508800D01*
X91795600Y-108508800D02*
X100050600Y-109143800D01*
X85699600Y-77520800D02*
X85699600Y-78790800D01*
X85445600Y-91109800D02*
X85191600Y-93459300D01*
X85382100Y-88696800D02*
X85445600Y-91109800D01*
X85699600Y-78790800D02*
X85382100Y-88696800D01*
X85191600Y-93459300D02*
X85445600Y-93713300D01*
X82905600Y-93713300D02*
X84937600Y-97840800D01*
X84937600Y-97840800D02*
X84175600Y-98602800D01*
X48450500Y-76098400D02*
X51612800Y-76098400D01*
X51612800Y-76098400D02*
X51968400Y-76454000D01*
X51968400Y-76454000D02*
X51968400Y-77114400D01*
X51968400Y-77114400D02*
X54051200Y-80251300D01*
X54051200Y-80251300D02*
X59956700Y-80251300D01*
X59956700Y-80251300D02*
X62865000Y-80594200D01*
X62865000Y-80594200D02*
X62865000Y-81915000D01*
X42697400Y-90576400D02*
X42697400Y-89052400D01*
X42697400Y-89052400D02*
X48044100Y-84505800D01*
X42850500Y-76098400D02*
X42850500Y-78816900D01*
X47294800Y-83261200D02*
X48044100Y-84505800D01*
X48044100Y-84505800D02*
X51473100Y-84505800D01*
X42850500Y-78816900D02*
X47294800Y-83261200D01*
X51495960Y-92679520D02*
X51495960Y-89354660D01*
X51495960Y-89354660D02*
X50990500Y-88849200D01*
X48297400Y-90576400D02*
X49263300Y-90576400D01*
X49263300Y-90576400D02*
X50990500Y-88849200D01*
X50990500Y-88849200D02*
X59702700Y-88849200D01*
X59702700Y-88849200D02*
X63144400Y-92290900D01*
X48056800Y-122542300D02*
X48056800Y-121653300D01*
X48056800Y-121653300D02*
X50965100Y-120091200D01*
X50965100Y-120091200D02*
X50965100Y-119392700D01*
X50965100Y-119392700D02*
X52501800Y-116509800D01*
X52501800Y-116509800D02*
X62217300Y-116509800D01*
X48056800Y-122542300D02*
X48056800Y-122161300D01*
X50965100Y-120091200D02*
X50965100Y-120078500D01*
X73571100Y-128244600D02*
X73113900Y-122529600D01*
X73113900Y-122529600D02*
X73012300Y-122428000D01*
X73901300Y-123317000D02*
X73012300Y-122428000D01*
X73571100Y-128244600D02*
X72974200Y-130251200D01*
X72085200Y-131140200D02*
X72085200Y-132816600D01*
X72974200Y-130251200D02*
X72085200Y-131140200D01*
X42456800Y-122542300D02*
X42456800Y-116242400D01*
X42456800Y-116242400D02*
X47335230Y-111363970D01*
X42570400Y-107480100D02*
X42570400Y-108127800D01*
X42570400Y-108127800D02*
X45758100Y-111315500D01*
X45758100Y-111315500D02*
X47335230Y-111363970D01*
X47335230Y-111363970D02*
X51130200Y-111480600D01*
X72085200Y-138416600D02*
X67664900Y-138416600D01*
X67664900Y-138416600D02*
X62750700Y-133502400D01*
X57861200Y-138417300D02*
X57861200Y-138391900D01*
X57861200Y-138391900D02*
X62750700Y-133502400D01*
X62750700Y-133502400D02*
X62395100Y-128130300D01*
X62445900Y-103289100D02*
X61264800Y-103289100D01*
X61264800Y-103289100D02*
X59512200Y-106553000D01*
X59512200Y-106553000D02*
X49884900Y-106553000D01*
X50800000Y-102489000D02*
X50838100Y-104812400D01*
X50838100Y-104812400D02*
X49884900Y-106553000D01*
X49884900Y-106553000D02*
X48170400Y-107480100D01*
X58585100Y-128130300D02*
X58432700Y-128130300D01*
X58432700Y-128130300D02*
X57861200Y-129730500D01*
X57861200Y-129730500D02*
X57861200Y-132817300D01*
X58585100Y-128130300D02*
X59639200Y-126047500D01*
X59639200Y-126047500D02*
X62128400Y-122542300D01*
X62128400Y-122542300D02*
X63474600Y-122542300D01*
X109753400Y-121234200D02*
X109753400Y-126517400D01*
X109753400Y-126517400D02*
X110134400Y-126898400D01*
X110134400Y-126898400D02*
X111531400Y-126898400D01*
X112801400Y-128168400D02*
X112801400Y-131838700D01*
X111531400Y-126898400D02*
X112801400Y-128168400D01*
X93370400Y-115443000D02*
X92760800Y-119900700D01*
X92760800Y-119900700D02*
X92430600Y-120230900D01*
X82867500Y-120650000D02*
X91973400Y-120688100D01*
X91973400Y-120688100D02*
X92430600Y-120230900D01*
X98856800Y-137579100D02*
X102692200Y-137579100D01*
X102692200Y-137579100D02*
X106781600Y-133489700D01*
X105664000Y-126822200D02*
X106781600Y-133489700D01*
X110730600Y-137438700D02*
X112801400Y-137438700D01*
X106781600Y-133489700D02*
X110730600Y-137438700D01*
X77520800Y-109435900D02*
X77520800Y-109703300D01*
X77520800Y-109703300D02*
X82867500Y-115050000D01*
X74142600Y-109994700D02*
X76962000Y-109994700D01*
X76962000Y-109994700D02*
X77520800Y-109435900D01*
X95999300Y-131979100D02*
X95999300Y-124866400D01*
X95999300Y-124866400D02*
X99606100Y-121259600D01*
X90360500Y-135509000D02*
X90360500Y-135394700D01*
X90360500Y-135394700D02*
X93776100Y-131979100D01*
X93776100Y-131979100D02*
X95999300Y-131979100D01*
X95999300Y-131979100D02*
X98856800Y-131979100D01*
X99606100Y-121259600D02*
X99212400Y-121259600D01*
X90360500Y-135509000D02*
X90474800Y-135509000D01*
X72415400Y-99021900D02*
X71513700Y-107023600D01*
X71513700Y-107023600D02*
X68542600Y-109994700D01*
X70650100Y-93268800D02*
X71589900Y-96431100D01*
X71589900Y-96431100D02*
X72415400Y-99021900D01*
D36*
X118364000Y-86868000D02*
X115189000Y-86868000D01*
X115189000Y-86868000D02*
X115062000Y-86741000D01*
X119481600Y-104952800D02*
X116941600Y-104952800D01*
X114909600Y-113080800D02*
X114909600Y-112572800D01*
X114909600Y-112572800D02*
X116179600Y-111302800D01*
X116179600Y-111302800D02*
X122783600Y-111302800D01*
X122783600Y-111302800D02*
X123799600Y-112318800D01*
X117449600Y-113080800D02*
X117449600Y-113423700D01*
X117449600Y-113423700D02*
X122047000Y-118021100D01*
X122047000Y-118021100D02*
X122047000Y-125399800D01*
X122047000Y-125399800D02*
X124053600Y-127406400D01*
X124053600Y-127406400D02*
X132295900Y-127406400D01*
X132295900Y-127406400D02*
X133692900Y-128803400D01*
X127101600Y-104952800D02*
X127101600Y-108508800D01*
X127101600Y-108508800D02*
X129387600Y-108508800D01*
X129895600Y-109016800D02*
X135737600Y-109016800D01*
X129387600Y-108508800D02*
X129895600Y-109016800D01*
X95605600Y-80568800D02*
X97891600Y-78282800D01*
X97891600Y-78282800D02*
X100622100Y-78346300D01*
X95615600Y-85300800D02*
X95615600Y-81531300D01*
X95615600Y-81531300D02*
X95605600Y-81521300D01*
X95605600Y-81521300D02*
X95605600Y-80568800D01*
X95488600Y-81638300D02*
X95605600Y-81521300D01*
X103225600Y-81521300D02*
X103225600Y-75107800D01*
X103215600Y-85300800D02*
X103215600Y-81531300D01*
X103088600Y-81658300D02*
X103225600Y-81521300D01*
X103215600Y-81531300D02*
X103225600Y-81521300D01*
X136232900Y-128803400D02*
X136232900Y-128346200D01*
X136232900Y-128346200D02*
X133616700Y-125730000D01*
X133616700Y-125730000D02*
X125044200Y-125730000D01*
X125044200Y-125730000D02*
X123774200Y-124460000D01*
X113352580Y-91338400D02*
X113352580Y-91310460D01*
X113352580Y-91310460D02*
X115001040Y-89662000D01*
X115001040Y-89662000D02*
X119253000Y-89662000D01*
X114833400Y-81955640D02*
X114833400Y-81041240D01*
X114833400Y-81041240D02*
X116169440Y-79705200D01*
X116169440Y-79705200D02*
X116128800Y-76329540D01*
X116128800Y-76329540D02*
X116088160Y-75692000D01*
X126212600Y-73919080D02*
X126085600Y-74236580D01*
X126085600Y-74236580D02*
X123708160Y-75692000D01*
X122542300Y-72872600D02*
X123799600Y-72872600D01*
X123799600Y-72872600D02*
X124942600Y-72649080D01*
M02*
