G04 #@! TF.FileFunction,Soldermask,Bot*
%FSLAX46Y46*%
G04 Gerber Fmt 4.6, Leading zero omitted, Abs format (unit mm)*
G04 Created by KiCad (PCBNEW 4.0.7) date 02/15/19 18:40:02*
%MOMM*%
%LPD*%
G01*
G04 APERTURE LIST*
%ADD10C,0.100000*%
%ADD11C,2.000000*%
%ADD12R,2.000000X2.000000*%
%ADD13C,3.000000*%
%ADD14R,2.400000X2.400000*%
%ADD15C,2.400000*%
%ADD16O,2.000000X2.000000*%
%ADD17R,2.600000X2.600000*%
%ADD18O,2.600000X2.600000*%
%ADD19C,1.900000*%
%ADD20C,2.500000*%
%ADD21R,3.400000X3.400000*%
%ADD22C,3.400000*%
%ADD23R,2.100000X2.100000*%
%ADD24O,2.100000X2.100000*%
%ADD25C,1.400000*%
%ADD26R,1.400000X1.400000*%
%ADD27C,2.800000*%
%ADD28O,2.800000X2.800000*%
%ADD29C,2.200000*%
%ADD30C,1.840000*%
%ADD31C,5.400000*%
%ADD32R,2.200000X2.200000*%
%ADD33O,2.200000X2.200000*%
%ADD34C,4.464000*%
%ADD35C,2.900000*%
G04 APERTURE END LIST*
D10*
D11*
X96621600Y-47802800D03*
X96621600Y-42802800D03*
D12*
X124206000Y-82550000D03*
D11*
X126706000Y-82550000D03*
D13*
X42697400Y-90576400D03*
X48297400Y-90576400D03*
D11*
X116840000Y-91186000D03*
X116840000Y-93686000D03*
X124206000Y-77978000D03*
X126706000Y-77978000D03*
X63093600Y-60502800D03*
X63093600Y-63002800D03*
X129413000Y-43586400D03*
X129413000Y-46086400D03*
X68681600Y-57454800D03*
X66181600Y-57454800D03*
X128244600Y-53421280D03*
X128244600Y-55921280D03*
X93487240Y-42943780D03*
X93487240Y-47943780D03*
X123550680Y-47945040D03*
X118550680Y-47945040D03*
X126847600Y-44424600D03*
X121847600Y-44424600D03*
D12*
X100965000Y-95910400D03*
D11*
X100965000Y-98410400D03*
X92456000Y-52514500D03*
X94956000Y-52514500D03*
D12*
X116814600Y-116459000D03*
D11*
X116814600Y-121459000D03*
D14*
X125806200Y-129794000D03*
D15*
X125806200Y-134794000D03*
D11*
X106781600Y-56438800D03*
X109281600Y-56438800D03*
X103695500Y-62420500D03*
X108695500Y-62420500D03*
X103632000Y-59118500D03*
X108632000Y-59118500D03*
D12*
X124739400Y-120192800D03*
D11*
X124739400Y-117692800D03*
D12*
X123027440Y-92506800D03*
D16*
X123027440Y-100126800D03*
D12*
X119253000Y-89662000D03*
D16*
X126873000Y-89662000D03*
D17*
X127101600Y-103593900D03*
D18*
X119481600Y-103593900D03*
D17*
X109468920Y-89575640D03*
D18*
X109468920Y-81955640D03*
D17*
X137414000Y-90170000D03*
D18*
X137414000Y-97790000D03*
D17*
X136829800Y-120294400D03*
D18*
X129209800Y-120294400D03*
D19*
X52766000Y-58105040D03*
X52766000Y-60645040D03*
D20*
X47686000Y-63185040D03*
X47686000Y-53025040D03*
D21*
X58420000Y-46228000D03*
D22*
X53340000Y-46228000D03*
D19*
X126761200Y-68554600D03*
X126761200Y-66014600D03*
D20*
X131841200Y-63474600D03*
X131841200Y-73634600D03*
D21*
X133223000Y-81026000D03*
D22*
X133223000Y-86106000D03*
D21*
X133858000Y-56896000D03*
D22*
X133858000Y-51816000D03*
D23*
X67919600Y-77774800D03*
D24*
X70459600Y-77774800D03*
X72999600Y-77774800D03*
D23*
X64109600Y-53898800D03*
D24*
X64109600Y-51358800D03*
D23*
X119359680Y-51297840D03*
D24*
X119359680Y-53837840D03*
D23*
X110363000Y-106045000D03*
D24*
X112903000Y-106045000D03*
X115443000Y-106045000D03*
D11*
X64109600Y-74218800D03*
D16*
X74269600Y-74218800D03*
D11*
X70459600Y-42722800D03*
D16*
X70459600Y-52882800D03*
D11*
X103352600Y-42138600D03*
D16*
X103352600Y-52298600D03*
D25*
X119761000Y-83820000D03*
X118491000Y-82550000D03*
D26*
X121031000Y-82550000D03*
D25*
X121221500Y-106934000D03*
X122491500Y-108204000D03*
D26*
X119951500Y-108204000D03*
D25*
X130111500Y-104965500D03*
X131381500Y-103695500D03*
D26*
X131381500Y-106235500D03*
D11*
X119979440Y-100050600D03*
D16*
X119979440Y-92430600D03*
D11*
X126075440Y-92430600D03*
D16*
X126075440Y-100050600D03*
D27*
X82651600Y-85902800D03*
D28*
X69951600Y-85902800D03*
D27*
X69951600Y-81711800D03*
D28*
X82651600Y-81711800D03*
D27*
X61188600Y-70408800D03*
D28*
X73888600Y-70408800D03*
D11*
X67157600Y-42722800D03*
D16*
X67157600Y-52882800D03*
D11*
X106060240Y-51186080D03*
D16*
X116220240Y-51186080D03*
D11*
X132842000Y-109601000D03*
D16*
X125222000Y-109601000D03*
D27*
X136474200Y-124460000D03*
D28*
X123774200Y-124460000D03*
D27*
X104140000Y-110236000D03*
D28*
X116840000Y-110236000D03*
D11*
X130810000Y-90424000D03*
D16*
X130810000Y-98044000D03*
D11*
X136906000Y-116814600D03*
D16*
X129286000Y-116814600D03*
D29*
X98193880Y-89799320D03*
X88033880Y-89799320D03*
X93113880Y-89799320D03*
X93113880Y-82199320D03*
X98193880Y-82199320D03*
X88033880Y-82199320D03*
X105813880Y-89799320D03*
X105813880Y-82199320D03*
D30*
X67157600Y-61772800D03*
X69697600Y-61772800D03*
X72237600Y-61772800D03*
X123662440Y-51689000D03*
X123662440Y-54229000D03*
X123662440Y-56769000D03*
D31*
X45000000Y-135000000D03*
X135000000Y-135000000D03*
X135000000Y-45000000D03*
X45000000Y-45000000D03*
D32*
X80822800Y-43891200D03*
D33*
X83362800Y-43891200D03*
X85902800Y-43891200D03*
D32*
X110223300Y-44196000D03*
D33*
X112763300Y-44196000D03*
X115303300Y-44196000D03*
D32*
X136017000Y-104711500D03*
D33*
X136017000Y-107251500D03*
X136017000Y-109791500D03*
D11*
X71729600Y-57708800D03*
X76729600Y-57708800D03*
X84546440Y-51018440D03*
X89546440Y-51018440D03*
X98120200Y-92659200D03*
X103120200Y-92659200D03*
D23*
X93827600Y-94538800D03*
D24*
X93827600Y-97078800D03*
X93827600Y-99618800D03*
D23*
X90017600Y-94538800D03*
D24*
X90017600Y-97078800D03*
X90017600Y-99618800D03*
D34*
X62865000Y-81915000D03*
X63144400Y-92290900D03*
D13*
X48450500Y-76098400D03*
X42850500Y-76098400D03*
D34*
X82296000Y-99517200D03*
X91516200Y-105816400D03*
X62217300Y-116509800D03*
X73012300Y-122428000D03*
X62445900Y-103289100D03*
X63474600Y-122542300D03*
D13*
X48056800Y-122542300D03*
X42456800Y-122542300D03*
X72085200Y-132816600D03*
X72085200Y-138416600D03*
X42570400Y-107480100D03*
X48170400Y-107480100D03*
X57861200Y-138417300D03*
X57861200Y-132817300D03*
D34*
X109753400Y-121234200D03*
X93370400Y-115443000D03*
X99606100Y-121259600D03*
X71589900Y-93268800D03*
D13*
X112801400Y-131838700D03*
X112801400Y-137438700D03*
X82867500Y-120650000D03*
X82867500Y-115050000D03*
X98856800Y-137579100D03*
X98856800Y-131979100D03*
X74142600Y-109994700D03*
X68542600Y-109994700D03*
D34*
X85496400Y-126123700D03*
X105359200Y-116547900D03*
X68643500Y-118592600D03*
X66776600Y-87680800D03*
X64160400Y-110261400D03*
D17*
X134112000Y-97993200D03*
D18*
X134112000Y-90373200D03*
D15*
X72415400Y-99021900D03*
X64915400Y-99021900D03*
X90360500Y-135509000D03*
X82860500Y-135509000D03*
X77520800Y-109435900D03*
X85020800Y-109435900D03*
X105664000Y-126822200D03*
X98164000Y-126822200D03*
X92430600Y-120230900D03*
X92430600Y-127730900D03*
X110134400Y-126898400D03*
X117634400Y-126898400D03*
X58585100Y-128130300D03*
X51085100Y-128130300D03*
X50800000Y-102489000D03*
X58300000Y-102489000D03*
X62395100Y-128130300D03*
X69895100Y-128130300D03*
X51130200Y-111480600D03*
X58630200Y-111480600D03*
X73571100Y-128244600D03*
X81071100Y-128244600D03*
X50965100Y-120091200D03*
X58465100Y-120091200D03*
X58978800Y-92964000D03*
X51478800Y-92964000D03*
X51473100Y-84505800D03*
X58973100Y-84505800D03*
X51968400Y-76454000D03*
X59468400Y-76454000D03*
D11*
X130810000Y-113792000D03*
X128310000Y-113792000D03*
X130302000Y-100584000D03*
X132802000Y-100584000D03*
D17*
X84429600Y-55676800D03*
D18*
X84429600Y-63296800D03*
D17*
X115506500Y-58445400D03*
D18*
X115506500Y-66065400D03*
D17*
X84429600Y-66344800D03*
D18*
X84429600Y-73964800D03*
D17*
X118973600Y-66192400D03*
D18*
X118973600Y-58572400D03*
D15*
X115062000Y-86741000D03*
X114909600Y-82397600D03*
D11*
X125984000Y-86868000D03*
D16*
X118364000Y-86868000D03*
D11*
X89631520Y-47665640D03*
D16*
X79471520Y-47665640D03*
D11*
X116052600Y-47929800D03*
D16*
X105892600Y-47929800D03*
D11*
X74015600Y-52882800D03*
D16*
X74015600Y-42722800D03*
D11*
X99974400Y-52362100D03*
D16*
X99974400Y-42202100D03*
D15*
X79463600Y-72614800D03*
X79563600Y-62814800D03*
X76163600Y-72614800D03*
X76263600Y-62814800D03*
X100440500Y-55131000D03*
X90640500Y-55031000D03*
X100440500Y-58431000D03*
X90640500Y-58331000D03*
D34*
X82143600Y-91998800D03*
X97383600Y-105968800D03*
D35*
X112623600Y-58216800D03*
X87223600Y-58216800D03*
X112623600Y-78536800D03*
X87223600Y-78536800D03*
M02*
