G04 #@! TF.FileFunction,Soldermask,Top*
%FSLAX46Y46*%
G04 Gerber Fmt 4.6, Leading zero omitted, Abs format (unit mm)*
G04 Created by KiCad (PCBNEW 4.0.7) date 10/20/19 19:46:38*
%MOMM*%
%LPD*%
G01*
G04 APERTURE LIST*
%ADD10C,0.100000*%
%ADD11R,2.600000X2.600000*%
%ADD12O,2.600000X2.600000*%
%ADD13C,2.900000*%
%ADD14C,2.800000*%
%ADD15O,2.800000X2.800000*%
%ADD16C,3.000000*%
%ADD17C,2.000000*%
%ADD18R,2.000000X2.000000*%
%ADD19R,2.400000X2.400000*%
%ADD20C,2.400000*%
%ADD21O,2.000000X2.000000*%
%ADD22C,1.900000*%
%ADD23C,2.500000*%
%ADD24R,3.400000X3.400000*%
%ADD25C,3.400000*%
%ADD26R,2.100000X2.100000*%
%ADD27O,2.100000X2.100000*%
%ADD28C,1.400000*%
%ADD29R,1.400000X1.400000*%
%ADD30C,2.200000*%
%ADD31C,1.840000*%
%ADD32C,5.400000*%
%ADD33C,4.464000*%
%ADD34R,3.900000X4.400000*%
%ADD35R,4.400000X3.900000*%
%ADD36R,2.200000X2.200000*%
%ADD37O,2.200000X2.200000*%
%ADD38R,2.200000X3.400000*%
%ADD39R,3.400000X2.200000*%
G04 APERTURE END LIST*
D10*
D11*
X95605600Y-81521300D03*
D12*
X103225600Y-81521300D03*
D13*
X114655600Y-58724800D03*
X85699600Y-58724800D03*
X114147600Y-77520800D03*
X85699600Y-77520800D03*
D14*
X88747600Y-85648800D03*
D15*
X76047600Y-85648800D03*
D16*
X42570400Y-107480100D03*
X48170400Y-107480100D03*
D17*
X89570560Y-59679840D03*
X89570560Y-54679840D03*
X96324420Y-47800260D03*
X96324420Y-42800260D03*
D18*
X124206000Y-82550000D03*
D17*
X126706000Y-82550000D03*
D16*
X42697400Y-90576400D03*
X48297400Y-90576400D03*
D17*
X116840000Y-91186000D03*
X116840000Y-93686000D03*
X124320300Y-78447900D03*
X126820300Y-78447900D03*
X63093600Y-60502800D03*
X63093600Y-63002800D03*
X129413000Y-43586400D03*
X129413000Y-46086400D03*
X68681600Y-57454800D03*
X66181600Y-57454800D03*
X121132600Y-51358800D03*
X121132600Y-53858800D03*
X93599000Y-42804080D03*
X93599000Y-47804080D03*
X123550680Y-47945040D03*
X118550680Y-47945040D03*
X126847600Y-44424600D03*
X121847600Y-44424600D03*
D18*
X106654600Y-101396800D03*
D17*
X109154600Y-101396800D03*
X107487720Y-59989720D03*
X109987720Y-59989720D03*
D18*
X114909600Y-119430800D03*
D17*
X119909600Y-119430800D03*
D19*
X125806200Y-129794000D03*
D20*
X125806200Y-134794000D03*
D17*
X107457240Y-57277000D03*
X109957240Y-57277000D03*
X92186760Y-59695080D03*
X92186760Y-54695080D03*
D18*
X124739400Y-120192800D03*
D17*
X124739400Y-117692800D03*
D18*
X123027440Y-92506800D03*
D21*
X123027440Y-100126800D03*
D18*
X119253000Y-89662000D03*
D21*
X126873000Y-89662000D03*
D11*
X130911600Y-90220800D03*
D12*
X130911600Y-97840800D03*
D11*
X135229600Y-93268800D03*
D12*
X135229600Y-100888800D03*
D11*
X136753600Y-120954800D03*
D12*
X129133600Y-120954800D03*
D22*
X52766000Y-58105040D03*
X52766000Y-60645040D03*
D23*
X47686000Y-63185040D03*
X47686000Y-53025040D03*
D24*
X57759600Y-46278800D03*
D25*
X52679600Y-46278800D03*
D22*
X126723100Y-57137300D03*
X126723100Y-54597300D03*
D23*
X131803100Y-52057300D03*
X131803100Y-62217300D03*
D24*
X133223000Y-81026000D03*
D25*
X133223000Y-86106000D03*
D24*
X133441440Y-72979280D03*
D25*
X133441440Y-67899280D03*
D26*
X76301600Y-77266800D03*
D27*
X78841600Y-77266800D03*
X81381600Y-77266800D03*
D26*
X64109600Y-53898800D03*
D27*
X64109600Y-51358800D03*
D26*
X117830600Y-54152800D03*
D27*
X115290600Y-54152800D03*
D26*
X119989600Y-113080800D03*
D27*
X117449600Y-113080800D03*
X114909600Y-113080800D03*
D17*
X63601600Y-71170800D03*
D21*
X73761600Y-71170800D03*
D17*
X70459600Y-42722800D03*
D21*
X70459600Y-52882800D03*
D17*
X103416100Y-42151300D03*
D21*
X103416100Y-52311300D03*
D28*
X119761000Y-83820000D03*
X118491000Y-82550000D03*
D29*
X121031000Y-82550000D03*
D28*
X125069600Y-113588800D03*
X123799600Y-112318800D03*
D29*
X126339600Y-112318800D03*
D17*
X119979440Y-100050600D03*
D21*
X119979440Y-92430600D03*
D17*
X126075440Y-92430600D03*
D21*
X126075440Y-100050600D03*
D14*
X76047600Y-81330800D03*
D15*
X88747600Y-81330800D03*
D14*
X70967600Y-74726800D03*
D15*
X70967600Y-87426800D03*
D17*
X67157600Y-42722800D03*
D21*
X67157600Y-52882800D03*
D17*
X106060240Y-51186080D03*
D21*
X116220240Y-51186080D03*
D17*
X127101600Y-108508800D03*
D21*
X119481600Y-108508800D03*
D14*
X136474200Y-124460000D03*
D15*
X123774200Y-124460000D03*
D14*
X129895600Y-100888800D03*
D15*
X129895600Y-113588800D03*
D17*
X127101600Y-104952800D03*
D21*
X119481600Y-104952800D03*
D17*
X136753600Y-117652800D03*
D21*
X129133600Y-117652800D03*
D30*
X103215600Y-92920800D03*
X103215600Y-103080800D03*
X103215600Y-98000800D03*
X95615600Y-98000800D03*
X95615600Y-92920800D03*
X95615600Y-103080800D03*
X103215600Y-85300800D03*
X95615600Y-85300800D03*
D31*
X67157600Y-61772800D03*
X69697600Y-61772800D03*
X72237600Y-61772800D03*
X120116600Y-57962800D03*
X120116600Y-60502800D03*
X120116600Y-63042800D03*
D32*
X45000000Y-135000000D03*
X135000000Y-135000000D03*
X135000000Y-45000000D03*
X45000000Y-45000000D03*
D17*
X71729600Y-57708800D03*
X76729600Y-57708800D03*
X84546440Y-51018440D03*
X89546440Y-51018440D03*
X105575100Y-96824800D03*
X110575100Y-96824800D03*
D26*
X89446100Y-100825300D03*
D27*
X89446100Y-103365300D03*
X89446100Y-105905300D03*
D26*
X87985600Y-93713300D03*
D27*
X85445600Y-93713300D03*
X82905600Y-93713300D03*
D33*
X62865000Y-81915000D03*
X63144400Y-92290900D03*
D16*
X48450500Y-76098400D03*
X42850500Y-76098400D03*
D33*
X84175600Y-98602800D03*
X100050600Y-109143800D03*
X62217300Y-116509800D03*
X73012300Y-122428000D03*
X62445900Y-103289100D03*
X63474600Y-122542300D03*
D16*
X48056800Y-122542300D03*
X42456800Y-122542300D03*
X72085200Y-132816600D03*
X72085200Y-138416600D03*
X57861200Y-138417300D03*
X57861200Y-132817300D03*
D33*
X109753400Y-121234200D03*
X93370400Y-115443000D03*
X99606100Y-121259600D03*
X70650100Y-93268800D03*
D16*
X112801400Y-131838700D03*
X112801400Y-137438700D03*
X82867500Y-120650000D03*
X82867500Y-115050000D03*
X98856800Y-137579100D03*
X98856800Y-131979100D03*
X74142600Y-109994700D03*
X68542600Y-109994700D03*
D33*
X85496400Y-126123700D03*
X105359200Y-116547900D03*
X68643500Y-118592600D03*
X66776600Y-87680800D03*
X64160400Y-110261400D03*
D20*
X72415400Y-99021900D03*
X64915400Y-99021900D03*
D34*
X71145400Y-99021900D03*
X66065400Y-99021900D03*
D20*
X90360500Y-135509000D03*
X82860500Y-135509000D03*
D34*
X89090500Y-135509000D03*
X84010500Y-135509000D03*
D20*
X77520800Y-109435900D03*
X85020800Y-109435900D03*
D34*
X78790800Y-109435900D03*
X83870800Y-109435900D03*
D20*
X105664000Y-126822200D03*
X98164000Y-126822200D03*
D34*
X104394000Y-126822200D03*
X99314000Y-126822200D03*
D20*
X92430600Y-120230900D03*
X92430600Y-127730900D03*
D35*
X92430600Y-121500900D03*
X92430600Y-126580900D03*
D20*
X110134400Y-126898400D03*
X117634400Y-126898400D03*
D34*
X111404400Y-126898400D03*
X116484400Y-126898400D03*
D20*
X58585100Y-128130300D03*
X51085100Y-128130300D03*
D34*
X57315100Y-128130300D03*
X52235100Y-128130300D03*
D20*
X50800000Y-102489000D03*
X58300000Y-102489000D03*
D34*
X52070000Y-102489000D03*
X57150000Y-102489000D03*
D20*
X62395100Y-128130300D03*
X69895100Y-128130300D03*
D34*
X63665100Y-128130300D03*
X68745100Y-128130300D03*
D20*
X51130200Y-111480600D03*
X58630200Y-111480600D03*
D34*
X52400200Y-111480600D03*
X57480200Y-111480600D03*
D20*
X73571100Y-128244600D03*
X81071100Y-128244600D03*
D34*
X74841100Y-128244600D03*
X79921100Y-128244600D03*
D20*
X50965100Y-120091200D03*
X58465100Y-120091200D03*
D34*
X52235100Y-120091200D03*
X57315100Y-120091200D03*
D20*
X51495960Y-92679520D03*
X58995960Y-92679520D03*
D34*
X52765960Y-92679520D03*
X57845960Y-92679520D03*
D20*
X51473100Y-84505800D03*
X58973100Y-84505800D03*
D34*
X52743100Y-84505800D03*
X57823100Y-84505800D03*
D20*
X51968400Y-76454000D03*
X59468400Y-76454000D03*
D34*
X53238400Y-76454000D03*
X58318400Y-76454000D03*
D17*
X137515600Y-90220800D03*
X135015600Y-90220800D03*
D20*
X115062000Y-86741000D03*
X107858560Y-91968320D03*
D17*
X125984000Y-86868000D03*
D21*
X118364000Y-86868000D03*
D17*
X90830400Y-48031400D03*
D21*
X80670400Y-48031400D03*
D17*
X116052600Y-47929800D03*
D21*
X105892600Y-47929800D03*
D17*
X74015600Y-52882800D03*
D21*
X74015600Y-42722800D03*
D17*
X99860100Y-52374800D03*
D21*
X99860100Y-42214800D03*
D20*
X79463600Y-72614800D03*
X79563600Y-62814800D03*
X76163600Y-72614800D03*
X76263600Y-62814800D03*
X104547680Y-56975040D03*
X94747680Y-56875040D03*
X104547680Y-60275040D03*
X94747680Y-60175040D03*
D33*
X78587600Y-98602800D03*
X105511600Y-109143800D03*
D36*
X114401600Y-104952800D03*
D30*
X116941600Y-104952800D03*
D17*
X110845600Y-75107800D03*
D21*
X103225600Y-75107800D03*
D17*
X108242100Y-78346300D03*
D21*
X100622100Y-78346300D03*
D36*
X80797400Y-44373800D03*
D37*
X83337400Y-44373800D03*
X85877400Y-44373800D03*
D38*
X80797400Y-41833800D03*
X83337400Y-41833800D03*
X85877400Y-41833800D03*
D36*
X110223300Y-44196000D03*
D37*
X112763300Y-44196000D03*
X115303300Y-44196000D03*
D38*
X110223300Y-41656000D03*
X112763300Y-41656000D03*
X115303300Y-41656000D03*
D36*
X135737600Y-106476800D03*
D37*
X135737600Y-109016800D03*
X135737600Y-111556800D03*
D39*
X138277600Y-106476800D03*
X138277600Y-109016800D03*
X138277600Y-111556800D03*
D26*
X120777000Y-78867000D03*
D27*
X118237000Y-78867000D03*
D26*
X116395500Y-97459800D03*
D27*
X113855500Y-97459800D03*
D36*
X136232900Y-128803400D03*
D30*
X133692900Y-128803400D03*
D26*
X113352580Y-93878400D03*
D27*
X113352580Y-91338400D03*
D17*
X110642400Y-88905080D03*
D21*
X110642400Y-81285080D03*
D20*
X114833400Y-81955640D03*
D28*
X126212600Y-73919080D03*
X124942600Y-72649080D03*
D29*
X127482600Y-72649080D03*
D17*
X122542300Y-72872600D03*
D21*
X114922300Y-72872600D03*
D17*
X116088160Y-75692000D03*
D21*
X123708160Y-75692000D03*
M02*
