G04 #@! TF.FileFunction,Soldermask,Top*
%FSLAX46Y46*%
G04 Gerber Fmt 4.6, Leading zero omitted, Abs format (unit mm)*
G04 Created by KiCad (PCBNEW 4.0.7) date 02/14/19 13:11:06*
%MOMM*%
%LPD*%
G01*
G04 APERTURE LIST*
%ADD10C,0.100000*%
%ADD11R,2.000000X2.000000*%
%ADD12C,2.000000*%
%ADD13C,3.000000*%
%ADD14R,2.400000X2.400000*%
%ADD15C,2.400000*%
%ADD16O,2.000000X2.000000*%
%ADD17R,2.600000X2.600000*%
%ADD18O,2.600000X2.600000*%
%ADD19C,1.900000*%
%ADD20C,2.500000*%
%ADD21R,3.400000X3.400000*%
%ADD22C,3.400000*%
%ADD23R,2.100000X2.100000*%
%ADD24O,2.100000X2.100000*%
%ADD25C,1.400000*%
%ADD26R,1.400000X1.400000*%
%ADD27C,2.800000*%
%ADD28O,2.800000X2.800000*%
%ADD29C,2.200000*%
%ADD30C,1.840000*%
%ADD31C,4.464000*%
%ADD32R,2.200000X2.200000*%
%ADD33O,2.200000X2.200000*%
%ADD34R,3.900000X4.400000*%
%ADD35R,4.400000X3.900000*%
G04 APERTURE END LIST*
D10*
D11*
X124206000Y-82550000D03*
D12*
X126706000Y-82550000D03*
D13*
X42697400Y-90576400D03*
X48297400Y-90576400D03*
D12*
X116840000Y-91186000D03*
X116840000Y-93686000D03*
X124206000Y-77978000D03*
X126706000Y-77978000D03*
X65074800Y-60579000D03*
X65074800Y-63079000D03*
X129413000Y-43586400D03*
X129413000Y-46086400D03*
X66217800Y-55438040D03*
X63717800Y-55438040D03*
X128244600Y-53421280D03*
X128244600Y-55921280D03*
X96784160Y-47777400D03*
X91784160Y-47777400D03*
X123550680Y-47945040D03*
X118550680Y-47945040D03*
X97398840Y-44648120D03*
X92398840Y-44648120D03*
X126847600Y-44424600D03*
X121847600Y-44424600D03*
D11*
X100965000Y-95910400D03*
D12*
X100965000Y-98410400D03*
X92456000Y-52514500D03*
X94956000Y-52514500D03*
D11*
X116814600Y-116459000D03*
D12*
X116814600Y-121459000D03*
D14*
X125806200Y-129794000D03*
D15*
X125806200Y-134794000D03*
D12*
X107683300Y-56553100D03*
X110183300Y-56553100D03*
X103695500Y-62420500D03*
X108695500Y-62420500D03*
X103632000Y-59118500D03*
X108632000Y-59118500D03*
D11*
X124739400Y-120192800D03*
D12*
X124739400Y-117692800D03*
D11*
X123027440Y-92506800D03*
D16*
X123027440Y-100126800D03*
D11*
X119253000Y-89662000D03*
D16*
X126873000Y-89662000D03*
D17*
X127101600Y-103593900D03*
D18*
X119481600Y-103593900D03*
D17*
X109468920Y-89575640D03*
D18*
X109468920Y-81955640D03*
D17*
X137414000Y-90170000D03*
D18*
X137414000Y-97790000D03*
D17*
X136829800Y-120294400D03*
D18*
X129209800Y-120294400D03*
D19*
X52766000Y-58105040D03*
X52766000Y-60645040D03*
D20*
X47686000Y-63185040D03*
X47686000Y-53025040D03*
D21*
X58420000Y-46228000D03*
D22*
X53340000Y-46228000D03*
D19*
X126761200Y-68554600D03*
X126761200Y-66014600D03*
D20*
X131841200Y-63474600D03*
X131841200Y-73634600D03*
D21*
X133223000Y-81026000D03*
D22*
X133223000Y-86106000D03*
D21*
X133858000Y-56896000D03*
D22*
X133858000Y-51816000D03*
D23*
X66484500Y-77851000D03*
D24*
X69024500Y-77851000D03*
X71564500Y-77851000D03*
D23*
X63322200Y-52237640D03*
D24*
X63322200Y-49697640D03*
D23*
X119359680Y-51297840D03*
D24*
X119359680Y-53837840D03*
D23*
X110363000Y-106045000D03*
D24*
X112903000Y-106045000D03*
X115443000Y-106045000D03*
D12*
X65024000Y-74231500D03*
D16*
X75184000Y-74231500D03*
D12*
X69837300Y-42976800D03*
D16*
X69837300Y-53136800D03*
D12*
X103378000Y-42303700D03*
D16*
X103378000Y-52463700D03*
D25*
X119761000Y-83820000D03*
X118491000Y-82550000D03*
D26*
X121031000Y-82550000D03*
D25*
X121221500Y-106934000D03*
X122491500Y-108204000D03*
D26*
X119951500Y-108204000D03*
D25*
X130111500Y-104965500D03*
X131381500Y-103695500D03*
D26*
X131381500Y-106235500D03*
D12*
X119979440Y-100050600D03*
D16*
X119979440Y-92430600D03*
D12*
X126075440Y-92430600D03*
D16*
X126075440Y-100050600D03*
D27*
X83756500Y-85915500D03*
D28*
X71056500Y-85915500D03*
D27*
X71056500Y-81661000D03*
D28*
X83756500Y-81661000D03*
D27*
X62903100Y-70294500D03*
D28*
X75603100Y-70294500D03*
D12*
X66446400Y-42900600D03*
D16*
X66446400Y-53060600D03*
D12*
X106060240Y-51186080D03*
D16*
X116220240Y-51186080D03*
D12*
X132842000Y-109601000D03*
D16*
X125222000Y-109601000D03*
D27*
X136474200Y-124460000D03*
D28*
X123774200Y-124460000D03*
D27*
X104140000Y-110236000D03*
D28*
X116840000Y-110236000D03*
D12*
X130810000Y-90424000D03*
D16*
X130810000Y-98044000D03*
D12*
X136906000Y-116814600D03*
D16*
X129286000Y-116814600D03*
D29*
X98193880Y-89799320D03*
X88033880Y-89799320D03*
X93113880Y-89799320D03*
X93113880Y-82199320D03*
X98193880Y-82199320D03*
X88033880Y-82199320D03*
X105813880Y-89799320D03*
X105813880Y-82199320D03*
D30*
X69263260Y-61803280D03*
X71803260Y-61803280D03*
X74343260Y-61803280D03*
X123662440Y-51689000D03*
X123662440Y-54229000D03*
X123662440Y-56769000D03*
D12*
X81079040Y-74347080D03*
X81179040Y-64547080D03*
X77779040Y-74347080D03*
X77879040Y-64547080D03*
X101504760Y-55044640D03*
X91704760Y-54944640D03*
X101504760Y-58344640D03*
X91704760Y-58244640D03*
D31*
X45000000Y-135000000D03*
X135000000Y-135000000D03*
X135000000Y-45000000D03*
X45000000Y-45000000D03*
D32*
X80822800Y-43891200D03*
D33*
X83362800Y-43891200D03*
X85902800Y-43891200D03*
D32*
X110223300Y-44196000D03*
D33*
X112763300Y-44196000D03*
X115303300Y-44196000D03*
D32*
X136017000Y-104711500D03*
D33*
X136017000Y-107251500D03*
X136017000Y-109791500D03*
D12*
X68849240Y-55854600D03*
X73849240Y-55854600D03*
X84546440Y-51018440D03*
X89546440Y-51018440D03*
X98120200Y-92659200D03*
X103120200Y-92659200D03*
D23*
X91821000Y-94361000D03*
D24*
X91821000Y-96901000D03*
X91821000Y-99441000D03*
D23*
X88265000Y-94297500D03*
D24*
X88265000Y-96837500D03*
X88265000Y-99377500D03*
D31*
X62865000Y-81915000D03*
X63144400Y-92290900D03*
D13*
X48450500Y-76098400D03*
X42850500Y-76098400D03*
D31*
X82296000Y-99517200D03*
X91516200Y-105816400D03*
X62217300Y-116509800D03*
X73012300Y-122428000D03*
X62445900Y-103289100D03*
X63474600Y-122542300D03*
D13*
X48056800Y-122542300D03*
X42456800Y-122542300D03*
X72085200Y-132816600D03*
X72085200Y-138416600D03*
X42570400Y-107480100D03*
X48170400Y-107480100D03*
X57861200Y-138417300D03*
X57861200Y-132817300D03*
D31*
X109753400Y-121234200D03*
X93370400Y-115443000D03*
X99606100Y-121259600D03*
X71589900Y-93268800D03*
D13*
X112801400Y-131838700D03*
X112801400Y-137438700D03*
X82867500Y-120650000D03*
X82867500Y-115050000D03*
X98856800Y-137579100D03*
X98856800Y-131979100D03*
X74142600Y-109994700D03*
X68542600Y-109994700D03*
D31*
X85496400Y-126123700D03*
X105359200Y-116547900D03*
X68643500Y-118592600D03*
X66929000Y-87376000D03*
X64160400Y-110261400D03*
D17*
X134112000Y-97993200D03*
D18*
X134112000Y-90373200D03*
D15*
X72415400Y-99021900D03*
X64915400Y-99021900D03*
D34*
X71145400Y-99021900D03*
X66065400Y-99021900D03*
D15*
X90360500Y-135509000D03*
X82860500Y-135509000D03*
D34*
X89090500Y-135509000D03*
X84010500Y-135509000D03*
D15*
X77520800Y-109435900D03*
X85020800Y-109435900D03*
D34*
X78790800Y-109435900D03*
X83870800Y-109435900D03*
D15*
X105664000Y-126822200D03*
X98164000Y-126822200D03*
D34*
X104394000Y-126822200D03*
X99314000Y-126822200D03*
D15*
X92430600Y-120230900D03*
X92430600Y-127730900D03*
D35*
X92430600Y-121500900D03*
X92430600Y-126580900D03*
D15*
X110134400Y-126898400D03*
X117634400Y-126898400D03*
D34*
X111404400Y-126898400D03*
X116484400Y-126898400D03*
D15*
X58585100Y-128130300D03*
X51085100Y-128130300D03*
D34*
X57315100Y-128130300D03*
X52235100Y-128130300D03*
D15*
X50800000Y-102489000D03*
X58300000Y-102489000D03*
D34*
X52070000Y-102489000D03*
X57150000Y-102489000D03*
D15*
X62395100Y-128130300D03*
X69895100Y-128130300D03*
D34*
X63665100Y-128130300D03*
X68745100Y-128130300D03*
D15*
X51130200Y-111480600D03*
X58630200Y-111480600D03*
D34*
X52400200Y-111480600D03*
X57480200Y-111480600D03*
D15*
X73571100Y-128244600D03*
X81071100Y-128244600D03*
D34*
X74841100Y-128244600D03*
X79921100Y-128244600D03*
D15*
X50965100Y-120091200D03*
X58465100Y-120091200D03*
D34*
X52235100Y-120091200D03*
X57315100Y-120091200D03*
D15*
X58978800Y-92964000D03*
X51478800Y-92964000D03*
D34*
X57708800Y-92964000D03*
X52628800Y-92964000D03*
D15*
X51473100Y-84505800D03*
X58973100Y-84505800D03*
D34*
X52743100Y-84505800D03*
X57823100Y-84505800D03*
D15*
X51968400Y-76454000D03*
X59468400Y-76454000D03*
D34*
X53238400Y-76454000D03*
X58318400Y-76454000D03*
D12*
X130810000Y-113792000D03*
X128310000Y-113792000D03*
X130302000Y-100584000D03*
X132802000Y-100584000D03*
D17*
X81752440Y-58059320D03*
D18*
X81752440Y-50439320D03*
D17*
X115506500Y-58445400D03*
D18*
X115506500Y-66065400D03*
D17*
X76387960Y-54203600D03*
D18*
X76387960Y-46583600D03*
D17*
X118973600Y-66192400D03*
D18*
X118973600Y-58572400D03*
D15*
X115062000Y-86741000D03*
X114909600Y-82397600D03*
D12*
X125984000Y-86868000D03*
D16*
X118364000Y-86868000D03*
D12*
X89631520Y-47665640D03*
D16*
X79471520Y-47665640D03*
D12*
X116052600Y-47929800D03*
D16*
X105892600Y-47929800D03*
D12*
X73040240Y-52923440D03*
D16*
X73040240Y-42763440D03*
D12*
X99974400Y-52362100D03*
D16*
X99974400Y-42202100D03*
D15*
X112557560Y-59019440D03*
X87157560Y-59019440D03*
X112557560Y-79339440D03*
X87157560Y-79339440D03*
M02*
