M48
;DRILL file {KiCad 4.0.7} date 02/19/19 23:02:31
;FORMAT={-:-/ absolute / metric / decimal}
FMAT,2
METRIC,TZ
T1C0.600
T2C0.800
T3C0.900
T4C1.000
T5C1.100
T6C1.200
T7C1.300
T8C1.500
T9C1.520
T10C3.048
%
G90
G05
M71
T1
X118.491Y-82.55
X119.761Y-83.82
X121.031Y-82.55
X123.8Y-112.319
X125.07Y-113.589
X126.34Y-112.319
T2
X63.094Y-60.503
X63.094Y-63.003
X64.11Y-74.219
X66.182Y-57.455
X67.158Y-42.723
X67.158Y-52.883
X67.158Y-61.773
X68.682Y-57.455
X69.698Y-61.773
X70.46Y-42.723
X70.46Y-52.883
X71.73Y-57.709
X72.238Y-61.773
X74.016Y-42.723
X74.016Y-52.883
X74.27Y-74.219
X76.73Y-57.709
X80.625Y-47.671
X84.546Y-51.018
X89.546Y-51.018
X89.571Y-54.68
X89.571Y-59.68
X90.785Y-47.671
X92.187Y-54.695
X92.187Y-59.695
X93.599Y-42.804
X93.599Y-47.804
X96.324Y-42.8
X96.324Y-47.8
X98.12Y-92.659
X99.974Y-42.202
X99.974Y-52.362
X100.965Y-95.91
X100.965Y-98.41
X103.12Y-92.659
X103.353Y-42.139
X103.353Y-52.299
X105.893Y-47.93
X106.06Y-51.186
X107.457Y-57.277
X107.488Y-59.99
X109.957Y-57.277
X109.988Y-59.99
X114.91Y-119.431
X116.053Y-47.93
X116.22Y-51.186
X116.84Y-91.186
X116.84Y-93.686
X118.364Y-86.868
X118.551Y-47.945
X119.253Y-89.662
X119.482Y-104.953
X119.482Y-108.509
X119.91Y-119.431
X119.979Y-92.431
X119.979Y-100.051
X120.117Y-57.963
X120.117Y-60.503
X120.117Y-63.043
X121.133Y-51.359
X121.133Y-53.859
X121.848Y-44.425
X123.027Y-92.507
X123.027Y-100.127
X123.551Y-47.945
X124.206Y-77.978
X124.206Y-82.55
X124.739Y-117.693
X124.739Y-120.193
X125.984Y-86.868
X126.075Y-92.431
X126.075Y-100.051
X126.706Y-77.978
X126.706Y-82.55
X126.848Y-44.425
X126.873Y-89.662
X127.102Y-104.953
X127.102Y-108.509
X129.134Y-117.653
X129.413Y-43.586
X129.413Y-46.086
X135.016Y-90.221
X136.754Y-117.653
X137.516Y-90.221
T3
X52.766Y-58.105
X52.766Y-60.645
X114.402Y-104.953
X116.942Y-104.953
X126.723Y-54.597
X126.723Y-57.137
T4
X50.8Y-102.489
X50.965Y-120.091
X51.085Y-128.13
X51.13Y-111.481
X51.473Y-84.506
X51.496Y-92.68
X51.968Y-76.454
X58.3Y-102.489
X58.465Y-120.091
X58.585Y-128.13
X58.63Y-111.481
X58.973Y-84.506
X58.996Y-92.68
X59.468Y-76.454
X62.395Y-128.13
X64.11Y-51.359
X64.11Y-53.899
X64.915Y-99.022
X67.92Y-77.775
X69.895Y-128.13
X70.46Y-77.775
X72.415Y-99.022
X73.Y-77.775
X73.571Y-128.245
X76.164Y-72.615
X76.264Y-62.815
X77.521Y-109.436
X79.464Y-72.615
X79.564Y-62.815
X80.823Y-43.891
X81.071Y-128.245
X82.861Y-135.509
X83.363Y-43.891
X85.021Y-109.436
X85.903Y-43.891
X90.018Y-94.539
X90.018Y-97.079
X90.018Y-99.619
X90.361Y-135.509
X92.431Y-120.231
X92.431Y-127.731
X93.828Y-94.539
X93.828Y-97.079
X93.828Y-99.619
X94.748Y-56.875
X94.748Y-60.175
X98.164Y-126.822
X104.548Y-56.975
X104.548Y-60.275
X105.664Y-126.822
X110.134Y-126.898
X110.223Y-44.196
X112.763Y-44.196
X114.91Y-82.398
X114.91Y-113.081
X115.062Y-86.741
X115.291Y-54.153
X115.303Y-44.196
X117.45Y-113.081
X117.634Y-126.898
X117.831Y-54.153
X119.99Y-113.081
X125.806Y-129.794
X125.806Y-134.794
X135.738Y-106.477
X135.738Y-109.017
X135.738Y-111.557
T5
X84.43Y-55.677
X84.43Y-63.297
X84.43Y-66.345
X84.43Y-73.965
X88.034Y-82.199
X88.034Y-89.799
X93.114Y-82.199
X93.114Y-89.799
X98.194Y-82.199
X98.194Y-89.799
X105.814Y-82.199
X105.814Y-89.799
X109.469Y-81.956
X109.469Y-89.576
X115.291Y-59.868
X115.291Y-67.488
X115.926Y-70.409
X115.926Y-78.029
X129.134Y-120.955
X130.912Y-90.221
X130.912Y-97.841
X135.23Y-93.269
X135.23Y-100.889
X136.754Y-120.955
T6
X61.189Y-70.409
X69.952Y-81.712
X69.952Y-85.903
X73.889Y-70.409
X82.652Y-81.712
X82.652Y-85.903
X123.774Y-124.46
X129.896Y-100.889
X129.896Y-113.589
X136.474Y-124.46
T7
X42.457Y-122.542
X42.57Y-107.48
X42.697Y-90.576
X42.85Y-76.098
X48.057Y-122.542
X48.17Y-107.48
X48.297Y-90.576
X48.45Y-76.098
X57.861Y-132.817
X57.861Y-138.417
X68.543Y-109.995
X72.085Y-132.817
X72.085Y-138.417
X74.143Y-109.995
X82.867Y-115.05
X82.867Y-120.65
X87.224Y-58.217
X87.224Y-78.537
X98.857Y-131.979
X98.857Y-137.579
X112.624Y-58.217
X112.624Y-78.537
X112.801Y-131.839
X112.801Y-137.439
T8
X62.217Y-116.51
X62.446Y-103.289
X62.865Y-81.915
X63.144Y-92.291
X63.475Y-122.542
X64.16Y-110.261
X66.777Y-87.681
X68.644Y-118.593
X71.59Y-93.269
X73.012Y-122.428
X82.144Y-91.999
X82.296Y-99.517
X85.496Y-126.124
X91.516Y-105.816
X93.37Y-115.443
X97.384Y-105.969
X99.606Y-121.26
X105.359Y-116.548
X109.753Y-121.234
T9
X53.34Y-46.228
X58.42Y-46.228
X133.223Y-81.026
X133.223Y-86.106
X133.325Y-68.631
X133.325Y-73.711
T10
X45.Y-45.
X45.Y-135.
X135.Y-45.
X135.Y-135.
T0
M30
