M48
;DRILL file {KiCad 4.0.7} date 02/13/19 16:56:49
;FORMAT={-:-/ absolute / metric / decimal}
FMAT,2
METRIC,TZ
T1C0.400
T2C0.600
T3C0.800
T4C0.900
T5C1.000
T6C1.100
T7C1.200
T8C1.300
T9C1.500
T10C1.520
T11C3.048
%
G90
G05
M71
T1
X63.398Y-41.681
X125.832Y-41.859
T2
X118.491Y-82.55
X119.761Y-83.82
X119.951Y-108.204
X121.031Y-82.55
X121.221Y-106.934
X122.491Y-108.204
X130.112Y-104.965
X131.381Y-103.695
X131.381Y-106.236
T3
X65.024Y-74.231
X65.075Y-60.579
X65.075Y-63.079
X66.853Y-42.926
X66.853Y-53.086
X67.208Y-56.083
X69.263Y-61.803
X69.708Y-56.083
X70.51Y-42.926
X70.51Y-53.086
X71.803Y-61.803
X74.343Y-61.803
X75.184Y-74.231
X78.456Y-56.746
X78.456Y-61.746
X78.842Y-52.222
X83.842Y-52.222
X83.848Y-55.349
X86.411Y-52.222
X88.848Y-55.349
X91.411Y-52.222
X92.242Y-56.642
X94.742Y-56.642
X99.251Y-106.108
X99.251Y-108.608
X102.565Y-56.058
X102.667Y-42.774
X102.667Y-52.934
X102.87Y-102.362
X103.124Y-68.834
X103.251Y-65.786
X106.528Y-53.086
X107.793Y-61.077
X107.87Y-102.362
X108.124Y-68.834
X108.251Y-65.786
X110.293Y-61.077
X111.528Y-53.086
X112.725Y-56.058
X114.148Y-52.934
X115.976Y-60.249
X116.815Y-116.459
X116.815Y-121.459
X116.84Y-91.186
X116.84Y-93.686
X118.364Y-86.868
X118.476Y-60.249
X119.148Y-52.934
X119.253Y-89.662
X119.979Y-92.431
X119.979Y-100.051
X122.707Y-43.967
X122.707Y-46.467
X123.027Y-92.507
X123.027Y-100.127
X124.104Y-50.711
X124.104Y-53.251
X124.104Y-55.791
X124.206Y-77.978
X124.206Y-82.55
X124.739Y-117.693
X124.739Y-120.193
X125.222Y-109.601
X125.984Y-86.868
X126.075Y-92.431
X126.075Y-100.051
X126.706Y-77.978
X126.706Y-82.55
X126.873Y-89.662
X128.31Y-113.792
X129.286Y-116.815
X130.302Y-100.584
X130.81Y-90.424
X130.81Y-98.044
X130.81Y-113.792
X132.802Y-100.584
X132.842Y-109.601
X136.906Y-116.815
T4
X52.766Y-58.105
X52.766Y-60.645
X126.761Y-66.015
X126.761Y-68.555
T5
X50.8Y-102.489
X50.965Y-120.091
X51.085Y-128.13
X51.13Y-111.481
X51.473Y-84.506
X51.479Y-92.964
X51.968Y-76.454
X58.3Y-102.489
X58.465Y-120.091
X58.585Y-128.13
X58.63Y-111.481
X58.973Y-84.506
X58.979Y-92.964
X59.468Y-76.454
X62.395Y-128.13
X63.221Y-51.689
X63.221Y-54.229
X64.915Y-99.022
X66.484Y-77.851
X69.025Y-77.851
X69.895Y-128.13
X71.564Y-77.851
X72.415Y-99.022
X73.571Y-128.245
X77.521Y-109.436
X77.779Y-74.347
X77.879Y-64.547
X81.071Y-128.245
X81.079Y-74.347
X81.179Y-64.547
X81.915Y-94.043
X81.915Y-96.584
X81.915Y-99.123
X82.861Y-135.509
X82.906Y-44.196
X85.021Y-109.436
X85.446Y-44.196
X85.852Y-93.98
X85.852Y-96.52
X85.852Y-99.06
X87.986Y-44.196
X90.361Y-135.509
X92.431Y-120.231
X92.431Y-127.731
X94.895Y-60.035
X94.895Y-63.335
X98.164Y-126.822
X104.695Y-60.135
X104.695Y-63.435
X105.664Y-126.822
X109.88Y-44.237
X110.134Y-126.898
X110.363Y-106.045
X112.42Y-44.237
X112.903Y-106.045
X114.91Y-82.398
X114.96Y-44.237
X115.062Y-86.741
X115.443Y-106.045
X115.824Y-56.439
X117.634Y-126.898
X118.364Y-56.439
X125.806Y-129.794
X125.806Y-134.794
X136.017Y-104.712
X136.017Y-107.251
X136.017Y-109.791
T6
X83.82Y-59.182
X84.074Y-61.976
X84.074Y-69.596
X91.44Y-59.182
X91.724Y-92.123
X91.724Y-99.723
X96.804Y-92.123
X96.804Y-99.723
X101.884Y-92.123
X101.884Y-99.723
X109.504Y-92.123
X109.504Y-99.723
X113.322Y-92.24
X113.322Y-99.86
X114.889Y-63.264
X114.889Y-70.884
X118.377Y-63.284
X118.377Y-70.904
X119.482Y-103.594
X127.102Y-103.594
X129.21Y-120.294
X134.112Y-90.373
X134.112Y-97.993
X136.83Y-120.294
X137.414Y-90.17
X137.414Y-97.79
T7
X62.903Y-70.294
X72.009Y-85.852
X72.072Y-81.661
X75.032Y-43.485
X75.032Y-56.185
X75.603Y-70.294
X79.299Y-48.311
X84.709Y-85.852
X84.772Y-81.661
X91.999Y-48.311
X98.857Y-43.231
X98.857Y-55.931
X104.14Y-110.236
X106.07Y-49.174
X116.84Y-110.236
X118.77Y-49.174
X123.774Y-124.46
X136.474Y-124.46
T8
X42.457Y-122.542
X42.57Y-107.48
X42.697Y-90.576
X42.85Y-76.098
X48.057Y-122.542
X48.17Y-107.48
X48.297Y-90.576
X48.45Y-76.098
X57.861Y-132.817
X57.861Y-138.417
X68.543Y-109.995
X72.085Y-132.817
X72.085Y-138.417
X74.143Y-109.995
X82.867Y-115.05
X82.867Y-120.65
X86.868Y-69.088
X86.868Y-89.408
X98.857Y-131.979
X98.857Y-137.579
X112.268Y-69.088
X112.268Y-89.408
X112.801Y-131.839
X112.801Y-137.439
T9
X62.217Y-116.51
X62.446Y-103.289
X62.865Y-81.915
X63.144Y-92.291
X63.475Y-122.542
X64.16Y-110.261
X67.729Y-88.062
X68.644Y-118.593
X71.59Y-93.269
X73.012Y-122.428
X77.965Y-99.212
X85.496Y-126.124
X90.386Y-105.169
X93.37Y-115.443
X99.606Y-121.26
X105.359Y-116.548
X109.753Y-121.234
T10
X53.34Y-46.228
X58.42Y-46.228
X133.223Y-81.026
X133.223Y-86.106
X133.858Y-51.816
X133.858Y-56.896
T11
X45.Y-45.
X45.Y-135.
X135.Y-45.
X135.Y-135.
T0
M30
