M48
;DRILL file {KiCad 4.0.7} date 02/20/19 17:18:02
;FORMAT={-:-/ absolute / metric / decimal}
FMAT,2
METRIC,TZ
T1C0.400
T2C0.600
T3C0.800
T4C0.900
T5C1.000
T6C1.100
T7C1.200
T8C1.300
T9C1.500
T10C1.520
T11C3.048
%
G90
G05
M71
T1
X55.717Y-62.667
X55.728Y-59.995
X55.728Y-63.551
X55.819Y-67.198
X56.388Y-67.95
X59.436Y-54.62
X59.436Y-60.919
X59.538Y-53.645
X59.538Y-62.027
X59.792Y-51.867
X60.249Y-68.397
X60.3Y-64.059
X61.036Y-64.74
X61.244Y-68.438
X62.84Y-78.029
X63.602Y-78.283
X64.171Y-68.905
X64.882Y-69.515
X65.38Y-65.075
X66.142Y-80.569
X66.396Y-81.585
X66.431Y-64.968
X67.92Y-83.363
X68.783Y-69.779
X68.936Y-83.871
X69.698Y-65.075
X70.104Y-69.84
X70.82Y-64.999
X71.984Y-83.871
X72.492Y-84.887
X73.457Y-59.538
X73.965Y-58.725
X74.016Y-65.075
X74.016Y-88.697
X74.27Y-89.967
X74.778Y-56.947
X74.778Y-96.317
X74.778Y-97.587
X75.209Y-65.166
X75.235Y-56.185
X75.286Y-102.159
X76.048Y-54.813
X76.302Y-102.921
X76.556Y-53.899
X77.572Y-51.867
X77.572Y-65.837
X78.08Y-51.105
X79.35Y-49.835
X79.35Y-66.091
X79.858Y-104.953
X80.01Y-49.632
X80.112Y-89.713
X80.874Y-68.123
X81.128Y-66.599
X81.128Y-71.933
X81.128Y-105.461
X81.382Y-74.727
X81.559Y-65.735
X81.636Y-54.915
X81.636Y-59.741
X81.636Y-61.265
X81.636Y-62.027
X81.636Y-88.951
X81.89Y-56.439
X81.89Y-58.217
X82.144Y-53.645
X82.652Y-49.073
X82.652Y-76.505
X82.906Y-68.377
X83.16Y-53.137
X83.16Y-71.933
X83.414Y-49.073
X83.414Y-78.283
X83.668Y-88.443
X83.922Y-68.377
X84.176Y-71.933
X84.43Y-80.061
X84.938Y-88.189
X85.176Y-49.073
X85.192Y-53.137
X85.192Y-105.969
X85.7Y-80.315
X86.462Y-91.999
X86.462Y-106.223
X86.716Y-68.377
X86.716Y-93.523
X86.716Y-96.825
X86.716Y-98.603
X86.716Y-99.619
X86.716Y-101.651
X86.716Y-102.921
X86.97Y-87.427
X87.211Y-63.368
X87.224Y-61.265
X87.224Y-73.711
X87.224Y-108.763
X87.478Y-64.313
X87.986Y-85.903
X87.986Y-110.033
X88.24Y-65.583
X88.24Y-68.377
X88.748Y-49.073
X88.748Y-52.883
X88.748Y-66.853
X88.748Y-74.981
X88.748Y-80.569
X88.748Y-84.633
X89.002Y-83.617
X89.352Y-75.667
X89.764Y-68.377
X90.388Y-69.408
X90.78Y-49.327
X91.034Y-111.303
X91.288Y-77.775
X91.542Y-49.581
X91.897Y-52.781
X92.095Y-78.669
X92.304Y-111.303
X92.812Y-52.807
X92.812Y-71.425
X93.528Y-72.009
X93.574Y-49.835
X93.828Y-80.569
X94.336Y-49.835
X94.544Y-80.97
X95.352Y-75.489
X95.606Y-82.855
X95.606Y-111.811
X95.961Y-53.086
X96.073Y-76.032
X96.368Y-49.835
X96.876Y-53.137
X97.13Y-112.065
X97.384Y-49.581
X98.146Y-41.707
X98.146Y-44.755
X98.4Y-45.517
X98.4Y-79.045
X98.654Y-47.295
X98.654Y-48.311
X98.654Y-53.899
X99.67Y-54.153
X100.94Y-86.411
X101.031Y-44.277
X101.148Y-49.073
X101.194Y-53.899
X101.443Y-84.96
X101.448Y-49.835
X101.448Y-112.065
X101.648Y-80.8
X101.702Y-81.585
X101.727Y-53.264
X102.21Y-78.283
X102.718Y-112.319
X102.748Y-77.572
X104.75Y-75.489
X105.443Y-74.912
X106.02Y-112.319
X107.036Y-112.573
X107.798Y-72.949
X108.052Y-79.807
X108.61Y-78.943
X108.666Y-72.558
X109.83Y-117.399
X110.084Y-62.535
X110.084Y-79.553
X110.338Y-76.759
X110.482Y-64.671
X110.592Y-65.583
X111.1Y-69.393
X111.112Y-68.489
X111.354Y-76.251
X112.027Y-71.346
X112.116Y-72.441
X113.894Y-72.441
X115.926Y-72.441
X116.053Y-75.997
X116.942Y-72.441
X117.069Y-75.997
X119.99Y-71.933
X120.924Y-67.727
X120.998Y-71.895
X121.006Y-75.997
X121.26Y-66.777
X122.022Y-75.997
X122.321Y-63.591
X122.712Y-62.194
X123.546Y-71.679
X123.998Y-58.171
X124.612Y-57.221
X125.059Y-55.88
X125.578Y-75.997
X126.594Y-75.997
X126.848Y-71.425
X128.118Y-71.171
X128.808Y-71.156
X130.658Y-75.997
X131.166Y-69.901
X131.234Y-76.528
X137.549Y-76.975
T2
X118.491Y-82.55
X119.761Y-83.82
X121.031Y-82.55
X123.8Y-112.319
X125.07Y-113.589
X126.34Y-112.319
T3
X63.094Y-60.503
X63.094Y-63.003
X64.11Y-74.219
X66.182Y-57.455
X67.158Y-42.723
X67.158Y-52.883
X67.158Y-61.773
X68.682Y-57.455
X69.698Y-61.773
X70.46Y-42.723
X70.46Y-52.883
X71.73Y-57.709
X72.238Y-61.773
X74.016Y-42.723
X74.016Y-52.883
X74.27Y-74.219
X76.73Y-57.709
X80.625Y-47.671
X84.546Y-51.018
X89.546Y-51.018
X89.571Y-54.68
X89.571Y-59.68
X90.785Y-47.671
X92.187Y-54.695
X92.187Y-59.695
X93.599Y-42.804
X93.599Y-47.804
X96.324Y-42.8
X96.324Y-47.8
X98.4Y-93.095
X98.4Y-98.095
X99.974Y-42.202
X99.974Y-52.362
X101.956Y-95.809
X103.353Y-42.139
X103.353Y-52.299
X104.456Y-95.809
X105.893Y-47.93
X106.06Y-51.186
X107.457Y-57.277
X107.488Y-59.99
X109.957Y-57.277
X109.988Y-59.99
X114.91Y-119.431
X116.053Y-47.93
X116.22Y-51.186
X116.84Y-91.186
X116.84Y-93.686
X118.364Y-86.868
X118.551Y-47.945
X119.253Y-89.662
X119.482Y-104.953
X119.482Y-108.509
X119.91Y-119.431
X119.979Y-92.431
X119.979Y-100.051
X120.117Y-57.963
X120.117Y-60.503
X120.117Y-63.043
X121.133Y-51.359
X121.133Y-53.859
X121.848Y-44.425
X123.027Y-92.507
X123.027Y-100.127
X123.551Y-47.945
X124.206Y-77.978
X124.206Y-82.55
X124.739Y-117.693
X124.739Y-120.193
X125.984Y-86.868
X126.075Y-92.431
X126.075Y-100.051
X126.706Y-77.978
X126.706Y-82.55
X126.848Y-44.425
X126.873Y-89.662
X127.102Y-104.953
X127.102Y-108.509
X129.134Y-117.653
X129.413Y-43.586
X129.413Y-46.086
X135.016Y-90.221
X136.754Y-117.653
X137.516Y-90.221
T4
X52.766Y-58.105
X52.766Y-60.645
X114.402Y-104.953
X116.942Y-104.953
X126.723Y-54.597
X126.723Y-57.137
T5
X50.8Y-102.489
X50.965Y-120.091
X51.085Y-128.13
X51.13Y-111.481
X51.473Y-84.506
X51.496Y-92.68
X51.968Y-76.454
X58.3Y-102.489
X58.465Y-120.091
X58.585Y-128.13
X58.63Y-111.481
X58.973Y-84.506
X58.996Y-92.68
X59.468Y-76.454
X62.395Y-128.13
X64.11Y-51.359
X64.11Y-53.899
X64.915Y-99.022
X67.92Y-77.775
X69.895Y-128.13
X70.46Y-77.775
X72.415Y-99.022
X73.Y-77.775
X73.571Y-128.245
X76.164Y-72.615
X76.264Y-62.815
X77.521Y-109.436
X79.464Y-72.615
X79.564Y-62.815
X80.823Y-43.891
X81.071Y-128.245
X82.861Y-135.509
X83.363Y-43.891
X84.684Y-95.047
X84.684Y-97.587
X84.684Y-100.127
X85.021Y-109.436
X85.903Y-43.891
X88.748Y-95.047
X88.748Y-97.587
X88.748Y-100.127
X90.361Y-135.509
X92.431Y-120.231
X92.431Y-127.731
X94.748Y-56.875
X94.748Y-60.175
X98.164Y-126.822
X104.548Y-56.975
X104.548Y-60.275
X105.664Y-126.822
X110.134Y-126.898
X110.223Y-44.196
X112.763Y-44.196
X114.91Y-82.398
X114.91Y-113.081
X115.062Y-86.741
X115.291Y-54.153
X115.303Y-44.196
X117.45Y-113.081
X117.634Y-126.898
X117.831Y-54.153
X119.99Y-113.081
X125.806Y-129.794
X125.806Y-134.794
X135.738Y-106.477
X135.738Y-109.017
X135.738Y-111.557
T6
X84.43Y-55.677
X84.43Y-63.297
X84.43Y-66.345
X84.43Y-73.965
X88.034Y-82.199
X88.034Y-89.799
X93.114Y-82.199
X93.114Y-89.799
X98.194Y-82.199
X98.194Y-89.799
X105.814Y-82.199
X105.814Y-89.799
X109.469Y-81.956
X109.469Y-89.576
X115.291Y-59.868
X115.291Y-67.488
X115.926Y-70.409
X115.926Y-78.029
X129.134Y-120.955
X130.912Y-90.221
X130.912Y-97.841
X135.23Y-93.269
X135.23Y-100.889
X136.754Y-120.955
T7
X61.189Y-70.409
X69.952Y-81.712
X69.952Y-85.903
X73.889Y-70.409
X82.652Y-81.712
X82.652Y-85.903
X123.774Y-124.46
X129.896Y-100.889
X129.896Y-113.589
X136.474Y-124.46
T8
X42.457Y-122.542
X42.57Y-107.48
X42.697Y-90.576
X42.85Y-76.098
X48.057Y-122.542
X48.17Y-107.48
X48.297Y-90.576
X48.45Y-76.098
X57.861Y-132.817
X57.861Y-138.417
X68.543Y-109.995
X72.085Y-132.817
X72.085Y-138.417
X74.143Y-109.995
X82.867Y-115.05
X82.867Y-120.65
X87.224Y-58.217
X87.224Y-78.537
X98.857Y-131.979
X98.857Y-137.579
X112.624Y-58.217
X112.624Y-78.537
X112.801Y-131.839
X112.801Y-137.439
T9
X62.217Y-116.51
X62.446Y-103.289
X62.865Y-81.915
X63.144Y-92.291
X63.475Y-122.542
X64.16Y-110.261
X66.777Y-87.681
X68.644Y-118.593
X71.59Y-93.269
X73.012Y-122.428
X77.826Y-92.253
X79.35Y-99.873
X85.496Y-126.124
X91.034Y-106.731
X93.37Y-115.443
X97.384Y-106.985
X99.606Y-121.26
X105.359Y-116.548
X109.753Y-121.234
T10
X53.34Y-46.228
X58.42Y-46.228
X133.223Y-81.026
X133.223Y-86.106
X133.325Y-68.631
X133.325Y-73.711
T11
X45.Y-45.
X45.Y-135.
X135.Y-45.
X135.Y-135.
T0
M30
