M48
;DRILL file {KiCad 4.0.7} date 02/13/19 11:03:39
;FORMAT={-:-/ absolute / metric / decimal}
FMAT,2
METRIC,TZ
T1C0.400
T2C0.600
T3C0.800
T4C0.900
T5C1.000
T6C1.100
T7C1.200
T8C1.300
T9C1.500
T10C1.520
T11C3.048
%
G90
G05
M71
T1
X63.398Y-41.681
X125.832Y-41.859
T2
X118.455Y-84.562
X119.725Y-83.292
X119.725Y-85.832
X119.951Y-108.204
X121.221Y-106.934
X122.491Y-108.204
X130.112Y-104.965
X131.381Y-103.695
X131.381Y-106.236
T3
X65.024Y-74.231
X65.075Y-60.579
X65.075Y-63.079
X66.853Y-42.926
X66.853Y-53.086
X67.208Y-56.083
X69.647Y-61.824
X69.708Y-56.083
X70.51Y-42.926
X70.51Y-53.086
X72.187Y-61.824
X74.727Y-61.824
X75.184Y-74.231
X78.842Y-52.222
X79.019Y-56.413
X79.019Y-61.413
X83.82Y-57.442
X83.842Y-52.222
X86.411Y-52.222
X88.82Y-57.442
X91.411Y-52.222
X92.026Y-57.087
X94.526Y-57.087
X99.251Y-106.108
X99.251Y-108.608
X102.565Y-56.058
X102.667Y-42.774
X102.667Y-52.934
X102.87Y-102.362
X103.124Y-68.834
X103.251Y-65.786
X106.528Y-53.086
X107.87Y-102.362
X108.124Y-68.834
X108.204Y-61.087
X108.251Y-65.786
X110.704Y-61.087
X111.528Y-53.086
X112.725Y-56.058
X114.148Y-52.934
X115.976Y-60.249
X116.815Y-116.459
X116.815Y-121.459
X116.84Y-91.186
X116.84Y-93.686
X118.476Y-60.249
X119.148Y-52.934
X119.253Y-89.662
X119.979Y-92.431
X119.979Y-100.051
X122.707Y-43.967
X122.707Y-46.467
X123.027Y-92.507
X123.027Y-100.127
X124.104Y-50.711
X124.104Y-53.251
X124.104Y-55.791
X124.206Y-78.74
X124.206Y-83.312
X124.739Y-117.693
X124.739Y-120.193
X125.222Y-109.601
X126.075Y-92.431
X126.075Y-100.051
X126.706Y-78.74
X126.706Y-83.312
X126.873Y-89.662
X129.286Y-116.815
X130.81Y-90.424
X130.81Y-98.044
X132.842Y-109.601
X136.906Y-116.815
T4
X55.052Y-58.166
X55.052Y-60.706
X126.761Y-66.015
X126.761Y-68.555
T5
X50.521Y-111.316
X50.8Y-118.91
X50.838Y-102.857
X51.295Y-83.261
X51.568Y-90.805
X51.968Y-76.454
X52.139Y-128.105
X58.021Y-111.316
X58.3Y-118.91
X58.338Y-102.857
X58.795Y-83.261
X59.068Y-90.805
X59.468Y-76.454
X59.639Y-128.105
X62.751Y-128.105
X63.221Y-51.689
X63.221Y-54.229
X66.02Y-100.19
X66.484Y-77.851
X69.025Y-77.851
X70.251Y-128.105
X71.564Y-77.851
X72.974Y-128.283
X73.52Y-100.19
X77.521Y-109.436
X78.627Y-74.291
X78.727Y-64.491
X80.467Y-43.993
X80.474Y-128.283
X81.915Y-94.043
X81.915Y-96.584
X81.915Y-99.123
X81.927Y-74.291
X82.027Y-64.491
X82.861Y-135.509
X83.007Y-43.993
X85.021Y-109.436
X85.547Y-43.993
X85.852Y-93.98
X85.852Y-96.52
X85.852Y-99.06
X90.361Y-135.509
X93.04Y-120.193
X93.04Y-127.693
X94.895Y-60.035
X94.895Y-63.335
X99.282Y-126.848
X104.695Y-60.135
X104.695Y-63.435
X106.782Y-126.848
X108.814Y-44.247
X110.134Y-126.898
X110.363Y-106.045
X111.354Y-44.247
X112.903Y-106.045
X113.894Y-44.247
X115.443Y-106.045
X115.824Y-56.439
X117.634Y-126.898
X118.364Y-56.439
X125.806Y-129.794
X125.806Y-134.794
X136.017Y-104.712
X136.017Y-107.251
X136.017Y-109.791
T6
X91.724Y-92.123
X91.724Y-99.723
X96.804Y-92.123
X96.804Y-99.723
X101.884Y-92.123
X101.884Y-99.723
X109.504Y-92.123
X109.504Y-99.723
X113.322Y-92.24
X113.322Y-99.86
X119.482Y-103.594
X127.102Y-103.594
X129.21Y-120.294
X134.112Y-90.373
X134.112Y-97.993
X136.83Y-120.294
X137.414Y-90.17
X137.414Y-97.79
T7
X62.903Y-70.294
X72.009Y-85.852
X72.072Y-81.661
X75.032Y-43.485
X75.032Y-56.185
X75.603Y-70.294
X79.299Y-48.311
X84.709Y-85.852
X84.772Y-81.661
X91.999Y-48.311
X98.857Y-43.231
X98.857Y-55.931
X104.14Y-110.236
X106.07Y-49.174
X116.84Y-110.236
X118.77Y-49.174
X123.774Y-124.46
X136.474Y-124.46
T8
X42.457Y-122.542
X42.57Y-107.48
X42.697Y-90.576
X42.85Y-76.098
X48.057Y-122.542
X48.17Y-107.48
X48.297Y-90.576
X48.45Y-76.098
X57.861Y-132.817
X57.861Y-138.417
X68.543Y-109.995
X72.085Y-132.817
X72.085Y-138.417
X74.143Y-109.995
X82.867Y-115.05
X82.867Y-120.65
X86.868Y-69.088
X86.868Y-89.408
X98.857Y-131.979
X98.857Y-137.579
X112.268Y-69.088
X112.268Y-89.408
X112.801Y-131.839
X112.801Y-137.439
T9
X62.103Y-104.356
X62.217Y-116.51
X62.814Y-83.376
X63.144Y-91.973
X64.122Y-122.288
X64.16Y-110.261
X67.729Y-88.062
X68.644Y-118.593
X70.409Y-94.323
X72.873Y-122.237
X77.965Y-99.212
X85.496Y-126.124
X90.386Y-105.169
X93.37Y-115.443
X100.927Y-121.082
X105.359Y-116.548
X109.423Y-121.006
T10
X53.34Y-46.228
X58.42Y-46.228
X133.223Y-81.026
X133.223Y-86.106
X133.858Y-51.816
X133.858Y-56.896
T11
X45.Y-45.
X45.Y-135.
X135.Y-45.
X135.Y-135.
T0
M30
