M48
;DRILL file {KiCad 4.0.7} date 02/15/19 00:10:13
;FORMAT={-:-/ absolute / metric / decimal}
FMAT,2
METRIC,TZ
T1C0.400
T2C0.600
T3C0.800
T4C0.900
T5C1.000
T6C1.100
T7C1.200
T8C1.300
T9C1.500
T10C1.520
T11C3.048
%
G90
G05
M71
T1
X138.989Y-77.495
T2
X118.491Y-82.55
X119.761Y-83.82
X119.951Y-108.204
X121.031Y-82.55
X121.221Y-106.934
X122.491Y-108.204
X130.112Y-104.965
X131.381Y-103.695
X131.381Y-106.236
T3
X63.718Y-55.438
X65.024Y-74.231
X65.075Y-60.579
X65.075Y-63.079
X66.218Y-55.438
X66.446Y-42.901
X66.446Y-53.061
X69.263Y-61.803
X69.837Y-42.977
X69.837Y-53.137
X71.73Y-57.709
X71.803Y-61.803
X73.04Y-42.763
X73.04Y-52.923
X74.343Y-61.803
X75.184Y-74.231
X76.73Y-57.709
X79.472Y-47.666
X84.546Y-51.018
X89.546Y-51.018
X89.632Y-47.666
X92.456Y-52.514
X93.487Y-42.944
X93.487Y-47.944
X94.956Y-52.514
X96.622Y-42.803
X96.622Y-47.803
X98.12Y-92.659
X99.974Y-42.202
X99.974Y-52.362
X100.965Y-95.91
X100.965Y-98.41
X103.12Y-92.659
X103.353Y-42.139
X103.353Y-52.299
X103.632Y-59.118
X103.695Y-62.42
X105.893Y-47.93
X106.06Y-51.186
X106.782Y-56.439
X108.632Y-59.118
X108.695Y-62.42
X109.282Y-56.439
X116.053Y-47.93
X116.22Y-51.186
X116.815Y-116.459
X116.815Y-121.459
X116.84Y-91.186
X116.84Y-93.686
X118.364Y-86.868
X118.551Y-47.945
X119.253Y-89.662
X119.979Y-92.431
X119.979Y-100.051
X121.848Y-44.425
X123.027Y-92.507
X123.027Y-100.127
X123.551Y-47.945
X123.662Y-51.689
X123.662Y-54.229
X123.662Y-56.769
X124.206Y-77.978
X124.206Y-82.55
X124.739Y-117.693
X124.739Y-120.193
X125.222Y-109.601
X125.984Y-86.868
X126.075Y-92.431
X126.075Y-100.051
X126.706Y-77.978
X126.706Y-82.55
X126.848Y-44.425
X126.873Y-89.662
X128.245Y-53.421
X128.245Y-55.921
X128.31Y-113.792
X129.286Y-116.815
X129.413Y-43.586
X129.413Y-46.086
X130.302Y-100.584
X130.81Y-90.424
X130.81Y-98.044
X130.81Y-113.792
X132.802Y-100.584
X132.842Y-109.601
X136.906Y-116.815
T4
X52.766Y-58.105
X52.766Y-60.645
X126.761Y-66.015
X126.761Y-68.555
T5
X50.8Y-102.489
X50.965Y-120.091
X51.085Y-128.13
X51.13Y-111.481
X51.473Y-84.506
X51.479Y-92.964
X51.968Y-76.454
X58.3Y-102.489
X58.465Y-120.091
X58.585Y-128.13
X58.63Y-111.481
X58.973Y-84.506
X58.979Y-92.964
X59.468Y-76.454
X62.395Y-128.13
X63.322Y-49.698
X63.322Y-52.238
X64.915Y-99.022
X66.484Y-77.851
X69.025Y-77.851
X69.895Y-128.13
X71.564Y-77.851
X72.415Y-99.022
X73.571Y-128.245
X77.521Y-109.436
X77.779Y-74.347
X77.879Y-64.547
X80.823Y-43.891
X81.071Y-128.245
X81.079Y-74.347
X81.179Y-64.547
X82.861Y-135.509
X83.363Y-43.891
X85.021Y-109.436
X85.903Y-43.891
X90.018Y-94.539
X90.018Y-97.079
X90.018Y-99.619
X90.361Y-135.509
X90.641Y-55.031
X90.641Y-58.331
X92.431Y-120.231
X92.431Y-127.731
X93.828Y-94.539
X93.828Y-97.079
X93.828Y-99.619
X98.164Y-126.822
X100.441Y-55.131
X100.441Y-58.431
X105.664Y-126.822
X110.134Y-126.898
X110.223Y-44.196
X110.363Y-106.045
X112.763Y-44.196
X112.903Y-106.045
X114.91Y-82.398
X115.062Y-86.741
X115.303Y-44.196
X115.443Y-106.045
X117.634Y-126.898
X119.36Y-51.298
X119.36Y-53.838
X125.806Y-129.794
X125.806Y-134.794
X136.017Y-104.712
X136.017Y-107.251
X136.017Y-109.791
T6
X76.302Y-47.295
X76.302Y-54.915
X81.752Y-50.439
X81.752Y-58.059
X88.034Y-82.199
X88.034Y-89.799
X93.114Y-82.199
X93.114Y-89.799
X98.194Y-82.199
X98.194Y-89.799
X105.814Y-82.199
X105.814Y-89.799
X109.469Y-81.956
X109.469Y-89.576
X115.506Y-58.445
X115.506Y-66.065
X118.974Y-58.572
X118.974Y-66.192
X119.482Y-103.594
X127.102Y-103.594
X129.21Y-120.294
X134.112Y-90.373
X134.112Y-97.993
X136.83Y-120.294
X137.414Y-90.17
X137.414Y-97.79
T7
X62.903Y-70.294
X69.952Y-81.712
X69.952Y-85.903
X75.603Y-70.294
X82.652Y-81.712
X82.652Y-85.903
X104.14Y-110.236
X116.84Y-110.236
X123.774Y-124.46
X136.474Y-124.46
T8
X42.457Y-122.542
X42.57Y-107.48
X42.697Y-90.576
X42.85Y-76.098
X48.057Y-122.542
X48.17Y-107.48
X48.297Y-90.576
X48.45Y-76.098
X57.861Y-132.817
X57.861Y-138.417
X68.543Y-109.995
X72.085Y-132.817
X72.085Y-138.417
X74.143Y-109.995
X82.867Y-115.05
X82.867Y-120.65
X87.224Y-58.217
X87.224Y-78.537
X98.857Y-131.979
X98.857Y-137.579
X112.624Y-58.217
X112.624Y-78.537
X112.801Y-131.839
X112.801Y-137.439
T9
X62.217Y-116.51
X62.446Y-103.289
X62.865Y-81.915
X63.144Y-92.291
X63.475Y-122.542
X64.16Y-110.261
X66.777Y-87.681
X68.644Y-118.593
X71.59Y-93.269
X73.012Y-122.428
X82.144Y-91.999
X82.296Y-99.517
X85.496Y-126.124
X91.516Y-105.816
X93.37Y-115.443
X97.384Y-105.969
X99.606Y-121.26
X105.359Y-116.548
X109.753Y-121.234
T10
X53.34Y-46.228
X58.42Y-46.228
X133.223Y-81.026
X133.223Y-86.106
X133.858Y-51.816
X133.858Y-56.896
T11
X45.Y-45.
X45.Y-135.
X135.Y-45.
X135.Y-135.
T0
M30
